<svg id="Layer_1" data-name="Layer 1" xmlns="http://www.w3.org/2000/svg" xmlns:xlink="http://www.w3.org/1999/xlink" viewBox="0 0 214.72 130.44"><defs><style>.cls-1{fill:none;}.cls-2,.cls-31{fill:#fff;}.cls-104,.cls-105,.cls-106,.cls-16,.cls-18,.cls-19,.cls-22,.cls-25,.cls-27,.cls-29,.cls-3,.cls-30,.cls-35,.cls-36,.cls-37,.cls-45,.cls-48,.cls-49,.cls-50,.cls-6,.cls-60,.cls-61,.cls-62,.cls-7,.cls-70,.cls-74,.cls-75,.cls-76,.cls-80,.cls-81,.cls-82,.cls-89,.cls-92,.cls-93,.cls-94{opacity:0.6;}.cls-3{fill:url(#linear-gradient);}.cls-4{fill:url(#linear-gradient-2);}.cls-5{fill:#f3f3f3;}.cls-6{fill:url(#linear-gradient-3);}.cls-7{fill:url(#linear-gradient-4);}.cls-12,.cls-8{opacity:0.05;}.cls-11,.cls-12,.cls-9{fill:#414142;}.cls-10{fill:#6e6f71;}.cls-11,.cls-43{opacity:0.2;}.cls-13{fill:#d3d5d2;}.cls-14{fill:url(#linear-gradient-5);}.cls-15{fill:#0c3b5e;}.cls-16{fill:url(#linear-gradient-6);}.cls-17{fill:url(#linear-gradient-7);}.cls-18{fill:url(#linear-gradient-8);}.cls-19{fill:url(#linear-gradient-9);}.cls-20{fill:url(#linear-gradient-10);}.cls-21{clip-path:url(#clip-path);}.cls-22{fill:url(#linear-gradient-11);}.cls-23{fill:url(#linear-gradient-12);}.cls-24{fill:url(#linear-gradient-13);}.cls-26{fill:url(#linear-gradient-14);}.cls-27{fill:url(#linear-gradient-15);}.cls-28{fill:#e6e7e7;}.cls-29{fill:url(#linear-gradient-16);}.cls-30{fill:url(#linear-gradient-17);}.cls-31{opacity:0.03;}.cls-101,.cls-32,.cls-57,.cls-77{opacity:0.75;}.cls-32{fill:url(#linear-gradient-18);}.cls-33{fill:url(#linear-gradient-19);}.cls-34{fill:url(#linear-gradient-20);}.cls-35{fill:url(#linear-gradient-21);}.cls-36{fill:url(#linear-gradient-22);}.cls-37{fill:url(#linear-gradient-23);}.cls-38{fill:url(#linear-gradient-24);}.cls-39{fill:url(#linear-gradient-25);}.cls-40{fill:url(#linear-gradient-26);}.cls-41{fill:url(#linear-gradient-27);}.cls-42{fill:url(#linear-gradient-28);}.cls-44{fill:url(#linear-gradient-29);}.cls-45{fill:url(#linear-gradient-30);}.cls-46{fill:url(#linear-gradient-31);}.cls-47{fill:url(#linear-gradient-32);}.cls-48{fill:url(#linear-gradient-33);}.cls-49{fill:url(#linear-gradient-34);}.cls-50{fill:url(#linear-gradient-35);}.cls-51{fill:url(#linear-gradient-36);}.cls-52{fill:url(#linear-gradient-37);}.cls-53{fill:url(#linear-gradient-38);}.cls-54{fill:url(#linear-gradient-39);}.cls-55{fill:url(#linear-gradient-40);}.cls-56{fill:url(#linear-gradient-41);}.cls-57{fill:url(#linear-gradient-42);}.cls-58{fill:url(#linear-gradient-43);}.cls-59{fill:url(#linear-gradient-44);}.cls-60{fill:url(#linear-gradient-45);}.cls-61{fill:url(#linear-gradient-46);}.cls-62{fill:url(#linear-gradient-47);}.cls-63{fill:url(#linear-gradient-48);}.cls-64{fill:url(#linear-gradient-49);}.cls-65{fill:url(#linear-gradient-50);}.cls-66{fill:url(#linear-gradient-51);}.cls-67{fill:url(#linear-gradient-52);}.cls-68{fill:url(#linear-gradient-53);}.cls-69{clip-path:url(#clip-path-2);}.cls-70{fill:url(#linear-gradient-54);}.cls-71{fill:url(#linear-gradient-55);}.cls-72{fill:url(#linear-gradient-56);}.cls-73{fill:url(#linear-gradient-57);}.cls-74{fill:url(#linear-gradient-58);}.cls-75{fill:url(#linear-gradient-59);}.cls-76{fill:url(#linear-gradient-60);}.cls-77{fill:url(#linear-gradient-61);}.cls-78{fill:url(#linear-gradient-62);}.cls-79{fill:url(#linear-gradient-63);}.cls-80{fill:url(#linear-gradient-64);}.cls-81{fill:url(#linear-gradient-65);}.cls-82{fill:url(#linear-gradient-66);}.cls-83{fill:url(#linear-gradient-67);}.cls-84{fill:url(#linear-gradient-68);}.cls-85{fill:url(#linear-gradient-69);}.cls-86{fill:url(#linear-gradient-70);}.cls-87{fill:url(#linear-gradient-71);}.cls-88{fill:url(#linear-gradient-72);}.cls-89{fill:url(#linear-gradient-73);}.cls-90{fill:url(#linear-gradient-74);}.cls-91{fill:url(#linear-gradient-75);}.cls-92{fill:url(#linear-gradient-76);}.cls-93{fill:url(#linear-gradient-77);}.cls-94{fill:url(#linear-gradient-78);}.cls-95{fill:url(#linear-gradient-79);}.cls-96{fill:url(#linear-gradient-80);}.cls-97{fill:url(#linear-gradient-81);}.cls-98{fill:url(#linear-gradient-82);}.cls-99{fill:url(#linear-gradient-83);}.cls-100{fill:url(#linear-gradient-84);}.cls-101{fill:url(#linear-gradient-85);}.cls-102{fill:url(#linear-gradient-86);}.cls-103{fill:url(#linear-gradient-87);}.cls-104{fill:url(#linear-gradient-88);}.cls-105{fill:url(#linear-gradient-89);}.cls-106{fill:url(#linear-gradient-90);}.cls-107{fill:url(#linear-gradient-91);}.cls-108{fill:url(#linear-gradient-92);}.cls-109{fill:url(#linear-gradient-93);}.cls-110{fill:url(#linear-gradient-94);}.cls-111{fill:url(#linear-gradient-95);}.cls-112{fill:url(#linear-gradient-96);}</style><linearGradient id="linear-gradient" y1="65.21" x2="41.94" y2="65.21" gradientUnits="userSpaceOnUse"><stop offset="0" stop-color="#d5d9d3"/><stop offset="0.21" stop-color="#e9ebe4"/><stop offset="0.82" stop-color="#e6eae6"/><stop offset="1" stop-color="#d5d9d3"/></linearGradient><linearGradient id="linear-gradient-2" x1="2.28" y1="65.21" x2="38.38" y2="65.21" gradientUnits="userSpaceOnUse"><stop offset="0" stop-color="#e5e9e6"/><stop offset="0.48" stop-color="#f1f4f4"/><stop offset="1" stop-color="#e5e9e6"/></linearGradient><linearGradient id="linear-gradient-3" x1="2.98" y1="65.21" x2="38.52" y2="65.21" xlink:href="#linear-gradient"/><linearGradient id="linear-gradient-4" x1="4.7" y1="65.21" x2="35.04" y2="65.21" xlink:href="#linear-gradient"/><linearGradient id="linear-gradient-5" x1="1484.08" y1="-1504.29" x2="1594.72" y2="-1504.29" gradientTransform="translate(1542.6 1604.61) rotate(-90)" gradientUnits="userSpaceOnUse"><stop offset="0" stop-color="#d5d9d3"/><stop offset="0.51" stop-color="#d0d4d1"/><stop offset="1" stop-color="#d5d9d3"/></linearGradient><linearGradient id="linear-gradient-6" x1="172.78" y1="65.21" x2="214.72" y2="65.21" xlink:href="#linear-gradient"/><linearGradient id="linear-gradient-7" x1="176.34" y1="65.21" x2="212.44" y2="65.21" xlink:href="#linear-gradient-2"/><linearGradient id="linear-gradient-8" x1="176.2" y1="65.21" x2="211.74" y2="65.21" xlink:href="#linear-gradient"/><linearGradient id="linear-gradient-9" x1="179.68" y1="65.21" x2="210.02" y2="65.21" xlink:href="#linear-gradient"/><linearGradient id="linear-gradient-10" x1="1484.08" y1="5715.7" x2="1594.72" y2="5715.7" gradientTransform="matrix(0, -1, -1, 0, 5892.11, 1604.61)" xlink:href="#linear-gradient-5"/><clipPath id="clip-path"><polygon class="cls-1" points="107.36 130.44 172.78 126.37 172.78 4.07 107.36 0 107.36 130.44"/></clipPath><linearGradient id="linear-gradient-11" x1="-7.79" y1="65.72" x2="110.13" y2="65.72" xlink:href="#linear-gradient"/><linearGradient id="linear-gradient-12" x1="-3.65" y1="65.72" x2="38.84" y2="65.72" xlink:href="#linear-gradient-2"/><linearGradient id="linear-gradient-13" x1="52.15" y1="65.72" x2="104.92" y2="65.72" xlink:href="#linear-gradient-2"/><linearGradient id="linear-gradient-14" x1="52.15" y1="65.72" x2="104.92" y2="65.72" xlink:href="#linear-gradient"/><linearGradient id="linear-gradient-15" x1="84.5" y1="65.72" x2="101.25" y2="65.72" xlink:href="#linear-gradient"/><linearGradient id="linear-gradient-16" x1="-0.73" y1="65.72" x2="38.84" y2="65.72" xlink:href="#linear-gradient"/><linearGradient id="linear-gradient-17" x1="2.27" y1="65.7" x2="38.84" y2="65.7" xlink:href="#linear-gradient"/><linearGradient id="linear-gradient-18" x1="104.87" y1="65.71" x2="255.24" y2="65.71" xlink:href="#linear-gradient"/><linearGradient id="linear-gradient-19" x1="110.07" y1="65.7" x2="248.51" y2="65.7" xlink:href="#linear-gradient-2"/><linearGradient id="linear-gradient-20" x1="110.07" y1="65.71" x2="182.21" y2="65.71" xlink:href="#linear-gradient"/><linearGradient id="linear-gradient-21" x1="113.81" y1="65.71" x2="177.97" y2="65.71" xlink:href="#linear-gradient"/><linearGradient id="linear-gradient-22" x1="1601.28" y1="-4984.67" x2="1733.48" y2="-4984.67" gradientTransform="translate(5197.69 1733.09) rotate(-90)" xlink:href="#linear-gradient"/><linearGradient id="linear-gradient-23" x1="1605.72" y1="-4986.51" x2="1729.05" y2="-4986.51" gradientTransform="translate(5197.69 1733.09) rotate(-90)" xlink:href="#linear-gradient"/><linearGradient id="linear-gradient-24" x1="-396.82" y1="4900.7" x2="-268.27" y2="4900.7" gradientTransform="translate(5083.36 398.25) rotate(90)" xlink:href="#linear-gradient-5"/><linearGradient id="linear-gradient-25" x1="-334.63" y1="-2463.17" x2="-329.32" y2="-2463.17" gradientTransform="matrix(0, 1, 1.98, 0, 5063.01, 398.25)" gradientUnits="userSpaceOnUse"><stop offset="0" stop-color="#d5d9d3"/><stop offset="0.52" stop-color="#e9ebe4"/><stop offset="1" stop-color="#d5d9d3"/></linearGradient><linearGradient id="linear-gradient-26" x1="-335.84" y1="4900.19" x2="-328.11" y2="4900.19" gradientTransform="translate(5083.36 398.25) rotate(90)" xlink:href="#linear-gradient-25"/><linearGradient id="linear-gradient-27" x1="-334.86" y1="4899.11" x2="-329.09" y2="4899.11" gradientTransform="translate(5083.36 398.25) rotate(90)" xlink:href="#linear-gradient"/><linearGradient id="linear-gradient-28" x1="1671.29" y1="-4883.7" x2="1676.51" y2="-4883.7" gradientTransform="matrix(0, -1.14, 1, 0, 5068.68, 1978.68)" xlink:href="#linear-gradient"/><linearGradient id="linear-gradient-29" x1="-334.63" y1="11120.89" x2="-329.32" y2="11120.89" gradientTransform="matrix(0, 1, -0.44, 0, 5085.62, 398.25)" xlink:href="#linear-gradient"/><linearGradient id="linear-gradient-30" x1="105.01" y1="65.72" x2="222.93" y2="65.72" xlink:href="#linear-gradient"/><linearGradient id="linear-gradient-31" x1="110.21" y1="65.72" x2="218.79" y2="65.72" xlink:href="#linear-gradient-2"/><linearGradient id="linear-gradient-32" x1="110.21" y1="65.72" x2="173.05" y2="65.72" xlink:href="#linear-gradient"/><linearGradient id="linear-gradient-33" x1="113.89" y1="65.72" x2="169.78" y2="65.72" xlink:href="#linear-gradient"/><linearGradient id="linear-gradient-34" x1="-258.91" y1="-4399.41" x2="-149.21" y2="-4399.41" gradientTransform="matrix(0, 1, 1, 0, 4593.86, 269.78)" xlink:href="#linear-gradient"/><linearGradient id="linear-gradient-35" x1="-255.39" y1="-4400.5" x2="-152.73" y2="-4400.5" gradientTransform="matrix(0, 1, 1, 0, 4593.86, 269.78)" xlink:href="#linear-gradient"/><linearGradient id="linear-gradient-36" x1="1482.63" y1="4306.13" x2="1595.16" y2="4306.13" gradientTransform="matrix(0, -1, -1, 0, 4479.53, 1604.61)" xlink:href="#linear-gradient-5"/><linearGradient id="linear-gradient-37" x1="1537.08" y1="-2163.24" x2="1541.71" y2="-2163.24" gradientTransform="translate(4459.18 1604.61) rotate(-90) scale(1 1.98)" xlink:href="#linear-gradient-25"/><linearGradient id="linear-gradient-38" x1="1536.02" y1="4305.75" x2="1542.77" y2="4305.75" gradientTransform="matrix(0, -1, -1, 0, 4479.53, 1604.61)" xlink:href="#linear-gradient-25"/><linearGradient id="linear-gradient-39" x1="1536.88" y1="4304.92" x2="1541.91" y2="4304.92" gradientTransform="matrix(0, -1, -1, 0, 4479.53, 1604.61)" xlink:href="#linear-gradient"/><linearGradient id="linear-gradient-40" x1="35.13" y1="-4289.69" x2="39.68" y2="-4289.69" gradientTransform="matrix(0, 1.14, 1, 0, 4464.85, 24.18)" xlink:href="#linear-gradient"/><linearGradient id="linear-gradient-41" x1="1537.08" y1="9773.18" x2="1541.71" y2="9773.18" gradientTransform="matrix(0, -1, -0.44, 0, 4481.79, 1604.61)" xlink:href="#linear-gradient"/><linearGradient id="linear-gradient-42" x1="-40.1" y1="65.71" x2="110.27" y2="65.71" xlink:href="#linear-gradient"/><linearGradient id="linear-gradient-43" x1="-33.37" y1="65.7" x2="105.07" y2="65.7" xlink:href="#linear-gradient-2"/><linearGradient id="linear-gradient-44" x1="32.93" y1="65.71" x2="105.07" y2="65.71" xlink:href="#linear-gradient"/><linearGradient id="linear-gradient-45" x1="37.17" y1="65.71" x2="101.33" y2="65.71" xlink:href="#linear-gradient"/><linearGradient id="linear-gradient-46" x1="1601.28" y1="822.32" x2="1733.48" y2="822.32" gradientTransform="matrix(0, -1, -1, 0, 824.44, 1733.09)" xlink:href="#linear-gradient"/><linearGradient id="linear-gradient-47" x1="1605.72" y1="820.49" x2="1729.05" y2="820.49" gradientTransform="matrix(0, -1, -1, 0, 824.44, 1733.09)" xlink:href="#linear-gradient"/><linearGradient id="linear-gradient-48" x1="-396.82" y1="-906.29" x2="-268.27" y2="-906.29" gradientTransform="matrix(0, 1, 1, 0, 938.77, 398.25)" xlink:href="#linear-gradient-5"/><linearGradient id="linear-gradient-49" x1="-334.63" y1="469.24" x2="-329.32" y2="469.24" gradientTransform="matrix(0, 1, -1.98, 0, 959.12, 398.25)" xlink:href="#linear-gradient-25"/><linearGradient id="linear-gradient-50" x1="-335.84" y1="-906.8" x2="-328.11" y2="-906.8" gradientTransform="matrix(0, 1, 1, 0, 938.77, 398.25)" xlink:href="#linear-gradient-25"/><linearGradient id="linear-gradient-51" x1="-334.86" y1="-907.89" x2="-329.09" y2="-907.89" gradientTransform="matrix(0, 1, 1, 0, 938.77, 398.25)" xlink:href="#linear-gradient"/><linearGradient id="linear-gradient-52" x1="1671.29" y1="923.29" x2="1676.51" y2="923.29" gradientTransform="matrix(0, -1.14, -1, 0, 953.45, 1978.68)" xlink:href="#linear-gradient"/><linearGradient id="linear-gradient-53" x1="-334.63" y1="-2059.31" x2="-329.32" y2="-2059.31" gradientTransform="matrix(0, 1, 0.44, 0, 936.51, 398.25)" xlink:href="#linear-gradient"/><clipPath id="clip-path-2"><polygon class="cls-1" points="107.36 130.44 41.94 126.37 41.94 4.07 107.36 0 107.36 130.44"/></clipPath><linearGradient id="linear-gradient-54" x1="1629.98" y1="65.72" x2="1747.89" y2="65.72" gradientTransform="matrix(-1, 0, 0, 1, 1852.49, 0)" xlink:href="#linear-gradient"/><linearGradient id="linear-gradient-55" x1="1634.12" y1="65.72" x2="1676.6" y2="65.72" gradientTransform="matrix(-1, 0, 0, 1, 1852.49, 0)" xlink:href="#linear-gradient-2"/><linearGradient id="linear-gradient-56" x1="1689.92" y1="65.72" x2="1742.69" y2="65.72" gradientTransform="matrix(-1, 0, 0, 1, 1852.49, 0)" xlink:href="#linear-gradient-2"/><linearGradient id="linear-gradient-57" x1="1689.92" y1="65.72" x2="1742.69" y2="65.72" gradientTransform="matrix(-1, 0, 0, 1, 1852.49, 0)" xlink:href="#linear-gradient"/><linearGradient id="linear-gradient-58" x1="1722.27" y1="65.72" x2="1739.02" y2="65.72" gradientTransform="matrix(-1, 0, 0, 1, 1852.49, 0)" xlink:href="#linear-gradient"/><linearGradient id="linear-gradient-59" x1="1637.04" y1="65.72" x2="1676.6" y2="65.72" gradientTransform="matrix(-1, 0, 0, 1, 1852.49, 0)" xlink:href="#linear-gradient"/><linearGradient id="linear-gradient-60" x1="1640.03" y1="65.7" x2="1676.6" y2="65.7" gradientTransform="matrix(-1, 0, 0, 1, 1852.49, 0)" xlink:href="#linear-gradient"/><linearGradient id="linear-gradient-61" x1="1742.64" y1="65.71" x2="1893" y2="65.71" gradientTransform="matrix(-1, 0, 0, 1, 1852.49, 0)" xlink:href="#linear-gradient"/><linearGradient id="linear-gradient-62" x1="1747.84" y1="65.7" x2="1886.27" y2="65.7" gradientTransform="matrix(-1, 0, 0, 1, 1852.49, 0)" xlink:href="#linear-gradient-2"/><linearGradient id="linear-gradient-63" x1="1747.84" y1="65.71" x2="1819.98" y2="65.71" gradientTransform="matrix(-1, 0, 0, 1, 1852.49, 0)" xlink:href="#linear-gradient"/><linearGradient id="linear-gradient-64" x1="1751.58" y1="65.71" x2="1815.74" y2="65.71" gradientTransform="matrix(-1, 0, 0, 1, 1852.49, 0)" xlink:href="#linear-gradient"/><linearGradient id="linear-gradient-65" x1="1601.28" y1="-3346.91" x2="1733.48" y2="-3346.91" gradientTransform="matrix(0, -1, -1, 0, -3345.2, 1733.09)" xlink:href="#linear-gradient"/><linearGradient id="linear-gradient-66" x1="1605.72" y1="-3348.74" x2="1729.05" y2="-3348.74" gradientTransform="matrix(0, -1, -1, 0, -3345.2, 1733.09)" xlink:href="#linear-gradient"/><linearGradient id="linear-gradient-67" x1="-396.82" y1="3262.93" x2="-268.27" y2="3262.93" gradientTransform="matrix(0, 1, 1, 0, -3230.87, 398.25)" xlink:href="#linear-gradient-5"/><linearGradient id="linear-gradient-68" x1="-334.63" y1="-1636.13" x2="-329.32" y2="-1636.13" gradientTransform="matrix(0, 1, -1.98, 0, -3210.52, 398.25)" xlink:href="#linear-gradient-25"/><linearGradient id="linear-gradient-69" x1="-335.84" y1="3262.42" x2="-328.11" y2="3262.42" gradientTransform="matrix(0, 1, 1, 0, -3230.87, 398.25)" xlink:href="#linear-gradient-25"/><linearGradient id="linear-gradient-70" x1="-334.86" y1="3261.34" x2="-329.09" y2="3261.34" gradientTransform="matrix(0, 1, 1, 0, -3230.87, 398.25)" xlink:href="#linear-gradient"/><linearGradient id="linear-gradient-71" x1="1671.29" y1="-3245.94" x2="1676.51" y2="-3245.94" gradientTransform="matrix(0, -1.14, -1, 0, -3216.19, 1978.68)" xlink:href="#linear-gradient"/><linearGradient id="linear-gradient-72" x1="-334.63" y1="7403.63" x2="-329.32" y2="7403.63" gradientTransform="matrix(0, 1, 0.44, 0, -3233.13, 398.25)" xlink:href="#linear-gradient"/><linearGradient id="linear-gradient-73" x1="1742.78" y1="65.72" x2="1860.7" y2="65.72" gradientTransform="matrix(-1, 0, 0, 1, 1852.49, 0)" xlink:href="#linear-gradient"/><linearGradient id="linear-gradient-74" x1="1747.98" y1="65.72" x2="1856.56" y2="65.72" gradientTransform="matrix(-1, 0, 0, 1, 1852.49, 0)" xlink:href="#linear-gradient-2"/><linearGradient id="linear-gradient-75" x1="1747.98" y1="65.72" x2="1810.82" y2="65.72" gradientTransform="matrix(-1, 0, 0, 1, 1852.49, 0)" xlink:href="#linear-gradient"/><linearGradient id="linear-gradient-76" x1="1751.66" y1="65.72" x2="1807.55" y2="65.72" gradientTransform="matrix(-1, 0, 0, 1, 1852.49, 0)" xlink:href="#linear-gradient"/><linearGradient id="linear-gradient-77" x1="-258.91" y1="-2761.64" x2="-149.21" y2="-2761.64" gradientTransform="translate(-2741.37 269.78) rotate(90)" xlink:href="#linear-gradient"/><linearGradient id="linear-gradient-78" x1="-255.39" y1="-2762.73" x2="-152.73" y2="-2762.73" gradientTransform="translate(-2741.37 269.78) rotate(90)" xlink:href="#linear-gradient"/><linearGradient id="linear-gradient-79" x1="1482.63" y1="2668.37" x2="1595.16" y2="2668.37" gradientTransform="translate(-2627.04 1604.61) rotate(-90)" xlink:href="#linear-gradient-5"/><linearGradient id="linear-gradient-80" x1="1537.08" y1="-1336.2" x2="1541.71" y2="-1336.2" gradientTransform="matrix(0, -1, -1.98, 0, -2606.69, 1604.61)" xlink:href="#linear-gradient-25"/><linearGradient id="linear-gradient-81" x1="1536.02" y1="2667.98" x2="1542.77" y2="2667.98" gradientTransform="translate(-2627.04 1604.61) rotate(-90)" xlink:href="#linear-gradient-25"/><linearGradient id="linear-gradient-82" x1="1536.88" y1="2667.15" x2="1541.91" y2="2667.15" gradientTransform="translate(-2627.04 1604.61) rotate(-90)" xlink:href="#linear-gradient"/><linearGradient id="linear-gradient-83" x1="35.13" y1="-2651.92" x2="39.68" y2="-2651.92" gradientTransform="matrix(0, 1.14, -1, 0, -2612.36, 24.18)" xlink:href="#linear-gradient"/><linearGradient id="linear-gradient-84" x1="1537.08" y1="6055.91" x2="1541.71" y2="6055.91" gradientTransform="matrix(0, -1, 0.44, 0, -2629.3, 1604.61)" xlink:href="#linear-gradient"/><linearGradient id="linear-gradient-85" x1="1597.67" y1="65.71" x2="1748.04" y2="65.71" gradientTransform="matrix(-1, 0, 0, 1, 1852.49, 0)" xlink:href="#linear-gradient"/><linearGradient id="linear-gradient-86" x1="1604.4" y1="65.7" x2="1742.83" y2="65.7" gradientTransform="matrix(-1, 0, 0, 1, 1852.49, 0)" xlink:href="#linear-gradient-2"/><linearGradient id="linear-gradient-87" x1="1670.7" y1="65.71" x2="1742.83" y2="65.71" gradientTransform="matrix(-1, 0, 0, 1, 1852.49, 0)" xlink:href="#linear-gradient"/><linearGradient id="linear-gradient-88" x1="1674.93" y1="65.71" x2="1739.09" y2="65.71" gradientTransform="matrix(-1, 0, 0, 1, 1852.49, 0)" xlink:href="#linear-gradient"/><linearGradient id="linear-gradient-89" x1="1601.28" y1="-815.45" x2="1733.48" y2="-815.45" gradientTransform="translate(1028.05 1733.09) rotate(-90)" xlink:href="#linear-gradient"/><linearGradient id="linear-gradient-90" x1="1605.72" y1="-817.28" x2="1729.05" y2="-817.28" gradientTransform="translate(1028.05 1733.09) rotate(-90)" xlink:href="#linear-gradient"/><linearGradient id="linear-gradient-91" x1="-396.82" y1="731.47" x2="-268.27" y2="731.47" gradientTransform="translate(913.72 398.25) rotate(90)" xlink:href="#linear-gradient-5"/><linearGradient id="linear-gradient-92" x1="-334.63" y1="-357.8" x2="-329.32" y2="-357.8" gradientTransform="matrix(0, 1, 1.98, 0, 893.37, 398.25)" xlink:href="#linear-gradient-25"/><linearGradient id="linear-gradient-93" x1="-335.84" y1="730.97" x2="-328.11" y2="730.97" gradientTransform="translate(913.72 398.25) rotate(90)" xlink:href="#linear-gradient-25"/><linearGradient id="linear-gradient-94" x1="-334.86" y1="729.88" x2="-329.09" y2="729.88" gradientTransform="translate(913.72 398.25) rotate(90)" xlink:href="#linear-gradient"/><linearGradient id="linear-gradient-95" x1="1671.29" y1="-714.48" x2="1676.51" y2="-714.48" gradientTransform="matrix(0, -1.14, 1, 0, 899.04, 1978.68)" xlink:href="#linear-gradient"/><linearGradient id="linear-gradient-96" x1="-334.63" y1="1657.95" x2="-329.32" y2="1657.95" gradientTransform="matrix(0, 1, -0.44, 0, 915.98, 398.25)" xlink:href="#linear-gradient"/></defs><path class="cls-2" d="M41.94,4.07l-.11,0L.07,16.68,0,16.7H0v97H0l.06,0h0l41.78,12.58.1,0h0V4.07ZM34.56,114,5.05,106.66V23.76L34.56,16.4Z"/><path class="cls-3" d="M41.94,4.07l-.11,0L.07,16.68,0,16.7H0v97H0l.06,0h0l41.78,12.58.1,0h0V4.07ZM34.56,114,5.05,106.66V23.76L34.56,16.4Z"/><path class="cls-4" d="M2.29,19.94h0v90.55h0l36.09,10V9.93ZM34.56,114,5.05,106.66V23.76L34.56,16.4Z"/><path class="cls-5" d="M38.43,9.92h0l-36.09,10h0v90.55h0l36.09,10,0,0h0l.08,0V9.89ZM34.56,114,5.05,106.66V23.76L34.56,16.4Z"/><path class="cls-5" d="M38.38,11.32l-.23.06h0L3.57,20.72,3,20.88v88.67l.54.14L38.09,119l.29.08.14,0V11.28ZM5.05,23.76,34.56,16.4V114L5.05,106.66Z"/><path class="cls-6" d="M38.38,11.32l-.23.06h0L3.57,20.72,3,20.88v88.67l.54.14L38.09,119l.29.08.14,0V11.28ZM5.05,23.76,34.56,16.4V114L5.05,106.66Z"/><path class="cls-5" d="M4.35,22.76v84.91l31.18,8V14.76ZM34.56,114,5.05,106.66V23.76L34.56,16.4Z"/><path class="cls-5" d="M4.35,22.76v84.91l31.18,8V14.76ZM34.56,114,5.05,106.66V23.76L34.56,16.4Z"/><path class="cls-5" d="M4.72,23.25v83.92L35,114.84V15.59Zm.33,83.41V23.76L34.56,16.4V114Z"/><path class="cls-7" d="M35,15.59,4.72,23.26h0v83.91h0L35,114.84h0V15.58Zm-30,91.07V23.76L34.56,16.4V114Z"/><g class="cls-8"><path class="cls-9" d="M2.3,110.44l0-90.5L38.4,10l.07-.09V120.47ZM5,23.71l0,82.95,29.55,7.41.06-97.73Z"/><path class="cls-10" d="M38.42,10V120.4h0l-36-10V20l36-10h0M34.66,114.15V16.27l-.13,0L5,23.67H5v83.06l.07,0,29.51,7.36.13,0M38.52,9.89l-.09,0h0l-36.09,10h0v90.55h0l36.09,10,0,0h0l.08,0V9.89ZM34.56,114,5.05,106.66V23.76L34.56,16.4V114Z"/></g><polygon class="cls-11" points="2.28 110.49 2.28 109.31 38.09 119.03 38.52 120.53 2.28 110.49"/><polygon class="cls-12" points="2.28 21.12 2.28 19.94 38.52 9.89 38.15 11.38 2.28 21.12"/><polygon class="cls-13" points="2.29 19.94 3.57 20.71 3.57 109.66 2.29 110.49 2.29 19.94"/><polygon class="cls-2" points="2.28 110.48 2.28 110.49 2.28 110.6 0.06 113.75 0 113.73 0 113.61 2.21 110.47 2.28 110.48"/><polygon class="cls-11" points="2.28 110.49 0 113.73 0 113.61 2.21 110.46 2.28 110.49"/><polygon class="cls-2" points="2.28 19.93 2.28 19.94 2.21 19.96 0 16.8 0 16.7 0.07 16.68 2.28 19.82 2.28 19.93"/><polygon class="cls-11" points="2.28 19.93 0 16.7 0.07 16.68 2.28 19.82 2.28 19.93"/><polygon class="cls-2" points="38.44 120.5 38.43 120.51 38.43 120.64 41.84 126.33 41.94 126.36 41.94 126.22 38.53 120.53 38.44 120.5"/><polygon class="cls-11" points="38.44 120.51 41.94 126.36 41.94 126.22 38.53 120.53 38.44 120.51"/><polygon class="cls-2" points="38.43 9.91 38.44 9.92 38.53 9.89 41.94 4.2 41.94 4.07 41.84 4.1 38.43 9.78 38.43 9.91"/><polygon class="cls-11" points="38.43 9.92 41.94 4.07 41.84 4.1 38.43 9.78 38.43 9.92"/><polygon class="cls-14" points="38.09 119.03 38.15 11.38 38.52 9.89 38.52 120.53 38.09 119.03"/><polygon class="cls-15" points="34.62 16.39 34.62 114.04 34.56 114.03 34.56 16.4 34.62 16.39"/><g class="cls-8"><path class="cls-9" d="M2.3,110.44l0-90.5L38.4,10l.07-.09V120.47ZM5,23.71l0,82.95,29.55,7.41.06-97.73Z"/><path class="cls-10" d="M38.42,10V120.4h0l-36-10V20l36-10h0M34.66,114.15V16.27l-.13,0L5,23.67H5v83.06l.07,0,29.51,7.36.13,0M38.52,9.89l-.09,0h0l-36.09,10h0v90.55h0l36.09,10,0,0h0l.08,0V9.89ZM34.56,114,5.05,106.66V23.76L34.56,16.4V114Z"/></g><path class="cls-2" d="M214.72,16.7l-.07,0L172.89,4.1l-.11,0h0V126.36h0l.1,0,41.78-12.58.06,0h0v-97Zm-34.56-.3,29.51,7.36v82.9L180.16,114Z"/><path class="cls-16" d="M214.72,16.7l-.07,0L172.89,4.1l-.11,0h0V126.36h0l.1,0,41.78-12.58.06,0h0v-97Zm-34.56-.3,29.51,7.36v82.9L180.16,114Z"/><path class="cls-17" d="M212.43,19.94l-36.09-10V120.49l36.09-10h0V19.94ZM180.16,16.4l29.51,7.36v82.9L180.16,114Z"/><path class="cls-5" d="M212.43,19.94l-36.09-10h-.05l-.09,0V120.53l.08,0h0l.05,0,36.09-10h0V19.94ZM180.16,16.4l29.51,7.36v82.9L180.16,114Z"/><path class="cls-5" d="M211.15,20.72l-34.58-9.34h0l-.23-.06-.14,0V119.15l.14,0,.29-.08,34.57-9.34.54-.14V20.88Zm-31-4.32,29.51,7.36v82.9L180.16,114Z"/><path class="cls-18" d="M211.15,20.72l-34.58-9.34h0l-.23-.06-.14,0V119.15l.14,0,.29-.08,34.57-9.34.54-.14V20.88Zm-31-4.32,29.51,7.36v82.9L180.16,114Z"/><path class="cls-5" d="M179.19,14.76V115.67l31.18-8V22.76Zm30.48,91.9L180.16,114V16.4l29.51,7.36Z"/><path class="cls-5" d="M179.19,14.76V115.67l31.18-8V22.76Zm30.48,91.9L180.16,114V16.4l29.51,7.36Z"/><path class="cls-5" d="M179.7,15.59v99.25l30.3-7.67V23.25Zm30,91.07L180.16,114V16.4l29.51,7.36Z"/><path class="cls-19" d="M210,23.26l-30.3-7.67h0v99.27h0l30.3-7.67h0V23.26Zm-.33,83.4L180.16,114V16.4l29.51,7.36Z"/><g class="cls-8"><path class="cls-9" d="M176.25,9.89l.07.09,36.1,10,0,90.5-36.07,10-.07.08ZM180.11,114l29.57-7.32,0-82.95-29.61-7.42Z"/><path class="cls-10" d="M176.3,10h0l36,10v90.39l-36,10h0V10m3.76,104.12.13,0,29.51-7.36.07,0V23.68h-.07L180.19,16.3l-.13,0v97.88M176.2,9.89V120.53l.08,0h0l.05,0,36.09-10h0V19.94h0l-36.09-10h-.05l-.09,0Zm4,104.14V16.4l29.51,7.36v82.9L180.16,114Z"/></g><polygon class="cls-11" points="212.44 110.49 212.44 109.31 176.63 119.03 176.2 120.53 212.44 110.49"/><polygon class="cls-12" points="212.44 21.12 212.44 19.94 176.2 9.89 176.57 11.38 212.44 21.12"/><polygon class="cls-13" points="212.43 19.94 211.15 20.71 211.15 109.66 212.43 110.49 212.43 19.94"/><polygon class="cls-2" points="212.44 110.48 212.44 110.49 212.44 110.6 214.66 113.75 214.72 113.73 214.72 113.61 212.51 110.47 212.44 110.48"/><polygon class="cls-11" points="212.44 110.49 214.72 113.73 214.72 113.61 212.51 110.46 212.44 110.49"/><polygon class="cls-2" points="212.44 19.93 212.44 19.94 212.51 19.96 214.72 16.8 214.72 16.7 214.65 16.68 212.44 19.82 212.44 19.93"/><polygon class="cls-11" points="212.44 19.93 214.72 16.7 214.65 16.68 212.44 19.82 212.44 19.93"/><polygon class="cls-2" points="176.28 120.5 176.29 120.51 176.29 120.64 172.88 126.33 172.78 126.36 172.78 126.22 176.19 120.53 176.28 120.5"/><polygon class="cls-11" points="176.28 120.51 172.78 126.36 172.78 126.22 176.19 120.53 176.28 120.51"/><polygon class="cls-2" points="176.29 9.91 176.28 9.92 176.19 9.89 172.78 4.2 172.78 4.07 172.88 4.1 176.29 9.78 176.29 9.91"/><polygon class="cls-11" points="176.29 9.92 172.78 4.07 172.88 4.1 176.29 9.78 176.29 9.92"/><polygon class="cls-20" points="176.63 119.03 176.57 11.38 176.2 9.89 176.2 120.53 176.63 119.03"/><polygon class="cls-15" points="180.16 16.4 180.16 114.03 180.1 114.04 180.1 16.39 180.16 16.4"/><g class="cls-8"><path class="cls-9" d="M176.25,9.89l.07.09,36.1,10,0,90.5-36.07,10-.07.08ZM180.11,114l29.57-7.32,0-82.95-29.61-7.42Z"/><path class="cls-10" d="M176.3,10h0l36,10v90.39l-36,10h0V10m3.76,104.12.13,0,29.51-7.36.07,0V23.68h-.07L180.19,16.3l-.13,0v97.88M176.2,9.89V120.53l.08,0h0l.05,0,36.09-10h0V19.94h0l-36.09-10h-.05l-.09,0Zm4,104.14V16.4l29.51,7.36v82.9L180.16,114Z"/></g><g class="cls-21"><path class="cls-2" d="M110.12.35H110L107.69.5h-.12l-2.14.13h-.56L64.07,3.21h0L42.15,4.57l-4.34.27-1.52.1-3.36.21L32,5.2l-8.13.51h0l-7.28.45h0L9.2,6.62h0l-16.87,1h-.12V123.76h.11L9,124.8H9l7.39.46h0l7.29.45h0l8.35.51.91.06,3.36.21,1.31.08,4.55.28,21.68,1.35h0L105,130.77h.41l2,.12h.15l2.39.15h.15V.35ZM38.05,8.1l4.1.23,10,.55h0l25.44,1.4,6.91.38,7,.38h0l6.72.37h0l1.23.07V119.36l-.41,0,.41.75,0,0v0l-6.06.31-7.24.37-7.16.37-26.28,1.35h0l-10.6.55-4.1.21V15.28l.79,0v-.72l-.79,0Z"/><path class="cls-22" d="M110.12.35H110L107.69.5h-.12l-2.14.13h-.56L64.07,3.21h0L42.15,4.57l-4.34.27-1.52.1-3.36.21L32,5.2l-8.13.51h0l-7.28.45h0L9.2,6.62h0l-16.87,1h-.12V123.76h.11L9,124.8H9l7.39.46h0l7.29.45h0l8.35.51.91.06,3.36.21,1.31.08,4.55.28,21.68,1.35h0L105,130.77h.41l2,.12h.15l2.39.15h.15V.35ZM38.05,8.1l4.1.23,10,.55h0l25.44,1.4,6.91.38,7,.38h0l6.72.37h0l1.23.07V119.36l-.41,0,.41.75,0,0v0l-6.06.31-7.24.37-7.16.37-26.28,1.35h0l-10.6.55-4.1.21V15.28l.79,0v-.72l-.79,0Z"/><polygon class="cls-23" points="38.84 14.51 38.84 15.23 38.05 15.28 38.05 121.75 37.17 121.7 36.29 121.65 32.93 121.46 32.76 121.45 32.02 121.41 31.88 121.4 31.01 121.35 30.99 121.35 29.93 121.29 29.55 121.27 28.66 121.21 -3.64 119.37 -3.65 119.37 -3.65 12.07 -3.64 12.07 28.66 10.22 29.55 10.17 30.99 10.09 31 10.09 31.01 10.09 31.88 10.04 32.02 10.03 32.76 9.99 32.93 9.98 36.29 9.79 37.17 9.74 38.05 9.69 38.05 14.55 38.84 14.51"/><polygon class="cls-24" points="104.92 5.86 104.92 125.58 104.92 125.58 104.87 125.57 81.13 124.22 81.13 124.22 73.99 123.81 73.98 123.81 66.74 123.39 66.73 123.39 59.81 123 59.79 123 52.75 122.59 52.76 122.59 79.04 121.24 86.2 120.87 93.44 120.5 99.5 120.19 99.5 120.14 99.47 120.09 99.06 119.34 99.47 119.36 99.47 11.48 98.24 11.41 98.23 11.41 91.51 11.04 91.51 11.04 84.5 10.66 77.59 10.28 52.15 8.88 53 8.83 53.01 8.83 60.02 8.43 60.03 8.43 66.96 8.03 66.97 8.03 74.21 7.62 74.21 7.62 81.36 7.21 104.87 5.87 104.92 5.86"/><polygon class="cls-5" points="38.84 14.51 38.84 15.23 38.05 15.28 38.05 121.75 37.17 121.7 36.29 121.65 32.93 121.46 32.76 121.45 32.02 121.41 31.88 121.4 31.01 121.35 30.99 121.35 29.93 121.29 29.55 121.27 28.66 121.21 -3.64 119.37 -3.65 119.37 -3.65 12.07 -3.64 12.07 28.66 10.22 29.55 10.17 30.99 10.09 31.01 10.09 31.88 10.04 32.02 10.03 32.76 9.99 32.93 9.98 36.29 9.79 37.17 9.74 38.05 9.69 38.05 14.55 38.84 14.51"/><polygon class="cls-5" points="104.92 5.86 104.92 125.58 104.92 125.58 104.87 125.57 81.13 124.22 81.13 124.22 73.99 123.81 73.98 123.81 66.74 123.39 66.73 123.39 59.81 123 59.79 123 52.76 122.59 79.04 121.24 86.2 120.87 93.44 120.5 99.5 120.19 99.5 120.14 99.47 120.09 99.06 119.34 99.47 119.36 99.47 11.48 98.24 11.41 98.23 11.41 91.51 11.04 91.51 11.04 84.5 10.66 77.59 10.28 52.15 8.88 53 8.83 53.01 8.83 60.02 8.43 60.03 8.43 66.96 8.03 66.97 8.03 74.21 7.62 74.21 7.62 81.36 7.21 104.87 5.87 104.92 5.86"/><g class="cls-25"><polygon class="cls-26" points="104.92 5.86 104.92 125.58 104.92 125.58 104.87 125.57 81.13 124.22 81.13 124.22 73.99 123.81 73.98 123.81 66.74 123.39 66.73 123.39 59.81 123 59.79 123 52.76 122.59 79.04 121.24 86.2 120.87 93.44 120.5 99.5 120.19 99.5 120.14 99.47 120.09 99.06 119.34 99.47 119.36 99.47 11.48 98.24 11.41 98.23 11.41 91.51 11.04 91.51 11.04 84.5 10.66 77.59 10.28 52.15 8.88 53 8.83 53.01 8.83 60.02 8.43 60.03 8.43 66.96 8.03 66.97 8.03 74.21 7.62 74.21 7.62 81.36 7.21 104.87 5.87 104.92 5.86"/></g><polygon class="cls-5" points="102.01 8.95 102.01 122.49 100.29 122.4 93.05 122 93.04 122 86.09 121.62 86.09 121.62 79.04 121.24 86.2 120.87 93.44 120.5 99.5 120.19 99.5 120.14 99.47 120.09 99.06 119.34 99.47 119.36 99.47 11.48 98.24 11.41 98.23 11.41 91.51 11.04 91.51 11.04 84.5 10.66 77.59 10.28 79.29 10.19 79.29 10.19 86.32 9.8 86.34 9.8 93.28 9.42 93.28 9.42 100.53 9.03 102.01 8.95"/><polygon class="cls-5" points="102.01 8.95 102.01 122.49 100.29 122.4 93.05 122 93.04 122 86.09 121.62 86.09 121.62 79.04 121.24 86.2 120.87 93.44 120.5 99.5 120.19 99.5 120.14 99.47 120.09 99.06 119.34 99.47 119.36 99.47 11.48 98.24 11.41 98.23 11.41 91.51 11.04 91.51 11.04 84.5 10.66 77.59 10.28 79.29 10.19 79.29 10.19 86.32 9.8 86.34 9.8 93.28 9.42 93.28 9.42 100.53 9.03 102.01 8.95"/><polygon class="cls-5" points="101.25 9.76 101.25 121.68 100.2 121.62 93.26 121.25 86.2 120.87 93.44 120.5 99.5 120.19 99.5 120.14 99.47 120.09 99.06 119.34 99.47 119.36 99.47 11.48 98.24 11.41 98.23 11.41 91.51 11.04 91.51 11.04 84.5 10.66 86.44 10.55 86.44 10.55 93.48 10.18 93.49 10.18 100.43 9.8 100.43 9.8 101.25 9.76"/><polygon class="cls-27" points="101.25 9.76 101.25 121.68 100.2 121.62 93.26 121.25 86.2 120.87 93.44 120.5 99.5 120.19 99.5 120.14 99.47 120.09 99.06 119.34 99.47 119.36 99.47 11.48 98.24 11.41 98.23 11.41 91.51 11.04 91.51 11.04 84.5 10.66 86.44 10.55 86.44 10.55 93.48 10.18 93.49 10.18 100.43 9.8 100.43 9.8 101.25 9.76"/><polygon class="cls-15" points="100.48 10.57 100.48 120.87 100.02 120.85 99.5 120.82 93.44 120.5 99.5 120.19 99.5 120.14 99.47 120.09 99.06 119.34 99.47 119.36 99.47 11.48 98.24 11.41 98.23 11.41 91.51 11.04 93.69 10.93 93.71 10.93 99.5 10.62 100.02 10.59 100.48 10.57"/><polygon class="cls-13" points="100.48 120.14 100.48 120.87 100.02 120.85 99.5 120.82 93.44 120.5 99.5 120.19 99.5 120.14 99.47 120.09 99.5 120.09 99.98 120.12 100.02 120.12 100.4 120.14 100.48 120.14"/><polygon class="cls-28" points="100.48 119.42 100.48 120.14 100.4 120.14 100.02 120.12 99.98 120.12 99.5 120.09 99.47 120.09 99.06 119.34 99.47 119.36 99.5 119.37 99.98 119.39 100.02 119.39 100.48 119.42"/><polygon class="cls-13" points="100.48 10.57 100.48 11.29 100.02 11.32 99.98 11.32 99.5 11.35 99.47 11.35 98.24 11.41 98.23 11.41 91.51 11.04 93.69 10.93 93.71 10.93 99.5 10.62 100.02 10.59 100.48 10.57"/><polygon class="cls-28" points="100.48 11.29 100.48 12.02 100.02 12.04 99.98 12.04 99.5 12.07 99.47 12.07 99.47 11.48 98.24 11.41 99.47 11.35 99.5 11.35 99.98 11.32 100.02 11.32 100.48 11.29"/><polygon class="cls-13" points="99.97 120.48 99.97 10.93 100.48 10.91 100.48 120.51 99.97 120.48"/><polygon class="cls-28" points="99.98 11.31 99.98 120.11 99.5 120.08 99.47 120.08 99.47 11.33 99.5 11.33 99.98 11.31"/><polygon class="cls-5" points="38.84 14.51 38.84 15.23 38.05 15.28 38.05 120.35 37.17 120.3 36.29 120.25 32.93 120.06 32.76 120.05 32.02 120.01 31.88 120 31.01 119.95 30.99 119.95 29.55 119.87 29.28 119.86 28.66 119.82 -0.73 118.19 -0.73 13.25 28.66 11.61 29.55 11.56 30.99 11.48 31.01 11.48 31.88 11.44 32.02 11.43 32.76 11.38 32.93 11.38 36.29 11.19 37.17 11.14 38.05 11.09 38.05 14.55 38.84 14.51"/><polygon class="cls-29" points="38.84 14.51 38.84 15.23 38.05 15.28 38.05 120.35 37.17 120.3 36.29 120.25 32.93 120.06 32.76 120.05 32.02 120.01 31.88 120 31.01 119.95 30.99 119.95 29.55 119.87 29.28 119.86 28.66 119.82 -0.73 118.19 -0.73 13.25 28.66 11.61 29.55 11.56 30.99 11.48 31.01 11.48 31.88 11.44 32.02 11.43 32.76 11.38 32.93 11.38 36.29 11.19 37.17 11.14 38.05 11.09 38.05 14.55 38.84 14.51"/><polygon class="cls-5" points="38.84 14.51 38.84 15.23 38.05 15.28 38.05 117.6 37.17 117.56 36.29 117.51 32.93 117.33 32.76 117.33 32.76 117.32 32.02 117.29 31.88 117.28 31.01 117.23 30.99 117.23 29.55 117.16 28.66 117.11 28.66 117.11 28.01 117.07 1.64 115.68 1.64 15.76 28.66 14.33 28.66 14.33 29.55 14.28 30.99 14.2 31.01 14.2 31.88 14.16 32.02 14.15 32.76 14.11 32.76 14.11 32.93 14.1 36.29 13.93 37.17 13.88 38.05 13.83 38.05 14.55 38.84 14.51"/><polygon class="cls-5" points="38.84 14.51 38.84 15.23 38.05 15.28 38.05 117.6 37.17 117.56 36.29 117.51 32.93 117.33 32.76 117.32 32.02 117.29 31.88 117.28 31.01 117.23 30.99 117.23 29.55 117.16 28.66 117.11 28.01 117.07 1.64 115.68 1.64 15.76 28.66 14.33 29.55 14.28 30.99 14.2 31.01 14.2 31.88 14.16 32.02 14.15 32.76 14.11 32.93 14.1 36.29 13.93 37.17 13.88 38.05 13.83 38.05 14.55 38.84 14.51"/><polygon class="cls-5" points="38.84 14.51 38.84 15.23 38.05 15.28 38.05 116.88 37.17 116.84 36.29 116.79 32.93 116.62 32.76 116.61 32.02 116.57 31.88 116.56 31.01 116.52 30.99 116.52 29.55 116.44 28.66 116.39 27.68 116.34 2.27 115.02 2.27 16.42 28.66 15.04 29.55 15 30.99 14.92 31.01 14.92 31.88 14.88 32.02 14.87 32.76 14.83 32.93 14.82 36.29 14.64 37.17 14.6 38.05 14.55 38.05 14.55 38.84 14.51"/><polygon class="cls-30" points="38.84 14.51 38.84 15.23 38.05 15.28 38.05 116.88 37.17 116.84 36.29 116.79 32.93 116.61 32.76 116.61 32.02 116.57 31.88 116.56 31.01 116.52 30.99 116.52 29.55 116.44 28.66 116.39 27.68 116.34 2.27 115.02 2.27 16.42 28.66 15.04 28.66 15.04 29.55 14.99 30.99 14.92 31.01 14.92 31.88 14.88 32.02 14.87 32.76 14.83 32.93 14.82 36.29 14.64 37.17 14.6 38.05 14.55 38.84 14.51"/><polygon class="cls-2" points="38.84 15.23 38.84 15.23 38.05 15.28 38.05 116.16 37.17 116.12 36.29 116.07 32.93 115.9 32.76 115.89 32.02 115.85 31.88 115.84 31.01 115.8 30.99 115.8 29.55 115.72 28.66 115.68 27.34 115.61 2.89 114.35 2.89 17.09 28.66 15.76 29.55 15.71 30.99 15.64 31.01 15.64 31.88 15.59 32.02 15.59 32.76 15.55 32.93 15.54 36.29 15.36 37.17 15.32 38.05 15.27 38.84 15.23"/><g class="cls-8"><polygon class="cls-9" points="-3.64 119.32 -3.6 12.07 38.05 9.74 37.99 14.55 38.84 14.56 38.79 15.23 38.04 15.22 37.99 121.7 -3.64 119.32"/><path class="cls-10" d="M38,9.79v4.87h.1l.69,0v.52l-.7,0H38V121.64l-.78,0-.88,0-3.36-.19h-.16l-.74,0h-.15l-.89,0-1.06-.06-.38,0-.89,0-32.21-1.84V12.16l32.21-1.84.89-.05L31,10.19h0l.86,0H32l.74,0h.16l3.36-.19.88-.05L38,9.79m.1-.1-.88.05-.88,0L32.93,10h-.17L32,10h-.15l-.86.05h0l-1.44.08-.89.05-32.3,1.85h0v107.3h0l32.3,1.84.89.05.38,0,1.06.06h0l.86.05H32l.74,0h.17l3.36.19.88,0,.88,0V15.28l.79,0v-.72l-.79,0V9.69Z"/></g><polygon class="cls-12" points="38.05 120.29 38.05 121.75 37.17 121.7 36.29 121.65 32.93 121.46 32.76 121.45 32.02 121.41 31.88 121.4 31.01 121.35 30.99 121.35 29.93 121.29 29.55 121.27 28.66 121.21 -3.64 119.37 -3.65 119.37 -3.65 117.97 -3.64 117.97 -2.44 118.04 -0.73 118.13 28.66 119.77 29.25 119.8 29.55 119.82 30.99 119.9 31.01 119.9 31.88 119.95 32.02 119.96 32.76 120 32.93 120.01 36.29 120.19 37.17 120.24 38.05 120.29"/><polygon class="cls-12" points="38.05 9.69 38.05 11.14 37.17 11.19 36.29 11.24 32.93 11.43 32.76 11.44 32.02 11.48 31.88 11.49 31.01 11.54 30.99 11.54 29.55 11.62 28.66 11.67 -0.73 13.3 -2.44 13.4 -3.64 13.47 -3.65 13.47 -3.65 12.07 -3.64 12.07 28.66 10.22 29.55 10.17 30.99 10.09 31.01 10.09 31.88 10.04 32.02 10.03 32.76 9.99 32.93 9.98 36.29 9.79 37.17 9.74 38.05 9.69"/><polygon class="cls-2" points="104.92 5.86 104.92 5.86 105.07 5.85 110.13 0.49 110.13 0.35 109.97 0.36 104.92 5.71 104.92 5.86"/><polygon class="cls-11" points="104.92 5.86 110.13 0.35 109.97 0.36 104.91 5.71 104.92 5.86"/><polygon class="cls-15" points="38.05 15.28 38.05 116.16 37.17 116.12 36.29 116.07 32.93 115.9 32.76 115.89 32.02 115.85 31.88 115.84 31.01 115.8 30.99 115.8 29.55 115.72 28.66 115.68 27.34 115.61 27.34 115.61 2.89 114.35 2.89 17.09 28.66 15.76 29.55 15.71 30.99 15.64 31.01 15.64 31.88 15.59 32.02 15.59 32.76 15.55 32.93 15.54 36.29 15.37 37.17 15.32 38.05 15.28"/><polygon class="cls-2" points="104.92 5.86 105.03 20.83 105.03 35.79 105.03 65.72 105.03 95.65 105.03 110.61 104.92 125.58 104.82 110.61 104.82 95.65 104.82 65.72 104.82 35.79 104.82 20.83 104.92 5.86"/><g class="cls-8"><polygon class="cls-9" points="-3.64 119.32 -3.6 12.07 38.05 9.74 37.99 14.55 38.84 14.56 38.79 15.23 38.04 15.22 37.99 121.7 -3.64 119.32"/><path class="cls-10" d="M38,9.79v4.87h.1l.69,0v.52l-.7,0H38V121.64l-.78,0-.88,0-3.36-.19h-.16l-.74,0h-.15l-.89,0-1.06-.06-.38,0-.89,0-32.21-1.84V12.16l32.21-1.84.89-.05L31,10.19h0l.86,0H32l.74,0h.16l3.36-.19.88-.05L38,9.79m.1-.1-.88.05-.88,0L32.93,10h-.17L32,10h-.15l-.86.05h0l-1.44.08-.89.05-32.3,1.85h0v107.3h0l32.3,1.84.89.05.38,0,1.06.06h0l.86.05H32l.74,0h.17l3.36.19.88,0,.88,0V15.28l.79,0v-.72l-.79,0V9.69Z"/></g><path class="cls-12" d="M1.4,59.69l-1-.12H.24a.36.36,0,0,0-.32.21v11.9a.39.39,0,0,0,.32.21h0l.15,0,1-.11Z"/><path class="cls-12" d="M-.08,71.67V59.77a.36.36,0,0,1,.32-.21h0a.74.74,0,0,1,.32.06V71.81a.68.68,0,0,1-.32.07h0A.39.39,0,0,1-.08,71.67Z"/><polygon class="cls-31" points="38.05 15.28 38.05 21.91 37.17 24.22 36.29 26.54 32.93 35.37 32.76 35.8 32.02 37.75 31.88 38.14 31.01 40.41 30.99 40.47 29.55 44.26 28.66 46.6 13.77 85.76 2.89 114.35 2.89 17.09 28.66 15.76 29.55 15.71 30.99 15.64 31.01 15.64 31.88 15.59 32.02 15.59 32.76 15.55 32.93 15.54 36.29 15.37 37.17 15.32 38.05 15.28"/><path class="cls-2" d="M255.23-8.68H255L107.58.49h-.12l-2,.13h-.55V130.75h.57l2.13.14h.12l2.27.14h.17l144.9,9h.21V-8.68Zm-139.56,128V12.07l53.42,2.75V116.61l-53,2.73Z"/><path class="cls-32" d="M255.23-8.68H255L107.58.49h-.12l-2,.13h-.55V130.75h.57l2.13.14h.12l2.27.14h.17l144.9,9h.21V-8.68Zm-139.56,128V12.07l53.42,2.75V116.61l-53,2.73Z"/><path class="cls-33" d="M248.5-2.36h0L182.21,1.43l-31,1.78h-.11l-40.8,2.33h-.2v120.3h.2l41,2.34h0L182.21,130h0l66.27,3.79h0V-2.36ZM115.67,119.36V12.07l53.42,2.75V116.61l-53,2.73Z"/><polygon class="cls-5" points="182.21 129.98 182.21 1.43 248.5 -2.36 248.5 133.77 182.21 129.98"/><path class="cls-5" d="M151.18,3.21h-.11l-40.8,2.33h-.2v120.3h.2l41,2.34h0L182.21,130V1.43ZM115.67,119.36V12.07l53.42,2.75V116.61l-53,2.73Z"/><g class="cls-25"><path class="cls-34" d="M151.18,3.21h-.11l-40.8,2.33h-.2v120.3h.2l41,2.34h0L182.21,130V1.43ZM115.67,119.36V12.07l53.42,2.75V116.61l-53,2.73Z"/></g><path class="cls-5" d="M177.32,4.84,173,5.08,133.78,7.21,113,8.34V123.07l21,1.15h0l39,2.11,4.55.25,1.31.07V4.76ZM115.67,119.36V12.07l53.42,2.75V116.61l-53,2.73Z"/><path class="cls-5" d="M177.32,4.84,173,5.08,133.78,7.21,113,8.34V123.07l21,1.15h0l39,2.11,4.55.25,1.31.07V4.76ZM115.67,119.36V12.07l53.42,2.75V116.61l-53,2.73Z"/><path class="cls-5" d="M173,5.9,140.92,7.62h0L114.6,9l-.79,0V122.34l1,.06,26.31,1.41h0l31.84,1.7,5,.27V5.63ZM115.67,119.36V12.07l53.42,2.75V116.61l-53,2.73Z"/><path class="cls-35" d="M173,5.9,140.92,7.62h0L114.6,9l-.79,0V122.34l1,.06,26.31,1.41h0l31.84,1.7,5,.27V5.63ZM115.67,119.36V12.07l53.42,2.75V116.61l-53,2.73Z"/><path class="cls-15" d="M173,6.72,148.18,8h0L121.86,9.42h0l-7.15.38h-.12V121.6l.35,0,7.15.38h0l26.3,1.39h0l24.58,1.3,4.1.22V6.5ZM115.67,119.36V12.07l53.42,2.75V116.61l-53,2.73Z"/><polygon class="cls-13" points="114.59 9.81 177.09 6.5 177.09 7.28 114.59 10.54 114.59 9.81"/><polygon class="cls-28" points="114.59 10.54 177.09 7.28 177.09 8.06 114.59 11.28 114.59 10.54"/><polygon class="cls-13" points="177.09 124.91 114.59 121.6 114.59 120.87 177.09 124.13 177.09 124.91"/><polygon class="cls-28" points="177.09 124.13 114.59 120.87 114.59 120.13 177.09 123.35 177.09 124.13"/><polygon class="cls-13" points="115.11 10.15 115.11 121.29 114.59 121.26 114.59 10.18 115.11 10.15"/><polygon class="cls-28" points="115.64 10.5 115.64 120.94 115.11 120.91 115.11 10.53 115.64 10.5"/><polygon class="cls-5" points="243.82 -0.39 243.82 131.81 182.21 128.37 182.21 3.04 243.82 -0.39"/><polygon class="cls-36" points="243.82 -0.39 243.82 131.81 182.21 128.37 182.21 3.04 243.82 -0.39"/><polygon class="cls-5" points="240.09 128.29 185.59 125.4 185.59 6.01 240.09 3.12 240.09 128.29"/><polygon class="cls-5" points="240.09 128.29 182.37 125.23 182.37 6.18 240.09 3.12 240.09 128.29"/><polygon class="cls-5" points="239.11 127.37 186.48 124.62 186.48 6.79 239.11 4.04 239.11 127.37"/><polygon class="cls-37" points="239.11 127.37 183.26 124.45 183.26 6.96 239.11 4.04 239.11 127.37"/><polygon class="cls-2" points="238.13 126.45 184.15 123.67 184.15 7.74 238.13 4.96 238.13 126.45"/><g class="cls-8"><polygon class="cls-9" points="182.21 129.93 182.26 1.43 248.51 -2.31 248.45 133.72 182.21 129.93"/><path class="cls-10" d="M248.4-2.25V133.66l-66.09-3.77V1.53L248.4-2.25m.1-.11L182.21,1.43V130l66.29,3.79V-2.36Z"/></g><polygon class="cls-12" points="248.5 -2.36 248.5 -0.59 182.21 3.1 182.21 1.43 248.5 -2.36"/><polygon class="cls-38" points="183.11 3.05 183.11 128.36 182.21 129.98 182.21 1.43 183.11 3.05"/><polygon class="cls-15" points="238.13 126.45 184.13 123.67 184.13 7.74 238.13 4.96 238.13 126.45"/><polygon class="cls-39" points="184.62 68.93 184.62 63.63 185.85 63.62 185.85 68.94 184.62 68.93"/><polygon class="cls-40" points="183.88 70.14 183.88 62.42 182.46 62.42 182.46 70.14 183.88 70.14"/><polygon class="cls-41" points="184.62 69.16 184.62 63.4 183.88 63.4 183.88 69.16 184.62 69.16"/><polygon class="cls-42" points="184.36 61.52 184.36 63.04 184.83 63.19 184.62 65.67 184.62 67.26 185.59 67.27 185.59 61.29 184.36 61.52"/><g class="cls-43"><path class="cls-9" d="M184.36,61.52c0,.51.06,1,0,1.52l0,0,.47.15,0,0v0l-.21,2.47h0a14.08,14.08,0,0,1,0,1.59c0-.53-.06-1.06-.05-1.59h0l.21-2.48,0,.05-.47-.15h0v0A12.94,12.94,0,0,1,184.36,61.52Z"/></g><polygon class="cls-44" points="185.99 68.7 185.99 63.85 185.85 63.62 185.85 68.94 185.99 68.7"/><polygon class="cls-2" points="110.07 125.86 109.97 110.82 109.97 95.78 109.97 65.71 109.97 35.63 109.97 20.59 110.07 5.55 110.17 20.59 110.17 35.63 110.17 65.71 110.17 95.78 110.17 110.82 110.07 125.86"/><g class="cls-8"><polygon class="cls-9" points="182.21 129.93 182.26 1.43 248.51 -2.31 248.45 133.72 182.21 129.93"/><path class="cls-10" d="M248.4-2.25V133.66l-66.09-3.77V1.53L248.4-2.25m.1-.11L182.21,1.43V130l66.29,3.79V-2.36Z"/></g><path class="cls-12" d="M112.59,59l-1.26-.13-.18,0h0a.47.47,0,0,0-.4.24v13.3a.49.49,0,0,0,.4.23h0l.18,0,1.26-.13Z"/><path class="cls-12" d="M110.75,72.36V59.06a.47.47,0,0,1,.4-.24h0c.21,0,.39,0,.39.08V72.52a1,1,0,0,1-.39.07h0A.49.49,0,0,1,110.75,72.36Z"/><polygon class="cls-31" points="238.13 4.96 238.13 126.45 184.13 123.67 238.13 4.96"/><polygon class="cls-31" points="177.09 8.1 176.25 9.64 175.5 11 175.47 11.05 174.04 13.67 173.74 14.21 173.18 15.24 173.05 15.47 172.99 15.58 170.46 20.19 169.78 21.44 169.09 22.68 169.09 14.82 115.67 12.07 115.67 119.36 116.08 119.34 115.67 120.09 115.64 120.14 115.64 11.48 115.67 11.48 116.9 11.41 123.63 11.04 130.64 10.66 137.55 10.28 162.99 8.88 162.99 8.88 172.99 8.33 177.09 8.1"/><polygon class="cls-1" points="107.57 0.49 107.57 130.93 107.55 130.93 107.44 130.92 105.42 130.8 105.29 130.79 105.15 130.78 105.15 130.78 105.01 130.77 63.84 128.22 63.83 128.21 42.15 126.87 42.15 123.14 52.75 122.59 52.76 122.59 79.04 121.24 86.2 120.87 93.44 120.5 99.5 120.19 99.5 120.14 99.47 120.09 99.06 119.34 99.47 119.36 99.47 11.48 98.24 11.41 98.23 11.41 91.51 11.04 91.51 11.04 84.5 10.66 77.59 10.28 52.15 8.88 52.15 8.88 42.15 8.33 42.15 4.56 63.95 3.21 105.01 0.65 105.15 0.65 105.15 0.65 105.28 0.64 105.42 0.63 105.42 0.63 107.45 0.5 107.46 0.5 107.56 0.49 107.57 0.49"/><path class="cls-2" d="M222.93,7.68h-.12l-16.87-1h0l-7.37-.46h0l-7.28-.45h0l-8.14-.51-.9,0-3.36-.21-1.53-.1L173,4.57,151.07,3.21,110.27.68h-.57L107.57.51h-.12L105.17.36H105V131.09h.15l2.39-.15h.14l2-.12h.42l41.15-2.56h0l21.7-1.35,4.55-.28,1.31-.08,3.36-.21.9-.06,8.35-.51h0l7.3-.45h0l7.38-.46h0l16.63-1h.12V7.68ZM115.67,119.36V12.07l53.42,2.75V116.61l-53,2.73Z"/><path class="cls-45" d="M222.93,7.68h-.12l-16.87-1h0l-7.37-.46h0l-7.28-.45h0l-8.14-.51-.9,0-3.36-.21-1.53-.1L173,4.57,151.07,3.21,110.27.68h-.57L107.57.51h-.12L105.17.36H105V131.09h.15l2.39-.15h.14l2-.12h.42l41.15-2.56h0l21.7-1.35,4.55-.28,1.31-.08,3.36-.21.9-.06,8.35-.51h0l7.3-.45h0l7.38-.46h0l16.63-1h.12V7.68ZM115.67,119.36V12.07l53.42,2.75V116.61l-53,2.73Z"/><path class="cls-46" d="M218.77,12.07l-32.29-1.85-.89-.05-1.44-.08h0L183.3,10h-.19l-.74,0h-.16l-3.36-.19-1.76-.1-.84,0-3.2-.19H173l-10-.57h0l-.85-.05h0l-7-.4h0L148.18,8h0l-7.25-.41h0l-7.14-.41L110.27,5.87h-.06V125.58h.06L134,124.22h0l7.14-.41h0l7.25-.42h0l6.92-.39h0l7-.41h0L173,122h.06l4-.23,1.76-.1,3.36-.19h.16l.74,0h.19l.83-.05h0l1.06-.06.38,0,.89-.05,32.29-1.84h0V12.07ZM116.08,119.34l-.41,0V12.07l53.42,2.75V116.61Z"/><polygon class="cls-5" points="173.05 9.46 173.05 121.98 218.79 119.37 218.79 12.07 173.05 9.46"/><path class="cls-5" d="M173,9.45l-10-.57h0l-.85-.05h0l-7-.4h0L148.18,8h0l-7.25-.41h0l-7.14-.41L110.27,5.87h-.06V125.58h.06L134,124.22h0l7.14-.41h0l7.25-.42h0l6.92-.39h0l7-.41h0L173,122h.06V9.45ZM116.08,119.34l-.41,0V12.07l53.42,2.75V116.61Z"/><g class="cls-25"><path class="cls-47" d="M173,9.45l-10-.57h0l-.85-.05h0l-7-.4h0L148.18,8h0l-7.25-.41h0l-7.14-.41L110.27,5.87h-.06V125.58h.06L134,124.22h0l7.14-.41h0l7.25-.42h0l6.92-.39h0l7-.41h0L173,122h.06V9.45ZM116.08,119.34l-.41,0V12.07l53.42,2.75V116.61Z"/></g><path class="cls-5" d="M137.55,10.28l-1.7-.09h0l-7-.39h0l-6.94-.38h0L114.6,9,113.12,9V122.49l1.72-.09,7.25-.4h0l6.94-.38h0l7-.38h0l34.37-1.87V12.07Zm31.54,106.33-53,2.73-.41,0V12.07l53.42,2.75Z"/><path class="cls-5" d="M137.55,10.28l-1.7-.09h0l-7-.39h0l-6.94-.38h0L114.6,9,113.12,9V122.49l1.72-.09,7.25-.4h0l6.94-.38h0l7-.38h0l34.37-1.87V12.07Zm31.54,106.33-53,2.73-.41,0V12.07l53.42,2.75Z"/><path class="cls-5" d="M130.64,10.66l-1.94-.11h0l-7-.37h0l-6.94-.38h0l-.82,0V121.68l1-.06,6.94-.37,7.05-.38,40.85-2.19V12.76Zm38.45,106-53,2.73-.41,0V12.07l53.42,2.75Z"/><path class="cls-48" d="M130.64,10.66l-1.94-.11h0l-7-.37h0l-6.94-.38h0l-.82,0V121.68l1-.06,6.94-.37,7.05-.38,40.85-2.19V12.76Zm38.45,106-53,2.73-.41,0V12.07l53.42,2.75Z"/><polygon class="cls-15" points="169.09 13.45 169.09 14.82 115.67 12.07 115.67 119.36 116.08 119.34 169.09 116.61 169.09 117.99 121.69 120.5 115.64 120.82 115.11 120.85 114.65 120.87 114.65 10.57 115.11 10.59 115.64 10.62 121.44 10.93 123.63 11.04 169.09 13.45"/><polygon class="cls-13" points="114.65 120.87 169.09 117.99 169.09 117.3 114.65 120.14 114.65 120.87"/><polygon class="cls-28" points="169.09 116.61 169.09 117.3 115.67 120.09 115.64 120.09 115.16 120.12 115.11 120.12 114.74 120.14 114.65 120.14 114.65 119.42 115.11 119.39 115.16 119.39 115.64 119.37 115.67 119.36 116.08 119.34 169.09 116.61"/><polygon class="cls-13" points="169.09 13.45 114.65 10.57 114.65 11.29 169.09 14.14 169.09 13.45"/><polygon class="cls-28" points="169.09 14.14 169.09 14.82 115.67 12.07 115.64 12.07 115.16 12.04 115.11 12.04 114.65 12.02 114.65 11.29 115.11 11.32 115.16 11.32 115.64 11.35 115.67 11.35 116.9 11.41 169.09 14.14"/><polygon class="cls-13" points="115.16 120.48 115.16 10.93 114.65 10.91 114.65 120.51 115.16 120.48"/><polygon class="cls-28" points="115.67 11.33 115.67 120.08 115.64 120.08 115.16 120.11 115.16 11.31 115.64 11.33 115.67 11.33"/><polygon class="cls-5" points="215.86 118.19 215.86 13.25 173.05 10.87 173.05 120.57 215.86 118.19"/><polygon class="cls-49" points="215.86 118.19 215.86 13.25 173.05 10.87 173.05 120.57 215.86 118.19"/><polygon class="cls-5" points="213.49 15.76 175.62 13.75 175.62 117.68 213.49 115.68 213.49 15.76"/><polygon class="cls-5" points="213.49 15.76 173.18 13.62 173.18 117.81 213.49 115.68 213.49 15.76"/><polygon class="cls-5" points="212.87 16.42 176.3 14.51 176.3 116.92 212.87 115.02 212.87 16.42"/><polygon class="cls-50" points="212.87 16.42 173.85 14.38 173.85 117.05 212.87 115.02 212.87 16.42"/><polygon class="cls-2" points="212.24 17.08 174.53 15.14 174.53 116.29 212.24 114.35 212.24 17.08"/><g class="cls-8"><polygon class="cls-9" points="173.1 9.46 218.79 12.12 218.74 119.37 173.1 121.93 173.1 9.46"/><path class="cls-10" d="M173.15,9.56l45.54,2.6V119.27l-45.54,2.61V9.56m-.1-.11V122l45.74-2.61V12.07L173.05,9.45Z"/></g><polygon class="cls-12" points="218.79 119.37 218.79 117.97 173.05 120.52 173.05 121.98 218.79 119.37"/><polygon class="cls-12" points="218.79 13.47 218.79 12.07 173.05 9.46 173.05 10.92 218.79 13.47"/><polygon class="cls-2" points="110.22 5.86 110.21 5.86 110.07 5.85 105.01 0.49 105.01 0.35 105.16 0.36 110.22 5.71 110.22 5.86"/><polygon class="cls-11" points="110.22 5.86 105.01 0.35 105.16 0.36 110.22 5.71 110.22 5.86"/><polygon class="cls-51" points="173.74 120.48 173.74 10.96 173.05 9.46 173.05 121.98 173.74 120.48"/><polygon class="cls-15" points="212.24 17.08 174.51 15.14 174.51 116.29 212.24 114.35 212.24 17.08"/><polygon class="cls-52" points="174.89 62.91 174.89 67.53 175.83 67.53 175.83 62.91 174.89 62.91"/><polygon class="cls-53" points="174.33 61.85 174.33 68.59 173.24 68.59 173.24 61.84 174.33 61.85"/><polygon class="cls-54" points="174.89 62.7 174.89 67.73 174.33 67.73 174.33 62.7 174.89 62.7"/><polygon class="cls-55" points="174.69 69.36 174.69 68.04 175.05 67.91 174.89 65.75 174.89 64.36 175.62 64.36 175.62 69.56 174.69 69.36"/><g class="cls-43"><path class="cls-9" d="M174.69,69.37a11.92,11.92,0,0,1-.05-1.33v0h0l.36-.14,0,0-.16-2.16h0a10.77,10.77,0,0,1,0-1.39,10.77,10.77,0,0,1,.05,1.39h0l.16,2.15v0l0,0-.35.13,0,0A9.92,9.92,0,0,1,174.69,69.37Z"/></g><polygon class="cls-56" points="175.93 63.11 175.93 67.33 175.83 67.53 175.83 62.91 175.93 63.11"/><polygon class="cls-2" points="110.21 5.86 110.31 20.83 110.31 35.79 110.31 65.72 110.31 95.65 110.31 110.61 110.21 125.58 110.11 110.61 110.11 95.65 110.11 65.72 110.11 35.79 110.11 20.83 110.21 5.86"/><g class="cls-8"><polygon class="cls-9" points="173.1 9.46 218.79 12.12 218.74 119.37 173.1 121.93 173.1 9.46"/><path class="cls-10" d="M173.15,9.56l45.54,2.6V119.27l-45.54,2.61V9.56m-.1-.11V122l45.74-2.61V12.07L173.05,9.45Z"/></g><path class="cls-12" d="M213.74,59.69l1-.12h.15a.37.37,0,0,1,.32.21v11.9a.41.41,0,0,1-.32.21h0l-.15,0-1-.11Z"/><path class="cls-12" d="M215.22,71.67V59.77a.37.37,0,0,0-.32-.21h0a.7.7,0,0,0-.32.06V71.81a.64.64,0,0,0,.32.07h0A.41.41,0,0,0,215.22,71.67Z"/><polygon class="cls-31" points="212.24 114.35 212.24 17.08 174.51 15.14 212.24 114.35"/><path class="cls-2" d="M110.13.66h-.42l-2-.13h-.11L-39.91-8.67h-.19V140.09h.2l144.91-9h.16l2.27-.14h.13l2.13-.14h.57V.66ZM38.05,8.1l4.1.23,10,.55h0l25.44,1.4,6.91.38,7,.38h0l6.72.37h0l1.23.07V119.36l-.41,0,.41.75,0,0v0l-6.06.31-7.24.37-7.16.37-26.28,1.35h0l-10.6.55-4.1.21V15.28l.79,0v-.72l-.79,0Z"/><path class="cls-57" d="M110.13.66h-.42l-2-.13h-.11L-39.91-8.67h-.19V140.09h.2l144.91-9h.16l2.27-.14h.13l2.13-.14h.57V.66ZM38.05,8.1l4.1.23,10,.55h0l25.44,1.4,6.91.38,7,.38h0l6.72.37h0l1.23.07V119.36l-.41,0,.41.75,0,0v0l-6.06.31-7.24.37-7.16.37-26.28,1.35h0l-10.6.55-4.1.21V15.28l.79,0v-.72l-.79,0Z"/><path class="cls-58" d="M105.06,5.56h-.19L64.07,3.21H64l-31-1.78L-33.34-2.36h0V133.77h0L32.93,130h0l30.9-1.77h0l41-2.34h.2V5.56Zm-67,9.72.79,0v-.72l-.79,0V8.1l4.1.23,10,.55h0l25.44,1.4,6.91.38,7,.38h0l6.72.37h0l1.23.07V119.36l-.41,0,.41.75,0,0v0l-6.06.31-7.24.37-7.16.37-26.28,1.35h0l-10.6.55-4.1.21Z"/><polygon class="cls-5" points="32.93 129.98 32.93 1.43 -33.37 -2.36 -33.37 133.77 32.93 129.98"/><path class="cls-5" d="M105.06,5.56h-.19L64.07,3.21H64l-31-1.78V130l30.91-1.77h0l41-2.34h.2V5.56Zm-67,9.72.79,0v-.72l-.79,0V8.1l4.1.23,10,.55h0l25.44,1.4,6.91.38,7,.38h0l6.72.37h0l1.23.07V119.36l-.41,0,.41.75,0,0v0l-6.06.31-7.24.37-7.16.37-26.28,1.35h0l-10.6.55-4.1.21Z"/><g class="cls-25"><path class="cls-59" d="M105.06,5.56h-.19L64.07,3.21H64l-31-1.78V130l30.91-1.77h0l41-2.34h.2V5.56Zm-67,9.72.79,0v-.72l-.79,0V8.1l4.1.23,10,.55h0l25.44,1.4,6.91.38,7,.38h0l6.72.37h0l1.23.07V119.36l-.41,0,.41.75,0,0v0l-6.06.31-7.24.37-7.16.37-26.28,1.35h0l-10.6.55-4.1.21Z"/></g><path class="cls-5" d="M81.36,7.21,42.15,5.08l-4.34-.24-1.52-.08V126.65l1.31-.07,4.55-.25,39-2.11h0l21-1.15V8.34ZM38.05,15.28l.79,0v-.72l-.79,0V8.1l4.1.23,10,.55h0l25.44,1.4,6.91.38,7,.38h0l6.72.37h0l1.23.07V119.36l-.41,0,.41.75,0,0v0l-6.06.31-7.24.37-7.16.37-26.28,1.35h0l-10.6.55-4.1.21Z"/><path class="cls-5" d="M81.36,7.21,42.15,5.08l-4.34-.24-1.52-.08V126.65l1.31-.07,4.55-.25,39-2.11h0l21-1.15V8.34ZM38.05,15.28l.79,0v-.72l-.79,0V8.1l4.1.23,10,.55h0l25.44,1.4,6.91.38,7,.38h0l6.72.37h0l1.23.07V119.36l-.41,0,.41.75,0,0v0l-6.06.31-7.24.37-7.16.37-26.28,1.35h0l-10.6.55-4.1.21Z"/><path class="cls-5" d="M100.53,9,74.21,7.62h0L42.15,5.9l-5-.27V125.78l5-.27L74,123.81h0l26.3-1.41,1-.06V9.07ZM38.05,15.28l.79,0v-.72l-.79,0V8.1l4.1.23,10,.55h0l25.44,1.4,6.91.38,7,.38h0l6.72.37h0l1.23.07V119.36l-.41,0,.41.75,0,0v0l-6.06.31-7.24.37-7.16.37-26.28,1.35h0l-10.6.55-4.1.21Z"/><path class="cls-60" d="M100.53,9,74.21,7.62h0L42.15,5.9l-5-.27V125.78l5-.27L74,123.81h0l26.3-1.41,1-.06V9.07ZM38.05,15.28l.79,0v-.72l-.79,0V8.1l4.1.23,10,.55h0l25.44,1.4,6.91.38,7,.38h0l6.72.37h0l1.23.07V119.36l-.41,0,.41.75,0,0v0l-6.06.31-7.24.37-7.16.37-26.28,1.35h0l-10.6.55-4.1.21Z"/><polygon class="cls-15" points="100.54 9.81 100.54 121.6 100.2 121.62 93.05 122 93.04 122 66.74 123.39 66.73 123.39 42.15 124.69 38.05 124.91 38.05 123.35 42.15 123.14 52.75 122.59 52.76 122.59 79.04 121.24 86.2 120.87 93.44 120.5 99.5 120.19 99.5 120.14 99.47 120.09 99.06 119.34 99.47 119.36 99.47 11.48 98.24 11.41 98.23 11.41 91.51 11.04 91.51 11.04 84.5 10.66 77.59 10.28 52.15 8.88 52.15 8.88 42.15 8.33 38.05 8.1 38.05 6.5 42.15 6.72 66.96 8.03 66.97 8.03 93.28 9.42 93.28 9.42 100.43 9.8 100.43 9.8 100.54 9.81"/><polygon class="cls-13" points="100.54 9.81 38.05 6.5 38.05 7.28 100.54 10.54 100.54 9.81"/><polygon class="cls-28" points="100.54 10.54 38.05 7.28 38.05 8.06 100.54 11.28 100.54 10.54"/><polygon class="cls-13" points="38.05 124.91 100.54 121.6 100.54 120.87 38.05 124.13 38.05 124.91"/><polygon class="cls-28" points="100.54 120.13 100.54 120.87 100.48 120.87 100.02 120.9 99.5 120.92 93.26 121.25 86.09 121.62 86.09 121.62 59.81 123 59.79 123 42.15 123.92 38.05 124.13 38.05 123.35 42.15 123.14 52.75 122.59 52.76 122.59 79.04 121.24 86.2 120.87 93.44 120.5 99.5 120.19 99.98 120.16 100.02 120.16 100.4 120.14 100.48 120.13 100.54 120.13"/><polygon class="cls-13" points="100.02 10.15 100.02 121.29 100.54 121.26 100.54 10.18 100.02 10.15"/><polygon class="cls-28" points="100.02 10.53 100.02 120.91 99.5 120.94 99.5 10.5 100.02 10.53"/><polygon class="cls-5" points="-28.69 -0.39 -28.69 131.81 32.93 128.37 32.93 3.04 -28.69 -0.39"/><polygon class="cls-61" points="-28.69 -0.39 -28.69 131.81 32.93 128.37 32.93 3.04 -28.69 -0.39"/><polygon class="cls-5" points="-24.95 128.29 29.55 125.4 29.55 6.01 -24.95 3.12 -24.95 128.29"/><polygon class="cls-5" points="-24.95 128.29 32.76 125.23 32.76 6.18 -24.95 3.12 -24.95 128.29"/><polygon class="cls-5" points="-23.97 127.37 28.66 124.62 28.66 6.79 -23.97 4.04 -23.97 127.37"/><polygon class="cls-62" points="-23.97 127.37 31.88 124.45 31.88 6.96 -23.97 4.04 -23.97 127.37"/><polygon class="cls-2" points="-23 126.45 30.99 123.67 30.99 7.74 -23 4.96 -23 126.45"/><g class="cls-8"><polygon class="cls-9" points="-33.32 -2.36 32.92 1.48 32.88 129.98 -33.32 133.72 -33.32 -2.36"/><path class="cls-10" d="M-33.27-2.25l66.1,3.78V129.89l-66.1,3.77V-2.25m-.1-.11V133.77L32.93,130V1.43l-66.3-3.79Z"/></g><polygon class="cls-12" points="-33.37 -2.36 -33.37 -0.59 32.93 3.1 32.93 1.43 -33.37 -2.36"/><polygon class="cls-63" points="32.02 3.05 32.02 128.36 32.93 129.98 32.93 1.43 32.02 3.05"/><polygon class="cls-15" points="-23 126.45 31.01 123.67 31.01 7.74 -23 4.96 -23 126.45"/><polygon class="cls-64" points="30.51 68.93 30.51 63.63 29.28 63.62 29.28 68.94 30.51 68.93"/><polygon class="cls-65" points="31.26 70.14 31.26 62.42 32.68 62.42 32.68 70.14 31.26 70.14"/><polygon class="cls-66" points="30.51 69.16 30.51 63.4 31.26 63.4 31.26 69.16 30.51 69.16"/><polygon class="cls-67" points="30.78 61.52 30.78 63.04 30.31 63.19 30.51 65.67 30.51 67.26 29.55 67.27 29.55 61.29 30.78 61.52"/><g class="cls-43"><path class="cls-9" d="M30.78,61.52c0,.51.06,1,0,1.52v0h0l-.47.15,0-.05.2,2.48h0a14.08,14.08,0,0,1,0,1.59,14.08,14.08,0,0,1-.05-1.59h0l-.2-2.47v0l0,0,.47-.15,0,0A12.94,12.94,0,0,1,30.78,61.52Z"/></g><polygon class="cls-68" points="29.14 68.7 29.14 63.85 29.28 63.62 29.28 68.94 29.14 68.7"/><polygon class="cls-2" points="105.07 125.86 104.97 110.82 104.97 95.78 104.97 65.71 104.97 35.63 104.97 20.59 105.07 5.55 105.17 20.59 105.17 35.63 105.17 65.71 105.17 95.78 105.17 110.82 105.07 125.86"/><g class="cls-8"><polygon class="cls-9" points="-33.32 -2.36 32.92 1.48 32.88 129.98 -33.32 133.72 -33.32 -2.36"/><path class="cls-10" d="M-33.27-2.25l66.1,3.78V129.89l-66.1,3.77V-2.25m-.1-.11V133.77L32.93,130V1.43l-66.3-3.79Z"/></g><path class="cls-12" d="M102.54,59l1.26-.13.19,0h0a.47.47,0,0,1,.4.24v13.3a.49.49,0,0,1-.4.23h0l-.19,0-1.26-.13Z"/><path class="cls-12" d="M104.39,72.36V59.06a.47.47,0,0,0-.4-.24h0c-.22,0-.4,0-.4.08V72.52a1,1,0,0,0,.4.07h0A.49.49,0,0,0,104.39,72.36Z"/><polygon class="cls-31" points="-23 4.96 -23 126.45 31.01 123.67 -23 4.96"/><polygon class="cls-31" points="99.5 11.48 99.5 120.14 99.47 120.09 99.06 119.34 99.47 119.36 99.47 11.48 99.5 11.48"/><path class="cls-1" d="M151.18,3.21,110.13.65h-.42l-2-.13h-.12V130.93h.12l2-.12h.42l41.17-2.56h0L173,126.87V4.56Zm17.91,113.4-53,2.73-.41,0V12.07l53.42,2.75Z"/><polyline class="cls-1" points="107.36 130.44 41.94 126.37 41.94 4.07 107.36 0"/></g><g class="cls-69"><path class="cls-2" d="M104.6.35V131.09h.14l2.39-.15h.15l2-.12h.41l41.16-2.56h0l21.68-1.35,4.55-.28,1.31-.08,3.36-.21.91-.06,8.35-.51h0l7.29-.45h0l7.39-.46h0l16.63-1h.11V7.68h-.12l-16.86-1h0l-7.37-.46h0l-7.28-.45h0L182.7,5.2l-.91,0-3.36-.21-1.52-.1-4.34-.27L150.66,3.21h0L109.85.68h-.56L107.15.51H107L104.75.36Zm72.08,14.2-.8,0v.72l.8,0V123.35l-4.11-.21-10.6-.55h0l-26.28-1.35-7.16-.37-7.24-.37-6.06-.31v0l0,0,.41-.75-.41,0V11.48l1.23-.07h0l6.72-.37h0l7-.38,6.91-.38,25.44-1.4h0l10-.55,4.11-.23Z"/><path class="cls-70" d="M104.6.35V131.09h.14l2.39-.15h.15l2-.12h.41l41.16-2.56h0l21.68-1.35,4.55-.28,1.31-.08,3.36-.21.91-.06,8.35-.51h0l7.29-.45h0l7.39-.46h0l16.63-1h.11V7.68h-.12l-16.86-1h0l-7.37-.46h0l-7.28-.45h0L182.7,5.2l-.91,0-3.36-.21-1.52-.1-4.34-.27L150.66,3.21h0L109.85.68h-.56L107.15.51H107L104.75.36Zm72.08,14.2-.8,0v.72l.8,0V123.35l-4.11-.21-10.6-.55h0l-26.28-1.35-7.16-.37-7.24-.37-6.06-.31v0l0,0,.41-.75-.41,0V11.48l1.23-.07h0l6.72-.37h0l7-.38,6.91-.38,25.44-1.4h0l10-.55,4.11-.23Z"/><polygon class="cls-71" points="175.88 14.51 175.88 15.23 176.68 15.28 176.68 121.75 177.56 121.7 178.44 121.65 181.79 121.46 181.96 121.45 182.7 121.41 182.85 121.4 183.71 121.35 183.73 121.35 184.79 121.29 185.17 121.27 186.06 121.21 218.36 119.37 218.37 119.37 218.37 12.07 218.36 12.07 186.06 10.22 185.17 10.17 183.73 10.09 183.73 10.09 183.71 10.09 182.85 10.04 182.7 10.03 181.96 9.99 181.79 9.98 178.44 9.79 177.56 9.74 176.68 9.69 176.68 14.55 175.88 14.51"/><polygon class="cls-72" points="109.8 5.86 109.8 125.58 109.8 125.58 109.85 125.57 133.59 124.22 133.6 124.22 140.74 123.81 140.74 123.81 147.98 123.39 147.99 123.39 154.91 123 154.93 123 161.97 122.59 161.96 122.59 135.68 121.24 128.52 120.87 121.28 120.5 115.22 120.19 115.22 120.14 115.25 120.09 115.66 119.34 115.25 119.36 115.25 11.48 116.48 11.41 116.49 11.41 123.21 11.04 123.21 11.04 130.22 10.66 137.13 10.28 162.57 8.88 161.72 8.83 161.72 8.83 154.7 8.43 154.69 8.43 147.76 8.03 147.75 8.03 140.51 7.62 140.51 7.62 133.37 7.21 109.85 5.87 109.8 5.86"/><polygon class="cls-5" points="175.88 14.51 175.88 15.23 176.68 15.28 176.68 121.75 177.56 121.7 178.44 121.65 181.79 121.46 181.96 121.45 182.7 121.41 182.85 121.4 183.71 121.35 183.73 121.35 184.79 121.29 185.17 121.27 186.06 121.21 218.36 119.37 218.37 119.37 218.37 12.07 218.36 12.07 186.06 10.22 185.17 10.17 183.73 10.09 183.71 10.09 182.85 10.04 182.7 10.03 181.96 9.99 181.79 9.98 178.44 9.79 177.56 9.74 176.68 9.69 176.68 14.55 175.88 14.51"/><polygon class="cls-5" points="109.8 5.86 109.8 125.58 109.8 125.58 109.85 125.57 133.59 124.22 133.6 124.22 140.74 123.81 140.74 123.81 147.98 123.39 147.99 123.39 154.91 123 154.93 123 161.96 122.59 135.68 121.24 128.52 120.87 121.28 120.5 115.22 120.19 115.22 120.14 115.25 120.09 115.66 119.34 115.25 119.36 115.25 11.48 116.48 11.41 116.49 11.41 123.21 11.04 123.21 11.04 130.22 10.66 137.13 10.28 162.57 8.88 161.72 8.83 161.72 8.83 154.7 8.43 154.69 8.43 147.76 8.03 147.75 8.03 140.51 7.62 140.51 7.62 133.37 7.21 109.85 5.87 109.8 5.86"/><g class="cls-25"><polygon class="cls-73" points="109.8 5.86 109.8 125.58 109.8 125.58 109.85 125.57 133.59 124.22 133.6 124.22 140.74 123.81 140.74 123.81 147.98 123.39 147.99 123.39 154.91 123 154.93 123 161.96 122.59 135.68 121.24 128.52 120.87 121.28 120.5 115.22 120.19 115.22 120.14 115.25 120.09 115.66 119.34 115.25 119.36 115.25 11.48 116.48 11.41 116.49 11.41 123.21 11.04 123.21 11.04 130.22 10.66 137.13 10.28 162.57 8.88 161.72 8.83 161.72 8.83 154.7 8.43 154.69 8.43 147.76 8.03 147.75 8.03 140.51 7.62 140.51 7.62 133.37 7.21 109.85 5.87 109.8 5.86"/></g><polygon class="cls-5" points="112.71 8.95 112.71 122.49 114.43 122.4 121.67 122 121.69 122 128.63 121.62 128.63 121.62 135.68 121.24 128.52 120.87 121.28 120.5 115.22 120.19 115.22 120.14 115.25 120.09 115.66 119.34 115.25 119.36 115.25 11.48 116.48 11.41 116.49 11.41 123.21 11.04 123.21 11.04 130.22 10.66 137.13 10.28 135.43 10.19 135.43 10.19 128.4 9.8 128.38 9.8 121.45 9.42 121.44 9.42 114.19 9.03 112.71 8.95"/><polygon class="cls-5" points="112.71 8.95 112.71 122.49 114.43 122.4 121.67 122 121.69 122 128.63 121.62 128.63 121.62 135.68 121.24 128.52 120.87 121.28 120.5 115.22 120.19 115.22 120.14 115.25 120.09 115.66 119.34 115.25 119.36 115.25 11.48 116.48 11.41 116.49 11.41 123.21 11.04 123.21 11.04 130.22 10.66 137.13 10.28 135.43 10.19 135.43 10.19 128.4 9.8 128.38 9.8 121.45 9.42 121.44 9.42 114.19 9.03 112.71 8.95"/><polygon class="cls-5" points="113.47 9.76 113.47 121.68 114.52 121.62 121.46 121.25 128.52 120.87 121.28 120.5 115.22 120.19 115.22 120.14 115.25 120.09 115.66 119.34 115.25 119.36 115.25 11.48 116.48 11.41 116.49 11.41 123.21 11.04 123.21 11.04 130.22 10.66 128.28 10.55 128.28 10.55 121.24 10.18 121.23 10.18 114.3 9.8 114.29 9.8 113.47 9.76"/><polygon class="cls-74" points="113.47 9.76 113.47 121.68 114.52 121.62 121.46 121.25 128.52 120.87 121.28 120.5 115.22 120.19 115.22 120.14 115.25 120.09 115.66 119.34 115.25 119.36 115.25 11.48 116.48 11.41 116.49 11.41 123.21 11.04 123.21 11.04 130.22 10.66 128.28 10.55 128.28 10.55 121.24 10.18 121.23 10.18 114.3 9.8 114.29 9.8 113.47 9.76"/><polygon class="cls-15" points="114.24 10.57 114.24 120.87 114.7 120.85 115.22 120.82 121.28 120.5 115.22 120.19 115.22 120.14 115.25 120.09 115.66 119.34 115.25 119.36 115.25 11.48 116.48 11.41 116.49 11.41 123.21 11.04 121.03 10.93 121.02 10.93 115.22 10.62 114.7 10.59 114.24 10.57"/><polygon class="cls-13" points="114.24 120.14 114.24 120.87 114.7 120.85 115.22 120.82 121.28 120.5 115.22 120.19 115.22 120.14 115.25 120.09 115.22 120.09 114.75 120.12 114.7 120.12 114.32 120.14 114.24 120.14"/><polygon class="cls-28" points="114.24 119.42 114.24 120.14 114.32 120.14 114.7 120.12 114.75 120.12 115.22 120.09 115.25 120.09 115.66 119.34 115.25 119.36 115.22 119.37 114.75 119.39 114.7 119.39 114.24 119.42"/><polygon class="cls-13" points="114.24 10.57 114.24 11.29 114.7 11.32 114.75 11.32 115.22 11.35 115.25 11.35 116.48 11.41 116.49 11.41 123.21 11.04 121.03 10.93 121.02 10.93 115.22 10.62 114.7 10.59 114.24 10.57"/><polygon class="cls-28" points="114.24 11.29 114.24 12.02 114.7 12.04 114.75 12.04 115.22 12.07 115.25 12.07 115.25 11.48 116.48 11.41 115.25 11.35 115.22 11.35 114.75 11.32 114.7 11.32 114.24 11.29"/><polygon class="cls-13" points="114.75 120.48 114.75 10.93 114.24 10.91 114.24 120.51 114.75 120.48"/><polygon class="cls-28" points="114.75 11.31 114.75 120.11 115.22 120.08 115.25 120.08 115.25 11.33 115.22 11.33 114.75 11.31"/><polygon class="cls-5" points="175.88 14.51 175.88 15.23 176.68 15.28 176.68 120.35 177.56 120.3 178.44 120.25 181.79 120.06 181.96 120.05 182.7 120.01 182.85 120 183.71 119.95 183.73 119.95 185.17 119.87 185.44 119.86 186.06 119.82 215.45 118.19 215.45 13.25 186.06 11.61 185.17 11.56 183.73 11.48 183.71 11.48 182.85 11.44 182.7 11.43 181.96 11.38 181.79 11.38 178.44 11.19 177.56 11.14 176.68 11.09 176.68 14.55 175.88 14.51"/><polygon class="cls-75" points="175.88 14.51 175.88 15.23 176.68 15.28 176.68 120.35 177.56 120.3 178.44 120.25 181.79 120.06 181.96 120.05 182.7 120.01 182.85 120 183.71 119.95 183.73 119.95 185.17 119.87 185.44 119.86 186.06 119.82 215.45 118.19 215.45 13.25 186.06 11.61 185.17 11.56 183.73 11.48 183.71 11.48 182.85 11.44 182.7 11.43 181.96 11.38 181.79 11.38 178.44 11.19 177.56 11.14 176.68 11.09 176.68 14.55 175.88 14.51"/><polygon class="cls-5" points="175.88 14.51 175.88 15.23 176.68 15.28 176.68 117.6 177.56 117.56 178.44 117.51 181.79 117.33 181.96 117.33 181.96 117.32 182.7 117.29 182.85 117.28 183.71 117.23 183.73 117.23 185.17 117.16 186.06 117.11 186.06 117.11 186.71 117.07 213.08 115.68 213.08 15.76 186.06 14.33 186.06 14.33 185.17 14.28 183.73 14.2 183.71 14.2 182.85 14.16 182.7 14.15 181.96 14.11 181.96 14.11 181.79 14.1 178.44 13.93 177.56 13.88 176.68 13.83 176.68 14.55 175.88 14.51"/><polygon class="cls-5" points="175.88 14.51 175.88 15.23 176.68 15.28 176.68 117.6 177.56 117.56 178.44 117.51 181.79 117.33 181.96 117.32 182.7 117.29 182.85 117.28 183.71 117.23 183.73 117.23 185.17 117.16 186.06 117.11 186.71 117.07 213.08 115.68 213.08 15.76 186.06 14.33 185.17 14.28 183.73 14.2 183.71 14.2 182.85 14.16 182.7 14.15 181.96 14.11 181.79 14.1 178.44 13.93 177.56 13.88 176.68 13.83 176.68 14.55 175.88 14.51"/><polygon class="cls-5" points="175.88 14.51 175.88 15.23 176.68 15.28 176.68 116.88 177.56 116.84 178.44 116.79 181.79 116.62 181.96 116.61 182.7 116.57 182.85 116.56 183.71 116.52 183.73 116.52 185.17 116.44 186.06 116.39 187.04 116.34 212.46 115.02 212.46 16.42 186.06 15.04 185.17 15 183.73 14.92 183.71 14.92 182.85 14.88 182.7 14.87 181.96 14.83 181.79 14.82 178.44 14.64 177.56 14.6 176.68 14.55 176.68 14.55 175.88 14.51"/><polygon class="cls-76" points="175.88 14.51 175.88 15.23 176.68 15.28 176.68 116.88 177.56 116.84 178.44 116.79 181.79 116.61 181.96 116.61 182.7 116.57 182.85 116.56 183.71 116.52 183.73 116.52 185.17 116.44 186.06 116.39 187.04 116.34 212.46 115.02 212.46 16.42 186.06 15.04 186.06 15.04 185.17 14.99 183.73 14.92 183.71 14.92 182.85 14.88 182.7 14.87 181.96 14.83 181.79 14.82 178.44 14.64 177.56 14.6 176.68 14.55 175.88 14.51"/><polygon class="cls-2" points="175.88 15.23 175.88 15.23 176.68 15.28 176.68 116.16 177.56 116.12 178.44 116.07 181.79 115.9 181.96 115.89 182.7 115.85 182.85 115.84 183.71 115.8 183.73 115.8 185.17 115.72 186.06 115.68 187.38 115.61 211.83 114.35 211.83 17.09 186.06 15.76 185.17 15.71 183.73 15.64 183.71 15.64 182.85 15.59 182.7 15.59 181.96 15.55 181.79 15.54 178.44 15.36 177.56 15.32 176.68 15.27 175.88 15.23"/><g class="cls-8"><polygon class="cls-9" points="176.73 15.28 175.89 15.19 175.94 14.51 176.67 14.6 176.73 9.69 177.55 9.79 218.36 12.12 218.32 119.37 181.79 121.41 176.73 121.7 176.73 15.28"/><path class="cls-10" d="M176.78,9.79l.77.05.88.05,3.36.19H182l.74,0h.15l.89,0,1.44.08.89.05,32.21,1.84V119.27l-32.21,1.84-.89,0-.38,0-1.06.06h0l-.87,0h-.15l-.74,0h-.16l-3.36.19-.88,0-.77,0V15.18h-.1l-.69,0v-.52l.68,0h.11V9.79m-.1-.1v4.86l-.8,0v.72l.8,0V121.75l.88,0,.87,0,3.36-.19H182l.74,0h.15l.86-.05h0l1.06-.06.38,0,.89-.05,32.3-1.84h0V12.07h0l-32.3-1.85-.89-.05-1.44-.08h0l-.86-.05h-.15L182,10h-.17l-3.36-.19-.87,0-.88-.05Z"/></g><polygon class="cls-12" points="176.68 120.29 176.68 121.75 177.56 121.7 178.44 121.65 181.79 121.46 181.96 121.45 182.7 121.41 182.85 121.4 183.71 121.35 183.73 121.35 184.79 121.29 185.17 121.27 186.06 121.21 218.36 119.37 218.37 119.37 218.37 117.97 218.36 117.97 217.16 118.04 215.45 118.13 186.06 119.77 185.47 119.8 185.17 119.82 183.73 119.9 183.71 119.9 182.85 119.95 182.7 119.96 181.96 120 181.79 120.01 178.44 120.19 177.56 120.24 176.68 120.29"/><polygon class="cls-12" points="176.68 9.69 176.68 11.14 177.56 11.19 178.44 11.24 181.79 11.43 181.96 11.44 182.7 11.48 182.85 11.49 183.71 11.54 183.73 11.54 185.17 11.62 186.06 11.67 215.45 13.3 217.16 13.4 218.36 13.47 218.37 13.47 218.37 12.07 218.36 12.07 186.06 10.22 185.17 10.17 183.73 10.09 183.71 10.09 182.85 10.04 182.7 10.03 181.96 9.99 181.79 9.98 178.44 9.79 177.56 9.74 176.68 9.69"/><polygon class="cls-2" points="109.8 5.86 109.8 5.86 109.65 5.85 104.59 0.49 104.59 0.35 104.75 0.36 109.8 5.71 109.8 5.86"/><polygon class="cls-11" points="109.8 5.86 104.59 0.35 104.75 0.36 109.81 5.71 109.8 5.86"/><polygon class="cls-15" points="176.68 15.28 176.68 116.16 177.56 116.12 178.44 116.07 181.79 115.9 181.96 115.89 182.7 115.85 182.85 115.84 183.71 115.8 183.73 115.8 185.17 115.72 186.06 115.68 187.38 115.61 187.38 115.61 211.83 114.35 211.83 17.09 186.06 15.76 185.17 15.71 183.73 15.64 183.71 15.64 182.85 15.59 182.7 15.59 181.96 15.55 181.79 15.54 178.44 15.37 177.56 15.32 176.68 15.28"/><polygon class="cls-2" points="109.8 5.86 109.9 20.83 109.9 35.79 109.9 65.72 109.9 95.65 109.9 110.61 109.8 125.58 109.7 110.61 109.7 95.65 109.7 65.72 109.7 35.79 109.7 20.83 109.8 5.86"/><g class="cls-8"><polygon class="cls-9" points="176.73 15.28 175.89 15.19 175.94 14.51 176.67 14.6 176.73 9.69 177.55 9.79 218.36 12.12 218.32 119.37 181.79 121.41 176.73 121.7 176.73 15.28"/><path class="cls-10" d="M176.78,9.79l.77.05.88.05,3.36.19H182l.74,0h.15l.89,0,1.44.08.89.05,32.21,1.84V119.27l-32.21,1.84-.89,0-.38,0-1.06.06h0l-.87,0h-.15l-.74,0h-.16l-3.36.19-.88,0-.77,0V15.18h-.1l-.69,0v-.52l.68,0h.11V9.79m-.1-.1v4.86l-.8,0v.72l.8,0V121.75l.88,0,.87,0,3.36-.19H182l.74,0h.15l.86-.05h0l1.06-.06.38,0,.89-.05,32.3-1.84h0V12.07h0l-32.3-1.85-.89-.05-1.44-.08h0l-.86-.05h-.15L182,10h-.17l-3.36-.19-.87,0-.88-.05Z"/></g><path class="cls-12" d="M213.32,59.69l1-.12h.15a.36.36,0,0,1,.32.21v11.9a.39.39,0,0,1-.32.21h0l-.15,0-1-.11Z"/><path class="cls-12" d="M214.8,71.67V59.77a.36.36,0,0,0-.32-.21h0a.68.68,0,0,0-.31.06V71.81a.62.62,0,0,0,.31.07h0A.39.39,0,0,0,214.8,71.67Z"/><polygon class="cls-31" points="176.68 15.28 176.68 21.91 177.56 24.22 178.44 26.54 181.79 35.37 181.96 35.8 182.7 37.75 182.85 38.14 183.71 40.41 183.73 40.47 185.17 44.26 186.06 46.6 200.96 85.76 211.83 114.35 211.83 17.09 186.06 15.76 185.17 15.71 183.73 15.64 183.71 15.64 182.85 15.59 182.7 15.59 181.96 15.55 181.79 15.54 178.44 15.37 177.56 15.32 176.68 15.28"/><path class="cls-2" d="M-40.51-8.68V140.09h.2l144.91-9h.16l2.27-.14h.12l2.14-.14h.56V.66h-.55l-2-.13h-.12L-40.32-8.67Zm139.15,128-53-2.73V14.82l53.42-2.75V119.36Z"/><path class="cls-77" d="M-40.51-8.68V140.09h.2l144.91-9h.16l2.27-.14h.12l2.14-.14h.56V.66h-.55l-2-.13h-.12L-40.32-8.67Zm139.15,128-53-2.73V14.82l53.42-2.75V119.36Z"/><path class="cls-78" d="M-33.78-2.36V133.77h0L32.51,130h0l30.91-1.77h0l41-2.34h.2V5.56h-.2L63.65,3.21h-.11l-31-1.78L-33.76-2.36ZM98.64,119.34l-53-2.73V14.82l53.42-2.75V119.36Z"/><polygon class="cls-5" points="32.51 129.98 32.51 1.43 -33.78 -2.36 -33.78 133.77 32.51 129.98"/><path class="cls-5" d="M32.51,1.43V130l30.91-1.77h0l41-2.34h.2V5.56h-.2L63.65,3.21h-.11ZM98.64,119.34l-53-2.73V14.82l53.42-2.75V119.36Z"/><g class="cls-25"><path class="cls-79" d="M32.51,1.43V130l30.91-1.77h0l41-2.34h.2V5.56h-.2L63.65,3.21h-.11ZM98.64,119.34l-53-2.73V14.82l53.42-2.75V119.36Z"/></g><path class="cls-5" d="M35.87,4.76V126.65l1.31-.07,4.55-.25,39-2.11h0l21-1.15V8.34L80.94,7.21,41.73,5.08,37.4,4.84ZM98.64,119.34l-53-2.73V14.82l53.42-2.75V119.36Z"/><path class="cls-5" d="M35.87,4.76V126.65l1.31-.07,4.55-.25,39-2.11h0l21-1.15V8.34L80.94,7.21,41.73,5.08,37.4,4.84ZM98.64,119.34l-53-2.73V14.82l53.42-2.75V119.36Z"/><path class="cls-5" d="M36.75,5.63V125.78l5-.27,31.84-1.7h0l26.31-1.41,1-.06V9.07l-.79,0L73.8,7.62h0L41.73,5.9ZM98.64,119.34l-53-2.73V14.82l53.42-2.75V119.36Z"/><path class="cls-80" d="M36.75,5.63V125.78l5-.27,31.84-1.7h0l26.31-1.41,1-.06V9.07l-.79,0L73.8,7.62h0L41.73,5.9ZM98.64,119.34l-53-2.73V14.82l53.42-2.75V119.36Z"/><path class="cls-15" d="M37.63,6.5V124.91l4.1-.22,24.58-1.3h0L92.62,122h0l7.16-.38.34,0V9.81H100l-7.15-.38h0L66.55,8h0L41.73,6.72Zm61,112.84-53-2.73V14.82l53.42-2.75V119.36Z"/><polygon class="cls-13" points="100.13 9.81 37.63 6.5 37.63 7.28 100.13 10.54 100.13 9.81"/><polygon class="cls-28" points="100.13 10.54 37.63 7.28 37.63 8.06 100.13 11.28 100.13 10.54"/><polygon class="cls-13" points="37.63 124.91 100.13 121.6 100.13 120.87 37.63 124.13 37.63 124.91"/><polygon class="cls-28" points="37.63 124.13 100.13 120.87 100.13 120.13 37.63 123.35 37.63 124.13"/><polygon class="cls-13" points="99.61 10.15 99.61 121.29 100.13 121.26 100.13 10.18 99.61 10.15"/><polygon class="cls-28" points="99.08 10.5 99.08 120.94 99.61 120.91 99.61 10.53 99.08 10.5"/><polygon class="cls-5" points="-29.1 -0.39 -29.1 131.81 32.51 128.37 32.51 3.04 -29.1 -0.39"/><polygon class="cls-81" points="-29.1 -0.39 -29.1 131.81 32.51 128.37 32.51 3.04 -29.1 -0.39"/><polygon class="cls-5" points="-25.37 128.29 29.13 125.4 29.13 6.01 -25.37 3.12 -25.37 128.29"/><polygon class="cls-5" points="-25.37 128.29 32.35 125.23 32.35 6.18 -25.37 3.12 -25.37 128.29"/><polygon class="cls-5" points="-24.39 127.37 28.24 124.62 28.24 6.79 -24.39 4.04 -24.39 127.37"/><polygon class="cls-82" points="-24.39 127.37 31.46 124.45 31.46 6.96 -24.39 4.04 -24.39 127.37"/><polygon class="cls-2" points="-23.41 126.45 30.57 123.67 30.57 7.74 -23.41 4.96 -23.41 126.45"/><g class="cls-8"><polygon class="cls-9" points="-33.73 -2.36 32.51 1.48 32.46 129.98 -33.73 133.72 -33.73 -2.36"/><path class="cls-10" d="M-33.68-2.25,32.41,1.53V129.89l-66.09,3.77V-2.25m-.1-.11V133.77L32.51,130V1.43L-33.78-2.36Z"/></g><polygon class="cls-12" points="-33.78 -2.36 -33.78 -0.59 32.51 3.1 32.51 1.43 -33.78 -2.36"/><polygon class="cls-83" points="31.61 3.05 31.61 128.36 32.51 129.98 32.51 1.43 31.61 3.05"/><polygon class="cls-15" points="-23.41 126.45 30.59 123.67 30.59 7.74 -23.41 4.96 -23.41 126.45"/><polygon class="cls-84" points="30.1 68.93 30.1 63.63 28.87 63.62 28.87 68.94 30.1 68.93"/><polygon class="cls-85" points="30.84 70.14 30.84 62.42 32.27 62.42 32.27 70.14 30.84 70.14"/><polygon class="cls-86" points="30.1 69.16 30.1 63.4 30.84 63.4 30.84 69.16 30.1 69.16"/><polygon class="cls-87" points="30.36 61.52 30.36 63.04 29.89 63.19 30.1 65.67 30.1 67.26 29.13 67.27 29.13 61.29 30.36 61.52"/><g class="cls-43"><path class="cls-9" d="M30.36,61.52A12.94,12.94,0,0,1,30.41,63v0h0l-.47.15,0-.05.21,2.48h0c0,.53,0,1.06,0,1.59a14.08,14.08,0,0,1-.05-1.59h0l-.21-2.47v0l0,0,.47-.15,0,0C30.3,62.54,30.32,62,30.36,61.52Z"/></g><polygon class="cls-88" points="28.73 68.7 28.73 63.85 28.87 63.62 28.87 68.94 28.73 68.7"/><polygon class="cls-2" points="104.65 125.86 104.55 110.82 104.55 95.78 104.55 65.71 104.55 35.63 104.55 20.59 104.65 5.55 104.75 20.59 104.75 35.63 104.75 65.71 104.75 95.78 104.75 110.82 104.65 125.86"/><g class="cls-8"><polygon class="cls-9" points="-33.73 -2.36 32.51 1.48 32.46 129.98 -33.73 133.72 -33.73 -2.36"/><path class="cls-10" d="M-33.68-2.25,32.41,1.53V129.89l-66.09,3.77V-2.25m-.1-.11V133.77L32.51,130V1.43L-33.78-2.36Z"/></g><path class="cls-12" d="M102.13,59l1.26-.13.18,0h0a.47.47,0,0,1,.4.24v13.3a.49.49,0,0,1-.4.23h0l-.18,0-1.26-.13Z"/><path class="cls-12" d="M104,72.36V59.06a.47.47,0,0,0-.4-.24h0c-.21,0-.39,0-.39.08V72.52a1,1,0,0,0,.39.07h0A.49.49,0,0,0,104,72.36Z"/><polygon class="cls-31" points="-23.41 4.96 -23.41 126.45 30.59 123.67 -23.41 4.96"/><polygon class="cls-31" points="37.63 8.1 38.47 9.64 39.22 11 39.25 11.05 40.69 13.67 40.98 14.21 41.55 15.24 41.67 15.47 41.73 15.58 44.26 20.19 44.94 21.44 45.63 22.68 45.63 14.82 99.05 12.07 99.05 119.36 98.64 119.34 99.06 120.09 99.08 120.14 99.08 11.48 99.05 11.48 97.82 11.41 91.09 11.04 84.08 10.66 77.17 10.28 51.73 8.88 51.73 8.88 41.73 8.33 37.63 8.1"/><polygon class="cls-1" points="107.15 0.49 107.15 130.93 107.17 130.93 107.28 130.92 109.3 130.8 109.43 130.79 109.57 130.78 109.57 130.78 109.71 130.77 150.88 128.22 150.89 128.21 172.57 126.87 172.57 123.14 161.97 122.59 161.96 122.59 135.68 121.24 128.52 120.87 121.28 120.5 115.22 120.19 115.22 120.14 115.25 120.09 115.66 119.34 115.25 119.36 115.25 11.48 116.48 11.41 116.49 11.41 123.21 11.04 123.21 11.04 130.22 10.66 137.13 10.28 162.57 8.88 162.57 8.88 172.57 8.33 172.57 4.56 150.77 3.21 109.71 0.65 109.57 0.65 109.57 0.65 109.44 0.64 109.3 0.63 109.3 0.63 107.27 0.5 107.26 0.5 107.16 0.49 107.15 0.49"/><path class="cls-2" d="M-8.21,7.68V123.76h.12l16.63,1h0l7.38.46h0l7.29.45h0l8.35.51.9.06,3.36.21,1.31.08,4.55.28,21.7,1.35h0l41.16,2.56H105l2,.12h.14l2.39.15h.15V.35h-.16L107.27.5h-.12L105,.64h-.57L63.65,3.21,41.73,4.57l-4.33.27-1.53.1-3.36.21-.9,0-8.14.51h0l-7.28.45h0l-7.37.46h0l-16.86,1ZM98.64,119.34l-53-2.73V14.82l53.42-2.75V119.36Z"/><path class="cls-89" d="M-8.21,7.68V123.76h.12l16.63,1h0l7.38.46h0l7.29.45h0l8.35.51.9.06,3.36.21,1.31.08,4.55.28,21.7,1.35h0l41.16,2.56H105l2,.12h.14l2.39.15h.15V.35h-.16L107.27.5h-.12L105,.64h-.57L63.65,3.21,41.73,4.57l-4.33.27-1.53.1-3.36.21-.9,0-8.14.51h0l-7.28.45h0l-7.37.46h0l-16.86,1ZM98.64,119.34l-53-2.73V14.82l53.42-2.75V119.36Z"/><path class="cls-90" d="M-4.07,12.07v107.3h0l32.29,1.84.89.05.38,0,1.06.06h0l.83.05h.19l.74,0h.16l3.36.19,1.76.1,4,.23h.06l10.6.6h0l7,.41h0l6.92.39h0l7.25.42h0l7.14.41h0l23.73,1.35h.06V5.86h-.06L80.94,7.21l-7.14.41h0L66.55,8h0l-6.92.4h0l-7,.4h0l-.86.05h0l-10,.57h-.06l-3.2.19-.84,0-1.76.1L32.51,10h-.16l-.74,0h-.19l-.83.05h0l-1.44.08-.89.05L-4,12.07Zm49.7,104.54V14.82l53.42-2.75V119.36l-.41,0Z"/><polygon class="cls-5" points="41.67 9.46 41.67 121.98 -4.07 119.37 -4.07 12.07 41.67 9.46"/><path class="cls-5" d="M41.67,9.45V122h.06l10.62.6h0l7,.41h0l6.92.39h0l7.25.42h0l7.14.41h0l23.73,1.35h.06V5.86h-.06L80.94,7.21l-7.14.41h0L66.55,8h0l-6.92.4h0l-7,.4h0l-.86.05h0l-10,.57Zm4,107.16V14.82l53.42-2.75V119.36l-.41,0Z"/><g class="cls-25"><path class="cls-91" d="M41.67,9.45V122h.06l10.62.6h0l7,.41h0l6.92.39h0l7.25.42h0l7.14.41h0l23.73,1.35h.06V5.86h-.06L80.94,7.21l-7.14.41h0L66.55,8h0l-6.92.4h0l-7,.4h0l-.86.05h0l-10,.57Zm4,107.16V14.82l53.42-2.75V119.36l-.41,0Z"/></g><path class="cls-5" d="M44.26,12.07v107.3l34.37,1.87h0l7,.38h0l6.94.38h0l7.25.4,1.72.09V9L100.12,9l-7.26.39h0l-6.94.38h0l-7,.39h0l-1.7.09Zm1.37,2.75,53.42-2.75V119.36l-.41,0-53-2.73Z"/><path class="cls-5" d="M44.26,12.07v107.3l34.37,1.87h0l7,.38h0l6.94.38h0l7.25.4,1.72.09V9L100.12,9l-7.26.39h0l-6.94.38h0l-7,.39h0l-1.7.09Zm1.37,2.75,53.42-2.75V119.36l-.41,0-53-2.73Z"/><path class="cls-5" d="M44.94,12.76V118.68l40.85,2.19,7,.38,7,.37,1,.06V9.76l-.82,0h0l-6.94.38h0l-7,.37h0l-1.94.11Zm.69,2.06,53.42-2.75V119.36l-.41,0-53-2.73Z"/><path class="cls-92" d="M44.94,12.76V118.68l40.85,2.19,7,.38,7,.37,1,.06V9.76l-.82,0h0l-6.94.38h0l-7,.37h0l-1.94.11Zm.69,2.06,53.42-2.75V119.36l-.41,0-53-2.73Z"/><polygon class="cls-15" points="45.63 13.45 45.63 14.82 99.05 12.07 99.05 119.36 98.64 119.34 45.63 116.61 45.63 117.99 93.03 120.5 99.08 120.82 99.61 120.85 100.07 120.87 100.07 10.57 99.61 10.59 99.08 10.62 93.28 10.93 91.09 11.04 45.63 13.45"/><polygon class="cls-13" points="100.07 120.87 45.63 117.99 45.63 117.3 100.07 120.14 100.07 120.87"/><polygon class="cls-28" points="45.63 116.61 45.63 117.3 99.06 120.09 99.08 120.09 99.56 120.12 99.61 120.12 99.98 120.14 100.07 120.14 100.07 119.42 99.61 119.39 99.56 119.39 99.08 119.37 99.05 119.36 98.64 119.34 45.63 116.61"/><polygon class="cls-13" points="45.63 13.45 100.07 10.57 100.07 11.29 45.63 14.14 45.63 13.45"/><polygon class="cls-28" points="45.63 14.14 45.63 14.82 99.05 12.07 99.08 12.07 99.56 12.04 99.61 12.04 100.07 12.02 100.07 11.29 99.61 11.32 99.56 11.32 99.08 11.35 99.05 11.35 97.82 11.41 45.63 14.14"/><polygon class="cls-13" points="99.56 120.48 99.56 10.93 100.07 10.91 100.07 120.51 99.56 120.48"/><polygon class="cls-28" points="99.05 11.33 99.05 120.08 99.08 120.08 99.56 120.11 99.56 11.31 99.08 11.33 99.05 11.33"/><polygon class="cls-5" points="-1.14 118.19 -1.14 13.25 41.67 10.87 41.67 120.57 -1.14 118.19"/><polygon class="cls-93" points="-1.14 118.19 -1.14 13.25 41.67 10.87 41.67 120.57 -1.14 118.19"/><polygon class="cls-5" points="1.23 15.76 39.1 13.75 39.1 117.68 1.23 115.68 1.23 15.76"/><polygon class="cls-5" points="1.23 15.76 41.55 13.62 41.55 117.81 1.23 115.68 1.23 15.76"/><polygon class="cls-5" points="1.85 16.42 38.42 14.51 38.42 116.92 1.85 115.02 1.85 16.42"/><polygon class="cls-94" points="1.85 16.42 40.87 14.38 40.87 117.05 1.85 115.02 1.85 16.42"/><polygon class="cls-2" points="2.48 17.08 40.19 15.14 40.19 116.29 2.48 114.35 2.48 17.08"/><g class="cls-8"><polygon class="cls-9" points="-4.07 119.32 -4.02 12.07 41.67 9.51 41.62 121.93 -4.07 119.32"/><path class="cls-10" d="M41.57,9.56V121.88L-4,119.27V12.16l45.54-2.6m.1-.11L-4.07,12.07v107.3L41.67,122V9.45Z"/></g><polygon class="cls-12" points="-4.07 119.37 -4.07 117.97 41.67 120.52 41.67 121.98 -4.07 119.37"/><polygon class="cls-12" points="-4.07 13.47 -4.07 12.07 41.67 9.46 41.67 10.92 -4.07 13.47"/><polygon class="cls-2" points="104.5 5.86 104.51 5.86 104.65 5.85 109.71 0.49 109.71 0.35 109.56 0.36 104.5 5.71 104.5 5.86"/><polygon class="cls-11" points="104.51 5.86 109.71 0.35 109.56 0.36 104.5 5.71 104.51 5.86"/><polygon class="cls-95" points="40.98 120.48 40.98 10.96 41.67 9.46 41.67 121.98 40.98 120.48"/><polygon class="cls-15" points="2.48 17.08 40.21 15.14 40.21 116.29 2.48 114.35 2.48 17.08"/><polygon class="cls-96" points="39.83 62.91 39.83 67.53 38.89 67.53 38.89 62.91 39.83 62.91"/><polygon class="cls-97" points="40.4 61.85 40.4 68.59 41.48 68.59 41.48 61.84 40.4 61.85"/><polygon class="cls-98" points="39.83 62.7 39.83 67.73 40.4 67.73 40.4 62.7 39.83 62.7"/><polygon class="cls-99" points="40.03 69.36 40.03 68.04 39.67 67.91 39.83 65.75 39.83 64.36 39.1 64.36 39.1 69.56 40.03 69.36"/><g class="cls-43"><path class="cls-9" d="M40,69.37A9.92,9.92,0,0,1,40,68l0,0L39.66,68l0,0v0l.16-2.15h0a10.77,10.77,0,0,1,0-1.39,10.77,10.77,0,0,1,.05,1.39h0l-.16,2.16,0,0,.36.14h0v0A9.92,9.92,0,0,1,40,69.37Z"/></g><polygon class="cls-100" points="38.79 63.11 38.79 67.33 38.89 67.53 38.89 62.91 38.79 63.11"/><polygon class="cls-2" points="104.51 5.86 104.61 20.83 104.61 35.79 104.61 65.72 104.61 95.65 104.61 110.61 104.51 125.58 104.41 110.61 104.41 95.65 104.41 65.72 104.41 35.79 104.41 20.83 104.51 5.86"/><g class="cls-8"><polygon class="cls-9" points="-4.07 119.32 -4.02 12.07 41.67 9.51 41.62 121.93 -4.07 119.32"/><path class="cls-10" d="M41.57,9.56V121.88L-4,119.27V12.16l45.54-2.6m.1-.11L-4.07,12.07v107.3L41.67,122V9.45Z"/></g><path class="cls-12" d="M1,59.69l-1-.12H-.17a.38.38,0,0,0-.33.21v11.9a.42.42,0,0,0,.33.21h0l.14,0,1-.11Z"/><path class="cls-12" d="M-.5,71.67V59.77a.38.38,0,0,1,.33-.21h0a.68.68,0,0,1,.31.06V71.81a.62.62,0,0,1-.31.07h0A.42.42,0,0,1-.5,71.67Z"/><polygon class="cls-31" points="2.48 114.35 2.48 17.08 40.21 15.14 2.48 114.35"/><path class="cls-2" d="M104.45.66V130.75H105l2.13.14h.13l2.27.14h.16l144.91,9h.2V-8.68h-.19L107.16.49h-.11l-2,.13h-.56Zm72.23,13.89-.8,0v.72l.8,0V123.35l-4.11-.21-10.6-.55h0l-26.28-1.35-7.16-.37-7.24-.37-6.06-.31v0l0,0,.41-.75-.41,0V11.48l1.23-.07h0l6.72-.37h0l7-.38,6.91-.38,25.44-1.4h0l10-.55,4.11-.23Z"/><path class="cls-101" d="M104.45.66V130.75H105l2.13.14h.13l2.27.14h.16l144.91,9h.2V-8.68h-.19L107.16.49h-.11l-2,.13h-.56Zm72.23,13.89-.8,0v.72l.8,0V123.35l-4.11-.21-10.6-.55h0l-26.28-1.35-7.16-.37-7.24-.37-6.06-.31v0l0,0,.41-.75-.41,0V11.48l1.23-.07h0l6.72-.37h0l7-.38,6.91-.38,25.44-1.4h0l10-.55,4.11-.23Z"/><path class="cls-102" d="M109.66,5.56v120.3h.19l41,2.34h0l30.9,1.77h0l66.27,3.79h0V-2.36h0L181.79,1.43l-31,1.78h-.11L109.85,5.54h-.19Zm67,117.79-4.11-.21-10.6-.55h0l-26.28-1.35-7.16-.37-7.24-.37-6.06-.31v0l0,0,.41-.75-.41,0V11.48l1.23-.07h0l6.72-.37h0l7-.38,6.91-.38,25.44-1.4h0l10-.55,4.11-.23v6.45l-.8,0v.72l.8,0Z"/><polygon class="cls-5" points="181.79 129.98 181.79 1.43 248.09 -2.36 248.09 133.77 181.79 129.98"/><path class="cls-5" d="M109.66,5.56v120.3h.19l41,2.34h0l30.9,1.77V1.43l-31,1.78h-.11L109.85,5.54h-.19Zm67,117.79-4.11-.21-10.6-.55h0l-26.28-1.35-7.16-.37-7.24-.37-6.06-.31v0l0,0,.41-.75-.41,0V11.48l1.23-.07h0l6.72-.37h0l7-.38,6.91-.38,25.44-1.4h0l10-.55,4.11-.23v6.45l-.8,0v.72l.8,0Z"/><g class="cls-25"><path class="cls-103" d="M109.66,5.56v120.3h.19l41,2.34h0l30.9,1.77V1.43l-31,1.78h-.11L109.85,5.54h-.19Zm67,117.79-4.11-.21-10.6-.55h0l-26.28-1.35-7.16-.37-7.24-.37-6.06-.31v0l0,0,.41-.75-.41,0V11.48l1.23-.07h0l6.72-.37h0l7-.38,6.91-.38,25.44-1.4h0l10-.55,4.11-.23v6.45l-.8,0v.72l.8,0Z"/></g><path class="cls-5" d="M112.61,8.34V123.07l21,1.15h0l39,2.11,4.55.25,1.31.07V4.76l-1.52.08-4.34.24L133.36,7.21Zm64.07,115-4.11-.21-10.6-.55h0l-26.28-1.35-7.16-.37-7.24-.37-6.06-.31v0l0,0,.41-.75-.41,0V11.48l1.23-.07h0l6.72-.37h0l7-.38,6.91-.38,25.44-1.4h0l10-.55,4.11-.23v6.45l-.8,0v.72l.8,0Z"/><path class="cls-5" d="M112.61,8.34V123.07l21,1.15h0l39,2.11,4.55.25,1.31.07V4.76l-1.52.08-4.34.24L133.36,7.21Zm64.07,115-4.11-.21-10.6-.55h0l-26.28-1.35-7.16-.37-7.24-.37-6.06-.31v0l0,0,.41-.75-.41,0V11.48l1.23-.07h0l6.72-.37h0l7-.38,6.91-.38,25.44-1.4h0l10-.55,4.11-.23v6.45l-.8,0v.72l.8,0Z"/><path class="cls-5" d="M113.4,9.07V122.34l1,.06,26.31,1.41h0l31.83,1.7,5,.27V5.63l-5,.27L140.51,7.62h0L114.19,9Zm63.28,114.28-4.11-.21-10.6-.55h0l-26.28-1.35-7.16-.37-7.24-.37-6.06-.31v0l0,0,.41-.75-.41,0V11.48l1.23-.07h0l6.72-.37h0l7-.38,6.91-.38,25.44-1.4h0l10-.55,4.11-.23v6.45l-.8,0v.72l.8,0Z"/><path class="cls-104" d="M113.4,9.07V122.34l1,.06,26.31,1.41h0l31.83,1.7,5,.27V5.63l-5,.27L140.51,7.62h0L114.19,9Zm63.28,114.28-4.11-.21-10.6-.55h0l-26.28-1.35-7.16-.37-7.24-.37-6.06-.31v0l0,0,.41-.75-.41,0V11.48l1.23-.07h0l6.72-.37h0l7-.38,6.91-.38,25.44-1.4h0l10-.55,4.11-.23v6.45l-.8,0v.72l.8,0Z"/><polygon class="cls-15" points="114.18 9.81 114.18 121.6 114.52 121.62 121.67 122 121.69 122 147.98 123.39 147.99 123.39 172.57 124.69 176.68 124.91 176.68 123.35 172.57 123.14 161.97 122.59 161.96 122.59 135.68 121.24 128.52 120.87 121.28 120.5 115.22 120.19 115.22 120.14 115.25 120.09 115.66 119.34 115.25 119.36 115.25 11.48 116.48 11.41 116.49 11.41 123.21 11.04 123.21 11.04 130.22 10.66 137.13 10.28 162.57 8.88 162.57 8.88 172.57 8.33 176.68 8.1 176.68 6.5 172.57 6.72 147.76 8.03 147.75 8.03 121.45 9.42 121.44 9.42 114.3 9.8 114.29 9.8 114.18 9.81"/><polygon class="cls-13" points="114.18 9.81 176.68 6.5 176.68 7.28 114.18 10.54 114.18 9.81"/><polygon class="cls-28" points="114.18 10.54 176.68 7.28 176.68 8.06 114.18 11.28 114.18 10.54"/><polygon class="cls-13" points="176.68 124.91 114.18 121.6 114.18 120.87 176.68 124.13 176.68 124.91"/><polygon class="cls-28" points="114.18 120.13 114.18 120.87 114.24 120.87 114.7 120.9 115.22 120.92 121.46 121.25 128.63 121.62 128.63 121.62 154.91 123 154.93 123 172.57 123.92 176.68 124.13 176.68 123.35 172.57 123.14 161.97 122.59 161.96 122.59 135.68 121.24 128.52 120.87 121.28 120.5 115.22 120.19 114.75 120.16 114.7 120.16 114.32 120.14 114.24 120.13 114.18 120.13"/><polygon class="cls-13" points="114.7 10.15 114.7 121.29 114.18 121.26 114.18 10.18 114.7 10.15"/><polygon class="cls-28" points="114.7 10.53 114.7 120.91 115.22 120.94 115.22 10.5 114.7 10.53"/><polygon class="cls-5" points="243.41 -0.39 243.41 131.81 181.79 128.37 181.79 3.04 243.41 -0.39"/><polygon class="cls-105" points="243.41 -0.39 243.41 131.81 181.79 128.37 181.79 3.04 243.41 -0.39"/><polygon class="cls-5" points="239.67 128.29 185.17 125.4 185.17 6.01 239.67 3.12 239.67 128.29"/><polygon class="cls-5" points="239.67 128.29 181.96 125.23 181.96 6.18 239.67 3.12 239.67 128.29"/><polygon class="cls-5" points="238.69 127.37 186.06 124.62 186.06 6.79 238.69 4.04 238.69 127.37"/><polygon class="cls-106" points="238.69 127.37 182.85 124.45 182.85 6.96 238.69 4.04 238.69 127.37"/><polygon class="cls-2" points="237.72 126.45 183.74 123.67 183.74 7.74 237.72 4.96 237.72 126.45"/><g class="cls-8"><polygon class="cls-9" points="181.8 129.93 181.84 1.43 248.09 -2.31 248.04 133.72 181.8 129.93"/><path class="cls-10" d="M248-2.25V133.66l-66.1-3.77V1.53L248-2.25m.1-.11-66.3,3.79V130l66.3,3.79V-2.36Z"/></g><polygon class="cls-12" points="248.09 -2.36 248.09 -0.59 181.79 3.1 181.79 1.43 248.09 -2.36"/><polygon class="cls-107" points="182.7 3.05 182.7 128.36 181.79 129.98 181.79 1.43 182.7 3.05"/><polygon class="cls-15" points="237.72 126.45 183.71 123.67 183.71 7.74 237.72 4.96 237.72 126.45"/><polygon class="cls-108" points="184.21 68.93 184.21 63.63 185.44 63.62 185.44 68.94 184.21 68.93"/><polygon class="cls-109" points="183.46 70.14 183.46 62.42 182.04 62.42 182.04 70.14 183.46 70.14"/><polygon class="cls-110" points="184.21 69.16 184.21 63.4 183.46 63.4 183.46 69.16 184.21 69.16"/><polygon class="cls-111" points="183.94 61.52 183.94 63.04 184.41 63.19 184.21 65.67 184.21 67.26 185.17 67.27 185.17 61.29 183.94 61.52"/><g class="cls-43"><path class="cls-9" d="M183.94,61.52A13,13,0,0,1,184,63l0,0,.47.15,0,0v0l-.2,2.47h0a14.08,14.08,0,0,1,0,1.59,14.08,14.08,0,0,1-.05-1.59h0l.2-2.48,0,.05-.47-.15h0v0C183.88,62.54,183.9,62,183.94,61.52Z"/></g><polygon class="cls-112" points="185.58 68.7 185.58 63.85 185.44 63.62 185.44 68.94 185.58 68.7"/><polygon class="cls-2" points="109.66 125.86 109.55 110.82 109.55 95.78 109.55 65.71 109.55 35.63 109.55 20.59 109.66 5.55 109.75 20.59 109.75 35.63 109.75 65.71 109.75 95.78 109.75 110.82 109.66 125.86"/><g class="cls-8"><polygon class="cls-9" points="181.8 129.93 181.84 1.43 248.09 -2.31 248.04 133.72 181.8 129.93"/><path class="cls-10" d="M248-2.25V133.66l-66.1-3.77V1.53L248-2.25m.1-.11-66.3,3.79V130l66.3,3.79V-2.36Z"/></g><path class="cls-12" d="M112.18,59l-1.26-.13-.19,0h0a.47.47,0,0,0-.4.24v13.3a.49.49,0,0,0,.4.23h0l.19,0,1.26-.13Z"/><path class="cls-12" d="M110.33,72.36V59.06a.47.47,0,0,1,.4-.24h0c.22,0,.4,0,.4.08V72.52a1,1,0,0,1-.4.07h0A.49.49,0,0,1,110.33,72.36Z"/><polygon class="cls-31" points="237.72 4.96 237.72 126.45 183.71 123.67 237.72 4.96"/><polygon class="cls-31" points="115.22 11.48 115.22 120.14 115.25 120.09 115.66 119.34 115.25 119.36 115.25 11.48 115.22 11.48"/><path class="cls-1" d="M41.73,4.56V126.87l21.69,1.34h0l41.18,2.56H105l2,.12h.12V.49H107l-2,.13h-.41L63.54,3.21Zm3.9,10.26,53.42-2.75V119.36l-.41,0-53-2.73Z"/><polyline class="cls-1" points="107.36 130.44 172.78 126.37 172.78 4.07 107.36 0"/></g><polygon class="cls-31" points="4.93 107.04 4.93 24.09 34.64 16.68 4.93 107.04"/><polygon class="cls-31" points="209.67 107.04 209.67 24.09 179.97 16.68 209.67 107.04"/><polygon class="cls-31" points="45.74 116.46 45.74 14.69 99.2 11.94 45.74 116.46"/><polygon class="cls-31" points="115.41 119.97 168.86 14.69 115.41 11.94 115.41 119.97"/></svg>