<svg id="Layer_1" data-name="Layer 1" xmlns="http://www.w3.org/2000/svg" xmlns:xlink="http://www.w3.org/1999/xlink" viewBox="0 0 118.95 197.35"><defs><style>.cls-1{fill:#fff;}.cls-16,.cls-19,.cls-2,.cls-5,.cls-6,.cls-7{opacity:0.6;}.cls-2{fill:url(#linear-gradient);}.cls-3{fill:url(#linear-gradient-2);}.cls-4{fill:#f3f3f3;}.cls-5{fill:url(#linear-gradient-3);}.cls-6{fill:url(#linear-gradient-4);}.cls-7{fill:url(#linear-gradient-5);}.cls-11,.cls-8{opacity:0.05;}.cls-11,.cls-13,.cls-9{fill:#414142;}.cls-10{fill:#6e6f71;}.cls-12{fill:#d3d5d2;}.cls-13,.cls-14{opacity:0.2;}.cls-15{fill:#0c3b5e;}.cls-17{fill:url(#linear-gradient-6);}.cls-18{opacity:0.07;fill:url(#linear-gradient-7);}.cls-19{fill:url(#linear-gradient-8);}.cls-20{fill:#e6e7e7;}.cls-21{fill:url(#linear-gradient-9);}.cls-22{fill:url(#linear-gradient-10);}.cls-23{fill:url(#linear-gradient-11);}.cls-24{fill:url(#linear-gradient-12);}.cls-25{fill:url(#linear-gradient-13);}.cls-26{fill:url(#linear-gradient-14);}.cls-27,.cls-29{opacity:0.5;}.cls-28,.cls-29{fill:none;stroke:#f2f2f2;stroke-miterlimit:10;stroke-width:0.67px;}</style><linearGradient id="linear-gradient" y1="98.67" x2="118.95" y2="98.67" gradientUnits="userSpaceOnUse"><stop offset="0" stop-color="#d5d9d3"/><stop offset="0.21" stop-color="#e9ebe4"/><stop offset="0.82" stop-color="#e6eae6"/><stop offset="1" stop-color="#d5d9d3"/></linearGradient><linearGradient id="linear-gradient-2" x1="8.17" y1="104.68" x2="110.78" y2="104.68" gradientUnits="userSpaceOnUse"><stop offset="0" stop-color="#e5e9e6"/><stop offset="0.48" stop-color="#f1f4f4"/><stop offset="1" stop-color="#e5e9e6"/></linearGradient><linearGradient id="linear-gradient-3" x1="10.53" y1="53.86" x2="108.42" y2="53.86" xlink:href="#linear-gradient"/><linearGradient id="linear-gradient-4" x1="16.35" y1="56.05" x2="102.6" y2="56.05" xlink:href="#linear-gradient"/><linearGradient id="linear-gradient-5" x1="-1137.23" y1="-50.22" x2="-1044.24" y2="-50.22" gradientTransform="translate(-1031.26 -34.44) rotate(180)" xlink:href="#linear-gradient"/><linearGradient id="linear-gradient-6" x1="8.17" y1="141.66" x2="110.78" y2="141.66" xlink:href="#linear-gradient"/><linearGradient id="linear-gradient-7" x1="13.99" y1="141.66" x2="104.96" y2="141.66" gradientTransform="translate(-82.18 201.13) rotate(-90)" xlink:href="#linear-gradient"/><linearGradient id="linear-gradient-8" x1="10.62" y1="187.61" x2="108.33" y2="187.61" xlink:href="#linear-gradient"/><linearGradient id="linear-gradient-9" x1="8.17" y1="93.21" x2="110.78" y2="93.21" gradientUnits="userSpaceOnUse"><stop offset="0" stop-color="#d5d9d3"/><stop offset="0.51" stop-color="#d0d4d1"/><stop offset="1" stop-color="#d5d9d3"/></linearGradient><linearGradient id="linear-gradient-10" x1="55.6" y1="25.11" x2="63.36" y2="25.11" gradientTransform="matrix(1, 0, 0, -1.98, 0, 139.4)" gradientUnits="userSpaceOnUse"><stop offset="0" stop-color="#d5d9d3"/><stop offset="0.52" stop-color="#e9ebe4"/><stop offset="1" stop-color="#d5d9d3"/></linearGradient><linearGradient id="linear-gradient-11" x1="53.82" y1="92.51" x2="65.13" y2="92.51" gradientTransform="matrix(1, 0, 0, 1, 0, 0)" xlink:href="#linear-gradient-10"/><linearGradient id="linear-gradient-12" x1="55.26" y1="91.03" x2="63.69" y2="91.03" xlink:href="#linear-gradient"/><linearGradient id="linear-gradient-13" x1="-888.85" y1="4.52" x2="-881.21" y2="4.52" gradientTransform="translate(-955.64 94.57) rotate(180) scale(1.14 1)" xlink:href="#linear-gradient"/><linearGradient id="linear-gradient-14" x1="55.6" y1="155.86" x2="63.36" y2="155.86" gradientTransform="translate(0 20.09) scale(1 0.44)" xlink:href="#linear-gradient"/></defs><path class="cls-1" d="M101.45,100.86v80H17.5v-80H15.21v81.59h88.54V100.86Zm0,0v80H17.5v-80H15.21v81.59h88.54V100.86Zm0,0v80H17.5v-80H15.21v81.59h88.54V100.86Zm0,0v80H17.5v-80H15.21v81.59h88.54V100.86Zm0,0v80H17.5v-80H15.21v81.59h88.54V100.86Zm0,0v80H17.5v-80H15.21v81.59h88.54V100.86Zm0,0v80H17.5v-80H15.21v81.59h88.54V100.86Zm0,0v80H17.5v-80H15.21v81.59h88.54V100.86Zm0,0v80H17.5v-80H15.21v81.59h88.54V100.86Zm0,0v80H17.5v-80H15.21v81.59h88.54V100.86ZM0,0V197.35H119V0ZM14,183.67v-84h91v84ZM101.39,88H17.57V20.93h83.82Zm.06,12.86v80H17.5v-80H15.21v81.59h88.54V100.86Zm0,0v80H17.5v-80H15.21v81.59h88.54V100.86Zm0,0v80H17.5v-80H15.21v81.59h88.54V100.86Zm0,0v80H17.5v-80H15.21v81.59h88.54V100.86Zm0,0v80H17.5v-80H15.21v81.59h88.54V100.86Zm0,0v80H17.5v-80H15.21v81.59h88.54V100.86Zm0,0v80H17.5v-80H15.21v81.59h88.54V100.86Zm0,0v80H17.5v-80H15.21v81.59h88.54V100.86Zm0,0v80H17.5v-80H15.21v81.59h88.54V100.86Zm0,0v80H17.5v-80H15.21v81.59h88.54V100.86Zm0,0v80H17.5v-80H15.21v81.59h88.54V100.86Z"/><path class="cls-2" d="M101.45,100.86v80H17.5v-80H15.21v81.59h88.54V100.86Zm0,0v80H17.5v-80H15.21v81.59h88.54V100.86Zm0,0v80H17.5v-80H15.21v81.59h88.54V100.86Zm0,0v80H17.5v-80H15.21v81.59h88.54V100.86Zm0,0v80H17.5v-80H15.21v81.59h88.54V100.86Zm0,0v80H17.5v-80H15.21v81.59h88.54V100.86Zm0,0v80H17.5v-80H15.21v81.59h88.54V100.86Zm0,0v80H17.5v-80H15.21v81.59h88.54V100.86Zm0,0v80H17.5v-80H15.21v81.59h88.54V100.86Zm0,0v80H17.5v-80H15.21v81.59h88.54V100.86ZM0,0V197.35H119V0ZM14,183.67v-84h91v84ZM101.39,88H17.57V20.93h83.82Zm.06,12.86v80H17.5v-80H15.21v81.59h88.54V100.86Zm0,0v80H17.5v-80H15.21v81.59h88.54V100.86Zm0,0v80H17.5v-80H15.21v81.59h88.54V100.86Zm0,0v80H17.5v-80H15.21v81.59h88.54V100.86Zm0,0v80H17.5v-80H15.21v81.59h88.54V100.86Zm0,0v80H17.5v-80H15.21v81.59h88.54V100.86Zm0,0v80H17.5v-80H15.21v81.59h88.54V100.86Zm0,0v80H17.5v-80H15.21v81.59h88.54V100.86Zm0,0v80H17.5v-80H15.21v81.59h88.54V100.86Zm0,0v80H17.5v-80H15.21v81.59h88.54V100.86Zm0,0v80H17.5v-80H15.21v81.59h88.54V100.86Z"/><path class="cls-3" d="M101.45,100.86v80H17.5v-80H15.21v81.59h88.54V100.86Zm0,0v80H17.5v-80H15.21v81.59h88.54V100.86Zm0,0v80H17.5v-80H15.21v81.59h88.54V100.86Zm0,0v80H17.5v-80H15.21v81.59h88.54V100.86Zm0,0v80H17.5v-80H15.21v81.59h88.54V100.86Zm0,0v80H17.5v-80H15.21v81.59h88.54V100.86Zm0,0v80H17.5v-80H15.21v81.59h88.54V100.86Zm0,0v80H17.5v-80H15.21v81.59h88.54V100.86Zm0,0v80H17.5v-80H15.21v81.59h88.54V100.86Zm0,0v80H17.5v-80H15.21v81.59h88.54V100.86ZM8.17,18.17v173H110.78v-173Zm9.4,2.76h83.82V88H17.57ZM14,183.67v-84h91v84Zm87.46-82.81v80H17.5v-80H15.21v81.59h88.54V100.86Zm0,0v80H17.5v-80H15.21v81.59h88.54V100.86Zm0,0v80H17.5v-80H15.21v81.59h88.54V100.86Zm0,0v80H17.5v-80H15.21v81.59h88.54V100.86Zm0,0v80H17.5v-80H15.21v81.59h88.54V100.86Zm0,0v80H17.5v-80H15.21v81.59h88.54V100.86Zm0,0v80H17.5v-80H15.21v81.59h88.54V100.86Zm0,0v80H17.5v-80H15.21v81.59h88.54V100.86Zm0,0v80H17.5v-80H15.21v81.59h88.54V100.86Zm0,0v80H17.5v-80H15.21v81.59h88.54V100.86Zm0,0v80H17.5v-80H15.21v81.59h88.54V100.86Z"/><rect class="cls-4" x="8.17" y="189.18" width="102.61" height="0.31"/><path class="cls-4" d="M8.17,8.17V93.82H110.78V8.17ZM17.57,88V20.93h83.82V88Z"/><path class="cls-4" d="M10.53,13.9V93.82h97.89V13.9Zm7,74.1V20.93h83.82V88Z"/><path class="cls-5" d="M10.53,13.9V93.82h97.89V13.9Zm7,74.1V20.93h83.82V88Z"/><path class="cls-4" d="M15.14,18.51V89.22h88.67V18.51ZM17.57,88V20.93h83.82V88Z"/><path class="cls-4" d="M15.14,18.51V93.6h88.67V18.51ZM17.57,88V20.93h83.82V88Z"/><path class="cls-4" d="M16.35,19.72V88h1.22V20.93h83.82V88h1.21V19.72Z"/><path class="cls-6" d="M16.35,19.72V92.39H102.6V19.72ZM17.57,88V20.93h83.82V88Z"/><path class="cls-1" d="M17.57,88v3.17h83.82V88Z"/><polygon class="cls-4" points="13.1 15.78 105.86 15.78 103.81 18.04 15.14 18.04 13.1 15.78"/><path class="cls-7" d="M13.33,15.16h92.29c.35,0,.45.28.23.62h0a1.37,1.37,0,0,1-1,.62H14.11a1.39,1.39,0,0,1-1-.62h0C12.88,15.44,13,15.16,13.33,15.16Z"/><g class="cls-8"><path class="cls-9" d="M8.25,93.74V8.25H110.7V93.74Zm9.23-5.65h84V20.85h-84Z"/><path class="cls-10" d="M110.62,8.34V93.66H8.34V8.34H110.62M17.4,88.17h84.16V20.77H17.4v67.4m93.38-80H8.17V93.82H110.78V8.17ZM17.57,88V20.93h83.82V88Z"/></g><rect class="cls-11" x="8.17" y="8.17" width="2.45" height="85.66" transform="translate(18.79 101.99) rotate(-180)"/><rect class="cls-11" x="108.33" y="8.17" width="2.45" height="85.66" transform="translate(219.11 101.99) rotate(-180)"/><polygon class="cls-12" points="110.78 8.2 108.22 10.65 10.74 10.65 8.17 8.2 110.78 8.2"/><polygon class="cls-1" points="8.18 8.16 8.17 8.17 7.94 8.17 0 0.23 0 0 0.24 0 8.18 7.93 8.18 8.16"/><polygon class="cls-13" points="8.17 8.17 0 0 0.24 0 8.18 7.94 8.17 8.17"/><polygon class="cls-1" points="110.79 8.18 110.78 8.17 110.78 7.94 118.73 0 118.95 0 118.95 0.24 111.02 8.18 110.79 8.18"/><polygon class="cls-13" points="110.79 8.17 118.95 0 118.95 0.24 111.02 8.18 110.79 8.17"/><polygon class="cls-1" points="8.18 189.18 8.17 189.17 7.94 189.17 0 197.12 0 197.34 0.24 197.34 8.18 189.41 8.18 189.18"/><polygon class="cls-13" points="8.17 189.18 0 197.34 0.24 197.34 8.18 189.41 8.17 189.18"/><polygon class="cls-1" points="110.79 189.17 110.78 189.18 110.78 189.41 118.73 197.34 118.95 197.35 118.95 197.1 111.02 189.17 110.79 189.17"/><polygon class="cls-13" points="110.79 189.17 118.95 197.35 118.95 197.1 111.02 189.16 110.79 189.17"/><g class="cls-14"><polygon class="cls-9" points="8.17 189.18 8.26 189.22 8.25 189.26 8.25 189.33 8.25 189.41 8.25 189.45 8.17 189.49 8.09 189.45 8.09 189.41 8.09 189.33 8.09 189.26 8.09 189.22 8.17 189.18"/></g><g class="cls-14"><polygon class="cls-9" points="110.78 189.49 110.7 189.45 110.7 189.41 110.7 189.33 110.7 189.26 110.7 189.22 110.78 189.18 110.87 189.22 110.87 189.26 110.87 189.33 110.87 189.41 110.87 189.45 110.78 189.49"/></g><polygon class="cls-1" points="110.78 189.18 97.96 189.35 85.13 189.35 59.48 189.35 33.82 189.35 21 189.35 8.17 189.18 21 189.01 33.82 189.01 59.48 189.01 85.13 189.01 97.96 189.01 110.78 189.18"/><path class="cls-15" d="M101.45,100.86v80H17.5v-80H15.21v81.59h88.54V100.86Zm0,0v80H17.5v-80H15.21v81.59h88.54V100.86Zm0,0v80H17.5v-80H15.21v81.59h88.54V100.86Zm0,0v80H17.5v-80H15.21v81.59h88.54V100.86Zm0,0v80H17.5v-80H15.21v81.59h88.54V100.86Zm0,0v80H17.5v-80H15.21v81.59h88.54V100.86Zm0,0v80H17.5v-80H15.21v81.59h88.54V100.86Zm0,0v80H17.5v-80H15.21v81.59h88.54V100.86Zm0,0v80H17.5v-80H15.21v81.59h88.54V100.86Zm0,0v80H17.5v-80H15.21v81.59h88.54V100.86Zm-90.83-7v95.67h97.71V93.82ZM14,99.65h91v84H14Zm87.46,1.21v80H17.5v-80H15.21v81.59h88.54V100.86Zm0,0v80H17.5v-80H15.21v81.59h88.54V100.86Zm0,0v80H17.5v-80H15.21v81.59h88.54V100.86Zm0,0v80H17.5v-80H15.21v81.59h88.54V100.86Zm0,0v80H17.5v-80H15.21v81.59h88.54V100.86Zm0,0v80H17.5v-80H15.21v81.59h88.54V100.86Zm0,0v80H17.5v-80H15.21v81.59h88.54V100.86Zm0,0v80H17.5v-80H15.21v81.59h88.54V100.86Zm0,0v80H17.5v-80H15.21v81.59h88.54V100.86Zm0,0v80H17.5v-80H15.21v81.59h88.54V100.86Zm0,0v80H17.5v-80H15.21v81.59h88.54V100.86Z"/><g class="cls-8"><path class="cls-9" d="M8.25,189.41V93.91H110.7v95.5Zm5.66-5.66H105V99.56H13.91Zm1.38-1.38V100.94h2.12v80h84.13v-80h2.12v81.43Z"/><path class="cls-10" d="M110.62,94v95.33H8.34V94H110.62m-96.8,89.85h91.31V99.48H13.82v84.36M103.58,101v81.26H15.37V101h2v80h84.29V101h2m7.2-7.21H8.17v95.67H110.78V93.82ZM14,183.67v-84h91v84Zm89.76-82.81h0v0Zm0,0h0v0Zm0,0h0v0Zm0,0h0v0Zm0,0h0v0Zm0,0h0v0Zm0,0h0v0Zm0,0h0v0Zm0,0h0v0Zm0,0h0v0Zm0,0h-2.3v80H17.5v-80H15.21v81.59h88.54V100.86Zm-2.3,0v0Zm0,0v0Zm0,0v0Zm0,0v0Zm0,0v0Zm0,0v0Zm0,0v0Zm0,0v0Zm0,0v0Zm0,0v0Zm-83.95,0h0v80h0v-80Zm0,0h0v80h0v-80Zm0,0h0v80h0v-80Zm0,0h0v80h0v-80Zm0,0h0v80h0v-80Zm0,0h0v80h0v-80Zm0,0h0v80h0v-80Zm0,0h0v80h0v-80Zm0,0h0v80h0v-80Zm0,0h0v80h0v-80Zm-2.29,0v81.59h0V100.86Zm0,0v81.59h0V100.86Zm0,0v81.59h0V100.86Zm0,0v81.59h0V100.86Zm0,0v81.59h0V100.86Zm0,0v81.59h0V100.86Zm0,0v81.59h0V100.86Zm0,0v81.59h0V100.86Zm0,0v81.59h0V100.86Zm0,0v81.59h0V100.86Z"/></g><path class="cls-4" d="M101.45,100.86v80H17.5v-80H15.21v81.59h88.54V100.86Zm0,0v80H17.5v-80H15.21v81.59h88.54V100.86Zm0,0v80H17.5v-80H15.21v81.59h88.54V100.86Zm0,0v80H17.5v-80H15.21v81.59h88.54V100.86Zm0,0v80H17.5v-80H15.21v81.59h88.54V100.86Zm0,0v80H17.5v-80H15.21v81.59h88.54V100.86Zm0,0v80H17.5v-80H15.21v81.59h88.54V100.86Zm0,0v80H17.5v-80H15.21v81.59h88.54V100.86Zm0,0v80H17.5v-80H15.21v81.59h88.54V100.86Zm0,0v80H17.5v-80H15.21v81.59h88.54V100.86Zm-93.28-7v95.67H110.78V93.82ZM14,99.65h91v84H14Zm87.46,1.21v80H17.5v-80H15.21v81.59h88.54V100.86Zm0,0v80H17.5v-80H15.21v81.59h88.54V100.86Zm0,0v80H17.5v-80H15.21v81.59h88.54V100.86Zm0,0v80H17.5v-80H15.21v81.59h88.54V100.86Zm0,0v80H17.5v-80H15.21v81.59h88.54V100.86Zm0,0v80H17.5v-80H15.21v81.59h88.54V100.86Zm0,0v80H17.5v-80H15.21v81.59h88.54V100.86Zm0,0v80H17.5v-80H15.21v81.59h88.54V100.86Zm0,0v80H17.5v-80H15.21v81.59h88.54V100.86Zm0,0v80H17.5v-80H15.21v81.59h88.54V100.86Zm0,0v80H17.5v-80H15.21v81.59h88.54V100.86Z"/><g class="cls-16"><path class="cls-17" d="M101.45,100.86v80H17.5v-80H15.21v81.59h88.54V100.86Zm0,0v80H17.5v-80H15.21v81.59h88.54V100.86Zm0,0v80H17.5v-80H15.21v81.59h88.54V100.86Zm0,0v80H17.5v-80H15.21v81.59h88.54V100.86Zm0,0v80H17.5v-80H15.21v81.59h88.54V100.86Zm0,0v80H17.5v-80H15.21v81.59h88.54V100.86Zm0,0v80H17.5v-80H15.21v81.59h88.54V100.86Zm0,0v80H17.5v-80H15.21v81.59h88.54V100.86Zm0,0v80H17.5v-80H15.21v81.59h88.54V100.86Zm0,0v80H17.5v-80H15.21v81.59h88.54V100.86Zm-93.28-7v95.67H110.78V93.82ZM14,99.65h91v84H14Zm87.46,1.21v80H17.5v-80H15.21v81.59h88.54V100.86Zm0,0v80H17.5v-80H15.21v81.59h88.54V100.86Zm0,0v80H17.5v-80H15.21v81.59h88.54V100.86Zm0,0v80H17.5v-80H15.21v81.59h88.54V100.86Zm0,0v80H17.5v-80H15.21v81.59h88.54V100.86Zm0,0v80H17.5v-80H15.21v81.59h88.54V100.86Zm0,0v80H17.5v-80H15.21v81.59h88.54V100.86Zm0,0v80H17.5v-80H15.21v81.59h88.54V100.86Zm0,0v80H17.5v-80H15.21v81.59h88.54V100.86Zm0,0v80H17.5v-80H15.21v81.59h88.54V100.86Zm0,0v80H17.5v-80H15.21v81.59h88.54V100.86Z"/></g><path class="cls-4" d="M101.45,100.86v80H17.5v-80H15.21v81.59h88.54V100.86Zm0,0v80H17.5v-80H15.21v81.59h88.54V100.86Zm0,0v80H17.5v-80H15.21v81.59h88.54V100.86Zm0,0v80H17.5v-80H15.21v81.59h88.54V100.86Zm0,0v80H17.5v-80H15.21v81.59h88.54V100.86Zm0,0v80H17.5v-80H15.21v81.59h88.54V100.86Zm0,0v80H17.5v-80H15.21v81.59h88.54V100.86Zm0,0v80H17.5v-80H15.21v81.59h88.54V100.86Zm0,0v80H17.5v-80H15.21v81.59h88.54V100.86Zm0,0v80H17.5v-80H15.21v81.59h88.54V100.86ZM12.78,98.43v86.45h93.39V98.43ZM105,183.67H14v-84h91Zm-1.21-1.22V100.86h-2.3v80H17.5v-80H15.21v81.59Zm-2.3-81.59v80H17.5v-80H15.21v81.59h88.54V100.86Zm0,0v80H17.5v-80H15.21v81.59h88.54V100.86Zm0,0v80H17.5v-80H15.21v81.59h88.54V100.86Zm0,0v80H17.5v-80H15.21v81.59h88.54V100.86Zm0,0v80H17.5v-80H15.21v81.59h88.54V100.86Zm0,0v80H17.5v-80H15.21v81.59h88.54V100.86Zm0,0v80H17.5v-80H15.21v81.59h88.54V100.86Zm0,0v80H17.5v-80H15.21v81.59h88.54V100.86Zm0,0v80H17.5v-80H15.21v81.59h88.54V100.86Zm0,0v80H17.5v-80H15.21v81.59h88.54V100.86Z"/><path class="cls-4" d="M101.45,100.86v80H17.5v-80H15.21v81.59h88.54V100.86Zm0,0v80H17.5v-80H15.21v81.59h88.54V100.86Zm0,0v80H17.5v-80H15.21v81.59h88.54V100.86Zm0,0v80H17.5v-80H15.21v81.59h88.54V100.86Zm0,0v80H17.5v-80H15.21v81.59h88.54V100.86Zm0,0v80H17.5v-80H15.21v81.59h88.54V100.86Zm0,0v80H17.5v-80H15.21v81.59h88.54V100.86Zm0,0v80H17.5v-80H15.21v81.59h88.54V100.86Zm0,0v80H17.5v-80H15.21v81.59h88.54V100.86Zm0,0v80H17.5v-80H15.21v81.59h88.54V100.86ZM12.78,98.43v86.45h93.39V98.43ZM105,183.67H14v-84h91Zm-1.21-1.22V100.86h-2.3v80H17.5v-80H15.21v81.59Zm-2.3-81.59v80H17.5v-80H15.21v81.59h88.54V100.86Zm0,0v80H17.5v-80H15.21v81.59h88.54V100.86Zm0,0v80H17.5v-80H15.21v81.59h88.54V100.86Zm0,0v80H17.5v-80H15.21v81.59h88.54V100.86Zm0,0v80H17.5v-80H15.21v81.59h88.54V100.86Zm0,0v80H17.5v-80H15.21v81.59h88.54V100.86Zm0,0v80H17.5v-80H15.21v81.59h88.54V100.86Zm0,0v80H17.5v-80H15.21v81.59h88.54V100.86Zm0,0v80H17.5v-80H15.21v81.59h88.54V100.86Zm0-1.21v81.18H17.5V99.65H15.21v82.8h88.54V99.65Z"/><path class="cls-4" d="M102.6,99.88v81.89H16.35V99.88H14v83.56h91V99.88Z"/><rect class="cls-18" x="17.47" y="96.17" width="84.02" height="90.97" transform="translate(201.13 82.18) rotate(90)"/><polygon class="cls-4" points="108.22 187.61 10.74 187.61 12.78 185.35 106.17 185.35 108.22 187.61"/><path class="cls-19" d="M108,188.23H11c-.35,0-.45-.28-.23-.62h0a1.39,1.39,0,0,1,1-.62H107.2a1.41,1.41,0,0,1,1,.62h0C108.43,188,108.33,188.23,108,188.23Z"/><rect class="cls-12" x="13.99" y="99.65" width="1.18" height="83.79"/><rect class="cls-20" x="15.17" y="99.65" width="1.18" height="83.79"/><rect class="cls-12" x="103.78" y="99.65" width="1.18" height="83.79"/><rect class="cls-20" x="102.6" y="99.65" width="1.18" height="83.79"/><rect class="cls-12" x="14.58" y="182.6" width="89.83" height="0.83"/><rect class="cls-20" x="15.19" y="181.77" width="88.62" height="0.83"/><polygon class="cls-21" points="10.62 92.59 108.33 92.59 110.78 93.82 8.17 93.82 10.62 92.59"/><rect class="cls-22" x="55.6" y="88.85" width="7.76" height="1.68"/><rect class="cls-23" x="53.82" y="91.54" width="11.3" height="1.94"/><rect class="cls-24" x="55.26" y="90.53" width="8.43" height="1.02"/><polygon class="cls-25" points="52.52 90.89 54.74 90.89 54.96 90.25 58.59 90.53 60.92 90.53 60.92 89.22 52.18 89.22 52.52 90.89"/><polygon class="cls-26" points="63.02 88.66 55.93 88.66 55.6 88.85 63.36 88.85 63.02 88.66"/><g class="cls-14"><polygon class="cls-9" points="52.52 90.89 53.63 90.8 54.74 90.8 54.66 90.86 54.88 90.22 54.91 90.16 54.97 90.17 58.59 90.44 58.59 90.44 59.75 90.44 60.92 90.53 59.75 90.61 58.59 90.61 58.58 90.61 58.58 90.61 54.96 90.33 55.04 90.28 54.82 90.92 54.8 90.97 54.74 90.97 53.63 90.97 52.52 90.89"/></g><g class="cls-27"><polyline class="cls-28" points="24.24 91.2 24.24 91.17 24.24 89.22 24.24 88 24.24 84.46 24.24 27.68 24.24 20.93"/><polyline class="cls-28" points="94.71 20.93 94.71 27.68 94.71 84.46 94.71 88 94.71 89.22 94.71 91.17 94.71 91.2"/><polyline class="cls-28" points="17.57 27.68 24.24 27.68 94.71 27.68 101.38 27.68"/><polyline class="cls-28" points="17.57 84.46 24.24 84.46 94.71 84.46 101.38 84.46"/></g><polyline class="cls-29" points="24.24 181.14 24.24 180.83 24.24 174.39 24.24 107.6 24.24 99.65"/><polyline class="cls-29" points="94.71 181.14 94.71 180.83 94.71 174.39 94.71 107.6 94.71 99.65"/><polyline class="cls-29" points="101.38 107.6 94.71 107.6 24.24 107.6 17.57 107.6"/><polyline class="cls-29" points="101.38 174.39 94.71 174.39 24.24 174.39 17.57 174.39"/><g class="cls-8"><rect class="cls-9" x="8.25" y="8.25" width="102.45" height="85.49"/><path class="cls-10" d="M110.61,8.34V93.66H8.34V8.34H110.61m.17-.17H8.17V93.82H110.78V8.17Z"/></g><rect class="cls-22" x="55.6" y="88.85" width="7.76" height="1.68"/><rect class="cls-23" x="53.82" y="91.54" width="11.3" height="1.94"/><rect class="cls-24" x="55.26" y="90.53" width="8.43" height="1.02"/><polygon class="cls-25" points="52.52 90.89 54.74 90.89 54.96 90.25 58.59 90.53 60.92 90.53 60.92 89.22 52.18 89.22 52.52 90.89"/><polygon class="cls-26" points="63.02 88.66 55.93 88.66 55.6 88.85 63.36 88.85 63.02 88.66"/><g class="cls-14"><polygon class="cls-9" points="52.52 90.89 53.63 90.8 54.74 90.8 54.66 90.86 54.88 90.22 54.91 90.16 54.97 90.17 58.59 90.44 58.59 90.44 59.75 90.44 60.92 90.53 59.75 90.61 58.59 90.61 58.58 90.61 58.58 90.61 54.96 90.33 55.04 90.28 54.82 90.92 54.8 90.97 54.74 90.97 53.63 90.97 52.52 90.89"/></g></svg>