<svg id="Layer_1" data-name="Layer 1" xmlns="http://www.w3.org/2000/svg" xmlns:xlink="http://www.w3.org/1999/xlink" viewBox="0 0 197.04 135.28"><defs><style>.cls-1{fill:none;}.cls-2{clip-path:url(#clip-path);}.cls-3,.cls-41{fill:#fff;}.cls-13,.cls-34,.cls-4{fill:#414142;}.cls-12,.cls-4,.cls-6{opacity:0.2;}.cls-5{fill:#bbbdbf;}.cls-6,.cls-7{fill:#d3d5d2;}.cls-8{fill:url(#linear-gradient);}.cls-9{fill:url(#linear-gradient-2);}.cls-10{fill:url(#linear-gradient-3);}.cls-11{fill:url(#linear-gradient-4);}.cls-14{fill:url(#linear-gradient-5);}.cls-15{fill:url(#radial-gradient);}.cls-16,.cls-23,.cls-25,.cls-28,.cls-30,.cls-31,.cls-36,.cls-38,.cls-39,.cls-42,.cls-44,.cls-45,.cls-54,.cls-61,.cls-62,.cls-64,.cls-65,.cls-67,.cls-69,.cls-70,.cls-72,.cls-74,.cls-75{opacity:0.6;}.cls-16{fill:url(#linear-gradient-6);}.cls-17{fill:url(#linear-gradient-7);}.cls-18{fill:url(#linear-gradient-8);}.cls-19{fill:url(#linear-gradient-9);}.cls-20{fill:url(#linear-gradient-10);}.cls-21{fill:url(#linear-gradient-11);}.cls-22{fill:#f3f3f3;}.cls-24{fill:url(#New_Gradient_Swatch);}.cls-25{fill:url(#linear-gradient-12);}.cls-26{fill:#0c3b5e;}.cls-27{fill:#e6e7e7;}.cls-28{fill:url(#linear-gradient-13);}.cls-29{fill:url(#linear-gradient-14);}.cls-30{fill:url(#linear-gradient-15);}.cls-31{fill:url(#linear-gradient-16);}.cls-32,.cls-34{opacity:0.05;}.cls-33{fill:#6e6f71;}.cls-35{fill:url(#linear-gradient-17);}.cls-36{fill:url(#linear-gradient-18);}.cls-37{fill:url(#linear-gradient-19);}.cls-38{fill:url(#linear-gradient-20);}.cls-39{fill:url(#linear-gradient-21);}.cls-40{fill:url(#linear-gradient-22);}.cls-41{opacity:0.03;}.cls-42{fill:url(#linear-gradient-23);}.cls-43{fill:url(#linear-gradient-24);}.cls-44{fill:url(#linear-gradient-25);}.cls-45{fill:url(#linear-gradient-26);}.cls-46{fill:url(#linear-gradient-27);}.cls-47{clip-path:url(#clip-path-2);}.cls-48{fill:url(#linear-gradient-28);}.cls-49{fill:url(#linear-gradient-29);}.cls-50{fill:url(#linear-gradient-30);}.cls-51{fill:url(#linear-gradient-31);}.cls-52{fill:url(#linear-gradient-32);}.cls-53{fill:url(#radial-gradient-2);}.cls-54{fill:url(#linear-gradient-33);}.cls-55{fill:url(#linear-gradient-34);}.cls-56{fill:url(#linear-gradient-35);}.cls-57{fill:url(#linear-gradient-36);}.cls-58{fill:url(#linear-gradient-37);}.cls-59{fill:url(#linear-gradient-38);}.cls-60{fill:url(#New_Gradient_Swatch-2);}.cls-61{fill:url(#linear-gradient-39);}.cls-62{fill:url(#linear-gradient-40);}.cls-63{fill:url(#linear-gradient-41);}.cls-64{fill:url(#linear-gradient-42);}.cls-65{fill:url(#linear-gradient-43);}.cls-66{fill:url(#linear-gradient-44);}.cls-67{fill:url(#linear-gradient-45);}.cls-68{fill:url(#linear-gradient-46);}.cls-69{fill:url(#linear-gradient-47);}.cls-70{fill:url(#linear-gradient-48);}.cls-71{fill:url(#linear-gradient-49);}.cls-72{fill:url(#linear-gradient-50);}.cls-73{fill:url(#linear-gradient-51);}.cls-74{fill:url(#linear-gradient-52);}.cls-75{fill:url(#linear-gradient-53);}.cls-76{fill:url(#linear-gradient-54);}</style><clipPath id="clip-path"><rect class="cls-1" x="0.57" width="98.21" height="135.28"/></clipPath><linearGradient id="linear-gradient" x1="-1080.85" y1="-460.95" x2="-1073.2" y2="-460.95" gradientTransform="matrix(1, 0, 0, -1.98, 1176.92, -788.63)" gradientUnits="userSpaceOnUse"><stop offset="0" stop-color="#d5d9d3"/><stop offset="0.52" stop-color="#e9ebe4"/><stop offset="1" stop-color="#d5d9d3"/></linearGradient><linearGradient id="linear-gradient-2" x1="-1082.6" y1="956" x2="-1071.45" y2="956" gradientTransform="translate(1176.92 -829.03)" xlink:href="#linear-gradient"/><linearGradient id="linear-gradient-3" x1="-1081.18" y1="954.54" x2="-1072.87" y2="954.54" gradientTransform="translate(1176.92 -829.03)" gradientUnits="userSpaceOnUse"><stop offset="0" stop-color="#d5d9d3"/><stop offset="0.21" stop-color="#e9ebe4"/><stop offset="0.82" stop-color="#e6eae6"/><stop offset="1" stop-color="#d5d9d3"/></linearGradient><linearGradient id="linear-gradient-4" x1="1840.1" y1="-925.04" x2="1852.53" y2="-925.04" gradientTransform="translate(2207.47 -800.89) rotate(180) scale(1.14 1)" xlink:href="#linear-gradient-3"/><linearGradient id="linear-gradient-5" x1="-1080.85" y1="2158.03" x2="-1073.2" y2="2158.03" gradientTransform="translate(1176.92 -827.52) scale(1 0.44)" xlink:href="#linear-gradient-3"/><radialGradient id="radial-gradient" cx="88.94" cy="124.24" r="1.16" gradientUnits="userSpaceOnUse"><stop offset="0.2" stop-color="#d5d9d3"/><stop offset="0.81" stop-color="#e9ebe4"/><stop offset="1" stop-color="#d5d9d3"/></radialGradient><linearGradient id="linear-gradient-6" x1="17.47" y1="82.31" x2="181.87" y2="82.31" gradientTransform="matrix(1, 0, 0, 1, 0, 0)" xlink:href="#linear-gradient-3"/><linearGradient id="linear-gradient-7" x1="1269.34" y1="580.01" x2="1275.57" y2="580.01" gradientTransform="matrix(0, -1, -1.98, 0, 1319.76, 1354.83)" xlink:href="#linear-gradient"/><linearGradient id="linear-gradient-8" x1="1267.91" y1="-1105.92" x2="1276.99" y2="-1105.92" gradientTransform="translate(-1099.02 1188.29)" xlink:href="#linear-gradient"/><linearGradient id="linear-gradient-9" x1="1269.07" y1="-1107.11" x2="1275.84" y2="-1107.11" gradientTransform="translate(-1100.21 1189.48)" xlink:href="#linear-gradient-3"/><linearGradient id="linear-gradient-10" x1="-212.53" y1="1136.03" x2="-206.4" y2="1136.03" gradientTransform="matrix(0, 1.14, -1, 0, 1307.49, 324.28)" xlink:href="#linear-gradient-3"/><linearGradient id="linear-gradient-11" x1="1269.34" y1="-2520.38" x2="1275.57" y2="-2520.38" gradientTransform="matrix(0, -1, 0.44, 0, 1280.86, 1354.83)" xlink:href="#linear-gradient-3"/><linearGradient id="New_Gradient_Swatch" x1="25.65" y1="82.31" x2="173.68" y2="82.31" gradientTransform="matrix(1, 0, 0, 1, 0, 0)" xlink:href="#linear-gradient-3"/><linearGradient id="linear-gradient-12" x1="30.23" y1="82.31" x2="169.1" y2="82.31" gradientTransform="matrix(1, 0, 0, 1, 0, 0)" xlink:href="#linear-gradient-3"/><linearGradient id="linear-gradient-13" x1="0.57" y1="67.64" x2="17.46" y2="67.64" gradientTransform="matrix(1, 0, 0, 1, 0, 0)" xlink:href="#linear-gradient-3"/><linearGradient id="linear-gradient-14" x1="3.31" y1="70.14" x2="16.41" y2="70.14" gradientUnits="userSpaceOnUse"><stop offset="0" stop-color="#e5e9e6"/><stop offset="0.48" stop-color="#f1f4f4"/><stop offset="1" stop-color="#e5e9e6"/></linearGradient><linearGradient id="linear-gradient-15" x1="3.62" y1="70.27" x2="16.45" y2="70.27" gradientTransform="matrix(1, 0, 0, 1, 0, 0)" xlink:href="#linear-gradient-3"/><linearGradient id="linear-gradient-16" x1="4.35" y1="70.51" x2="15.39" y2="70.51" gradientTransform="matrix(1, 0, 0, 1, 0, 0)" xlink:href="#linear-gradient-3"/><linearGradient id="linear-gradient-17" x1="1224.68" y1="2251.6" x2="1322.07" y2="2251.6" gradientTransform="translate(-2235.21 1354.83) rotate(-90)" gradientUnits="userSpaceOnUse"><stop offset="0" stop-color="#d5d9d3"/><stop offset="0.51" stop-color="#d0d4d1"/><stop offset="1" stop-color="#d5d9d3"/></linearGradient><linearGradient id="linear-gradient-18" x1="0.53" y1="14.66" x2="197.04" y2="14.66" gradientTransform="matrix(1, 0, 0, 1, 0, 0)" xlink:href="#linear-gradient-3"/><linearGradient id="linear-gradient-19" x1="9.41" y1="17.38" x2="189.89" y2="17.38" xlink:href="#linear-gradient-14"/><linearGradient id="linear-gradient-20" x1="9.35" y1="17.53" x2="187.11" y2="17.53" gradientTransform="matrix(1, 0, 0, 1, 0, 0)" xlink:href="#linear-gradient-3"/><linearGradient id="linear-gradient-21" x1="13.78" y1="17.51" x2="182.92" y2="17.51" gradientTransform="matrix(1, 0, 0, 1, 0, 0)" xlink:href="#linear-gradient-3"/><linearGradient id="linear-gradient-22" x1="3773.22" y1="3647.09" x2="3926.08" y2="3647.09" gradientTransform="matrix(-1, 0, 0, 1, 3949.3, -3618.49)" xlink:href="#linear-gradient-17"/><linearGradient id="linear-gradient-23" x1="181.87" y1="67.64" x2="197.04" y2="67.64" gradientTransform="matrix(1, 0, 0, 1, 0, 0)" xlink:href="#linear-gradient-3"/><linearGradient id="linear-gradient-24" x1="182.93" y1="67.54" x2="196.03" y2="67.54" xlink:href="#linear-gradient-14"/><linearGradient id="linear-gradient-25" x1="182.88" y1="67.67" x2="195.72" y2="67.67" gradientTransform="matrix(1, 0, 0, 1, 0, 0)" xlink:href="#linear-gradient-3"/><linearGradient id="linear-gradient-26" x1="183.95" y1="67.48" x2="194.98" y2="67.48" gradientTransform="matrix(1, 0, 0, 1, 0, 0)" xlink:href="#linear-gradient-3"/><linearGradient id="linear-gradient-27" x1="1224.68" y1="5459.37" x2="1322.07" y2="5459.37" gradientTransform="matrix(0, -1, -1, 0, 5642.32, 1354.83)" xlink:href="#linear-gradient-17"/><clipPath id="clip-path-2"><rect class="cls-1" x="98.25" width="98.21" height="135.28" transform="translate(294.72 135.28) rotate(-180)"/></clipPath><linearGradient id="linear-gradient-28" x1="-1227.07" y1="-460.95" x2="-1219.42" y2="-460.95" gradientTransform="translate(-1126.1 -788.63) rotate(180) scale(1 1.98)" xlink:href="#linear-gradient"/><linearGradient id="linear-gradient-29" x1="-1228.82" y1="956" x2="-1217.67" y2="956" gradientTransform="matrix(1, 0, 0, -1, 1320.39, 1082.98)" xlink:href="#linear-gradient"/><linearGradient id="linear-gradient-30" x1="-1227.4" y1="954.54" x2="-1219.09" y2="954.54" gradientTransform="matrix(1, 0, 0, -1, 1320.39, 1080.06)" xlink:href="#linear-gradient-3"/><linearGradient id="linear-gradient-31" x1="1967.96" y1="-925.04" x2="1980.38" y2="-925.04" gradientTransform="matrix(1.14, 0, 0, -1, -2156.65, -800.89)" xlink:href="#linear-gradient-3"/><linearGradient id="linear-gradient-32" x1="-1227.07" y1="2158.03" x2="-1219.42" y2="2158.03" gradientTransform="matrix(-1, 0, 0, 0.44, -1126.1, -827.52)" xlink:href="#linear-gradient-3"/><radialGradient id="radial-gradient-2" cx="-57.28" cy="124.24" r="1.16" gradientTransform="matrix(-1, 0, 0, 1, 50.82, 0)" xlink:href="#radial-gradient"/><linearGradient id="linear-gradient-33" x1="-128.75" y1="82.31" x2="35.65" y2="82.31" gradientTransform="matrix(-1, 0, 0, 1, 50.82, 0)" xlink:href="#linear-gradient-3"/><linearGradient id="linear-gradient-34" x1="1269.34" y1="653.85" x2="1275.57" y2="653.85" gradientTransform="matrix(0, -1, 1.98, 0, -1268.94, 1354.83)" xlink:href="#linear-gradient"/><linearGradient id="linear-gradient-35" x1="1267.91" y1="-1252.14" x2="1276.99" y2="-1252.14" gradientTransform="matrix(1, 0, 0, -1, -1248.85, -1169.77)" xlink:href="#linear-gradient"/><linearGradient id="linear-gradient-36" x1="1269.07" y1="-1253.33" x2="1275.84" y2="-1253.33" gradientTransform="matrix(1, 0, 0, -1, -1247.66, -1170.96)" xlink:href="#linear-gradient-3"/><linearGradient id="linear-gradient-37" x1="-212.53" y1="1282.25" x2="-206.4" y2="1282.25" gradientTransform="matrix(0, 1.14, 1, 0, -1256.67, 324.28)" xlink:href="#linear-gradient-3"/><linearGradient id="linear-gradient-38" x1="1269.34" y1="-2852.26" x2="1275.57" y2="-2852.26" gradientTransform="matrix(0, -1, -0.44, 0, -1230.04, 1354.83)" xlink:href="#linear-gradient-3"/><linearGradient id="New_Gradient_Swatch-2" x1="-120.57" y1="82.31" x2="27.45" y2="82.31" gradientTransform="matrix(-1, 0, 0, 1, 50.82, 0)" xlink:href="#linear-gradient-3"/><linearGradient id="linear-gradient-39" x1="-116" y1="82.31" x2="22.88" y2="82.31" gradientTransform="matrix(-1, 0, 0, 1, 50.82, 0)" xlink:href="#linear-gradient-3"/><linearGradient id="linear-gradient-40" x1="-145.65" y1="67.64" x2="-128.76" y2="67.64" gradientTransform="matrix(-1, 0, 0, 1, 50.82, 0)" xlink:href="#linear-gradient-3"/><linearGradient id="linear-gradient-41" x1="-142.91" y1="70.14" x2="-129.81" y2="70.14" gradientTransform="matrix(-1, 0, 0, 1, 50.82, 0)" xlink:href="#linear-gradient-14"/><linearGradient id="linear-gradient-42" x1="-142.61" y1="70.27" x2="-129.77" y2="70.27" gradientTransform="matrix(-1, 0, 0, 1, 50.82, 0)" xlink:href="#linear-gradient-3"/><linearGradient id="linear-gradient-43" x1="-141.87" y1="70.51" x2="-130.83" y2="70.51" gradientTransform="matrix(-1, 0, 0, 1, 50.82, 0)" xlink:href="#linear-gradient-3"/><linearGradient id="linear-gradient-44" x1="1224.68" y1="2105.37" x2="1322.07" y2="2105.37" gradientTransform="matrix(0, -1, -1, 0, 2286.02, 1354.83)" xlink:href="#linear-gradient-17"/><linearGradient id="linear-gradient-45" x1="-145.69" y1="14.66" x2="50.81" y2="14.66" gradientTransform="matrix(-1, 0, 0, 1, 50.82, 0)" xlink:href="#linear-gradient-3"/><linearGradient id="linear-gradient-46" x1="-136.82" y1="17.38" x2="43.67" y2="17.38" gradientTransform="matrix(-1, 0, 0, 1, 50.82, 0)" xlink:href="#linear-gradient-14"/><linearGradient id="linear-gradient-47" x1="-136.87" y1="17.53" x2="40.89" y2="17.53" gradientTransform="matrix(-1, 0, 0, 1, 50.82, 0)" xlink:href="#linear-gradient-3"/><linearGradient id="linear-gradient-48" x1="-132.44" y1="17.51" x2="36.7" y2="17.51" gradientTransform="matrix(-1, 0, 0, 1, 50.82, 0)" xlink:href="#linear-gradient-3"/><linearGradient id="linear-gradient-49" x1="3919.44" y1="3647.09" x2="4072.3" y2="3647.09" gradientTransform="translate(-3898.48 -3618.49)" xlink:href="#linear-gradient-17"/><linearGradient id="linear-gradient-50" x1="35.65" y1="67.64" x2="50.82" y2="67.64" gradientTransform="matrix(-1, 0, 0, 1, 50.82, 0)" xlink:href="#linear-gradient-3"/><linearGradient id="linear-gradient-51" x1="36.71" y1="67.54" x2="49.81" y2="67.54" gradientTransform="matrix(-1, 0, 0, 1, 50.82, 0)" xlink:href="#linear-gradient-14"/><linearGradient id="linear-gradient-52" x1="36.66" y1="67.67" x2="49.5" y2="67.67" gradientTransform="matrix(-1, 0, 0, 1, 50.82, 0)" xlink:href="#linear-gradient-3"/><linearGradient id="linear-gradient-53" x1="37.73" y1="67.48" x2="48.76" y2="67.48" gradientTransform="matrix(-1, 0, 0, 1, 50.82, 0)" xlink:href="#linear-gradient-3"/><linearGradient id="linear-gradient-54" x1="1224.68" y1="5605.6" x2="1322.07" y2="5605.6" gradientTransform="translate(-5591.51 1354.83) rotate(-90)" xlink:href="#linear-gradient-17"/></defs><g class="cls-2"><path class="cls-3" d="M17.47,29.34V135.28h164.4V29.34Zm8.18,7.76h148v90.43h-148Z"/><polygon class="cls-3" points="24.02 128.71 24.03 128.72 24.03 128.9 17.65 135.28 17.46 135.28 17.46 135.08 23.84 128.71 24.02 128.71"/><polygon class="cls-4" points="24.02 128.71 17.46 135.28 17.46 135.08 23.84 128.71 24.02 128.71"/><polygon class="cls-3" points="24.02 35.91 24.03 35.9 24.03 35.72 17.65 29.34 17.46 29.34 17.46 29.53 23.84 35.91 24.02 35.91"/><polygon class="cls-4" points="24.02 35.9 17.46 29.34 17.46 29.53 23.84 35.91 24.02 35.9"/><polygon class="cls-5" points="173.68 127.53 25.65 127.53 24.03 128.72 175.3 128.72 173.68 127.53"/><polygon class="cls-6" points="25.65 37.1 173.68 37.1 175.3 35.91 24.03 35.91 25.65 37.1"/><polygon class="cls-7" points="25.65 37.1 25.65 127.53 24.03 128.72 24.03 35.91 25.65 37.1"/><rect class="cls-8" x="96.07" y="123.36" width="7.65" height="1.65"/><rect class="cls-9" x="94.32" y="126.01" width="11.15" height="1.92"/><rect class="cls-10" x="95.74" y="125.01" width="8.32" height="1"/><polygon class="cls-11" points="89.17 124.56 90.07 124.6 100.2 124.93 102.98 124.93 102.98 123.37 88.77 123.37 89.17 124.56"/><g class="cls-12"><path class="cls-13" d="M89.17,124.56c1.16-.07,2.3,0,3.45.06l3.46.11,3.45.11c1.15,0,2.3,0,3.45.09-2.3.17-4.61,0-6.91-.06l-3.45-.12-1.73,0A11.08,11.08,0,0,1,89.17,124.56Z"/></g><polygon class="cls-14" points="103.39 123.18 96.41 123.18 96.07 123.36 103.72 123.36 103.39 123.18"/><circle class="cls-15" cx="88.94" cy="124.24" r="1.16"/><path class="cls-16" d="M17.47,29.34V135.28h164.4V29.34Zm8.18,7.76h148v90.43h-148Z"/><polygon class="cls-7" points="173.68 37.1 173.68 127.53 175.3 128.72 175.3 35.91 173.68 37.1"/><rect class="cls-17" x="170.49" y="79.26" width="1.35" height="6.23"/><rect class="cls-18" x="168.9" y="81.59" width="9.08" height="1.56" transform="translate(91.06 255.81) rotate(-90)"/><rect class="cls-19" x="168.86" y="81.96" width="6.77" height="0.82" transform="translate(89.88 254.62) rotate(-90)"/><polygon class="cls-20" points="172.13 87.96 172.13 86.18 171.62 86 171.84 83.09 171.84 81.22 170.79 81.22 170.79 88.23 172.13 87.96"/><g class="cls-12"><polygon class="cls-13" points="172.13 87.96 172.06 87.07 172.06 86.18 172.11 86.24 171.6 86.06 171.55 86.04 171.55 85.99 171.77 83.08 171.77 83.09 171.77 82.15 171.84 81.22 171.91 82.15 171.91 83.09 171.91 83.09 171.91 83.09 171.69 86 171.64 85.93 172.15 86.11 172.2 86.13 172.2 86.18 172.2 87.07 172.13 87.96"/></g><polygon class="cls-21" points="170.34 79.53 170.34 85.22 170.5 85.49 170.5 79.26 170.34 79.53"/><polygon class="cls-3" points="175.31 128.72 175.31 128.71 175.5 128.71 181.87 135.09 181.87 135.28 181.68 135.28 175.31 128.91 175.31 128.72"/><polygon class="cls-4" points="175.31 128.72 181.87 135.28 181.68 135.28 175.3 128.9 175.31 128.72"/><polygon class="cls-3" points="175.31 35.89 175.31 35.9 175.5 35.9 181.87 29.52 181.87 29.34 181.68 29.34 175.31 35.71 175.31 35.89"/><polygon class="cls-4" points="175.31 35.9 181.87 29.34 181.68 29.34 175.3 35.72 175.31 35.9"/><path class="cls-22" d="M25.65,37.1v90.43h148V37.1ZM33,43.87H166.35V122H33Z"/><g class="cls-23"><path class="cls-24" d="M25.65,37.1v90.43h148V37.1ZM33,43.87H166.35V122H33Z"/></g><path class="cls-22" d="M29.27,40.71v83.21H170.05V40.71ZM33,43.87H166.35V122H33Z"/><path class="cls-22" d="M29.27,40.71v83.21H170.05V40.71ZM33,43.87H166.35V122H33Z"/><path class="cls-22" d="M30.23,41.66V123H169.1V41.66ZM33,122V43.87H166.35V122Z"/><path class="cls-25" d="M30.23,41.66V123H169.1V41.66ZM33,122V43.87H166.35V122Z"/><polygon class="cls-26" points="168.15 42.6 168.15 122.02 166.35 122.02 166.35 43.87 32.98 43.87 32.98 122.02 31.18 122.02 31.18 42.6 168.15 42.6"/><rect class="cls-7" x="167.25" y="42.6" width="0.9" height="79.42"/><rect class="cls-27" x="166.35" y="42.61" width="0.9" height="79.42"/><rect class="cls-7" x="31.18" y="42.6" width="0.9" height="79.42"/><rect class="cls-27" x="32.08" y="42.61" width="0.9" height="79.42"/><rect class="cls-7" x="31.6" y="42.6" width="136.1" height="0.63"/><rect class="cls-27" x="32.07" y="43.24" width="135.17" height="0.63"/><path class="cls-3" d="M17.43,29.32.61,0h0V120l0,0,16.84,15.27h0l0,0V29.34Zm-2.19,95.76L4.5,115.56V15.92l10.74,19Z"/><path class="cls-28" d="M17.43,29.32.61,0h0V120l0,0,16.84,15.27h0l0,0V29.34Zm-2.19,95.76L4.5,115.56V15.92l10.74,19Z"/><path class="cls-29" d="M3.31,10.17h0V118.43h0l13.1,11.68V32.73ZM15.24,125.08,4.5,115.56V15.92l10.74,19Z"/><path class="cls-22" d="M16.43,32.74h0L3.31,10.17h0V118.43h0l13.1,11.68h0l0,0V32.76Zm-1.19,92.34L4.5,115.56V15.92l10.74,19Z"/><path class="cls-22" d="M16.41,34l-.07-.06-.06,0-12.41-22-.25-.21V117.49l.23.21L16,128.53l.31.28h0l.09.08,0,0V34Zm-1.17,91.13L4.5,115.56V15.92l10.74,19Z"/><path class="cls-30" d="M16.41,34l-.07-.06-.06,0-12.41-22-.25-.21V117.49l.23.21L16,128.53l.31.28h0l.09.08,0,0V34Zm-1.17,91.13L4.5,115.56V15.92l10.74,19Z"/><path class="cls-22" d="M4.21,14.44V116.53L15.54,126.6V33.9Zm11,110.64L4.5,115.56V15.92l10.74,19Z"/><path class="cls-22" d="M4.21,14.44V116.53L15.54,126.6V33.9Zm11,110.64L4.5,115.56V15.92l10.74,19Z"/><path class="cls-22" d="M4.36,15.18V116.05l11,9.78V34.4ZM4.5,115.56V15.92l10.74,19v90.17Z"/><path class="cls-31" d="M15.38,34.4l-11-19.22h0V116h0l11,9.78h0V34.41ZM4.5,115.56V15.92l10.74,19v90.17Z"/><g class="cls-32"><path class="cls-13" d="M3.36,118.38l0-108,13,22.35,0,97.24Zm1.07-2.82,10.88,9.67V34.91L4.43,15.66Z"/><path class="cls-33" d="M3.45,10.66,16.29,32.79l0,0v97L3.45,118.37V10.66M15.37,125.38V34.85l-10.74-19-.25-.45V115.62l0,0,10.74,9.52.22.2M3.31,10.16V118.43h0l13.1,11.68h0l0,0V32.76l0,0h0L3.31,10.17ZM15.24,125.08,4.5,115.56V15.92l10.74,19v90.17Z"/></g><polygon class="cls-4" points="3.31 118.42 3.31 117.17 16.32 128.81 16.45 130.15 3.31 118.42"/><polygon class="cls-34" points="3.31 11.42 3.31 10.16 16.45 32.76 16.34 33.89 3.31 11.42"/><polygon class="cls-7" points="3.31 10.17 3.87 11.81 3.87 117.67 3.31 118.43 3.31 10.17"/><polygon class="cls-3" points="3.31 118.42 3.31 118.43 3.31 118.54 0.6 119.98 0.57 119.96 0.57 119.83 3.28 118.4 3.31 118.42"/><polygon class="cls-4" points="3.31 118.42 0.57 119.96 0.57 119.83 3.28 118.39 3.31 118.42"/><polygon class="cls-3" points="3.31 10.16 3.31 10.16 3.28 10.14 0.57 0.12 0.57 0 0.6 0.02 3.31 10.04 3.31 10.16"/><polygon class="cls-4" points="3.31 10.16 0.57 0 0.6 0.02 3.31 10.05 3.31 10.16"/><polygon class="cls-3" points="16.43 130.12 16.43 130.13 16.43 130.24 17.44 135.25 17.46 135.28 17.46 135.15 16.46 130.15 16.43 130.12"/><polygon class="cls-4" points="16.43 130.12 17.46 135.28 17.46 135.15 16.46 130.14 16.43 130.12"/><polygon class="cls-3" points="16.43 32.73 16.43 32.74 16.46 32.76 17.46 29.46 17.46 29.34 17.43 29.31 16.43 32.62 16.43 32.73"/><polygon class="cls-4" points="16.43 32.74 17.46 29.34 17.43 29.31 16.43 32.62 16.43 32.74"/><polygon class="cls-35" points="16.32 128.81 16.34 33.89 16.45 32.76 16.45 130.15 16.32 128.81"/><polygon class="cls-26" points="15.26 34.93 15.26 125.1 15.24 125.08 15.24 34.91 15.26 34.93"/><g class="cls-32"><path class="cls-13" d="M3.36,118.38l0-108,13,22.35,0,97.24Zm1.07-2.82,10.88,9.67V34.91L4.43,15.66Z"/><path class="cls-33" d="M3.45,10.66,16.29,32.79l0,0v97L3.45,118.37V10.66M15.37,125.38V34.85l-10.74-19-.25-.45V115.62l0,0,10.74,9.52.22.2M3.31,10.16V118.43h0l13.1,11.68h0l0,0V32.76l0,0h0L3.31,10.17ZM15.24,125.08,4.5,115.56V15.92l10.74,19v90.17Z"/></g><path class="cls-3" d="M.53,0l0,0h0l0,0L17.42,29.29l0,0h164.4l0,0h0L197,0h0l0,0H.53ZM27.38,27.81,15.05,7.23H181.66L169.32,27.81Z"/><path class="cls-36" d="M.53,0l0,0h0l0,0L17.42,29.29l0,0h164.4l0,0h0L197,0h0l0,0H.53ZM27.38,27.81,15.05,7.23H181.66L169.32,27.81Z"/><path class="cls-37" d="M9.41,6.14h0L23.19,28.61H176.11L189.89,6.15H9.41Zm18,21.67L15.05,7.23H181.66L169.32,27.81Z"/><path class="cls-22" d="M9.41,6.14h0L23.19,28.61h0l0,0H176.08l0,0h0L189.89,6.15H9.41Zm18,21.67L15.05,7.23H181.66L169.32,27.81Z"/><path class="cls-22" d="M9.35,6.43l2,.23,13.7,21.9.06.05,0,0h149l0,0,.07-.06.3-.26.09-.08L187.11,6.64h0l-2.35-.21Zm18,21.38L15.05,7.23H181.66L169.32,27.81Z"/><path class="cls-38" d="M9.35,6.43l2,.23,13.7,21.9.06.05,0,0h149l0,0,.07-.06.3-.26.09-.08L187.11,6.64h0l-2.35-.21Zm18,21.38L15.05,7.23H181.66L169.32,27.81Z"/><path class="cls-22" d="M12.51,7,25.61,28H171.09l13.1-21ZM27.38,27.81,15.05,7.23H181.66L169.32,27.81Z"/><path class="cls-22" d="M12.51,7,25.61,28H171.09l13.1-21ZM27.38,27.81,15.05,7.23H181.66L169.32,27.81Z"/><path class="cls-22" d="M13.79,7.11l12.7,20.8H170.21l12.7-20.8Zm155.53,20.7H27.38L15.05,7.23H181.66Z"/><path class="cls-39" d="M13.78,7.1h0l12.7,20.8H170.21l12.7-20.8H13.78ZM169.32,27.81H27.38L15.05,7.23H181.66Z"/><g class="cls-32"><path class="cls-13" d="M23.22,28.57,9.53,6.21H189.78L176.05,28.57Zm4.1-.72,142,0L181.78,7.16H14.93Z"/><path class="cls-33" d="M189.65,6.28,176,28.51H23.28L9.65,6.28h180M27.3,28H169.4l0-.07L181.77,7.3l.12-.2H14.81l.12.2L27.27,27.88l0,.07M189.89,6.14H9.41L23.19,28.61h0l0,0H176.08l0,0h0L189.89,6.15h0ZM27.38,27.81,15.05,7.23H181.66L169.32,27.81Z"/></g><polygon class="cls-4" points="189.89 6.14 187.59 6.14 174.26 28.55 176.08 28.64 189.89 6.14"/><polygon class="cls-34" points="10.85 6.14 9.41 6.14 23.22 28.64 24.19 28.57 10.85 6.14"/><polygon class="cls-7" points="9.41 6.15 9.6 6.66 184.41 6.66 189.89 6.15 9.41 6.15"/><polygon class="cls-3" points="189.89 6.14 189.9 6.14 190.11 6.14 197 0.03 197.04 0 196.81 0 189.92 6.12 189.89 6.14"/><polygon class="cls-4" points="189.89 6.14 197.04 0 196.81 0 189.91 6.12 189.89 6.14"/><polygon class="cls-3" points="9.4 6.15 9.41 6.14 9.38 6.12 0.75 0 0.53 0 0.56 0.03 9.18 6.15 9.4 6.15"/><polygon class="cls-4" points="9.4 6.14 0.53 0 0.56 0.03 9.19 6.15 9.4 6.14"/><polygon class="cls-3" points="176.09 28.62 176.1 28.62 176.28 28.62 181.88 29.3 181.85 29.31 181.66 29.31 176.07 28.64 176.09 28.62"/><polygon class="cls-4" points="176.09 28.62 181.85 29.31 181.66 29.31 176.06 28.64 176.09 28.62"/><polygon class="cls-3" points="23.19 28.62 23.2 28.62 23.23 28.64 17.63 29.31 17.45 29.31 17.42 29.29 23.01 28.62 23.19 28.62"/><polygon class="cls-4" points="23.2 28.62 17.45 29.31 17.42 29.29 23.01 28.62 23.2 28.62"/><polygon class="cls-40" points="174.26 28.55 25.05 28.57 23.22 28.64 176.08 28.64 174.26 28.55"/><polygon class="cls-26" points="169.32 27.81 169.31 27.82 27.39 27.82 27.38 27.81 169.32 27.81"/><g class="cls-32"><path class="cls-13" d="M23.22,28.57,9.53,6.21H189.78L176.05,28.57Zm4.1-.72,142,0L181.78,7.16H14.93Z"/><path class="cls-33" d="M189.65,6.28,176,28.51H23.28L9.65,6.28h180M27.3,28H169.4l0-.07L181.77,7.3l.12-.2H14.81l.12.2L27.27,27.88l0,.07M189.89,6.14H9.41L23.19,28.61h0l0,0H176.08l0,0h0L189.89,6.15h0ZM27.38,27.81,15.05,7.23H181.66L169.32,27.81Z"/></g><polygon class="cls-41" points="33.03 121.22 166.29 43.87 33.03 43.87 33.03 121.22"/><polygon class="cls-41" points="194.84 114.69 194.84 10.72 184.04 36.69 194.84 114.69"/><polygon class="cls-41" points="4.5 115.55 4.5 15.92 15.29 34.96 4.5 115.55"/><polygon class="cls-41" points="181.66 7.23 15.05 7.23 27.42 27.85 181.66 7.23"/><path class="cls-3" d="M197,0l0,0h0L181.9,29.32l0,0V135.28l0,0L197,121.71l0,0h0V0ZM184.1,36.64l10.74-25.92v104l-10.74,9.52Z"/><path class="cls-42" d="M197,0l0,0h0L181.9,29.32l0,0V135.28l0,0L197,121.71l0,0h0V0ZM184.1,36.64l10.74-25.92v104l-10.74,9.52Z"/><path class="cls-43" d="M196,5l-13.1,27.76v97.38l6.39-5.7,3.46-3.09,3.25-2.89h0V5Zm-1.19,5.75v104l-10.74,9.52V36.64Z"/><path class="cls-22" d="M196,5l-13.1,27.76h0l0,0v97.39l0,0h0l9.85-8.79,3.25-2.89h0V5ZM184.1,36.64l10.74-25.92v104l-10.74,9.52Z"/><path class="cls-22" d="M195.47,6.62,183,33.89h0l-.07.06-.05,0v95l.05,0,.09-.08h0l.31-.28h0l12.15-10.82.23-.21V6.42Zm-11.37,30,10.74-25.92v104l-10.74,9.52Z"/><path class="cls-44" d="M195.47,6.62,183,33.89h0l-.07.06-.05,0v95l.05,0,.09-.08h0l.31-.28h0l12.15-10.82.23-.21V6.42Zm-11.37,30,10.74-25.92v104l-10.74,9.52Z"/><path class="cls-22" d="M183.8,35.63v90.1l11.33-10.06V9.24Zm11,79.06-10.74,9.52V36.64l10.74-25.92Z"/><path class="cls-22" d="M183.8,35.63v90.1l11.33-10.06V9.24Zm11,79.06-10.74,9.52V36.64l10.74-25.92Z"/><path class="cls-22" d="M184,36.13V125l11-9.79V10Zm10.88,78.56-10.74,9.52V36.64l10.74-25.92Z"/><path class="cls-45" d="M195,10,184,36.13h0V125h0l11-9.79h0V10Zm-.14,104.7-10.74,9.52V36.64l10.74-25.92Z"/><g class="cls-32"><path class="cls-13" d="M183,32.76,196,5.27V118.43l-3.22,2.84L183,130ZM184,36.62v87.74l10.85-9.62,0-104.36Z"/><path class="cls-33" d="M195.89,5.57V118.36l-3.2,2.86L183,129.85v-97l0,0v0L195.89,5.57M184,124.51l.23-.2,10.74-9.52,0,0V10l-.26.63L184,36.59l0,0v87.89M196,5h0l-13.1,27.76h0l0,0v97.39l0,0h0l9.85-8.79,3.25-2.89h0V5ZM184.1,124.21V36.64l10.74-25.92v104l-10.74,9.52Z"/></g><polygon class="cls-4" points="196.03 118.42 196.03 117.17 183.02 128.81 182.88 130.15 196.03 118.42"/><polygon class="cls-34" points="196.03 6.22 196.03 4.97 182.88 32.76 183 33.89 196.03 6.22"/><polygon class="cls-7" points="196.03 4.97 195.47 6.62 195.47 117.67 196.03 118.43 196.03 4.97"/><polygon class="cls-3" points="196.03 118.42 196.03 118.43 196.03 118.54 197.01 121.72 197.04 121.69 197.04 121.57 196.06 118.4 196.03 118.42"/><polygon class="cls-4" points="196.03 118.42 197.04 121.69 197.04 121.57 196.06 118.39 196.03 118.42"/><polygon class="cls-3" points="196.03 4.97 196.03 4.97 196.06 4.95 197.04 0.12 197.04 0 197.01 0.02 196.03 4.85 196.03 4.97"/><polygon class="cls-4" points="196.03 4.97 197.04 0 197.01 0.02 196.03 4.85 196.03 4.97"/><polygon class="cls-3" points="182.91 130.12 182.91 130.13 182.91 130.24 181.9 135.25 181.87 135.28 181.87 135.15 182.88 130.15 182.91 130.12"/><polygon class="cls-4" points="182.91 130.12 181.87 135.28 181.87 135.15 182.88 130.14 182.91 130.12"/><polygon class="cls-3" points="182.91 32.73 182.91 32.74 182.88 32.76 181.87 29.46 181.87 29.34 181.9 29.31 182.91 32.62 182.91 32.73"/><polygon class="cls-4" points="182.91 32.74 181.87 29.34 181.9 29.31 182.91 32.62 182.91 32.74"/><polygon class="cls-46" points="183.02 128.81 183 33.89 182.88 32.76 182.88 130.15 183.02 128.81"/><polygon class="cls-26" points="194.84 10.72 184.1 36.64 184.1 124.21 184.08 124.23 184.08 36.66 194.84 10.72"/><g class="cls-32"><path class="cls-13" d="M183,32.76,196,5.27V118.43l-3.22,2.84L183,130ZM184,36.62v87.74l10.85-9.62,0-104.36Z"/><path class="cls-33" d="M195.89,5.57V118.36l-3.2,2.86L183,129.85v-97l0,0v0L195.89,5.57M184,124.51l.23-.2,10.74-9.52,0,0V10l-.26.63L184,36.59l0,0v87.89M196,5h0l-13.1,27.76h0l0,0v97.39l0,0h0l9.85-8.79,3.25-2.89h0V5ZM184.1,124.21V36.64l10.74-25.92v104l-10.74,9.52Z"/></g></g><g class="cls-47"><path class="cls-3" d="M15.17,29.34V135.28h164.4V29.34Zm156.22,98.19h-148V37.1h148Z"/><polygon class="cls-3" points="173.02 128.71 173.01 128.72 173.01 128.9 179.39 135.28 179.57 135.28 179.57 135.08 173.2 128.71 173.02 128.71"/><polygon class="cls-4" points="173.02 128.71 179.57 135.28 179.57 135.08 173.2 128.71 173.02 128.71"/><polygon class="cls-3" points="173.02 35.91 173.01 35.9 173.01 35.72 179.39 29.34 179.57 29.34 179.57 29.53 173.2 35.91 173.02 35.91"/><polygon class="cls-4" points="173.02 35.9 179.57 29.34 179.57 29.53 173.2 35.91 173.02 35.9"/><polygon class="cls-5" points="23.36 127.53 171.39 127.53 173.01 128.72 21.74 128.72 23.36 127.53"/><polygon class="cls-6" points="171.39 37.1 23.36 37.1 21.74 35.91 173.01 35.91 171.39 37.1"/><polygon class="cls-7" points="171.39 37.1 171.39 127.53 173.01 128.72 173.01 35.91 171.39 37.1"/><rect class="cls-48" x="93.32" y="123.36" width="7.65" height="1.65"/><rect class="cls-49" x="91.57" y="126.01" width="11.15" height="1.92" transform="translate(194.28 253.95) rotate(-180)"/><rect class="cls-50" x="92.98" y="125.01" width="8.32" height="1" transform="translate(194.28 251.03) rotate(-180)"/><polygon class="cls-51" points="107.87 124.56 106.97 124.6 96.84 124.93 94.06 124.93 94.06 123.37 108.27 123.37 107.87 124.56"/><g class="cls-12"><path class="cls-13" d="M107.87,124.56a11.08,11.08,0,0,1-1.72.14l-1.73,0-3.45.12c-2.31,0-4.61.23-6.91.06,1.15-.09,2.3,0,3.45-.09l3.45-.11,3.45-.11C105.57,124.6,106.71,124.49,107.87,124.56Z"/></g><polygon class="cls-52" points="93.65 123.18 100.63 123.18 100.97 123.36 93.32 123.36 93.65 123.18"/><circle class="cls-53" cx="108.1" cy="124.24" r="1.16"/><path class="cls-54" d="M15.17,29.34V135.28h164.4V29.34Zm156.22,98.19h-148V37.1h148Z"/><polygon class="cls-7" points="23.36 37.1 23.36 127.53 21.74 128.72 21.74 35.91 23.36 37.1"/><rect class="cls-55" x="25.2" y="79.26" width="1.35" height="6.23"/><rect class="cls-56" x="19.06" y="81.59" width="9.08" height="1.56" transform="translate(-58.77 105.97) rotate(-90)"/><rect class="cls-57" x="21.4" y="81.96" width="6.77" height="0.82" transform="translate(-57.58 107.16) rotate(-90)"/><polygon class="cls-58" points="24.91 87.96 24.91 86.18 25.42 86 25.2 83.09 25.2 81.22 26.25 81.22 26.25 88.23 24.91 87.96"/><g class="cls-12"><polygon class="cls-13" points="24.91 87.96 24.84 87.07 24.84 86.18 24.84 86.13 24.89 86.11 25.4 85.93 25.35 86 25.13 83.09 25.13 83.09 25.13 83.09 25.13 82.15 25.2 81.22 25.27 82.15 25.27 83.09 25.27 83.08 25.49 85.99 25.49 86.04 25.44 86.06 24.93 86.24 24.98 86.18 24.98 87.07 24.91 87.96"/></g><polygon class="cls-59" points="26.69 79.53 26.69 85.22 26.54 85.49 26.54 79.26 26.69 79.53"/><polygon class="cls-3" points="21.73 128.72 21.72 128.71 21.54 128.71 15.17 135.09 15.17 135.28 15.36 135.28 21.73 128.91 21.73 128.72"/><polygon class="cls-4" points="21.73 128.72 15.17 135.28 15.36 135.28 21.74 128.9 21.73 128.72"/><polygon class="cls-3" points="21.73 35.89 21.72 35.9 21.54 35.9 15.17 29.52 15.17 29.34 15.36 29.34 21.73 35.71 21.73 35.89"/><polygon class="cls-4" points="21.73 35.9 15.17 29.34 15.36 29.34 21.74 35.72 21.73 35.9"/><path class="cls-22" d="M23.36,37.1v90.43h148V37.1ZM164.06,122H30.69V43.87H164.06Z"/><g class="cls-23"><path class="cls-60" d="M23.36,37.1v90.43h148V37.1ZM164.06,122H30.69V43.87H164.06Z"/></g><path class="cls-22" d="M27,40.71v83.21H167.77V40.71ZM164.06,122H30.69V43.87H164.06Z"/><path class="cls-22" d="M27,40.71v83.21H167.77V40.71ZM164.06,122H30.69V43.87H164.06Z"/><path class="cls-22" d="M27.94,41.66V123H166.81V41.66ZM30.69,122V43.87H164.06V122Z"/><path class="cls-61" d="M27.94,41.66V123H166.81V41.66ZM30.69,122V43.87H164.06V122Z"/><polygon class="cls-26" points="28.89 42.6 28.89 122.02 30.69 122.02 30.69 43.87 164.06 43.87 164.06 122.02 165.86 122.02 165.86 42.6 28.89 42.6"/><rect class="cls-7" x="28.89" y="42.6" width="0.9" height="79.42"/><rect class="cls-27" x="29.79" y="42.61" width="0.9" height="79.42"/><rect class="cls-7" x="164.96" y="42.6" width="0.9" height="79.42"/><rect class="cls-27" x="164.06" y="42.61" width="0.9" height="79.42"/><rect class="cls-7" x="29.34" y="42.6" width="136.1" height="0.63"/><rect class="cls-27" x="29.81" y="43.24" width="135.17" height="0.63"/><path class="cls-3" d="M179.57,29.34V135.28l0,0h0L196.44,120l0,0V0h0L179.61,29.32Zm2.23,5.57,10.74-19v99.64l-10.74,9.52Z"/><path class="cls-62" d="M179.57,29.34V135.28l0,0h0L196.44,120l0,0V0h0L179.61,29.32Zm2.23,5.57,10.74-19v99.64l-10.74,9.52Z"/><path class="cls-63" d="M180.63,32.73v97.38l13.1-11.68h0V10.16h0Zm1.17,2.18,10.74-19v99.64l-10.74,9.52Z"/><path class="cls-22" d="M180.59,32.76v97.39l0,0h0l13.1-11.68h0V10.16h0l-13.1,22.56h0Zm1.21,2.15,10.74-19v99.64l-10.74,9.52Z"/><path class="cls-22" d="M180.59,34v95l0,0,.09-.08h0l.31-.28,12.16-10.83.23-.21V11.61l-.25.21-12.41,22-.06,0-.07.06Zm1.21.93,10.74-19v99.64l-10.74,9.52Z"/><path class="cls-64" d="M180.59,34v95l0,0,.09-.08h0l.31-.28,12.16-10.83.23-.21V11.61l-.25.21-12.41,22-.06,0-.07.06Zm1.21.93,10.74-19v99.64l-10.74,9.52Z"/><path class="cls-22" d="M181.5,33.9v92.7l11.33-10.07V14.44Zm.3,1,10.74-19v99.64l-10.74,9.52Z"/><path class="cls-22" d="M181.5,33.9v92.7l11.33-10.07V14.44Zm.3,1,10.74-19v99.64l-10.74,9.52Z"/><path class="cls-22" d="M181.66,34.4v91.43l11-9.78V15.18Zm.14,90.68V34.91l10.74-19v99.64Z"/><path class="cls-65" d="M181.65,34.41v91.43h0l11-9.78h0V15.18h0l-11,19.22Zm.15,90.67V34.91l10.74-19v99.64Z"/><g class="cls-32"><path class="cls-13" d="M180.65,32.76l13-22.35v108l-13,11.57Zm1.09,2.12v90.35l10.85-9.62,0-99.95Z"/><path class="cls-33" d="M193.59,10.66V118.37l-12.87,11.48v-97h0l0,0,12.84-22.13M181.66,125.38l.23-.2,10.74-9.52,0,0V15.4l-.25.45-10.74,19,0,0v90.5M193.73,10.16h0l-13.1,22.56h0l0,0v97.39l0,0h0l13.1-11.68h0V10.16ZM181.8,125.08V34.91l10.74-19v99.64l-10.74,9.52Z"/></g><polygon class="cls-4" points="193.73 118.42 193.73 117.17 180.72 128.81 180.59 130.15 193.73 118.42"/><polygon class="cls-34" points="193.73 11.42 193.73 10.16 180.59 32.76 180.7 33.89 193.73 11.42"/><polygon class="cls-7" points="193.73 10.17 193.17 11.81 193.17 117.67 193.73 118.43 193.73 10.17"/><polygon class="cls-3" points="193.73 118.42 193.73 118.43 193.73 118.54 196.44 119.98 196.47 119.96 196.47 119.83 193.76 118.4 193.73 118.42"/><polygon class="cls-4" points="193.73 118.42 196.47 119.96 196.47 119.83 193.76 118.39 193.73 118.42"/><polygon class="cls-3" points="193.73 10.16 193.73 10.16 193.76 10.14 196.47 0.12 196.47 0 196.44 0.02 193.73 10.04 193.73 10.16"/><polygon class="cls-4" points="193.73 10.16 196.47 0 196.44 0.02 193.73 10.05 193.73 10.16"/><polygon class="cls-3" points="180.61 130.12 180.61 130.13 180.61 130.24 179.6 135.25 179.57 135.28 179.57 135.15 180.58 130.15 180.61 130.12"/><polygon class="cls-4" points="180.61 130.12 179.57 135.28 179.57 135.15 180.58 130.14 180.61 130.12"/><polygon class="cls-3" points="180.61 32.73 180.61 32.74 180.58 32.76 179.57 29.46 179.57 29.34 179.6 29.31 180.61 32.62 180.61 32.73"/><polygon class="cls-4" points="180.61 32.74 179.57 29.34 179.6 29.31 180.61 32.62 180.61 32.74"/><polygon class="cls-66" points="180.72 128.81 180.7 33.89 180.59 32.76 180.59 130.15 180.72 128.81"/><polygon class="cls-26" points="181.78 34.93 181.78 125.1 181.8 125.08 181.8 34.91 181.78 34.93"/><g class="cls-32"><path class="cls-13" d="M180.65,32.76l13-22.35v108l-13,11.57Zm1.09,2.12v90.35l10.85-9.62,0-99.95Z"/><path class="cls-33" d="M193.59,10.66V118.37l-12.87,11.48v-97h0l0,0,12.84-22.13M181.66,125.38l.23-.2,10.74-9.52,0,0V15.4l-.25.45-10.74,19,0,0v90.5M193.73,10.16h0l-13.1,22.56h0l0,0v97.39l0,0h0l13.1-11.68h0V10.16ZM181.8,125.08V34.91l10.74-19v99.64l-10.74,9.52Z"/></g><path class="cls-3" d="M0,0H0L0,0H0L15.16,29.29h0l0,0h164.4l0,0L196.43.06l0,0h0l0,0ZM27.72,27.81,15.38,7.23H182L169.66,27.81Z"/><path class="cls-67" d="M0,0H0L0,0H0L15.16,29.29h0l0,0h164.4l0,0L196.43.06l0,0h0l0,0ZM27.72,27.81,15.38,7.23H182L169.66,27.81Z"/><path class="cls-68" d="M7.14,6.14h0L20.93,28.61H173.85L187.63,6.15H7.14ZM27.72,27.81,15.38,7.23H182L169.66,27.81Z"/><path class="cls-22" d="M7.14,6.14h0L20.93,28.61h0l0,0H173.82l0,0h0L187.63,6.15H7.14ZM27.72,27.81,15.38,7.23H182L169.66,27.81Z"/><path class="cls-22" d="M12.28,6.43l-2.35.21h0L22.39,28.21l.09.08.3.26.07.06,0,0h149l0,0,.06-.05,13.7-21.9,2-.23ZM27.72,27.81,15.38,7.23H182L169.66,27.81Z"/><path class="cls-69" d="M12.28,6.43l-2.35.21h0L22.39,28.21l.09.08.3.26.07.06,0,0h149l0,0,.06-.05,13.7-21.9,2-.23ZM27.72,27.81,15.38,7.23H182L169.66,27.81Z"/><path class="cls-22" d="M12.85,7,26,28H171.43l13.1-21ZM27.72,27.81,15.38,7.23H182L169.66,27.81Z"/><path class="cls-22" d="M12.85,7,26,28H171.43l13.1-21ZM27.72,27.81,15.38,7.23H182L169.66,27.81Z"/><path class="cls-22" d="M14.12,7.11l12.71,20.8H170.55l12.7-20.8Zm1.26.12H182L169.66,27.81H27.72Z"/><path class="cls-70" d="M14.12,7.1h0l12.71,20.8H170.55l12.7-20.8H14.12Zm1.26.13H182L169.66,27.81H27.72Z"/><g class="cls-32"><path class="cls-13" d="M21,28.57,7.27,6.21H187.52L173.79,28.57Zm6.7-.72,142,0L182.11,7.16H15.26Z"/><path class="cls-33" d="M187.39,6.28,173.75,28.51H21L7.39,6.28h180M27.64,28H169.73l0-.07L182.11,7.3l.12-.2H15.14l.13.2L27.6,27.88l0,.07m160-21.81H7.15L20.93,28.61h0l0,0H173.82l0,0h0L187.63,6.15ZM27.72,27.81,15.38,7.23H182L169.66,27.81Z"/></g><polygon class="cls-4" points="7.14 6.14 9.45 6.14 22.78 28.55 20.96 28.64 7.14 6.14"/><polygon class="cls-34" points="186.19 6.14 187.63 6.14 173.81 28.64 172.85 28.57 186.19 6.14"/><polygon class="cls-7" points="187.63 6.15 187.44 6.66 12.63 6.66 7.15 6.15 187.63 6.15"/><polygon class="cls-3" points="7.15 6.14 7.14 6.14 6.93 6.14 0.04 0.03 0 0 0.23 0 7.12 6.12 7.15 6.14"/><polygon class="cls-4" points="7.15 6.14 0 0 0.23 0 7.13 6.12 7.15 6.14"/><polygon class="cls-3" points="187.64 6.15 187.63 6.14 187.66 6.12 196.29 0 196.51 0 196.47 0.03 187.85 6.15 187.64 6.15"/><polygon class="cls-4" points="187.64 6.14 196.51 0 196.47 0.03 187.85 6.15 187.64 6.14"/><polygon class="cls-3" points="20.95 28.62 20.94 28.62 20.75 28.62 15.16 29.3 15.19 29.31 15.38 29.31 20.97 28.64 20.95 28.62"/><polygon class="cls-4" points="20.94 28.62 15.19 29.31 15.38 29.31 20.98 28.64 20.94 28.62"/><polygon class="cls-3" points="173.85 28.62 173.84 28.62 173.81 28.64 179.41 29.31 179.59 29.31 179.62 29.29 174.03 28.62 173.85 28.62"/><polygon class="cls-4" points="173.84 28.62 179.59 29.31 179.62 29.29 174.03 28.62 173.84 28.62"/><polygon class="cls-71" points="22.78 28.55 171.99 28.57 173.81 28.64 20.96 28.64 22.78 28.55"/><polygon class="cls-26" points="27.72 27.81 27.73 27.82 169.65 27.82 169.66 27.81 27.72 27.81"/><g class="cls-32"><path class="cls-13" d="M21,28.57,7.27,6.21H187.52L173.79,28.57Zm6.7-.72,142,0L182.11,7.16H15.26Z"/><path class="cls-33" d="M187.39,6.28,173.75,28.51H21L7.39,6.28h180M27.64,28H169.73l0-.07L182.11,7.3l.12-.2H15.14l.13.2L27.6,27.88l0,.07m160-21.81H7.15L20.93,28.61h0l0,0H173.82l0,0h0L187.63,6.15ZM27.72,27.81,15.38,7.23H182L169.66,27.81Z"/></g><polygon class="cls-41" points="164 121.22 30.75 43.87 164 43.87 164 121.22"/><polygon class="cls-41" points="2.2 114.69 2.2 10.72 12.99 36.69 2.2 114.69"/><polygon class="cls-41" points="192.54 115.55 192.54 15.92 181.75 34.96 192.54 115.55"/><polygon class="cls-41" points="15.38 7.23 181.99 7.23 169.62 27.85 15.38 7.23"/><path class="cls-3" d="M0,12.12V121.69H0l0,0,15.11,13.54,0,0V29.34l0,0L0,0H0L0,0ZM12.94,124.21,2.2,114.69v-104L12.94,36.64Z"/><path class="cls-72" d="M0,12.12V121.69H0l0,0,15.11,13.54,0,0V29.34l0,0L0,0H0L0,0ZM12.94,124.21,2.2,114.69v-104L12.94,36.64Z"/><path class="cls-73" d="M1,5V118.43H1l3.25,2.89,3.46,3.09,6.39,5.7V32.73L1,5ZM12.94,36.64v87.57L2.2,114.69v-104Z"/><path class="cls-22" d="M1,5V118.43H1l3.25,2.89,9.85,8.79h0l0,0V32.76l0,0h0L1,5ZM12.94,124.21,2.2,114.69v-104L12.94,36.64Z"/><path class="cls-22" d="M1.32,6.42V117.49l.23.21L13.7,128.52h0l.31.28h0l.09.08,0,0V34l0,0L14,33.89h0L1.57,6.62ZM12.94,124.21,2.2,114.69v-104L12.94,36.64Z"/><path class="cls-74" d="M1.32,6.42V117.49l.23.21L13.7,128.52h0l.31.28h0l.09.08,0,0V34l0,0L14,33.89h0L1.57,6.62ZM12.94,124.21,2.2,114.69v-104L12.94,36.64Z"/><path class="cls-22" d="M1.91,9.24V115.67l11.33,10.06V35.63Zm.29,1.48L12.94,36.64v87.57L2.2,114.69Z"/><path class="cls-22" d="M1.91,9.24V115.67l11.33,10.06V35.63Zm.29,1.48L12.94,36.64v87.57L2.2,114.69Z"/><path class="cls-22" d="M2.06,10V115.18l11,9.79V36.13Zm.14.73L12.94,36.64v87.57L2.2,114.69Z"/><path class="cls-75" d="M2.05,10v105.2h0l11,9.79h0V36.14h0L2.06,10Zm.15.74L12.94,36.64v87.57L2.2,114.69Z"/><g class="cls-32"><path class="cls-13" d="M1.06,118.38l0-113.11,13,27.49,0,97.24Zm1.08-3.69L13,124.36V36.64L2.14,10.38Z"/><path class="cls-33" d="M1.15,5.57,14,32.78l0,0h0v97l-9.67-8.63-3.2-2.86V5.57M13.07,124.51V36.59L2.33,10.67,2.07,10V114.75l0,0,10.74,9.52.22.2M1,5V118.43H1l3.25,2.89,9.85,8.79h0l0,0V32.76l0,0h0L1,5ZM12.94,124.21,2.2,114.69v-104L12.94,36.64v87.57Z"/></g><polygon class="cls-4" points="1.01 118.42 1.01 117.17 14.02 128.81 14.15 130.15 1.01 118.42"/><polygon class="cls-34" points="1.01 6.22 1.01 4.97 14.15 32.76 14.04 33.89 1.01 6.22"/><polygon class="cls-7" points="1.01 4.97 1.57 6.62 1.57 117.67 1.01 118.43 1.01 4.97"/><polygon class="cls-3" points="1.01 118.42 1.01 118.43 1.01 118.54 0.03 121.72 0 121.69 0 121.57 0.98 118.4 1.01 118.42"/><polygon class="cls-4" points="1.01 118.42 0 121.69 0 121.57 0.98 118.39 1.01 118.42"/><polygon class="cls-3" points="1.01 4.97 1.01 4.97 0.98 4.95 0 0.12 0 0 0.03 0.02 1.01 4.85 1.01 4.97"/><polygon class="cls-4" points="1.01 4.97 0 0 0.03 0.02 1.01 4.85 1.01 4.97"/><polygon class="cls-3" points="14.13 130.12 14.13 130.13 14.13 130.24 15.14 135.25 15.16 135.28 15.16 135.15 14.16 130.15 14.13 130.12"/><polygon class="cls-4" points="14.13 130.12 15.16 135.28 15.16 135.15 14.16 130.14 14.13 130.12"/><polygon class="cls-3" points="14.13 32.73 14.13 32.74 14.16 32.76 15.17 29.46 15.17 29.34 15.13 29.31 14.13 32.62 14.13 32.73"/><polygon class="cls-4" points="14.13 32.74 15.17 29.34 15.13 29.31 14.13 32.62 14.13 32.74"/><polygon class="cls-76" points="14.02 128.81 14.04 33.89 14.15 32.76 14.15 130.15 14.02 128.81"/><polygon class="cls-26" points="2.2 10.72 12.94 36.64 12.94 124.21 12.96 124.23 12.96 36.66 2.2 10.72"/><g class="cls-32"><path class="cls-13" d="M1.06,118.38l0-113.11,13,27.49,0,97.24Zm1.08-3.69L13,124.36V36.64L2.14,10.38Z"/><path class="cls-33" d="M1.15,5.57,14,32.78l0,0h0v97l-9.67-8.63-3.2-2.86V5.57M13.07,124.51V36.59L2.33,10.67,2.07,10V114.75l0,0,10.74,9.52.22.2M1,5V118.43H1l3.25,2.89,9.85,8.79h0l0,0V32.76l0,0h0L1,5ZM12.94,124.21,2.2,114.69v-104L12.94,36.64v87.57Z"/></g></g></svg>