<svg id="Layer_1" data-name="Layer 1" xmlns="http://www.w3.org/2000/svg" xmlns:xlink="http://www.w3.org/1999/xlink" viewBox="0 0 769.603 800.8582"><defs><style>.cls-1{fill:none;}.cls-12,.cls-13,.cls-2{fill:#fff;}.cls-17,.cls-19,.cls-3,.cls-5,.cls-7{opacity:0.6;}.cls-3{fill:url(#linear-gradient);}.cls-4{fill:#f3f3f3;}.cls-6{fill:url(#linear-gradient-2);}.cls-7{fill:url(#linear-gradient-3);}.cls-8{fill:#0c3b5e;}.cls-9{fill:#d3d5d2;}.cls-10{fill:#e6e7e7;}.cls-11{fill:#414142;opacity:0.2;}.cls-12{opacity:0.03;}.cls-13{opacity:0.18;}.cls-14{fill:#a7a9ac;}.cls-15{fill:#939598;}.cls-16{clip-path:url(#clip-path);}.cls-17{fill:url(#linear-gradient-4);}.cls-18{fill:url(#linear-gradient-5);}.cls-19{fill:url(#linear-gradient-6);}</style><linearGradient id="linear-gradient" x1="0.0052" y1="400.4396" x2="769.603" y2="400.4396" gradientUnits="userSpaceOnUse"><stop offset="0" stop-color="#d5d9d3"/><stop offset="0.2086" stop-color="#e9ebe4"/><stop offset="0.816" stop-color="#e6eae6"/><stop offset="1" stop-color="#d5d9d3"/></linearGradient><linearGradient id="linear-gradient-2" x1="386.6919" y1="416.4523" x2="731.3775" y2="416.4523" xlink:href="#linear-gradient"/><linearGradient id="linear-gradient-3" x1="410.3741" y1="416.4523" x2="707.6952" y2="416.4523" xlink:href="#linear-gradient"/><clipPath id="clip-path"><rect class="cls-1" y="19.4356" width="390.7144" height="781.4226" transform="translate(390.7144 820.2939) rotate(180)"/></clipPath><linearGradient id="linear-gradient-4" x1="373.8899" y1="400.4396" x2="1138.4837" y2="400.4396" gradientTransform="matrix(-1, 0, 0, 1, 1138.4837, 0)" xlink:href="#linear-gradient"/><linearGradient id="linear-gradient-5" x1="755.5726" y1="416.4523" x2="1105.2621" y2="416.4523" gradientTransform="matrix(-1, 0, 0, 1, 1138.4837, 0)" xlink:href="#linear-gradient"/><linearGradient id="linear-gradient-6" x1="779.2548" y1="416.4523" x2="1081.5799" y2="416.4523" gradientTransform="matrix(-1, 0, 0, 1, 1138.4837, 0)" xlink:href="#linear-gradient"/></defs><path class="cls-2" d="M384.176,41.4421V789.4986H44.1289V41.4421ZM.0052.0209l5.004,800.8373H769.603L764.599.0209Zm696.17,71.18V761.7042H415.31V71.2005Z"/><path class="cls-3" d="M.0052.0209l5.004,800.8373H769.603L764.599.0209ZM384.176,41.4421V790.4994H45.13V41.4421ZM696.175,71.2005V761.7042H415.31V71.2005Z"/><path class="cls-4" d="M386.6919,33.2424v766.42H731.3775V33.2424ZM696.175,71.2005V761.7042H415.31V71.2005Z"/><g class="cls-5"><path class="cls-6" d="M386.6919,33.2424v766.42H731.3775V33.2424ZM696.175,71.2005V761.7042H415.31V71.2005Z"/></g><path class="cls-4" d="M405.4385,52V780.9156H712.6309V52Zm290.7365,19.2V761.7042H415.31V71.2005Z"/><path class="cls-4" d="M405.4385,52V780.9156H712.6309V52Zm290.7365,19.2V761.7042H415.31V71.2005Z"/><path class="cls-4" d="M410.3741,56.9247V775.98H707.6952V56.9247ZM415.31,71.2005H696.175V761.7042H415.31Z"/><path class="cls-7" d="M410.3741,56.9247V775.98H707.6952V56.9247ZM415.31,71.2005H696.175V761.7042H415.31Z"/><polygon class="cls-8" points="702.76 61.86 702.76 771.044 415.31 771.044 415.31 761.704 696.175 761.704 696.175 71.2 415.31 71.2 415.31 61.86 702.76 61.86"/><rect class="cls-9" x="415.3124" y="766.3759" width="287.4472" height="4.6668"/><rect class="cls-10" x="415.3098" y="761.7042" width="287.4498" height="4.67"/><rect class="cls-9" x="415.3124" y="61.8662" width="287.4472" height="4.6668" transform="translate(1118.072 128.3992) rotate(-180)"/><rect class="cls-10" x="415.3098" y="66.5304" width="287.4498" height="4.67"/><rect class="cls-9" x="348.7796" y="414.7293" width="704.6651" height="3.295" transform="translate(1117.4889 -284.7353) rotate(90)"/><rect class="cls-10" x="696.175" y="66.4529" width="3.2867" height="699.855"/><polygon class="cls-2" points="33.272 33.198 33.226 33.244 32.301 33.241 0.002 0.926 0 0 0.988 0 33.27 32.272 33.272 33.198"/><polygon class="cls-11" points="33.249 33.221 0 0 0.988 0 33.294 32.296 33.249 33.221"/><polygon class="cls-2" points="731.331 33.198 731.377 33.244 732.303 33.241 764.601 0.926 764.604 0 763.616 0 731.333 32.272 731.331 33.198"/><polygon class="cls-11" points="731.354 33.221 764.604 0 763.616 0 731.309 32.296 731.354 33.221"/><polygon class="cls-2" points="731.38 33.243 732.067 129.046 732.065 224.849 732.065 416.454 732.065 608.059 732.065 703.862 731.38 799.665 730.694 703.862 730.694 608.059 730.694 416.454 730.694 224.849 730.692 129.046 731.38 33.243"/><polygon class="cls-12" points="416.877 760.137 416.877 70.163 697.734 70.163 416.877 760.137"/><rect class="cls-13" x="410.3741" y="58.9263" width="292.3854" height="714.59"/><rect class="cls-14" x="390.4685" y="406.6564" width="11.7132" height="87.6578" rx="1.8741"/><path class="cls-15" d="M442.0553,465.8016l-47.8208,1.59a1.615,1.615,0,0,1-1.61-1.61v-4.3a1.615,1.615,0,0,1,1.61-1.61l48.4107,1a1.615,1.615,0,0,1,1.61,1.61l-.59,1.71A1.615,1.615,0,0,1,442.0553,465.8016Z"/><path class="cls-14" d="M442.6452,465.5111l-48.4107,1a1.615,1.615,0,0,1-1.61-1.61v-4.3a1.615,1.615,0,0,1,1.61-1.61l48.4107,1a1.6149,1.6149,0,0,1,1.61,1.61v2.3A1.6149,1.6149,0,0,1,442.6452,465.5111Z"/><g class="cls-16"><path class="cls-2" d="M385.427,41.4421V789.4986H720.47V41.4421ZM764.5938.0209V800.8582H0V.0209Zm-696.17,71.18V761.7042H354.2932V71.2005Z"/><path class="cls-17" d="M764.5938.0209V800.8582H0V.0209ZM385.427,41.4421V790.4994H719.4693V41.4421ZM68.424,71.2005V761.7042H354.2932V71.2005Z"/><path class="cls-4" d="M382.9111,33.2424v766.42H33.2216V33.2424ZM68.424,71.2005V761.7042H354.2932V71.2005Z"/><g class="cls-5"><path class="cls-18" d="M382.9111,33.2424v766.42H33.2216V33.2424ZM68.424,71.2005V761.7042H354.2932V71.2005Z"/></g><path class="cls-4" d="M364.1645,52V780.9156H51.9682V52Zm-295.74,19.2V761.7042H354.2932V71.2005Z"/><path class="cls-4" d="M364.1645,52V780.9156H51.9682V52Zm-295.74,19.2V761.7042H354.2932V71.2005Z"/><path class="cls-4" d="M359.2289,56.9247V775.98H56.9039V56.9247Zm-4.9357,14.2758H68.424V761.7042H354.2932Z"/><path class="cls-19" d="M359.2289,56.9247V775.98H56.9039V56.9247Zm-4.9357,14.2758H68.424V761.7042H354.2932Z"/><polygon class="cls-8" points="61.839 61.86 61.839 771.044 354.293 771.044 354.293 761.704 68.424 761.704 68.424 71.2 354.293 71.2 354.293 61.86 61.839 61.86"/><rect class="cls-9" x="61.8395" y="766.3759" width="292.4512" height="4.6668" transform="translate(416.1301 1537.4186) rotate(180)"/><rect class="cls-10" x="61.8395" y="761.7042" width="292.4538" height="4.67"/><rect class="cls-9" x="61.8395" y="61.8662" width="292.4512" height="4.6668"/><rect class="cls-10" x="61.8395" y="66.5304" width="292.4538" height="4.67"/><rect class="cls-9" x="-288.8456" y="414.7293" width="704.6651" height="3.295" transform="translate(479.8637 352.8898) rotate(90)"/><rect class="cls-10" x="65.1373" y="66.4529" width="3.2867" height="699.855"/><polygon class="cls-2" points="731.327 33.198 731.373 33.244 732.298 33.241 764.597 0.926 764.599 0 763.611 0 731.329 32.272 731.327 33.198"/><polygon class="cls-11" points="731.35 33.221 764.599 0 763.611 0 731.305 32.296 731.35 33.221"/><polygon class="cls-2" points="33.268 33.198 33.222 33.244 32.296 33.241 -0.002 0.926 -0.004 0 0.983 0 33.266 32.272 33.268 33.198"/><polygon class="cls-11" points="33.245 33.221 -0.004 0 0.983 0 33.29 32.296 33.245 33.221"/><polygon class="cls-2" points="33.219 33.243 33.907 129.046 33.905 224.849 33.905 416.454 33.905 608.059 33.905 703.862 33.219 799.664 32.534 703.862 32.534 608.059 32.534 416.454 32.534 224.849 32.531 129.046 33.219 33.243"/><polygon class="cls-12" points="352.726 760.137 352.726 70.163 66.865 70.163 352.726 760.137"/><rect class="cls-13" x="61.8395" y="58.9263" width="297.3894" height="714.59" transform="translate(421.0683 832.4426) rotate(180)"/><rect class="cls-14" x="367.4214" y="406.6564" width="11.7132" height="87.6578" rx="1.8741" transform="translate(746.5559 900.9706) rotate(-180)"/><path class="cls-15" d="M327.5477,465.8016l47.8209,1.59a1.615,1.615,0,0,0,1.61-1.61v-4.3a1.615,1.615,0,0,0-1.61-1.61l-48.4107,1a1.615,1.615,0,0,0-1.61,1.61l.59,1.71A1.615,1.615,0,0,0,327.5477,465.8016Z"/><path class="cls-14" d="M326.9579,465.5111l48.4107,1a1.6149,1.6149,0,0,0,1.61-1.61v-4.3a1.6149,1.6149,0,0,0-1.61-1.61l-48.4107,1a1.615,1.615,0,0,0-1.61,1.61v2.3A1.615,1.615,0,0,0,326.9579,465.5111Z"/></g></svg>