<svg id="Layer_1" data-name="Layer 1" xmlns="http://www.w3.org/2000/svg" xmlns:xlink="http://www.w3.org/1999/xlink" viewBox="0 0 184.24 199.43"><defs><style>.cls-1,.cls-18{fill:#fff;}.cls-16,.cls-17,.cls-2,.cls-4,.cls-6{opacity:0.6;}.cls-2{fill:url(#linear-gradient);}.cls-3{fill:#f3f3f3;}.cls-5{fill:url(#linear-gradient-2);}.cls-6{fill:url(#linear-gradient-3);}.cls-7{fill:#0c3b5e;}.cls-8{fill:#d3d5d2;}.cls-9{fill:#e6e7e7;}.cls-10,.cls-13{opacity:0.05;}.cls-11,.cls-13,.cls-14{fill:#414142;}.cls-12{fill:#6e6f71;}.cls-14,.cls-23{opacity:0.2;}.cls-15{fill:url(#linear-gradient-4);}.cls-16{fill:url(#linear-gradient-5);}.cls-17{fill:url(#linear-gradient-6);}.cls-18{opacity:0.03;}.cls-19{fill:url(#linear-gradient-7);}.cls-20{fill:url(#linear-gradient-8);}.cls-21{fill:url(#linear-gradient-9);}.cls-22{fill:url(#linear-gradient-10);}.cls-24{fill:url(#linear-gradient-11);}.cls-25{fill:none;stroke:#f2f2f2;stroke-miterlimit:10;stroke-width:0.65px;}</style><linearGradient id="linear-gradient" y1="99.72" x2="184.24" y2="99.72" gradientUnits="userSpaceOnUse"><stop offset="0" stop-color="#d5d9d3"/><stop offset="0.21" stop-color="#e9ebe4"/><stop offset="0.82" stop-color="#e6eae6"/><stop offset="1" stop-color="#d5d9d3"/></linearGradient><linearGradient id="linear-gradient-2" x1="92.48" y1="99.72" x2="175.37" y2="99.72" xlink:href="#linear-gradient"/><linearGradient id="linear-gradient-3" x1="98.09" y1="99.72" x2="169.75" y2="99.72" xlink:href="#linear-gradient"/><linearGradient id="linear-gradient-4" x1="499.01" y1="-451.74" x2="680.68" y2="-451.74" gradientTransform="translate(543.62 689.57) rotate(-90)" gradientUnits="userSpaceOnUse"><stop offset="0" stop-color="#d5d9d3"/><stop offset="0.51" stop-color="#d0d4d1"/><stop offset="1" stop-color="#d5d9d3"/></linearGradient><linearGradient id="linear-gradient-5" x1="12.27" y1="99.72" x2="92.48" y2="99.72" xlink:href="#linear-gradient"/><linearGradient id="linear-gradient-6" x1="21.02" y1="99.72" x2="91.09" y2="99.72" xlink:href="#linear-gradient"/><linearGradient id="linear-gradient-7" x1="586.92" y1="303.26" x2="594.4" y2="303.26" gradientTransform="matrix(0, -1, -1.98, 0, 689.03, 689.57)" gradientUnits="userSpaceOnUse"><stop offset="0" stop-color="#d5d9d3"/><stop offset="0.52" stop-color="#e9ebe4"/><stop offset="1" stop-color="#d5d9d3"/></linearGradient><linearGradient id="linear-gradient-8" x1="585.21" y1="-452.41" x2="596.11" y2="-452.41" gradientTransform="translate(-499.45 551.32)" xlink:href="#linear-gradient-7"/><linearGradient id="linear-gradient-9" x1="586.59" y1="-453.84" x2="594.72" y2="-453.84" gradientTransform="translate(-500.87 552.75)" xlink:href="#linear-gradient"/><linearGradient id="linear-gradient-10" x1="-929.58" y1="553.39" x2="-922.22" y2="553.39" gradientTransform="matrix(0, 1.14, -1, 0, 642.23, 1160.66)" xlink:href="#linear-gradient"/><linearGradient id="linear-gradient-11" x1="586.92" y1="-1083.22" x2="594.4" y2="-1083.22" gradientTransform="matrix(0, -1, 0.44, 0, 564.84, 689.57)" xlink:href="#linear-gradient"/></defs><path class="cls-1" d="M0,0V199.43H184.24V0ZM86.86,181.49H22.19V17.94H86.86ZM167,17.88V181.55H99.26V17.88Z"/><path class="cls-2" d="M0,0V199.43H184.24V0ZM86.86,181.49H22.19V17.94H86.86ZM167,17.88V181.55H99.26V17.88Z"/><path class="cls-3" d="M92.48,8.88V190.55h82.89V8.88Zm74.54,9V181.55H99.26V17.88Z"/><g class="cls-4"><path class="cls-5" d="M92.48,8.88V190.55h82.89V8.88Zm74.54,9V181.55H99.26V17.88Z"/></g><path class="cls-3" d="M96.92,13.33V186.11h74V13.33ZM167,17.88V181.55H99.26V17.88Z"/><path class="cls-3" d="M96.92,13.33V186.11h74V13.33ZM167,17.88V181.55H99.26V17.88Z"/><path class="cls-3" d="M98.09,14.5V184.94h71.66V14.5Zm1.17,3.38H167V181.55H99.26Z"/><path class="cls-6" d="M98.09,14.5V184.94h71.66V14.5Zm1.17,3.38H167V181.55H99.26Z"/><path class="cls-7" d="M99.26,15.66v2.22H167V181.55H99.26v2.22h69.32V15.66Z"/><rect class="cls-8" x="99.26" y="182.66" width="69.32" height="1.11"/><rect class="cls-9" x="99.26" y="181.55" width="69.32" height="1.11"/><rect class="cls-8" x="99.26" y="15.67" width="69.32" height="1.11" transform="translate(267.84 32.44) rotate(-180)"/><rect class="cls-9" x="99.26" y="16.77" width="69.32" height="1.11"/><rect class="cls-8" x="84.68" y="99.31" width="167.03" height="0.78" transform="translate(267.89 -68.49) rotate(90)"/><rect class="cls-9" x="167.02" y="16.75" width="0.78" height="165.89"/><g class="cls-10"><path class="cls-11" d="M10,190.47V9H92.39V190.47Zm12.15-8.9H86.94V17.86H22.11Z"/><path class="cls-12" d="M92.31,9V190.39H10V9H92.31M22,181.65H87V17.78H22V181.65M92.48,8.88H9.88V190.55h82.6V8.88ZM22.19,181.49V17.94H86.86V181.49Z"/></g><rect class="cls-13" x="49.99" y="148.07" width="2.37" height="82.6" transform="translate(240.55 138.19) rotate(90)"/><path class="cls-7" d="M12.27,11.24V188.08h79V11.24ZM86.86,181.49H22.19V17.94H86.86Z"/><rect class="cls-13" x="49.99" y="-31.24" width="2.37" height="82.6" transform="translate(61.24 -41.11) rotate(90)"/><polygon class="cls-8" points="9.91 8.88 12.27 11.36 12.27 188.07 9.91 190.55 9.91 8.88"/><polygon class="cls-1" points="7.87 190.54 7.88 190.55 7.88 190.77 0.22 199.43 0 199.43 0 199.2 7.65 190.54 7.87 190.54"/><polygon class="cls-14" points="7.88 190.55 0 199.43 0 199.2 7.66 190.54 7.88 190.55"/><polygon class="cls-1" points="7.89 8.87 7.88 8.88 7.66 8.88 0 0.22 0 0 0.23 0 7.89 8.65 7.89 8.87"/><polygon class="cls-14" points="7.88 8.88 0 0 0.23 0 7.89 8.66 7.88 8.88"/><polygon class="cls-1" points="175.37 190.54 175.36 190.55 175.36 190.77 184.02 199.43 184.24 199.43 184.24 199.2 175.59 190.54 175.37 190.54"/><polygon class="cls-1" points="175.35 8.87 175.37 8.88 175.59 8.88 184.24 0.22 184.24 0 184.01 0 175.35 8.65 175.35 8.87"/><polygon class="cls-14" points="175.36 8.88 184.24 0 184.01 0 175.35 8.66 175.36 8.88"/><polygon class="cls-15" points="91.28 188.19 91.28 11.25 92.48 8.88 92.48 190.55 91.28 188.19"/><polygon class="cls-1" points="175.37 8.88 175.53 31.59 175.53 54.3 175.53 99.72 175.53 145.13 175.53 167.84 175.37 190.55 175.2 167.84 175.2 145.13 175.2 99.72 175.2 54.3 175.2 31.59 175.37 8.88"/><path class="cls-3" d="M15.41,11.25V188.19H92.48V11.25ZM86.86,181.49H22.19V17.94H86.86Z"/><path class="cls-3" d="M91.33,11.16l-79.06.08V188.49l79.06-.21h1.15V11.16ZM86.86,181.49H22.19V17.94H86.86Z"/><path class="cls-16" d="M12.27,11.16V188.28H92.48V11.16ZM86.86,181.49H22.19V17.94H86.86Z"/><path class="cls-3" d="M19.85,15.6V183.83H88V15.6Zm67,165.89H22.19V17.94H86.86Z"/><path class="cls-3" d="M19.85,15.6V183.83H92.26V15.6Zm67,165.89H22.19V17.94H86.86Z"/><polygon class="cls-3" points="22.19 181.49 86.86 181.49 86.86 182.66 21.02 182.66 21.02 16.77 86.86 16.77 86.86 17.94 22.19 17.94 22.19 181.49"/><path class="cls-17" d="M21,16.77V182.66H91.09V16.77Zm1.17,1.17H86.86V181.49H22.19Z"/><polygon class="cls-1" points="89.92 17.94 89.92 181.49 22.19 181.49 22.19 181.49 86.86 181.49 86.86 17.94 89.92 17.94"/><polygon class="cls-18" points="22.52 181.49 22.52 17.94 90.28 17.94 22.52 181.49"/><g class="cls-10"><rect class="cls-11" x="7.76" y="8.96" width="82.44" height="181.51"/><path class="cls-12" d="M90.11,9V190.39H7.84V9H90.11m.17-.16H7.68V190.55h82.6V8.88Z"/></g><rect class="cls-19" x="87.68" y="95.17" width="1.62" height="7.48"/><rect class="cls-20" x="85.76" y="97.97" width="10.9" height="1.88" transform="translate(-7.69 190.12) rotate(-90)"/><rect class="cls-21" x="85.72" y="98.42" width="8.13" height="0.98" transform="translate(-9.12 188.69) rotate(-90)"/><polygon class="cls-22" points="89.64 105.61 89.64 103.47 89.03 103.26 89.3 99.77 89.3 97.52 88.03 97.52 88.03 105.94 89.64 105.61"/><g class="cls-23"><polygon class="cls-11" points="89.64 105.61 89.56 104.55 89.56 103.47 89.62 103.55 89 103.34 88.94 103.31 88.95 103.25 89.21 99.76 89.21 99.77 89.21 98.64 89.3 97.52 89.38 98.64 89.38 99.77 89.38 99.77 89.38 99.77 89.11 103.27 89.06 103.18 89.67 103.4 89.72 103.42 89.72 103.47 89.72 104.55 89.64 105.61"/></g><polygon class="cls-24" points="87.5 95.49 87.5 102.32 87.68 102.65 87.68 95.17 87.5 95.49"/><path class="cls-13" d="M171.57,109.87l1.89.2a1.27,1.27,0,0,0,.28,0h0a.73.73,0,0,0,.61-.35V89.68a.73.73,0,0,0-.61-.35h0l-.28,0-1.89.21Z"/><path class="cls-13" d="M174.35,89.68v20.07a.73.73,0,0,1-.61.35h0a1.32,1.32,0,0,1-.59-.11V89.45a1.25,1.25,0,0,1,.59-.12h0A.73.73,0,0,1,174.35,89.68Z"/><path class="cls-13" d="M19.39,89.57l-1.89-.21-.28,0h0a.71.71,0,0,0-.6.35v20.07a.71.71,0,0,0,.6.35h0a1.2,1.2,0,0,0,.28,0l1.89-.2Z"/><path class="cls-13" d="M16.62,109.75V89.68a.71.71,0,0,1,.6-.35h0a1.21,1.21,0,0,1,.59.12V110a1.28,1.28,0,0,1-.59.11h0A.71.71,0,0,1,16.62,109.75Z"/><polyline class="cls-25" points="56.07 17.97 56.07 50.66 56.07 83.39 56.07 116.11 56.07 148.83 56.07 181.49 56.07 181.49 56.07 181.56"/><polyline class="cls-25" points="22.19 50.66 56.07 50.66 86.86 50.66 88.03 50.66 89.92 50.66 89.95 50.66"/><polyline class="cls-25" points="89.95 83.39 89.92 83.39 88.03 83.39 86.86 83.39 56.07 83.39 22.19 83.39"/><polyline class="cls-25" points="89.95 116.11 89.92 116.11 88.03 116.11 86.86 116.11 56.07 116.11 22.19 116.11"/><polyline class="cls-25" points="89.95 148.83 89.92 148.83 88.03 148.83 86.86 148.83 56.07 148.83 22.19 148.83"/><polyline class="cls-25" points="133.14 17.97 133.14 50.66 133.14 83.39 133.14 116.11 133.14 148.83 133.14 181.56"/><polyline class="cls-25" points="167.02 50.66 133.14 50.66 99.26 50.66"/><polyline class="cls-25" points="167.02 83.39 133.14 83.39 99.26 83.39"/><polyline class="cls-25" points="167.02 116.11 133.14 116.11 99.26 116.11"/><polyline class="cls-25" points="167.02 148.83 133.14 148.83 99.26 148.83"/><polygon class="cls-18" points="98.93 181.49 98.93 17.94 166.69 17.94 98.93 181.49"/></svg>