<svg id="Layer_1" data-name="Layer 1" xmlns="http://www.w3.org/2000/svg" xmlns:xlink="http://www.w3.org/1999/xlink" viewBox="0 0 265.51 280.57"><defs><style>.cls-1,.cls-18{fill:#fff;}.cls-16,.cls-17,.cls-2,.cls-4,.cls-6{opacity:0.6;}.cls-2{fill:url(#linear-gradient);}.cls-3{fill:#f3f3f3;}.cls-5{fill:url(#linear-gradient-2);}.cls-6{fill:url(#linear-gradient-3);}.cls-7{fill:#0c3b5e;}.cls-8{fill:#d3d5d2;}.cls-9{fill:#e6e7e7;}.cls-10,.cls-13{opacity:0.05;}.cls-11,.cls-13,.cls-14{fill:#414142;}.cls-12{fill:#6e6f71;}.cls-14{opacity:0.2;}.cls-15{fill:url(#linear-gradient-4);}.cls-16{fill:url(#linear-gradient-5);}.cls-17{fill:url(#linear-gradient-6);}.cls-18{opacity:0.03;}</style><linearGradient id="linear-gradient" y1="140.29" x2="265.51" y2="140.29" gradientUnits="userSpaceOnUse"><stop offset="0" stop-color="#d5d9d3"/><stop offset="0.21" stop-color="#e9ebe4"/><stop offset="0.82" stop-color="#e6eae6"/><stop offset="1" stop-color="#d5d9d3"/></linearGradient><linearGradient id="linear-gradient-2" x1="132.54" y1="144.79" x2="255.8" y2="144.79" xlink:href="#linear-gradient"/><linearGradient id="linear-gradient-3" x1="140.89" y1="144.79" x2="247.45" y2="144.79" xlink:href="#linear-gradient"/><linearGradient id="linear-gradient-4" x1="-54.64" y1="220.16" x2="215.52" y2="220.16" gradientTransform="translate(-88.51 225.23) rotate(-90)" gradientUnits="userSpaceOnUse"><stop offset="0" stop-color="#d5d9d3"/><stop offset="0.51" stop-color="#d0d4d1"/><stop offset="1" stop-color="#d5d9d3"/></linearGradient><linearGradient id="linear-gradient-5" x1="13.27" y1="144.79" x2="132.54" y2="144.79" xlink:href="#linear-gradient"/><linearGradient id="linear-gradient-6" x1="26.28" y1="144.79" x2="130.48" y2="144.79" xlink:href="#linear-gradient"/></defs><path class="cls-1" d="M0,0V280.57H265.51V0ZM128.78,23.19V266.4H28V23.19Zm114.61-.09V266.49H142.63V23.1Z"/><path class="cls-2" d="M0,0V280.57H265.51V0ZM128.78,23.19V266.4H28V23.19Zm114.61-.09V266.49H142.63V23.1Z"/><path class="cls-3" d="M132.54,9.72V279.87H255.8V9.72ZM243.39,23.1V266.49H142.63V23.1Z"/><g class="cls-4"><path class="cls-5" d="M132.54,9.72V279.87H255.8V9.72ZM243.39,23.1V266.49H142.63V23.1Z"/></g><path class="cls-3" d="M139.15,16.33V273.26h110V16.33ZM243.39,23.1V266.49H142.63V23.1Z"/><path class="cls-3" d="M139.15,16.33V273.26h110V16.33ZM243.39,23.1V266.49H142.63V23.1Z"/><path class="cls-3" d="M140.89,18.06V271.52H247.45V18.06Zm1.74,5H243.39V266.49H142.63Z"/><path class="cls-6" d="M140.89,18.06V271.52H247.45V18.06Zm1.74,5H243.39V266.49H142.63Z"/><polygon class="cls-7" points="245.71 19.8 245.71 269.78 142.63 269.78 142.63 266.49 243.39 266.49 243.39 23.1 142.63 23.1 142.63 19.8 245.71 19.8"/><rect class="cls-8" x="142.63" y="268.14" width="103.09" height="1.64"/><rect class="cls-9" x="142.63" y="266.49" width="103.09" height="1.65"/><rect class="cls-8" x="142.63" y="19.81" width="103.09" height="1.64" transform="translate(388.34 41.26) rotate(-180)"/><rect class="cls-9" x="142.63" y="21.45" width="103.09" height="1.65"/><rect class="cls-8" x="120.94" y="144.19" width="248.39" height="1.16" transform="translate(389.9 -100.37) rotate(90)"/><rect class="cls-9" x="243.39" y="21.42" width="1.16" height="246.69"/><g class="cls-10"><path class="cls-11" d="M9.83,279.75V9.84H132.42V279.75ZM27.9,266.52h101V23.07H27.9Z"/><path class="cls-12" d="M132.3,10V279.63H10V10H132.3M27.78,266.64H129V23H27.78V266.64M132.54,9.72H9.71V279.87H132.54V9.72ZM28,266.4V23.19H128.78V266.4Z"/></g><rect class="cls-13" x="69.37" y="216.7" width="3.52" height="122.83" transform="translate(349.24 206.99) rotate(90)"/><path class="cls-7" d="M13.27,13.23v263H130.76v-263Zm115.51,10V266.4H28V23.19Z"/><rect class="cls-13" x="69.37" y="-49.94" width="3.52" height="122.83" transform="translate(82.6 -59.65) rotate(90)"/><polygon class="cls-8" points="9.75 9.72 13.27 13.4 13.27 276.19 9.75 279.87 9.75 9.72"/><polygon class="cls-1" points="9.73 9.7 9.71 9.72 9.38 9.72 0 0.33 0 0 0.35 0 9.73 9.37 9.73 9.7"/><polygon class="cls-14" points="9.72 9.71 0 0 0.35 0 9.73 9.38 9.72 9.71"/><polygon class="cls-1" points="255.78 9.7 255.8 9.72 256.13 9.72 265.51 0.33 265.51 0 265.16 0 255.78 9.37 255.78 9.7"/><polygon class="cls-14" points="255.79 9.71 265.51 0 265.16 0 255.78 9.38 255.79 9.71"/><polygon class="cls-15" points="130.76 276.35 130.76 13.23 132.54 9.72 132.54 279.87 130.76 276.35"/><polygon class="cls-1" points="255.8 9.72 256.04 43.48 256.04 77.25 256.04 144.79 256.04 212.33 256.04 246.1 255.8 279.87 255.56 246.1 255.56 212.33 255.56 144.79 255.56 77.25 255.56 43.48 255.8 9.72"/><path class="cls-3" d="M17.93,13.23V276.35H132.54V13.23Zm110.85,10V266.4H28V23.19Z"/><path class="cls-3" d="M130.83,13.1l-117.56.13V276.81l117.56-.32h1.71V13.1ZM28,266.4V23.19H128.78V266.4Z"/><path class="cls-16" d="M13.27,13.1V276.48H132.54V13.1ZM28,266.4V23.19H128.78V266.4Z"/><path class="cls-3" d="M24.54,19.71V269.88H125.93V266.4H28V23.19h97.91V19.71Z"/><path class="cls-3" d="M24.54,19.71V269.88H132.21V19.71ZM128.78,266.4H28V23.19H128.78Z"/><polygon class="cls-3" points="28.02 23.19 28.02 266.4 124.19 266.4 124.19 268.14 26.28 268.14 26.28 21.45 124.19 21.45 124.19 23.19 28.02 23.19"/><path class="cls-17" d="M26.28,21.45V268.14h104.2V21.45Zm102.5,245H28V23.19H128.78Z"/><path class="cls-13" d="M250.16,159.89l2.81.31.42,0h0a1.06,1.06,0,0,0,.89-.52V129.87a1.08,1.08,0,0,0-.89-.53h0l-.42,0-2.81.31Z"/><path class="cls-13" d="M254.28,129.87v29.85a1.06,1.06,0,0,1-.89.52h0a2,2,0,0,1-.88-.17V129.52a2,2,0,0,1,.88-.18h0A1.08,1.08,0,0,1,254.28,129.87Z"/><path class="cls-13" d="M23.86,129.7l-2.81-.31-.42,0h0a1.1,1.1,0,0,0-.9.53v29.85a1.08,1.08,0,0,0,.9.52h0l.42,0,2.81-.31Z"/><path class="cls-13" d="M19.73,159.72V129.87a1.1,1.1,0,0,1,.9-.53h0a2,2,0,0,1,.88.18v30.55a2,2,0,0,1-.88.17h0A1.08,1.08,0,0,1,19.73,159.72Z"/><polygon class="cls-18" points="28.57 265.94 28.57 22.73 129.33 22.73 28.57 265.94"/><polygon class="cls-18" points="143.18 265.94 143.18 22.73 243.94 22.73 143.18 265.94"/><g class="cls-10"><rect class="cls-11" x="10.38" y="9.38" width="122.59" height="269.91"/><path class="cls-12" d="M132.85,9.5V279.17H10.5V9.5H132.85m.24-.24H10.26V279.41H133.09V9.26Z"/></g></svg>