<svg xmlns="http://www.w3.org/2000/svg" xmlns:xlink="http://www.w3.org/1999/xlink" width="139.634" height="68" viewBox="0 0 139.634 68">
  <defs>
    <clipPath id="clip-path">
      <path id="Path_9416" data-name="Path 9416" d="M0-30.293H139.634v-68H0Z" transform="translate(0 98.293)" fill="none"/>
    </clipPath>
  </defs>
  <g id="Group_1644" data-name="Group 1644" transform="translate(0 98.293)">
    <g id="Group_1543" data-name="Group 1543" transform="translate(0 -98.293)" clip-path="url(#clip-path)">
      <g id="Group_1519" data-name="Group 1519" transform="translate(56.225 19.045)">
        <path id="Path_9388" data-name="Path 9388" d="M-.563-.264C-.642-.5-.721-.7-.761-.857-.8-.7-.88-.5-.958-.264s-.158.474-.277.751l-.593,1.581H.266L-.326.486C-.406.21-.485-.028-.563-.264" transform="translate(1.828 0.857)" fill="#12597a"/>
      </g>
      <g id="Group_1520" data-name="Group 1520" transform="translate(64.917 32.874)">
        <path id="Path_9389" data-name="Path 9389" d="M-1.056,0H-3.427V2.252h2.371a1.3,1.3,0,0,0,.948-.315,1.135,1.135,0,0,0,.316-.83C.248.356-.187,0-1.056,0" transform="translate(3.427 0)" fill="#12597a"/>
      </g>
      <g id="Group_1521" data-name="Group 1521" transform="translate(97.712 18.531)">
        <path id="Path_9390" data-name="Path 9390" d="M-.44,0h-.988V5.334h.909a4.049,4.049,0,0,0,1.264-.2,2.19,2.19,0,0,0,.87-.553,2.244,2.244,0,0,0,.513-.829,3.1,3.1,0,0,0,.158-1.106A2.7,2.7,0,0,0,1.654.672,2.83,2.83,0,0,0-.44,0" transform="translate(1.428)" fill="#12597a"/>
      </g>
      <g id="Group_1522" data-name="Group 1522" transform="translate(81.157 18.532)">
        <path id="Path_9391" data-name="Path 9391" d="M-1.655-.493a1.05,1.05,0,0,0-.356-.87A1.689,1.689,0,0,0-2.959-1.6h-2.41V.653h2.41c.87,0,1.3-.4,1.3-1.146" transform="translate(5.369 1.599)" fill="#12597a"/>
      </g>
      <g id="Group_1523" data-name="Group 1523" transform="translate(126.398 18.531)">
        <path id="Path_9392" data-name="Path 9392" d="M-.44,0h-.988V5.334h.909a4.049,4.049,0,0,0,1.264-.2,2.19,2.19,0,0,0,.87-.553,2.244,2.244,0,0,0,.513-.829,3.1,3.1,0,0,0,.158-1.106A2.7,2.7,0,0,0,1.654.672,2.893,2.893,0,0,0-.44,0" transform="translate(1.428)" fill="#12597a"/>
      </g>
      <g id="Group_1524" data-name="Group 1524" transform="translate(0 0)">
        <path id="Path_9393" data-name="Path 9393" d="M-58.632-10.315A4.023,4.023,0,0,1-59.7-8.971a4.948,4.948,0,0,1-1.5.79,6.384,6.384,0,0,1-1.739.237h-2.726v-8.693h2.884a6.513,6.513,0,0,1,1.817.237,3.509,3.509,0,0,1,1.422.751,3.747,3.747,0,0,1,.948,1.343,5.107,5.107,0,0,1,.356,2.015,4.3,4.3,0,0,1-.4,1.976M-67.048-7.9h-6.559V-16.6h6.361v1.7h-4.544v1.5H-68v1.66h-3.793v2.094h4.742Zm-.553,9.72a1.98,1.98,0,0,1-.632.869,2.912,2.912,0,0,1-1.106.553,5.938,5.938,0,0,1-1.58.2A5.034,5.034,0,0,1-72.975,3,3.218,3.218,0,0,1-74.4,1.855l1.3-1.106a2.771,2.771,0,0,0,1.067.751,3.224,3.224,0,0,0,1.225.237A2.221,2.221,0,0,0-69.616,1.5a.829.829,0,0,0,.4-.711A.787.787,0,0,0-69.3.432a.623.623,0,0,0-.276-.277c-.158-.079-.356-.158-.593-.277C-70.446-.2-70.762-.279-71.2-.4a9.713,9.713,0,0,1-1.146-.317,2.6,2.6,0,0,1-.87-.474A2.583,2.583,0,0,1-73.8-1.9,2.71,2.71,0,0,1-74-2.966a2.348,2.348,0,0,1,.237-1.067,2.173,2.173,0,0,1,.671-.79,2.8,2.8,0,0,1,1.027-.514,4.182,4.182,0,0,1,1.225-.158,4.256,4.256,0,0,1,1.817.356,5.728,5.728,0,0,1,1.422.988l-1.3,1.225a3.6,3.6,0,0,0-.908-.672,2.528,2.528,0,0,0-1.106-.237,2.394,2.394,0,0,0-.593.079,1.237,1.237,0,0,0-.4.2.533.533,0,0,0-.2.237.731.731,0,0,0-.079.277.793.793,0,0,0,.079.356.561.561,0,0,0,.277.237,1.484,1.484,0,0,0,.553.2,8.555,8.555,0,0,0,.869.237c.356.079.711.2,1.067.276a3.561,3.561,0,0,1,.948.475,2.6,2.6,0,0,1,.711.751A2.194,2.194,0,0,1-67.4.669a3.469,3.469,0,0,1-.2,1.146M-74.752-14.9H-77.4V-7.9h-1.817V-14.9h-2.648v-1.7h7.112Zm-.514,16.713a1.98,1.98,0,0,1-.632.869A2.912,2.912,0,0,1-77,3.238a5.941,5.941,0,0,1-1.58.2A5.034,5.034,0,0,1-80.64,3a3.218,3.218,0,0,1-1.422-1.146l1.3-1.106a2.774,2.774,0,0,0,1.067.751,3.23,3.23,0,0,0,1.225.237A2.221,2.221,0,0,0-77.282,1.5a.829.829,0,0,0,.4-.711.787.787,0,0,0-.08-.356.623.623,0,0,0-.276-.277C-77.4.077-77.6,0-77.834-.121c-.277-.079-.593-.158-1.027-.276a9.713,9.713,0,0,1-1.146-.317,2.6,2.6,0,0,1-.87-.474A2.583,2.583,0,0,1-81.47-1.9a2.71,2.71,0,0,1-.2-1.067,2.357,2.357,0,0,1,.237-1.067,2.182,2.182,0,0,1,.672-.79,2.8,2.8,0,0,1,1.027-.514,4.182,4.182,0,0,1,1.225-.158,4.256,4.256,0,0,1,1.817.356,5.728,5.728,0,0,1,1.422.988l-1.3,1.225a3.6,3.6,0,0,0-.908-.672,2.528,2.528,0,0,0-1.106-.237,2.394,2.394,0,0,0-.593.079,1.237,1.237,0,0,0-.4.2.528.528,0,0,0-.2.237.731.731,0,0,0-.079.277.791.791,0,0,0,.079.356.561.561,0,0,0,.277.237,1.484,1.484,0,0,0,.553.2,8.555,8.555,0,0,0,.869.237c.356.079.711.2,1.067.276a3.561,3.561,0,0,1,.948.475,2.6,2.6,0,0,1,.711.751A2.194,2.194,0,0,1-75.069.669a3.469,3.469,0,0,1-.2,1.146m-7.112,1.5h-6.559V-5.376h6.361v1.7H-87.12v1.5h3.793v1.7H-87.12V1.617h4.742ZM-91.624-7.9h-2.726V-16.6h2.885a6.543,6.543,0,0,1,1.817.237,3.523,3.523,0,0,1,1.422.751,3.752,3.752,0,0,1,.948,1.343,5.113,5.113,0,0,1,.356,2.015,4.419,4.419,0,0,1-.4,1.976,4.016,4.016,0,0,1-1.067,1.343,4.94,4.94,0,0,1-1.5.79,8.39,8.39,0,0,1-1.739.237m.751,11.221h-1.58l-3.28-4.741c-.118-.158-.237-.356-.356-.514a2.807,2.807,0,0,0-.276-.434V3.356h-1.779V-5.337h1.7l3.161,4.583c.119.158.237.356.356.514A2.855,2.855,0,0,0-92.652.2V-5.376h1.778Zm-9.088,0h-1.778V-5.376h1.778Zm-2.291-19.953h6.361V-14.9h-4.544v1.5h3.793v1.66h-3.793v2.094h4.741v1.7h-6.558ZM-103.4,1.815a1.984,1.984,0,0,1-.632.869,2.915,2.915,0,0,1-1.107.553,5.938,5.938,0,0,1-1.58.2A5.033,5.033,0,0,1-108.772,3a3.218,3.218,0,0,1-1.422-1.146l1.3-1.106a2.764,2.764,0,0,0,1.067.751,3.224,3.224,0,0,0,1.225.237,2.225,2.225,0,0,0,1.186-.237.83.83,0,0,0,.4-.711.778.778,0,0,0-.08-.356.623.623,0,0,0-.276-.277c-.158-.079-.356-.158-.593-.277-.277-.079-.593-.158-1.027-.276a9.714,9.714,0,0,1-1.146-.317,2.6,2.6,0,0,1-.87-.474A2.581,2.581,0,0,1-109.6-1.9a2.7,2.7,0,0,1-.2-1.067,2.348,2.348,0,0,1,.237-1.067,2.168,2.168,0,0,1,.672-.79,2.789,2.789,0,0,1,1.027-.514,4.182,4.182,0,0,1,1.225-.158,4.256,4.256,0,0,1,1.817.356,5.728,5.728,0,0,1,1.422.988l-1.3,1.225a3.611,3.611,0,0,0-.909-.672,2.528,2.528,0,0,0-1.106-.237,2.4,2.4,0,0,0-.593.079,1.237,1.237,0,0,0-.4.2.533.533,0,0,0-.2.237.731.731,0,0,0-.079.277.791.791,0,0,0,.079.356.561.561,0,0,0,.277.237,1.489,1.489,0,0,0,.553.2c.237.039.513.158.869.237s.711.2,1.067.276a3.561,3.561,0,0,1,.948.475,2.587,2.587,0,0,1,.711.751A2.194,2.194,0,0,1-103.2.669a3.469,3.469,0,0,1-.2,1.146m-7.507-18.452h4.267a4.182,4.182,0,0,1,1.225.158,3.12,3.12,0,0,1,1.027.514,2.067,2.067,0,0,1,.672.869,2.94,2.94,0,0,1,.237,1.225,2.9,2.9,0,0,1-.434,1.62,3.415,3.415,0,0,1-1.541,1.027l2.015,3.319h-2.094l-1.9-3.043-1.62-.079V-7.9h-1.817ZM-111.42-.516a4.133,4.133,0,0,1-.948,2.924,3.512,3.512,0,0,1-2.648,1.028,3.453,3.453,0,0,1-1.462-.277,3.844,3.844,0,0,1-1.146-.751,3.785,3.785,0,0,1-.751-1.224,5.47,5.47,0,0,1-.277-1.7v-4.86h1.779v4.86a2.593,2.593,0,0,0,.474,1.66,1.6,1.6,0,0,0,1.343.593,1.6,1.6,0,0,0,1.343-.593,2.593,2.593,0,0,0,.474-1.66v-4.86h1.778Zm-8.06-9.878a5.567,5.567,0,0,1-.277-1.858,5.322,5.322,0,0,1,.316-1.817,4.228,4.228,0,0,1,.83-1.422,3.558,3.558,0,0,1,1.264-.908,3.885,3.885,0,0,1,1.66-.317,3.353,3.353,0,0,1,1.146.158,5.1,5.1,0,0,1,2.213,1.422l-1.265,1.225a3.1,3.1,0,0,0-2.134-1.067,2.2,2.2,0,0,0-.909.2,1.547,1.547,0,0,0-.672.553,2.982,2.982,0,0,0-.434.869,4.673,4.673,0,0,0-.158,1.106,3.416,3.416,0,0,0,.158,1.107,2.261,2.261,0,0,0,.434.869,3.172,3.172,0,0,0,.672.593,1.805,1.805,0,0,0,.909.2,3.087,3.087,0,0,0,2.212-1.106l1.3,1.146c-.553,1.067-2.45,1.7-3.6,1.7a4.222,4.222,0,0,1-1.62-.316,3.561,3.561,0,0,1-1.265-.908,6.253,6.253,0,0,1-.79-1.422m-.593,12.09a2.36,2.36,0,0,1-.632.87,3.376,3.376,0,0,1-.988.553,4.5,4.5,0,0,1-1.3.2h-4.07V-5.376h4.109a3.257,3.257,0,0,1,2.055.593,1.987,1.987,0,0,1,.751,1.7,2.026,2.026,0,0,1-.237.988,2.043,2.043,0,0,1-.711.711,2.283,2.283,0,0,1,.909.711,1.917,1.917,0,0,1,.356,1.185,2.878,2.878,0,0,1-.237,1.185m-7.862-12.09a5.55,5.55,0,0,1-.277-1.858,5.305,5.305,0,0,1,.316-1.817,4.216,4.216,0,0,1,.829-1.422A3.561,3.561,0,0,1-125.8-16.4a3.883,3.883,0,0,1,1.66-.317,3.353,3.353,0,0,1,1.146.158,5.093,5.093,0,0,1,2.212,1.422l-1.264,1.225a3.1,3.1,0,0,0-2.134-1.067,2.2,2.2,0,0,0-.909.2,1.547,1.547,0,0,0-.672.553,2.965,2.965,0,0,0-.434.869,4.671,4.671,0,0,0-.158,1.106,3.4,3.4,0,0,0,.158,1.107,2.251,2.251,0,0,0,.434.869,3.155,3.155,0,0,0,.672.593,1.805,1.805,0,0,0,.909.2,3.087,3.087,0,0,0,2.212-1.106l1.3,1.146c-.553,1.067-2.45,1.7-3.6,1.7a4.221,4.221,0,0,1-1.62-.316,3.555,3.555,0,0,1-1.265-.908,6.227,6.227,0,0,1-.79-1.422M-130.543-7.9l-.711-1.936h-3.358l-.711,1.936H-137.3l3.516-8.693h1.778l3.477,8.693Zm-13.117,24.5h-38.287a6.711,6.711,0,0,1-6.717-6.717V-25.171a6.712,6.712,0,0,1,6.717-6.717h38.287Zm58.517-33.229h1.817v8.693h-1.817Zm26.235-16.832H-181.947a8.3,8.3,0,0,0-8.3,8.3V9.876a8.3,8.3,0,0,0,8.3,8.3H-58.909a8.3,8.3,0,0,0,8.3-8.3V-25.171a8.3,8.3,0,0,0-8.3-8.3" transform="translate(190.245 33.469)" fill="#12597a"/>
      </g>
      <g id="Group_1525" data-name="Group 1525" transform="translate(64.997 29.674)">
        <path id="Path_9394" data-name="Path 9394" d="M-1.373-.634a.806.806,0,0,0,.237-.593.836.836,0,0,0-.237-.632,1.17,1.17,0,0,0-.829-.2H-4.455V-.4h2.371a.966.966,0,0,0,.711-.237" transform="translate(4.455 2.056)" fill="#12597a"/>
      </g>
      <g id="Group_1526" data-name="Group 1526" transform="translate(17.575 16.674)">
        <path id="Path_9395" data-name="Path 9395" d="M-.6-3.52,3.27-.715c.672.474.711.948.4,1.462l.553.434L6.194-1.545a3.677,3.677,0,0,0-.712-5.3L1.571-9.684a1,1,0,0,1-.276-1.343l-.553-.4L-1.353-8.539A3.878,3.878,0,0,0-.6-3.52" transform="translate(1.953 11.423)" fill="#12597a"/>
      </g>
      <g id="Group_1527" data-name="Group 1527" transform="translate(19.529 3.873)">
        <path id="Path_9396" data-name="Path 9396" d="M-.893-5.263,4.481-1.312A3.007,3.007,0,0,1,4.915,2.56l.474.356L9.1-2.3A5.5,5.5,0,0,0,8.076-10L2.268-14.193a1.8,1.8,0,0,1-.553-2.529L1.2-17.077l-3.279,4.5A5.746,5.746,0,0,0-.893-5.263" transform="translate(2.898 17.077)" fill="#12597a"/>
      </g>
      <g id="Group_1528" data-name="Group 1528" transform="translate(15.093 30.266)">
        <path id="Path_9397" data-name="Path 9397" d="M-7.428,0H-23.549L-24.1,1.936h4.347l.79,2.607h7.072l.791-2.607H-6.8Z" transform="translate(24.102)" fill="#12597a"/>
      </g>
      <g id="Group_1529" data-name="Group 1529" transform="translate(36.548 44.885)">
        <path id="Path_9398" data-name="Path 9398" d="M-.352-.264A.3.3,0,0,0-.47-.343C-.51-.382-.55-.382-.629-.422a.192.192,0,0,0-.118-.04A.138.138,0,0,1-.826-.5L-.865-.541V-.7l.039-.039A.138.138,0,0,1-.747-.777h.079A.24.24,0,0,1-.51-.738c.039,0,.079.039.118.079l.079-.079A.205.205,0,0,0-.47-.818a.3.3,0,0,0-.2-.039H-.826c-.08,0-.08.039-.119.039l-.079.08a.145.145,0,0,0-.039.118V-.5c0,.039.039.039.039.08l.079.079c.039.039.08.039.158.079.039,0,.079.039.118.039a.138.138,0,0,1,.079.039A.039.039,0,0,1-.55-.146v.08c0,.039-.039.118-.079.118A.237.237,0,0,1-.786.091.239.239,0,0,1-.945.052C-.984.013-1.024.013-1.063-.027l-.079.079A.544.544,0,0,0-.984.17a.358.358,0,0,0,.2.039A.237.237,0,0,0-.629.17C-.589.17-.55.131-.51.091L-.431.013c0-.039.039-.079.039-.119V-.225c.079,0,.079,0,.039-.039" transform="translate(1.142 0.857)" fill="#12597a"/>
      </g>
      <g id="Group_1530" data-name="Group 1530" transform="translate(37.536 44.885)">
        <path id="Path_9399" data-name="Path 9399" d="M-.282-.282h0C-.321-.2-.321-.2-.361-.2A.039.039,0,0,1-.4-.163c-.039,0,0,.039,0,.039V-.163A.038.038,0,0,0-.439-.2c0-.039,0-.039-.04-.039,0-.039,0-.039-.039-.039L-.8-.914H-.914V.153H-.8V-.519l.277.711.277-.711V.153h.118V-.914H-.242Z" transform="translate(0.914 0.914)" fill="#12597a"/>
      </g>
      <g id="Group_1531" data-name="Group 1531" transform="translate(10.787 36.43)">
        <path id="Path_9400" data-name="Path 9400" d="M-2.042-3.45H-4.65V-5.623h2.608c1.936,0,1.817,2.173,0,2.173M-4.61-9.337h2.331A1.011,1.011,0,1,1-2.2-7.322H-4.61ZM-.343-6.65A2.254,2.254,0,0,0,.882-8.665c0-1.778-1.462-2.529-3.081-2.529H-6.625v9.522H-2.2c1.9,0,3.911-.829,3.6-3C1.2-5.9.685-6.216-.343-6.65" transform="translate(6.625 11.194)" fill="#12597a"/>
      </g>
      <g id="Group_1532" data-name="Group 1532" transform="translate(19.637 36.43)">
        <path id="Path_9401" data-name="Path 9401" d="M-2.059-3.45H-4.667V-5.623h2.608c1.9,0,1.817,2.173,0,2.173M-4.627-9.337H-2.3a1.011,1.011,0,1,1,.08,2.015h-2.41ZM-.36-6.65A2.254,2.254,0,0,0,.864-8.665c0-1.778-1.462-2.529-3.081-2.529H-6.682v9.522h4.465c1.9,0,3.911-.829,3.6-3A2.278,2.278,0,0,0-.36-6.65" transform="translate(6.682 11.194)" fill="#12597a"/>
      </g>
      <g id="Group_1533" data-name="Group 1533" transform="translate(28.528 36.43)">
        <path id="Path_9402" data-name="Path 9402" d="M-2.059-3.45H-4.667V-5.623h2.608c1.9,0,1.778,2.173,0,2.173M-4.667-9.337h2.331a1.011,1.011,0,1,1,.079,2.015h-2.41ZM-.36-6.65A2.254,2.254,0,0,0,.864-8.665c0-1.778-1.462-2.529-3.081-2.529H-6.682v9.522h4.425c1.9,0,3.912-.829,3.6-3C1.141-5.9.667-6.216-.36-6.65" transform="translate(6.682 11.194)" fill="#12597a"/>
      </g>
      <g id="Group_1534" data-name="Group 1534" transform="translate(97.87 54.566)">
        <path id="Path_9403" data-name="Path 9403" d="M-1.831-2.8l.711-1.936c.118-.315.237-.632.316-.908a4.007,4.007,0,0,0,.237-.751,5.152,5.152,0,0,0,.237.751c.119.277.2.593.316.908L.7-2.8ZM.619-9.081H-1.593L-5.94,1.627h2.41l.87-2.371H1.489l.869,2.371H4.847Z" transform="translate(5.94 9.081)" fill="#12597a"/>
      </g>
      <path id="Path_9404" data-name="Path 9404" d="M156.777-13.25h8.693V-11.2h-8.693Z" transform="translate(-48.317 72.083)" fill="#12597a"/>
      <path id="Path_9405" data-name="Path 9405" d="M161.574-18.1h2.055v8.693h-2.055Z" transform="translate(-49.796 73.58)" fill="#12597a"/>
      <g id="Group_1535" data-name="Group 1535" transform="translate(22.442 56.621)">
        <path id="Path_9406" data-name="Path 9406" d="M-2.288-2.693a.931.931,0,0,0-.237-.672.712.712,0,0,0-.593-.277H-5.41v1.9H-3.2a.833.833,0,0,0,.632-.237.951.951,0,0,0,.277-.711M-5.41-7v1.778h1.976a.869.869,0,0,0,.592-.237A.747.747,0,0,0-2.6-6.131.928.928,0,0,0-2.842-6.8a.716.716,0,0,0-.553-.237H-5.41ZM-.273-2.3A2.026,2.026,0,0,1-.51-1.31a1.726,1.726,0,0,1-.632.672,2.547,2.547,0,0,1-.948.4,5.358,5.358,0,0,1-1.146.158H-7.425V-8.738H-2.6a1.977,1.977,0,0,1,.83.2,2.6,2.6,0,0,1,.632.514,2.081,2.081,0,0,1,.4.711,3.113,3.113,0,0,1,.158.79A2.656,2.656,0,0,1-.905-5.341a1.974,1.974,0,0,1-.948.83,2.26,2.26,0,0,1,1.186.79A2.249,2.249,0,0,1-.273-2.3" transform="translate(7.425 8.738)" fill="#12597a"/>
      </g>
      <g id="Group_1536" data-name="Group 1536" transform="translate(30.779 56.621)">
        <path id="Path_9407" data-name="Path 9407" d="M-2.288-2.693a.928.928,0,0,0-.237-.672.71.71,0,0,0-.592-.277H-5.41v1.9H-3.2a.833.833,0,0,0,.632-.237,1.134,1.134,0,0,0,.277-.711M-5.41-7v1.778h1.976a.869.869,0,0,0,.592-.237A.747.747,0,0,0-2.6-6.131.928.928,0,0,0-2.842-6.8a.716.716,0,0,0-.553-.237H-5.41ZM-.273-2.3A2.033,2.033,0,0,1-.51-1.31a1.723,1.723,0,0,1-.632.672,2.539,2.539,0,0,1-.948.4,5.358,5.358,0,0,1-1.146.158H-7.425V-8.738H-2.6a1.977,1.977,0,0,1,.83.2,2.584,2.584,0,0,1,.632.514,2.058,2.058,0,0,1,.4.711,3.086,3.086,0,0,1,.158.79A2.656,2.656,0,0,1-.905-5.341a1.974,1.974,0,0,1-.948.83,2.26,2.26,0,0,1,1.186.79A2.53,2.53,0,0,1-.273-2.3" transform="translate(7.425 8.738)" fill="#12597a"/>
      </g>
      <g id="Group_1537" data-name="Group 1537" transform="translate(39.116 56.621)">
        <path id="Path_9408" data-name="Path 9408" d="M-2.271-2.693a.928.928,0,0,0-.237-.672A.71.71,0,0,0-3.1-3.641H-5.392v1.9H-3.18a.833.833,0,0,0,.632-.237.951.951,0,0,0,.277-.711M-5.392-7v1.778h1.976a.869.869,0,0,0,.592-.237.747.747,0,0,0,.237-.672A.928.928,0,0,0-2.824-6.8a.717.717,0,0,0-.553-.237H-5.392ZM-.216-2.3a2.026,2.026,0,0,1-.237.988,1.723,1.723,0,0,1-.632.672,2.539,2.539,0,0,1-.948.4A5.352,5.352,0,0,1-3.18-.085H-7.368V-8.738h4.821a1.977,1.977,0,0,1,.83.2,2.584,2.584,0,0,1,.632.514,2.07,2.07,0,0,1,.4.711,3.113,3.113,0,0,1,.158.79A2.656,2.656,0,0,1-.848-5.341a1.971,1.971,0,0,1-.948.83,2.26,2.26,0,0,1,1.186.79A2.53,2.53,0,0,1-.216-2.3" transform="translate(7.368 8.738)" fill="#12597a"/>
      </g>
      <g id="Group_1538" data-name="Group 1538" transform="translate(50.298 56.62)">
        <path id="Path_9409" data-name="Path 9409" d="M-.88-1.848H.937a.75.75,0,0,0,.593-.316,1.5,1.5,0,0,0,.237-.869,1.28,1.28,0,0,0-.277-.87.893.893,0,0,0-.632-.316H-.92Zm-1.976,4.5V-6H1.056A2.827,2.827,0,0,1,2.2-5.76a3,3,0,0,1,.908.672A3.819,3.819,0,0,1,3.7-4.14a2.547,2.547,0,0,1,.2,1.067,5.372,5.372,0,0,1-.079.791,5.42,5.42,0,0,1-.277.711,2.321,2.321,0,0,1-.435.593,2.319,2.319,0,0,1-.592.434l1.975,3.2H2.162L.424-.149H-.88V2.656Z" transform="translate(2.856 5.997)" fill="#12597a"/>
      </g>
      <g id="Group_1539" data-name="Group 1539" transform="translate(57.845 58.754)">
        <path id="Path_9410" data-name="Path 9410" d="M-1.25-2.341a1.793,1.793,0,0,0,.632-.118,1.379,1.379,0,0,0,.474-.277.611.611,0,0,0,.277-.475V-3.8A2.263,2.263,0,0,0-.42-3.961,2.8,2.8,0,0,0-.973-4a1.5,1.5,0,0,0-.87.237.713.713,0,0,0-.356.632.71.71,0,0,0,.277.592,1.128,1.128,0,0,0,.672.2M-1.843-.958a2.129,2.129,0,0,1-.869-.158,2.149,2.149,0,0,1-.711-.435A2.406,2.406,0,0,1-3.9-2.183a1.769,1.769,0,0,1-.158-.79,2.142,2.142,0,0,1,.2-.869A1.8,1.8,0,0,1-3.3-4.514a2.569,2.569,0,0,1,.87-.435,3.261,3.261,0,0,1,1.106-.158,5.362,5.362,0,0,1,.79.079,3.345,3.345,0,0,1,.672.2v-.277c0-.751-.434-1.106-1.265-1.106a2.734,2.734,0,0,0-.988.158,4.778,4.778,0,0,0-.987.514L-3.66-6.767a6.593,6.593,0,0,1,1.3-.632A4.374,4.374,0,0,1-.894-7.6a3.558,3.558,0,0,1,2.253.672,2.56,2.56,0,0,1,.79,2.015V-3.25a.527.527,0,0,0,.118.4.744.744,0,0,0,.4.158v1.66a2.72,2.72,0,0,1-.513.079H1.714A1.3,1.3,0,0,1,.884-1.2a.847.847,0,0,1-.356-.593L.489-2.064a2.978,2.978,0,0,1-1.027.829,3.093,3.093,0,0,1-1.3.277" transform="translate(4.055 7.596)" fill="#12597a"/>
      </g>
      <g id="Group_1540" data-name="Group 1540" transform="translate(64.878 56.858)">
        <path id="Path_9411" data-name="Path 9411" d="M-2.042-3.608a4.89,4.89,0,0,1-.909.316,4.64,4.64,0,0,1-1.067.158,3.494,3.494,0,0,1-.672-.079,2.388,2.388,0,0,1-.553-.277A1.762,1.762,0,0,1-5.637-4a1.563,1.563,0,0,1-.158-.79V-8.113h-.829v-1.58H-5.8v-2.015h1.936v2.015h1.3v1.462h-1.3v2.686A.632.632,0,0,0-3.7-5.07a.7.7,0,0,0,.4.158,2.046,2.046,0,0,0,.435-.079,4.183,4.183,0,0,0,.4-.158Z" transform="translate(6.625 11.708)" fill="#12597a"/>
      </g>
      <path id="Path_9412" data-name="Path 9412" d="M101.491-14.3h1.936v6.4h-1.936Zm0,6.4,0-8.89h1.936v1.778h-1.936Z" transform="translate(-31.279 73.175)" fill="#12597a"/>
      <g id="Group_1541" data-name="Group 1541" transform="translate(73.491 58.754)">
        <path id="Path_9413" data-name="Path 9413" d="M-2.746-2.9H-4.682V-6.5a1.394,1.394,0,0,0-.237-.909.738.738,0,0,0-.632-.277,1.65,1.65,0,0,0-.434.08.817.817,0,0,0-.4.237l-.356.356a.941.941,0,0,0-.237.434V-2.9H-8.91v-6.4h1.739v1.067a2.127,2.127,0,0,1,.988-.87,3.512,3.512,0,0,1,1.5-.316,1.822,1.822,0,0,1,.988.237,2.1,2.1,0,0,1,.593.593,2.68,2.68,0,0,1,.277.79,5.9,5.9,0,0,1,.079.829Z" transform="translate(8.91 9.424)" fill="#12597a"/>
      </g>
      <g id="Group_1542" data-name="Group 1542" transform="translate(80.564 58.754)">
        <path id="Path_9414" data-name="Path 9414" d="M-1.567-2.235a1.331,1.331,0,0,0,.79-.237A1.684,1.684,0,0,0-.223-3.1V-4.448a1.511,1.511,0,0,0-.593-.791,1.47,1.47,0,0,0-.869-.316,1.118,1.118,0,0,0-.593.158,1.369,1.369,0,0,0-.434.4,1.454,1.454,0,0,0-.277.553,1.79,1.79,0,0,0-.118.632,1.639,1.639,0,0,0,.118.632,2.223,2.223,0,0,0,.316.514,1.08,1.08,0,0,0,.474.356,3.079,3.079,0,0,0,.632.079M-2.238-.695A2.706,2.706,0,0,1-3.384-.931a2.6,2.6,0,0,1-.909-.711A3.7,3.7,0,0,1-4.886-2.67a3.279,3.279,0,0,1-.2-1.265,3.477,3.477,0,0,1,.237-1.3,4.646,4.646,0,0,1,.592-1.067,2.859,2.859,0,0,1,.948-.711A2.525,2.525,0,0,1-2.08-7.253a2.609,2.609,0,0,1,1.264.315,2.055,2.055,0,0,1,.87.87V-7.135h1.7v5.966a2.869,2.869,0,0,1-.277,1.3,3.126,3.126,0,0,1-.751.988A3.39,3.39,0,0,1-.46,1.755a4.59,4.59,0,0,1-1.5.237A4.914,4.914,0,0,1-3.74,1.676,4.239,4.239,0,0,1-5,.728L-3.977-.339a2.354,2.354,0,0,0,.87.632A2.7,2.7,0,0,0-1.962.531,3.488,3.488,0,0,0-1.29.452,1.552,1.552,0,0,0-.737.136a1.779,1.779,0,0,0,.4-.514,2.15,2.15,0,0,0,.158-.79V-1.8a1.787,1.787,0,0,1-.829.791,2.468,2.468,0,0,1-1.225.315" transform="translate(5.083 7.253)" fill="#12597a"/>
      </g>
      <path id="Path_9415" data-name="Path 9415" d="M128.391-8.733h1.581v1.976h-1.581Zm0,1.976,0-6.322h1.581V-11.1h-1.581Z" transform="translate(-39.569 72.031)" fill="#12597a"/>
    </g>
  </g>
</svg>
