<?xml version="1.0" encoding="utf-8"?>
<!-- Generator: Adobe Illustrator 25.1.0, SVG Export Plug-In . SVG Version: 6.00 Build 0)  -->
<svg version="1.1" id="Layer_1" xmlns="http://www.w3.org/2000/svg" xmlns:xlink="http://www.w3.org/1999/xlink" x="0px" y="0px"
	 viewBox="0 0 203.7 85.9" style="enable-background:new 0 0 203.7 85.9;" xml:space="preserve">
<style type="text/css">
	.st0{fill:#FFFFFF;}
	.st1{fill:#C29FD8;}
	.st2{fill:#072946;}
</style>
<g>
	<g id="XMLID_551_">
		<path id="XMLID_571_" class="st0" d="M0,42.8h4.6V51H13v-8.2h4.6v20.8H13v-8.3H4.6v8.3H0V42.8z"/>
		<path id="XMLID_568_" class="st0" d="M35.6,63.9c-1.6,0-3.1-0.3-4.4-0.8c-1.3-0.6-2.5-1.3-3.5-2.3c-1-1-1.7-2.1-2.3-3.4
			c-0.5-1.3-0.8-2.7-0.8-4.2v-0.1c0-1.5,0.3-2.9,0.8-4.2c0.6-1.3,1.3-2.4,2.3-3.4c1-1,2.1-1.7,3.5-2.3c1.4-0.6,2.8-0.8,4.4-0.8
			c1.6,0,3.1,0.3,4.4,0.8c1.3,0.6,2.5,1.3,3.5,2.3c1,1,1.7,2.1,2.3,3.4c0.5,1.3,0.8,2.7,0.8,4.2v0.1c0,1.5-0.3,2.9-0.8,4.2
			c-0.6,1.3-1.3,2.4-2.3,3.4c-1,1-2.1,1.7-3.5,2.3C38.7,63.6,37.2,63.9,35.6,63.9z M35.6,59.7c0.9,0,1.7-0.2,2.5-0.5
			c0.8-0.3,1.4-0.8,2-1.4s1-1.3,1.3-2.1s0.5-1.6,0.5-2.5v-0.1c0-0.9-0.2-1.7-0.5-2.5s-0.7-1.5-1.3-2.1c-0.6-0.6-1.2-1.1-2-1.4
			c-0.8-0.3-1.6-0.5-2.5-0.5c-0.9,0-1.8,0.2-2.5,0.5c-0.8,0.3-1.4,0.8-2,1.4s-1,1.3-1.3,2.1c-0.3,0.8-0.5,1.6-0.5,2.5v0.1
			c0,0.9,0.2,1.7,0.5,2.5c0.3,0.8,0.7,1.5,1.3,2.1c0.6,0.6,1.2,1.1,2,1.4C33.9,59.5,34.7,59.7,35.6,59.7z"/>
		<path id="XMLID_566_" class="st0" d="M53.7,42.8h4.9l5.5,8.8l5.5-8.8h4.9v20.8h-4.5V50l-5.8,8.9h-0.1l-5.8-8.8v13.5h-4.5V42.8z"/>
		<path id="XMLID_564_" class="st0" d="M82.4,42.8H98v4.1H86.9v4.2h9.8v4.1h-9.8v4.4h11.3v4.1H82.4V42.8z"/>
		<path id="XMLID_562_" class="st0" d="M112.6,63.8c-1.6,0-3.1-0.3-4.7-0.8c-1.5-0.5-2.9-1.4-4.2-2.5l2.7-3.2
			c0.9,0.8,1.9,1.4,2.9,1.8c1,0.5,2.1,0.7,3.3,0.7c0.9,0,1.7-0.2,2.2-0.5c0.5-0.3,0.8-0.8,0.8-1.4v-0.1c0-0.3-0.1-0.6-0.2-0.8
			c-0.1-0.2-0.3-0.4-0.6-0.6c-0.3-0.2-0.7-0.4-1.3-0.6c-0.5-0.2-1.3-0.4-2.1-0.6c-1.1-0.3-2-0.5-2.9-0.9c-0.9-0.3-1.6-0.7-2.2-1.2
			c-0.6-0.5-1.1-1-1.4-1.7c-0.3-0.7-0.5-1.6-0.5-2.6v-0.1c0-0.9,0.2-1.8,0.5-2.6c0.4-0.8,0.8-1.4,1.5-2s1.4-1,2.3-1.3
			c0.9-0.3,1.9-0.4,2.9-0.4c1.5,0,2.9,0.2,4.2,0.7c1.3,0.5,2.4,1.1,3.5,2l-2.4,3.4c-0.9-0.6-1.8-1.1-2.7-1.5
			c-0.9-0.4-1.8-0.5-2.7-0.5c-0.9,0-1.6,0.2-2,0.5c-0.4,0.3-0.7,0.8-0.7,1.3v0.1c0,0.3,0.1,0.6,0.2,0.9c0.1,0.2,0.4,0.5,0.7,0.7
			c0.3,0.2,0.8,0.4,1.4,0.6c0.6,0.2,1.3,0.4,2.2,0.6c1,0.3,2,0.6,2.8,0.9c0.8,0.3,1.5,0.8,2.1,1.2c0.6,0.5,1,1.1,1.3,1.7
			c0.3,0.7,0.4,1.4,0.4,2.3v0.1c0,1-0.2,1.9-0.6,2.7c-0.4,0.8-0.9,1.5-1.6,2c-0.7,0.5-1.5,1-2.4,1.2
			C114.7,63.7,113.7,63.8,112.6,63.8z"/>
		<path id="XMLID_559_" class="st0" d="M127.1,42.8h8.5c1.2,0,2.4,0.2,3.3,0.5c1,0.3,1.8,0.8,2.5,1.5c0.7,0.6,1.2,1.4,1.6,2.3
			c0.4,0.9,0.5,1.9,0.5,2.9V50c0,1.2-0.2,2.3-0.7,3.2c-0.4,0.9-1,1.7-1.8,2.3c-0.8,0.6-1.7,1.1-2.7,1.4c-1,0.3-2.1,0.5-3.3,0.5h-3.5
			v6.2h-4.6V42.8z M135.3,53.2c1.1,0,2-0.3,2.7-0.9c0.6-0.6,0.9-1.3,0.9-2.2V50c0-1-0.3-1.8-1-2.3s-1.6-0.8-2.7-0.8h-3.5v6.3H135.3z
			"/>
		<path id="XMLID_557_" class="st0" d="M150.1,42.8h4.6v20.8h-4.6V42.8z"/>
		<path id="XMLID_554_" class="st0" d="M162.8,42.8h9.5c2.6,0,4.6,0.7,6,2.1c1.2,1.2,1.8,2.8,1.8,4.7v0.1c0,1.7-0.4,3-1.2,4.1
			c-0.8,1.1-1.9,1.8-3.2,2.3l5.1,7.4h-5.3l-4.4-6.6h-0.1h-3.5v6.6h-4.6V42.8z M172,52.9c1.1,0,2-0.3,2.6-0.8
			c0.6-0.5,0.9-1.2,0.9-2.1v-0.1c0-1-0.3-1.7-0.9-2.2c-0.6-0.5-1.5-0.7-2.6-0.7h-4.5v6H172z"/>
		<path id="XMLID_552_" class="st0" d="M187.2,42.8h15.6v4.1h-11.1v4.2h9.8v4.1h-9.8v4.4H203v4.1h-15.8V42.8z"/>
	</g>
	<g id="XMLID_518_">
		<path id="XMLID_549_" class="st1" d="M0,73.9h2.8l2.5,8l2.7-8h2.2l2.7,8l2.5-8H18l-4,11.9h-2.3L9,78l-2.7,7.7H4L0,73.9z"/>
		<path id="XMLID_547_" class="st1" d="M21.7,73.9h2.6v11.8h-2.6V73.9z"/>
		<path id="XMLID_545_" class="st1" d="M28.9,73.9h2.4l5.5,7.3v-7.3h2.6v11.8h-2.2l-5.7-7.5v7.5h-2.6V73.9z"/>
		<path id="XMLID_542_" class="st1" d="M44,73.9h4.6c0.9,0,1.8,0.1,2.5,0.4c0.8,0.3,1.4,0.7,2,1.2c0.6,0.5,1,1.2,1.3,1.9
			c0.3,0.7,0.5,1.5,0.5,2.3v0c0,0.8-0.2,1.6-0.5,2.3c-0.3,0.7-0.7,1.3-1.3,1.9s-1.2,0.9-2,1.3c-0.8,0.3-1.6,0.5-2.5,0.5H44V73.9z
			 M48.6,83.4c0.5,0,1-0.1,1.5-0.3c0.4-0.2,0.8-0.4,1.1-0.7c0.3-0.3,0.6-0.7,0.7-1.1c0.2-0.4,0.3-0.9,0.3-1.4v0c0-0.5-0.1-1-0.3-1.4
			c-0.2-0.4-0.4-0.8-0.7-1.1c-0.3-0.3-0.7-0.6-1.1-0.7c-0.4-0.2-0.9-0.3-1.5-0.3h-2v7.1H48.6z"/>
		<path id="XMLID_539_" class="st1" d="M64.6,85.9c-0.9,0-1.8-0.2-2.5-0.5c-0.8-0.3-1.4-0.8-2-1.3c-0.6-0.5-1-1.2-1.3-1.9
			c-0.3-0.7-0.5-1.5-0.5-2.4v0c0-0.8,0.2-1.6,0.5-2.4c0.3-0.7,0.8-1.4,1.3-1.9c0.6-0.6,1.2-1,2-1.3c0.8-0.3,1.6-0.5,2.5-0.5
			s1.8,0.2,2.5,0.5c0.8,0.3,1.4,0.8,2,1.3c0.6,0.5,1,1.2,1.3,1.9c0.3,0.7,0.5,1.5,0.5,2.4v0c0,0.8-0.2,1.6-0.5,2.4
			c-0.3,0.7-0.8,1.4-1.3,1.9c-0.6,0.6-1.2,1-2,1.3C66.4,85.7,65.6,85.9,64.6,85.9z M64.7,83.5c0.5,0,1-0.1,1.4-0.3
			c0.4-0.2,0.8-0.5,1.1-0.8c0.3-0.3,0.6-0.7,0.7-1.2c0.2-0.4,0.3-0.9,0.3-1.4v0c0-0.5-0.1-1-0.3-1.4c-0.2-0.5-0.4-0.8-0.7-1.2
			c-0.3-0.3-0.7-0.6-1.1-0.8s-0.9-0.3-1.4-0.3c-0.5,0-1,0.1-1.4,0.3s-0.8,0.5-1.1,0.8c-0.3,0.3-0.6,0.7-0.7,1.2
			c-0.2,0.4-0.3,0.9-0.3,1.4v0c0,0.5,0.1,1,0.3,1.4c0.2,0.5,0.4,0.8,0.7,1.2c0.3,0.3,0.7,0.6,1.1,0.8C63.7,83.4,64.2,83.5,64.7,83.5
			z"/>
		<path id="XMLID_537_" class="st1" d="M74,73.9h2.8l2.5,8l2.7-8h2.2l2.7,8l2.5-8H92l-4,11.9h-2.3L83,78l-2.7,7.7h-2.3L74,73.9z"/>
		<path id="XMLID_535_" class="st1" d="M99.8,85.9c-0.9,0-1.8-0.2-2.7-0.5c-0.9-0.3-1.7-0.8-2.4-1.4l1.5-1.8c0.5,0.4,1.1,0.8,1.7,1
			c0.6,0.3,1.2,0.4,1.9,0.4c0.5,0,1-0.1,1.3-0.3c0.3-0.2,0.4-0.5,0.4-0.8v0c0-0.2,0-0.3-0.1-0.4c-0.1-0.1-0.2-0.3-0.4-0.4
			c-0.2-0.1-0.4-0.2-0.7-0.3c-0.3-0.1-0.7-0.2-1.2-0.4c-0.6-0.1-1.1-0.3-1.6-0.5c-0.5-0.2-0.9-0.4-1.2-0.7c-0.3-0.3-0.6-0.6-0.8-1
			c-0.2-0.4-0.3-0.9-0.3-1.5v0c0-0.5,0.1-1,0.3-1.5s0.5-0.8,0.8-1.1s0.8-0.6,1.3-0.7c0.5-0.2,1.1-0.3,1.7-0.3c0.9,0,1.7,0.1,2.4,0.4
			c0.7,0.3,1.4,0.6,2,1.1l-1.4,2c-0.5-0.4-1-0.6-1.6-0.9c-0.5-0.2-1-0.3-1.5-0.3c-0.5,0-0.9,0.1-1.1,0.3c-0.3,0.2-0.4,0.4-0.4,0.7v0
			c0,0.2,0,0.4,0.1,0.5c0.1,0.1,0.2,0.3,0.4,0.4c0.2,0.1,0.5,0.2,0.8,0.3c0.3,0.1,0.8,0.2,1.3,0.4c0.6,0.2,1.1,0.3,1.6,0.5
			c0.5,0.2,0.9,0.4,1.2,0.7c0.3,0.3,0.6,0.6,0.7,1c0.2,0.4,0.2,0.8,0.2,1.3v0c0,0.6-0.1,1.1-0.3,1.6c-0.2,0.5-0.5,0.8-0.9,1.1
			c-0.4,0.3-0.8,0.5-1.4,0.7C101.1,85.8,100.5,85.9,99.8,85.9z"/>
		<path id="XMLID_533_" class="st0" d="M117.7,80.9h-3.1v-2.3h3.1v-3h2.4v3h3.1v2.3h-3.1v3h-2.4V80.9z"/>
		<path id="XMLID_530_" class="st1" d="M134.2,73.9h4.6c0.9,0,1.8,0.1,2.5,0.4c0.8,0.3,1.4,0.7,2,1.2c0.6,0.5,1,1.2,1.3,1.9
			c0.3,0.7,0.5,1.5,0.5,2.3v0c0,0.8-0.2,1.6-0.5,2.3c-0.3,0.7-0.7,1.3-1.3,1.9c-0.6,0.5-1.2,0.9-2,1.3c-0.8,0.3-1.6,0.5-2.5,0.5
			h-4.6V73.9z M138.8,83.4c0.5,0,1-0.1,1.5-0.3c0.4-0.2,0.8-0.4,1.1-0.7c0.3-0.3,0.6-0.7,0.7-1.1c0.2-0.4,0.3-0.9,0.3-1.4v0
			c0-0.5-0.1-1-0.3-1.4c-0.2-0.4-0.4-0.8-0.7-1.1c-0.3-0.3-0.7-0.6-1.1-0.7c-0.4-0.2-0.9-0.3-1.5-0.3h-2v7.1H138.8z"/>
		<path id="XMLID_527_" class="st1" d="M154.8,85.9c-0.9,0-1.8-0.2-2.5-0.5c-0.8-0.3-1.4-0.8-2-1.3c-0.6-0.5-1-1.2-1.3-1.9
			c-0.3-0.7-0.5-1.5-0.5-2.4v0c0-0.8,0.2-1.6,0.5-2.4c0.3-0.7,0.8-1.4,1.3-1.9c0.6-0.6,1.2-1,2-1.3c0.8-0.3,1.6-0.5,2.5-0.5
			c0.9,0,1.8,0.2,2.5,0.5c0.8,0.3,1.4,0.8,2,1.3c0.6,0.5,1,1.2,1.3,1.9c0.3,0.7,0.5,1.5,0.5,2.4v0c0,0.8-0.2,1.6-0.5,2.4
			c-0.3,0.7-0.8,1.4-1.3,1.9c-0.6,0.6-1.2,1-2,1.3C156.6,85.7,155.7,85.9,154.8,85.9z M154.9,83.5c0.5,0,1-0.1,1.4-0.3
			c0.4-0.2,0.8-0.5,1.1-0.8c0.3-0.3,0.6-0.7,0.7-1.2c0.2-0.4,0.3-0.9,0.3-1.4v0c0-0.5-0.1-1-0.3-1.4c-0.2-0.5-0.4-0.8-0.7-1.2
			c-0.3-0.3-0.7-0.6-1.1-0.8c-0.4-0.2-0.9-0.3-1.4-0.3c-0.5,0-1,0.1-1.4,0.3s-0.8,0.5-1.1,0.8c-0.3,0.3-0.6,0.7-0.7,1.2
			c-0.2,0.4-0.3,0.9-0.3,1.4v0c0,0.5,0.1,1,0.3,1.4s0.4,0.8,0.7,1.2c0.3,0.3,0.7,0.6,1.1,0.8C153.8,83.4,154.3,83.5,154.9,83.5z"/>
		<path id="XMLID_524_" class="st1" d="M170.9,85.9c-0.9,0-1.8-0.2-2.5-0.5c-0.8-0.3-1.4-0.8-2-1.3c-0.6-0.5-1-1.2-1.3-1.9
			c-0.3-0.7-0.5-1.5-0.5-2.4v0c0-0.8,0.2-1.6,0.5-2.4c0.3-0.7,0.8-1.4,1.3-1.9c0.6-0.6,1.2-1,2-1.3c0.8-0.3,1.6-0.5,2.5-0.5
			c0.9,0,1.8,0.2,2.5,0.5c0.8,0.3,1.4,0.8,2,1.3c0.6,0.5,1,1.2,1.3,1.9c0.3,0.7,0.5,1.5,0.5,2.4v0c0,0.8-0.2,1.6-0.5,2.4
			c-0.3,0.7-0.8,1.4-1.3,1.9c-0.6,0.6-1.2,1-2,1.3C172.6,85.7,171.8,85.9,170.9,85.9z M170.9,83.5c0.5,0,1-0.1,1.4-0.3
			c0.4-0.2,0.8-0.5,1.1-0.8c0.3-0.3,0.6-0.7,0.7-1.2c0.2-0.4,0.3-0.9,0.3-1.4v0c0-0.5-0.1-1-0.3-1.4c-0.2-0.5-0.4-0.8-0.7-1.2
			c-0.3-0.3-0.7-0.6-1.1-0.8c-0.4-0.2-0.9-0.3-1.4-0.3c-0.5,0-1,0.1-1.4,0.3s-0.8,0.5-1.1,0.8c-0.3,0.3-0.6,0.7-0.7,1.2
			c-0.2,0.4-0.3,0.9-0.3,1.4v0c0,0.5,0.1,1,0.3,1.4s0.4,0.8,0.7,1.2c0.3,0.3,0.7,0.6,1.1,0.8C169.9,83.4,170.4,83.5,170.9,83.5z"/>
		<path id="XMLID_521_" class="st1" d="M181.2,73.9h5.4c1.5,0,2.6,0.4,3.4,1.2c0.7,0.7,1,1.6,1,2.7v0c0,1-0.2,1.7-0.7,2.3
			c-0.5,0.6-1.1,1-1.8,1.3l2.9,4.2h-3l-2.5-3.8h0h-2v3.8h-2.6V73.9z M186.4,79.6c0.6,0,1.1-0.2,1.5-0.5c0.3-0.3,0.5-0.7,0.5-1.2v0
			c0-0.6-0.2-1-0.5-1.3c-0.4-0.3-0.9-0.4-1.5-0.4h-2.6v3.4H186.4z"/>
		<path id="XMLID_519_" class="st1" d="M199.3,85.9c-0.9,0-1.8-0.2-2.7-0.5c-0.9-0.3-1.7-0.8-2.4-1.4l1.5-1.8c0.5,0.4,1.1,0.8,1.7,1
			c0.6,0.3,1.2,0.4,1.9,0.4c0.5,0,1-0.1,1.3-0.3c0.3-0.2,0.4-0.5,0.4-0.8v0c0-0.2,0-0.3-0.1-0.4c-0.1-0.1-0.2-0.3-0.4-0.4
			c-0.2-0.1-0.4-0.2-0.7-0.3c-0.3-0.1-0.7-0.2-1.2-0.4c-0.6-0.1-1.1-0.3-1.6-0.5c-0.5-0.2-0.9-0.4-1.2-0.7c-0.3-0.3-0.6-0.6-0.8-1
			c-0.2-0.4-0.3-0.9-0.3-1.5v0c0-0.5,0.1-1,0.3-1.5c0.2-0.4,0.5-0.8,0.8-1.1s0.8-0.6,1.3-0.7c0.5-0.2,1.1-0.3,1.7-0.3
			c0.9,0,1.7,0.1,2.4,0.4c0.7,0.3,1.4,0.6,2,1.1l-1.4,2c-0.5-0.4-1-0.6-1.6-0.9c-0.5-0.2-1-0.3-1.5-0.3c-0.5,0-0.9,0.1-1.1,0.3
			c-0.3,0.2-0.4,0.4-0.4,0.7v0c0,0.2,0,0.4,0.1,0.5c0.1,0.1,0.2,0.3,0.4,0.4c0.2,0.1,0.5,0.2,0.8,0.3c0.3,0.1,0.8,0.2,1.3,0.4
			c0.6,0.2,1.1,0.3,1.6,0.5c0.5,0.2,0.9,0.4,1.2,0.7c0.3,0.3,0.6,0.6,0.7,1c0.2,0.4,0.2,0.8,0.2,1.3v0c0,0.6-0.1,1.1-0.3,1.6
			c-0.2,0.5-0.5,0.8-0.9,1.1c-0.4,0.3-0.8,0.5-1.4,0.7C200.6,85.8,200,85.9,199.3,85.9z"/>
	</g>
	<g>
		<polygon class="st1" points="90.2,2.4 92.7,2.4 92.7,3.3 95.1,2.2 95.1,0 87.7,0 87.7,5.7 90.2,4.5 		"/>
		<polygon class="st1" points="111.7,21.9 119,21.9 119,30 86,30 86,25.6 83.6,25.6 83.6,32.4 121.5,32.4 121.5,19.5 111.7,19.5 		
			"/>
		<polygon class="st1" points="102.5,2.4 83.6,11.3 83.6,21.9 93.4,21.9 93.4,19.5 86,19.5 86,12.9 102.5,5.1 119,12.9 119,15.7 
			121.5,15.7 121.5,11.3 		"/>
		<polygon class="st1" points="97,14.8 97,26.2 99.4,26.2 99.4,21.9 105.6,21.9 105.6,26.2 108.1,26.2 108.1,14.8 105.6,14.8 
			105.6,19.5 99.4,19.5 99.4,14.8 		"/>
	</g>
</g>
</svg>
