<svg id="Layer_1" data-name="Layer 1" xmlns="http://www.w3.org/2000/svg" xmlns:xlink="http://www.w3.org/1999/xlink" viewBox="0 0 634.3811 801.8589"><defs><style>.cls-1{fill:#f6f6f6;}.cls-17,.cls-2,.cls-3{fill:#fff;}.cls-10,.cls-2,.cls-9{opacity:0.03;}.cls-3{opacity:0.18;}.cls-4{fill:#e6e7e8;}.cls-5,.cls-8{opacity:0.34;}.cls-5{fill:url(#linear-gradient);}.cls-6{fill:none;stroke:#f6f6f6;stroke-miterlimit:10;stroke-width:0.8322px;}.cls-7{fill:#f3f4f4;}.cls-8{fill:url(#linear-gradient-2);}.cls-9{fill:url(#linear-gradient-3);}.cls-10{fill:url(#linear-gradient-4);}.cls-11{fill:#f3f3f3;}.cls-12,.cls-16,.cls-19{opacity:0.6;}.cls-12{fill:url(#linear-gradient-5);}.cls-13{fill:#0c3b5e;}.cls-14{fill:#d3d5d2;}.cls-15{fill:#e6e7e7;}.cls-16{fill:url(#linear-gradient-6);}.cls-18{fill:#414142;opacity:0.2;}.cls-20{fill:url(#linear-gradient-7);}.cls-21{fill:#a7a9ac;}</style><linearGradient id="linear-gradient" x1="512.6472" y1="592.6502" x2="583.3966" y2="592.6502" gradientUnits="userSpaceOnUse"><stop offset="0" stop-color="#d5d9d3"/><stop offset="0.2086" stop-color="#e9ebe4"/><stop offset="0.816" stop-color="#e6eae6"/><stop offset="1" stop-color="#d5d9d3"/></linearGradient><linearGradient id="linear-gradient-2" x1="50.9274" y1="592.6502" x2="121.6768" y2="592.6502" xlink:href="#linear-gradient"/><linearGradient id="linear-gradient-3" x1="49.9205" y1="231.8911" x2="122.8369" y2="231.8911" xlink:href="#linear-gradient"/><linearGradient id="linear-gradient-4" x1="510.6335" y1="231.8911" x2="583.5498" y2="231.8911" xlink:href="#linear-gradient"/><linearGradient id="linear-gradient-5" x1="168.9332" y1="416.4523" x2="471.2582" y2="416.4523" xlink:href="#linear-gradient"/><linearGradient id="linear-gradient-6" x1="0.0037" y1="400.9414" x2="634.3733" y2="400.9414" xlink:href="#linear-gradient"/><linearGradient id="linear-gradient-7" x1="138.2454" y1="416.4523" x2="494.9405" y2="416.4523" xlink:href="#linear-gradient"/></defs><path class="cls-1" d="M606.1511,33.2479H494.9405V780.9156H606.1511V33.2479h13.488M584.55,61.3077v346.665H511.6335V61.3077Z"/><polygon class="cls-2" points="173.869 761.255 173.869 71.2 459.738 71.2 173.869 761.255"/><rect class="cls-3" x="173.8689" y="60.9247" width="292.4538" height="712.2499"/><rect class="cls-4" x="33.2937" y="780.9156" width="567.7931" height="18.6911"/><path class="cls-1" d="M146.4389,33.2479H33.2268V780.9156H146.4389L144.4373,33.2479h13.488m-35.0892,28.06v346.665H49.92V61.3077Z"/><rect class="cls-5" x="512.6472" y="423.5963" width="70.7494" height="338.1079"/><line class="cls-6" x1="512.6472" y1="423.5963" x2="524.1431" y2="440.424"/><line class="cls-6" x1="583.5498" y1="423.5963" x2="572.054" y2="440.424"/><line class="cls-6" x1="512.6472" y1="761.7042" x2="524.1431" y2="748.078"/><line class="cls-6" x1="583.5498" y1="761.7042" x2="572.054" y2="746.5718"/><rect class="cls-7" x="524.1431" y="440.424" width="47.9108" height="306.1479"/><rect class="cls-8" x="50.9274" y="423.5963" width="70.7494" height="338.1079"/><line class="cls-6" x1="50.9274" y1="423.5963" x2="62.4232" y2="440.424"/><line class="cls-6" x1="121.83" y1="423.5963" x2="110.3341" y2="440.424"/><line class="cls-6" x1="50.9274" y1="761.7042" x2="62.4232" y2="748.078"/><line class="cls-6" x1="121.83" y1="761.7042" x2="110.3341" y2="746.5718"/><rect class="cls-7" x="62.4232" y="440.424" width="47.9108" height="306.1479"/><polygon class="cls-9" points="49.92 402.857 49.92 60.925 122.837 60.925 49.92 402.857"/><polygon class="cls-10" points="510.633 402.857 510.633 60.925 583.55 60.925 510.633 402.857"/><path class="cls-11" d="M145.251,33.2424v766.42H494.9405V33.2424ZM459.7381,71.2005V761.7042H173.8689V71.2005Z"/><path class="cls-11" d="M163.9976,52V780.9156H476.1939V52Zm295.7405,19.2V761.7042H173.8689V71.2005Z"/><path class="cls-11" d="M163.9976,52V780.9156H476.1939V52Zm295.7405,19.2V761.7042H173.8689V71.2005Z"/><path class="cls-11" d="M168.9332,56.9247V775.98h302.325V56.9247Zm4.9357,14.2758H459.7381V761.7042H173.8689Z"/><path class="cls-12" d="M168.9332,56.9247V775.98h302.325V56.9247Zm4.9357,14.2758H459.7381V761.7042H173.8689Z"/><polygon class="cls-13" points="466.323 61.86 466.323 771.044 173.869 771.044 173.869 761.704 459.738 761.704 459.738 71.2 173.869 71.2 173.869 61.86 466.323 61.86"/><rect class="cls-14" x="173.8714" y="766.3759" width="292.4512" height="4.6668"/><rect class="cls-15" x="173.8689" y="761.7042" width="292.4538" height="4.67"/><rect class="cls-14" x="173.8714" y="61.8662" width="292.4512" height="4.6668" transform="translate(640.1941 128.3992) rotate(-180)"/><rect class="cls-15" x="173.8689" y="66.5304" width="292.4538" height="4.67"/><rect class="cls-14" x="112.3426" y="414.7293" width="704.6651" height="3.295" transform="translate(881.0519 -48.2984) rotate(90)"/><rect class="cls-15" x="459.7381" y="66.4529" width="3.2867" height="699.855"/><path class="cls-7" d="M.0037.0238V801.8589h634.37V.0238Zm601.15,791.1681H33.2937V33.2235h463.55v.02h104.31Z"/><path class="cls-16" d="M.0037.0238V801.8589h634.37V.0238Zm601.15,791.1681H33.2937V33.2235h463.55v.02h104.31Z"/><polygon class="cls-17" points="33.272 33.198 33.226 33.244 32.301 33.241 0.002 0.926 0 0 0.988 0 33.27 32.272 33.272 33.198"/><polygon class="cls-18" points="33.249 33.221 0 0 0.988 0 33.294 32.296 33.249 33.221"/><polygon class="cls-17" points="601.109 33.198 601.155 33.244 602.08 33.241 634.379 0.926 634.381 0 633.393 0 601.111 32.272 601.109 33.198"/><polygon class="cls-18" points="601.132 33.221 634.381 0 633.393 0 601.087 32.296 601.132 33.221"/><polygon class="cls-17" points="601.157 33.243 601.845 129.046 601.843 224.849 601.843 416.454 601.843 608.059 601.843 703.862 601.157 799.665 600.472 703.862 600.472 608.059 600.472 416.454 600.472 224.849 600.47 129.046 601.157 33.243"/><g class="cls-19"><path class="cls-20" d="M269.95,33.2424H138.2454v766.42H494.9405V33.2424H269.95M459.7381,71.2005V761.7042H173.8689V71.2005Z"/></g><rect class="cls-3" x="49.9205" y="60.9247" width="72.9156" height="347.048"/><rect class="cls-3" x="510.6339" y="60.9247" width="72.9156" height="347.048"/><rect class="cls-21" x="148.2844" y="412.6612" width="11.7132" height="85.7837" rx="1.854" transform="translate(308.282 911.106) rotate(180)"/><path class="cls-21" d="M202.6407,470.3932l-48.4107.9786a1.5981,1.5981,0,0,1-1.61-1.5758v-4.2085a1.5981,1.5981,0,0,1,1.61-1.5758l48.4107.9786a1.598,1.598,0,0,1,1.61,1.5758v2.2513A1.598,1.598,0,0,1,202.6407,470.3932Z"/></svg>