<svg xmlns="http://www.w3.org/2000/svg" xmlns:xlink="http://www.w3.org/1999/xlink" width="248" height="81.6" viewBox="0 0 248 81.6">
  <defs>
    <clipPath id="clip-path">
      <path id="Path_9441" data-name="Path 9441" d="M0,0H248V-81.6H0Z" fill="none"/>
    </clipPath>
    <clipPath id="clip-path-2">
      <rect id="Rectangle_559" data-name="Rectangle 559" width="65535" height="65535" transform="translate(-32768 -32767)" fill="none"/>
    </clipPath>
  </defs>
  <g id="Group_1573" data-name="Group 1573" transform="translate(0 81.6)">
    <g id="Group_1572" data-name="Group 1572" clip-path="url(#clip-path)">
      <g id="Group_1571" data-name="Group 1571" style="isolation: isolate">
        <g id="Group_1570" data-name="Group 1570">
          <g id="Group_1569" data-name="Group 1569" clip-path="url(#clip-path-2)">
            <g id="Group_1563" data-name="Group 1563" transform="translate(138.24 -40.48)">
              <path id="Path_9435" data-name="Path 9435" d="M0,0A13.809,13.809,0,0,0-4.56-3.04a14.979,14.979,0,0,0-5.68-1.12,14.979,14.979,0,0,0-5.68,1.12A13.809,13.809,0,0,0-20.48,0a13.809,13.809,0,0,0-3.04,4.56,14.176,14.176,0,0,0-1.12,5.52,14.575,14.575,0,0,0,1.12,5.6,13.809,13.809,0,0,0,3.04,4.56,13.809,13.809,0,0,0,4.56,3.04,14.979,14.979,0,0,0,5.68,1.12,14.979,14.979,0,0,0,5.68-1.12A13.809,13.809,0,0,0,0,20.24a13.809,13.809,0,0,0,3.04-4.56,14.575,14.575,0,0,0,1.12-5.6A13.884,13.884,0,0,0,3.04,4.56,13.809,13.809,0,0,0,0,0M-2.72,13.6a8.424,8.424,0,0,1-1.6,2.72,7.31,7.31,0,0,1-2.56,1.76,8.978,8.978,0,0,1-3.36.64,8.674,8.674,0,0,1-3.36-.64,8.124,8.124,0,0,1-2.56-1.76,7.012,7.012,0,0,1-1.6-2.72,9.854,9.854,0,0,1-.56-3.52,10.153,10.153,0,0,1,.56-3.52,8.424,8.424,0,0,1,1.6-2.72A8.55,8.55,0,0,1-13.6,2.08a8.978,8.978,0,0,1,3.36-.64,8.674,8.674,0,0,1,3.36.64A8.124,8.124,0,0,1-4.32,3.84a7.012,7.012,0,0,1,1.6,2.72,9.854,9.854,0,0,1,.56,3.52,12.47,12.47,0,0,1-.56,3.52"/>
            </g>
            <g id="Group_1564" data-name="Group 1564" transform="translate(100.56 -43.76)">
              <path id="Path_9436" data-name="Path 9436" d="M0,0A11.7,11.7,0,0,0-11.76,1.6V-9.84h-6.4v36.8h6.4V12.48c0-2.72.72-7.36,6-7.36,4.88,0,6,4,6,7.36V26.96h6.4V10.48A11.42,11.42,0,0,0,0,0"/>
            </g>
            <g id="Group_1565" data-name="Group 1565" transform="translate(180 -21.6)">
              <path id="Path_9437" data-name="Path 9437" d="M0,0V4.8H23.2V-.8H8.08L22.4-17.28V-22.4H.8v5.6H14.64L0-.4"/>
            </g>
            <g id="Group_1566" data-name="Group 1566" transform="translate(208 -21.6)">
              <path id="Path_9438" data-name="Path 9438" d="M0,0V4.8H23.2V-.8H8.08L22.4-17.28V-22.4H.8v5.6H14.64L0-.4"/>
            </g>
            <g id="Group_1567" data-name="Group 1567" transform="translate(167.2 -44)">
              <path id="Path_9439" data-name="Path 9439" d="M0,0V14.88a8.8,8.8,0,0,1-.32,2.48,8.606,8.606,0,0,1-1.04,2.32A4.662,4.662,0,0,1-3.2,21.36,5.8,5.8,0,0,1-6,22a5.8,5.8,0,0,1-2.8-.64,6.167,6.167,0,0,1-1.84-1.68,8.606,8.606,0,0,1-1.04-2.32A9.591,9.591,0,0,1-12,14.88V0h-6.4V15.44c0,5.76,2.48,9.6,7.52,11.52A13.911,13.911,0,0,0-6,27.84a13.911,13.911,0,0,0,4.88-.88c6.16-2.4,7.52-7.6,7.52-11.52V0Z"/>
            </g>
            <g id="Group_1568" data-name="Group 1568" transform="translate(44 -16.8)">
              <path id="Path_9440" data-name="Path 9440" d="M0,0H16V-27.6l-32-9.2V-48H-27.2V0h16V-16H0Z" fill="#4dbb14"/>
            </g>
          </g>
        </g>
      </g>
    </g>
  </g>
</svg>
