<svg xmlns="http://www.w3.org/2000/svg" xmlns:xlink="http://www.w3.org/1999/xlink" width="98.386" height="100.671" viewBox="0 0 98.386 100.671">
  <defs>
    <clipPath id="clip-path">
      <path id="Path_9434" data-name="Path 9434" d="M0-16.887H98.385v-100.67H0Z" transform="translate(0 117.557)" fill="none"/>
    </clipPath>
  </defs>
  <g id="Group_1562" data-name="Group 1562" transform="translate(0 117.557)">
    <g id="Group_1545" data-name="Group 1545" transform="translate(0 -117.556)">
      <path id="Path_9417" data-name="Path 9417" d="M0,0V100.67H98.386V0Z" fill="#fff"/>
    </g>
    <path id="Path_9418" data-name="Path 9418" d="M96.464-6.209H2.7V-27.166H96.464Z" transform="translate(-0.387 -12.984)" fill="#00b8f1"/>
    <g id="Group_1561" data-name="Group 1561" transform="translate(0 -117.557)" clip-path="url(#clip-path)">
      <g id="Group_1546" data-name="Group 1546" transform="translate(2.311 2.312)">
        <path id="Path_9419" data-name="Path 9419" d="M-7.863-1.453A57.759,57.759,0,0,1,39.027,22.6V-10.119H-54.739V22.588A57.739,57.739,0,0,1-7.863-1.453" transform="translate(54.739 10.119)" fill="#00b8f1"/>
      </g>
      <g id="Group_1547" data-name="Group 1547" transform="translate(2.311 13.288)">
        <path id="Path_9420" data-name="Path 9420" d="M-7.863,0A56.36,56.36,0,0,0-54.739,25.1V61.806H39.027V25.11A56.37,56.37,0,0,0-7.863,0" transform="translate(54.739)" fill="#00b8f1"/>
      </g>
      <g id="Group_1548" data-name="Group 1548" transform="translate(2.311 10.977)">
        <path id="Path_9421" data-name="Path 9421" d="M-7.863-.388a56.37,56.37,0,0,1,46.889,25.11V21.354A57.758,57.758,0,0,0-7.863-2.7,57.739,57.739,0,0,0-54.739,21.342V24.71A56.36,56.36,0,0,1-7.863-.388" transform="translate(54.739 2.699)" fill="#fff"/>
      </g>
      <g id="Group_1549" data-name="Group 1549" transform="translate(3.61 41.801)">
        <path id="Path_9422" data-name="Path 9422" d="M-1.331-1.678a8.131,8.131,0,0,0-.462,1.1A10.077,10.077,0,0,1-8.24-.53a.739.739,0,0,0-.965.392A.73.73,0,0,0-8.818.83a11.216,11.216,0,0,0,6.687.207c0,.048-.009.1-.009.152A2.542,2.542,0,0,0-1.074,3.425c1.694,1.1,5.422.162,10.83-5.359a20.776,20.776,0,0,0-.864,3.22.859.859,0,0,0-.01.145.755.755,0,0,0,.472.706c.585.237.921-.247,1.216-.671l.75-1.118a53.108,53.108,0,0,1,3.1-4.325,11.054,11.054,0,0,0-.241,2.02A2.338,2.338,0,0,0,15.136.224c.62.359,1.612.486,3.761-.795a1.453,1.453,0,0,0,.754.831c1.373.637,3.961-.74,6.661-3.322A15.851,15.851,0,0,0,25.6-1.28a1.116,1.116,0,0,0-.024.223.765.765,0,0,0,.447.7c.594.261.97-.259,1.269-.684L28.1-2.217a43.823,43.823,0,0,1,3.191-4.3,3.964,3.964,0,0,0,1.646,2.012,3.836,3.836,0,0,0-.385,1.5,1.323,1.323,0,0,0,.581,1.169c.694.473,1.748.213,2.847-.385-3.509,3.481-5.122,6.949-5.172,8.487,0,.029,0,.059,0,.088a1.348,1.348,0,0,0,.681,1.331c.533.267,1.183.1,1.937-.495,2.642-2.1,4.564-7.078,5.548-10.126a29.517,29.517,0,0,1,4.634-3.075,5.87,5.87,0,0,0-.9,2.736,2.241,2.241,0,0,0,.122.76,1.4,1.4,0,0,0,1.2.943c1.219.133,2.9-1.145,4.893-3.6-.169.488-.338.962-.506,1.427-5.52,4.349-8,9-8.32,11.523a4.074,4.074,0,0,0-.044.569,1.756,1.756,0,0,0,.778,1.683c.42.239,1.134.354,2.183-.448,1.168-.892,3.954-5.257,6.651-12.449a43.452,43.452,0,0,1,15.018-7.187.743.743,0,0,0,.545-.716.759.759,0,0,0-.027-.194.743.743,0,0,0-.915-.516A46.4,46.4,0,0,0,50.532-5.3q.632-1.874,1.247-3.956a.787.787,0,0,0,.027-.209.74.74,0,0,0-.435-.673.739.739,0,0,0-.926.278c-3.68,5.777-5.763,6.826-6.223,6.817a.481.481,0,0,1-.045-.226c0-.658.563-2.3,2.385-4.232a.756.756,0,0,0,.2-.509.757.757,0,0,0-.135-.421.748.748,0,0,0-.9-.259A32.106,32.106,0,0,0,39.669-5.31c.019-.069.034-.124.038-.147a.827.827,0,0,0,.028-.18.744.744,0,0,0-.4-.653.253.253,0,0,1-.039-.01c.507-.4,1.031-.839,1.582-1.348a1.926,1.926,0,0,0,.731-1.4,1.269,1.269,0,0,0-.064-.395,1.472,1.472,0,0,0-1.318-.947c-1.634-.19-4.22,1.194-6.539,4.606a3.152,3.152,0,0,1-1.243-1.929L32.384-7.9a.718.718,0,0,0-.7-.5c-.5.006-1.039.351-1.881,1.341a.473.473,0,0,1,.036-.069.736.736,0,0,0,.069-.319.746.746,0,0,0-.355-.635.741.741,0,0,0-.975.191C24.453-2.34,20.846-.8,20.281-1.078a.517.517,0,0,1-.017-.152,1.807,1.807,0,0,1,.03-.262c.921-.659,2.008-1.519,3.3-2.638a3.388,3.388,0,0,0,1.469-2.429,1.485,1.485,0,0,0-.11-.568A1.455,1.455,0,0,0,23.4-7.952C21.875-7.82,19.963-6.03,19-2.389,16.612-.758,15.967-1.006,15.88-1.056c-.325-.186-.3-1.21.072-3.038.163-.812.237-1.182.055-1.519a1,1,0,0,0-.85-.546c-.775-.039-1.655.775-3.482,3.36a24.543,24.543,0,0,1,1.444-2.922.731.731,0,0,0,.108-.383.744.744,0,0,0-.314-.607.74.74,0,0,0-1,.138C5.414,1.36.995,3.01-.266,2.189a1.1,1.1,0,0,1-.4-.981A3.349,3.349,0,0,1-.591.575,21.855,21.855,0,0,0,7.636-5.007c1.758-1.8,2.7-3.483,2.7-4.763a2.141,2.141,0,0,0-.144-.8,1.769,1.769,0,0,0-1.643-1.11c-2.334-.108-6.293,2.94-9.881,10M8.481-10.2c.274.015.318.121.339.173a.794.794,0,0,1,.039.257c0,.643-.563,1.972-2.283,3.732A21.726,21.726,0,0,1,.15-1.323C3.567-7.9,7.06-10.266,8.481-10.2M23.055-6.321a1.1,1.1,0,0,1,.513-.158,2.673,2.673,0,0,1-.948,1.235c-.537.463-1.034.883-1.488,1.252a4.9,4.9,0,0,1,1.923-2.329m16.4-2.543a1.627,1.627,0,0,1,.574-.049,1.08,1.08,0,0,1-.163.179,13.256,13.256,0,0,1-4.377,2.966c1.854-2.406,3.459-2.976,3.966-3.1m-2.23,3.951a6.966,6.966,0,0,1-3.2,1.851,3.028,3.028,0,0,1,.355-1.059,5.645,5.645,0,0,0,2.841-.792M36.653-.822c-1,2.586-2.431,5.488-4.147,6.848-.085.068-.156.12-.218.163.078-1.07,1.385-3.94,4.365-7.011m4.876,9.166a5.211,5.211,0,0,1,.354-1.665A20.335,20.335,0,0,1,47.272-.836c-2.266,5.434-4.386,8.648-5.163,9.25a1.856,1.856,0,0,1-.527.3.977.977,0,0,1-.053-.373" transform="translate(9.267 11.681)" fill="#fff"/>
      </g>
      <g id="Group_1550" data-name="Group 1550" transform="translate(56.589 26.792)">
        <path id="Path_9423" data-name="Path 9423" d="M-3.184,0A1.108,1.108,0,0,0-4.219.7s-4.058,10.41-4.524,11.6c-1.274.07-12.374.656-12.374.656a1.109,1.109,0,0,0-1.051,1.1c0,.019,0,.039,0,.06A1.109,1.109,0,0,0-21,15.17l13.089-.694a1.112,1.112,0,0,0,.973-.7s2.478-6.367,3.751-9.624L.546,13.735a1.109,1.109,0,0,0,.965.7s6.758.388,10.212.588C9.06,17.237,3.836,21.58,3.836,21.58a1.094,1.094,0,0,0-.405.85,1.135,1.135,0,0,0,.034.275s1.677,6.556,2.542,9.916C3.1,30.745-2.569,27.088-2.569,27.088a1.109,1.109,0,0,0-1.195-.005s-5.73,3.65-8.7,5.536c.905-3.264,2.532-9.14,2.532-9.14a1.45,1.45,0,0,0,.036-.295,1.1,1.1,0,0,0-.813-1.066,1.108,1.108,0,0,0-1.363.773L-15.363,34.8a1.106,1.106,0,0,0,.408,1.183,1.119,1.119,0,0,0,1.255.041l10.523-6.7c1.065.689,10.357,6.68,10.357,6.68a1.108,1.108,0,0,0,1.71-.927,1.065,1.065,0,0,0-.039-.275S6.094,24.048,5.785,22.834c.961-.8,9.511-7.9,9.511-7.9a1.117,1.117,0,0,0,.4-.85,1.068,1.068,0,0,0-.058-.347,1.1,1.1,0,0,0-.986-.758s-11.032-.633-12.3-.707C1.885,11.085-2.155.7-2.155.7A1.1,1.1,0,0,0-3.184,0" transform="translate(22.168)" fill="#fff"/>
      </g>
      <g id="Group_1551" data-name="Group 1551" transform="translate(6.351 82.022)">
        <path id="Path_9424" data-name="Path 9424" d="M0-1.967V-13.694H6.042v1.3H1.493v3.768H5.717v1.3H1.493v4.059H6.14v1.3Z" transform="translate(0 13.694)" fill="#fff"/>
      </g>
      <g id="Group_1552" data-name="Group 1552" transform="translate(14.362 82.022)">
        <path id="Path_9425" data-name="Path 9425" d="M-1.349,0V11.727H-3.4L-8.025,1.56h-.033V11.727H-9.389V0h2.111l4.565,10.039h.031V0Z" transform="translate(9.389)" fill="#fff"/>
      </g>
      <g id="Group_1553" data-name="Group 1553" transform="translate(24.475 82.022)">
        <path id="Path_9426" data-name="Path 9426" d="M0-1.967V-13.694H6.043v1.3H1.5v3.768H5.718v1.3H1.5v4.059H6.141v1.3Z" transform="translate(0 13.694)" fill="#fff"/>
      </g>
      <g id="Group_1554" data-name="Group 1554" transform="translate(32.415 82.021)">
        <path id="Path_9427" data-name="Path 9427" d="M-.251-.218H2.008A1.6,1.6,0,0,1,3.583,1.568c0,1.025-.52,1.949-1.593,1.949H-.251ZM1.5,4.818A1.545,1.545,0,0,1,3.273,6.312c.13,1.559.034,3.087.456,3.9H5.289a17.562,17.562,0,0,1-.408-3.07c-.08-2.356-.566-2.808-1.915-3.02V4.085A2.53,2.53,0,0,0,5.11,1.406,2.648,2.648,0,0,0,2.3-1.519H-1.744V10.209H-.251V4.818Z" transform="translate(1.744 1.519)" fill="#fff"/>
      </g>
      <g id="Group_1555" data-name="Group 1555" transform="translate(40.738 81.779)">
        <path id="Path_9428" data-name="Path 9428" d="M-.967-.567C-.967-1.95-1.535-2.7-3.048-2.7c-.471,0-2.159.08-2.159,2.535V3.8c0,2.567.748,3.215,2.159,3.215A3.732,3.732,0,0,0-.95,6.5V2.99H-3.112v-1.3H.543v5.7a7.236,7.236,0,0,1-3.592.877c-2.484,0-3.686-1.286-3.686-4.534V-.113c0-2.338,1.2-3.832,3.686-3.832,2.536,0,3.739.925,3.64,3.378Z" transform="translate(6.734 3.945)" fill="#fff"/>
      </g>
      <g id="Group_1556" data-name="Group 1556" transform="translate(48.84 82.022)">
        <path id="Path_9429" data-name="Path 9429" d="M-1.062,0H.447l-3.2,7.258v4.469H-4.244V7.258L-7.4,0h1.674l2.29,5.668Z" transform="translate(7.397)" fill="#fff"/>
      </g>
      <g id="Group_1557" data-name="Group 1557" transform="translate(60.249 81.778)">
        <path id="Path_9430" data-name="Path 9430" d="M-.249-1.422v.341a1.858,1.858,0,0,0,1.966,2.1c1.187,0,2.1-.5,2.1-1.9,0-2.6-5.264-2.3-5.264-5.832C-1.45-8.8.028-9.9,2-9.9c2.143,0,3.347,1.04,3.246,3.428H3.684C3.7-7.758,3.293-8.6,1.882-8.6A1.634,1.634,0,0,0,.078-6.88c0,2.584,5.264,2.21,5.264,5.929,0,2.47-1.708,3.267-3.641,3.267-3.46.03-3.46-2.617-3.427-3.738Z" transform="translate(1.731 9.901)" fill="#fff"/>
      </g>
      <g id="Group_1558" data-name="Group 1558" transform="translate(67.996 82.022)">
        <path id="Path_9431" data-name="Path 9431" d="M-1.286,0V1.3H-4.371V11.727h-1.5V1.3H-8.953V0Z" transform="translate(8.953)" fill="#fff"/>
      </g>
      <g id="Group_1559" data-name="Group 1559" transform="translate(74.423 82.021)">
        <path id="Path_9432" data-name="Path 9432" d="M-1.092-1.281H-4.843L-3.01-7.534h.033ZM-7.6,2.811H-6.1L-5.216.017H-.685L.159,2.811H1.831L-1.985-8.917h-1.9Z" transform="translate(7.604 8.917)" fill="#fff"/>
      </g>
      <g id="Group_1560" data-name="Group 1560" transform="translate(85.01 82.021)">
        <path id="Path_9433" data-name="Path 9433" d="M-.251-.218H2.007A1.593,1.593,0,0,1,3.582,1.568c0,1.025-.523,1.949-1.592,1.949H-.251ZM1.5,4.818A1.545,1.545,0,0,1,3.274,6.312c.129,1.559.032,3.087.456,3.9H5.287a17.7,17.7,0,0,1-.4-3.07c-.08-2.356-.569-2.808-1.918-3.02V4.085A2.53,2.53,0,0,0,5.107,1.406,2.647,2.647,0,0,0,2.3-1.519H-1.746V10.209h1.5V4.818Z" transform="translate(1.746 1.519)" fill="#fff"/>
      </g>
    </g>
  </g>
</svg>
