<svg xmlns="http://www.w3.org/2000/svg" width="86.754" height="117.313" viewBox="0 0 86.754 117.313">
  <g id="Group_1648" data-name="Group 1648" transform="translate(-35.997 -35.998)">
    <path id="Path_1" data-name="Path 1" d="M241.3,77.668A43.6,43.6,0,0,0,198.737,36V59.5a18.579,18.579,0,0,1,17.8,18.166Zm-20.464-1.111,4.893-3.782-7.858-3.042,4.077-7.042-8.527.518.964-8.081-7.86,3.412-2.3-8.01-4.6,5.117-.295,1.854a20.592,20.592,0,0,1,19.129,19.278ZM204.67,45.712a1.371,1.371,0,1,1,0,2.742,1.345,1.345,0,0,1-1.336-1.407,1.327,1.327,0,0,1,1.336-1.335m11.864,4.3a1.457,1.457,0,0,1,1.406,1.409,1.392,1.392,0,0,1-1.406,1.335A1.328,1.328,0,0,1,215.2,51.42a1.393,1.393,0,0,1,1.336-1.409m8.9,8.749a1.346,1.346,0,0,1,1.406,1.336,1.371,1.371,0,1,1-2.742,0,1.33,1.33,0,0,1,1.336-1.336m5.042,11.865a1.371,1.371,0,1,1,0,2.742,1.346,1.346,0,0,1-1.336-1.407,1.329,1.329,0,0,1,1.336-1.335M207.338,49.789l5.71-5.413-.371,7.934L207.858,55.5Zm9.638,5.709,7.564-2.521-3.706,7.044-5.71.89Zm7.564,9.342,7.935.224L226.543,70.4l-5.635-1.113Zm5.709,18.612a1.331,1.331,0,0,1,1.336,1.336A1.394,1.394,0,0,1,230.25,86.2a1.457,1.457,0,0,1-1.408-1.407,1.394,1.394,0,0,1,1.408-1.336m-5.042,11.639a1.4,1.4,0,0,1,1.41,1.336,1.41,1.41,0,0,1-1.41,1.41,1.348,1.348,0,0,1-1.334-1.41,1.328,1.328,0,0,1,1.334-1.336m-8.674,9.122a1.373,1.373,0,1,1,0,2.746,1.33,1.33,0,0,1-1.336-1.336,1.347,1.347,0,0,1,1.336-1.41m-11.864,4.152a1.393,1.393,0,0,1,1.407,1.336,1.456,1.456,0,0,1-1.407,1.407,1.391,1.391,0,0,1-1.336-1.407,1.328,1.328,0,0,1,1.336-1.336m2.373-1.336,5.782,5.413-.369-7.932-4.822-3.189Zm9.713-5.633,7.489,2.445-3.708-6.971-5.635-.888ZM224.1,92.2l7.935-.224L226.1,86.641l-5.635,1.186Zm-25.359,30.548H241.3V79.079H216.46a18.563,18.563,0,0,1-17.723,17.5v2a20.627,20.627,0,0,0,19.65-18.463h2.151l4.449,4.227-7.86,2.149,3.634,7.489-8.083-.962.742,8.3-7.193-3.856L204,105.475l-4.3-4.671-.964-1.56Z" transform="translate(-118.547)" fill="#0064a4" fill-rule="evenodd"/>
    <path id="Path_2" data-name="Path 2" d="M137.3,185.992h2.447v-.371a.408.408,0,0,0-.222-.37l-.149-.075c-.224-.075-.295-.149-.295-.37v-4.524a3.369,3.369,0,0,0-.075-.741l4.669,6.45h.817v-6.9c0-.223.073-.3.3-.37l.147-.075c.149-.075.224-.149.224-.3v-.371h-2.448v.371c0,.146.075.221.3.3l.149.075c.222.075.222.147.222.37v3.04a3.085,3.085,0,0,0,.073.815l-3.557-4.966h-2.447v.371c0,.146,0,.221.147.3l.224.075c.147.075.147.221.147.37v5.71c0,.221,0,.3-.222.37l-.149.075a.378.378,0,0,0-.3.37Z" transform="translate(-73.792 -103.429)" fill="#0064a4" fill-rule="evenodd"/>
    <path id="Path_3" data-name="Path 3" d="M169.521,185.792h3.113v-.371a.4.4,0,0,0-.222-.37l-.149-.075c-.22-.075-.295-.149-.295-.37v-2.522h1.039c.295,0,.517.075.591.224l.224.222a.34.34,0,0,0,.371.221h.369V180.6h-.369a.457.457,0,0,0-.371.222l-.224.223c-.075.147-.3.222-.591.222h-1.039V178.6h2c.74,0,1.039.221,1.261.741a.5.5,0,0,0,.519.3h.3V177.71c-.52,0-.964.074-1.261.074H169.6v.371c0,.146.075.221.222.3l.147.075c.222.075.222.221.222.37v5.71c0,.221,0,.3-.222.37l-.222.075a.408.408,0,0,0-.222.37Z" transform="translate(-97.265 -103.229)" fill="#0064a4" fill-rule="evenodd"/>
    <path id="Path_4" data-name="Path 4" d="M198.723,181.543V178.8h.595c1.332,0,2,.443,2,1.407s-.744,1.336-2.076,1.336Zm-2.447,4.449h3.115v-.371a.376.376,0,0,0-.3-.37l-.149-.075c-.222-.075-.222-.149-.222-.37v-2.373a.073.073,0,0,1,.075-.074c.666,0,1.037.667,1.778,1.706l1.335,1.928h2.076v-.371c0-.149-.075-.223-.22-.3l-.224-.149c-.222-.075-.371-.3-.593-.594l-1.039-1.482a2.023,2.023,0,0,0-.962-.965c1.408-.073,2.223-.816,2.223-1.928,0-1.557-1.186-2.224-3.412-2.224h-3.41v.371c0,.146.075.221.222.3l.149.075a.4.4,0,0,1,.222.37v5.71c0,.221-.073.3-.3.37l-.149.075a.407.407,0,0,0-.222.37Z" transform="translate(-116.754 -103.429)" fill="#0064a4" fill-rule="evenodd"/>
    <path id="Path_5" data-name="Path 5" d="M232.393,183.59a3.964,3.964,0,0,1-2.522,1.186c-1.483,0-2.447-1.186-2.447-3.188s1.039-3.262,2.3-3.262a2.056,2.056,0,0,1,1.852,1.186c.222.37.222.445.52.445h.369v-2.151h-.295c-.075,0-.149.075-.3.149h-.147c-.075,0-.075.074-.149.074a4.93,4.93,0,0,0-2.151-.594,3.957,3.957,0,0,0-2.817,1.261,4.938,4.938,0,0,0-1.112,3.041,4.264,4.264,0,0,0,1.335,3.04,4.276,4.276,0,0,0,5.411,0c.369-.222.518-.445.518-.667v-.224Z" transform="translate(-138.04 -103.029)" fill="#0064a4" fill-rule="evenodd"/>
    <path id="Path_6" data-name="Path 6" d="M36,79.08v43.675H78.856V96.58a18.667,18.667,0,0,1-18.019-17.5ZM78.856,36a43.534,43.534,0,0,0-42.785,41.67H60.837A18.564,18.564,0,0,1,78.856,59.505Zm-.521,20.241L70.922,41.636l.371,17.277L58.539,48.086l6.079,15.126L49.716,57.5,60.1,69.663l-16.46.816L57.5,76.56l1.406-.074A20.6,20.6,0,0,1,78.336,57.5Zm-.444,44.34-6.081,15.275-.295-17.942L58.761,109.7l6.081-16.09-14.906,6.6L60.1,87.164l-16.238.075,13.2-7.416,1.852.146A20.61,20.61,0,0,0,77.892,98.507Z" transform="translate(0 -0.003)" fill="#ea6e04" fill-rule="evenodd"/>
    <path id="Path_7" data-name="Path 7" d="M44.739,378.981V371.85h.815l3.263,5.609V371.85h.815v7.131h-.815l-3.337-5.538v5.538Z" transform="translate(-6.368 -244.649)" fill="#0064a4" fill-rule="evenodd"/>
    <path id="Path_8" data-name="Path 8" d="M69.7,381.433a7.1,7.1,0,0,1-1.261.345,4.625,4.625,0,0,0-.666.14c-.075.069-.224.207-.3.278a1.052,1.052,0,0,0,.147,1.037.952.952,0,0,0,.668.207,1.589,1.589,0,0,0,.817-.207,1.537,1.537,0,0,0,.516-.623,2.662,2.662,0,0,0,.075-.832Zm.075,1.938a3.182,3.182,0,0,1-.815.623,2.785,2.785,0,0,1-.817.14,1.371,1.371,0,0,1-1.555-1.453,1.96,1.96,0,0,1,.147-.694,1.494,1.494,0,0,1,.371-.554,4.706,4.706,0,0,1,.593-.278,3.78,3.78,0,0,0,.666-.138,4.746,4.746,0,0,0,1.336-.276v-.207a1.065,1.065,0,0,0-.222-.763.955.955,0,0,0-.815-.276,1.232,1.232,0,0,0-.815.209,1.489,1.489,0,0,0-.371.759l-.742-.138a3.324,3.324,0,0,1,.3-.9,1.569,1.569,0,0,1,.668-.485,2.482,2.482,0,0,1,1.039-.209,3.5,3.5,0,0,1,.963.138,3.274,3.274,0,0,1,.52.416,1.281,1.281,0,0,1,.22.623c0,.138.074.416.074.761v2.7a3.013,3.013,0,0,0,.224.623h-.815a1.29,1.29,0,0,1-.149-.623" transform="translate(-22.279 -249.663)" fill="#0064a4" fill-rule="evenodd"/>
    <path id="Path_9" data-name="Path 9" d="M85.858,378.774l.149.763a1.986,1.986,0,0,1-.595.069c-.295,0-.519,0-.666-.14a.634.634,0,0,1-.3-.414,3.021,3.021,0,0,1-.073-.972V375.1h-.593v-.69h.593V373.1l.742-.485v1.8h.741v.69h-.741v3.462c.074.071.074.142.146.209.074,0,.149.069.3.069.075,0,.147-.069.3-.069" transform="translate(-34.809 -245.204)" fill="#0064a4" fill-rule="evenodd"/>
    <path id="Path_10" data-name="Path 10" d="M94.161,373.859h.815v5.122h-.815Zm0-2.009h.815v1.039h-.815Z" transform="translate(-42.369 -244.649)" fill="#0064a4" fill-rule="evenodd"/>
    <path id="Path_11" data-name="Path 11" d="M101.181,381.433a2.763,2.763,0,0,0,.371,1.524,1.433,1.433,0,0,0,.964.483,1.3,1.3,0,0,0,.965-.483,2.938,2.938,0,0,0,.371-1.524,2.345,2.345,0,0,0-.371-1.453,1.2,1.2,0,0,0-1.929,0,2.5,2.5,0,0,0-.371,1.453m-.741,0a3.037,3.037,0,0,1,.666-2.147,2.1,2.1,0,0,1,1.41-.554,1.912,1.912,0,0,1,1.556.692,3.072,3.072,0,0,1,.595,1.94,4.411,4.411,0,0,1-.3,1.593,2.876,2.876,0,0,1-.741.9,2.2,2.2,0,0,1-1.112.278,2.017,2.017,0,0,1-1.557-.694,3.152,3.152,0,0,1-.518-2.007" transform="translate(-46.943 -249.663)" fill="#0064a4" fill-rule="evenodd"/>
    <path id="Path_12" data-name="Path 12" d="M119.281,384v-5.124h.666v.694a1.619,1.619,0,0,1,1.41-.83,1.791,1.791,0,0,1,.815.205.654.654,0,0,1,.444.416,2.4,2.4,0,0,1,.3.623V384h-.741v-3.115a2.642,2.642,0,0,0-.075-.83,1.834,1.834,0,0,0-.371-.416,1.129,1.129,0,0,0-.519-.14,1.233,1.233,0,0,0-.817.349,2.128,2.128,0,0,0-.37,1.384V384Z" transform="translate(-60.668 -249.668)" fill="#0064a4" fill-rule="evenodd"/>
    <path id="Path_13" data-name="Path 13" d="M139.32,381.433a7.068,7.068,0,0,1-1.259.345,4.679,4.679,0,0,0-.668.14,1.024,1.024,0,0,0-.3.278.835.835,0,0,0-.073.414.815.815,0,0,0,.22.623.953.953,0,0,0,.67.207,1.323,1.323,0,0,0,.74-.207.9.9,0,0,0,.521-.623,2.529,2.529,0,0,0,.145-.832Zm.075,1.938a5.179,5.179,0,0,1-.815.623,3.88,3.88,0,0,1-.89.14,1.57,1.57,0,0,1-1.112-.416,1.3,1.3,0,0,1-.371-1.037,1.084,1.084,0,0,1,.147-.694,1.479,1.479,0,0,1,.373-.554c.147-.069.369-.207.517-.278a6.251,6.251,0,0,0,.742-.138,4.728,4.728,0,0,0,1.334-.276v-.207a1.072,1.072,0,0,0-.22-.763,1.129,1.129,0,0,0-.892-.276,1.014,1.014,0,0,0-.741.209c-.224.137-.3.414-.444.759l-.742-.138a3.284,3.284,0,0,1,.371-.9,1.573,1.573,0,0,1,.666-.485,2.487,2.487,0,0,1,1.039-.209,2.926,2.926,0,0,1,.888.138,2.08,2.08,0,0,1,.6.416,3.033,3.033,0,0,1,.222.623v1.938c0,.834.074,1.317.074,1.524.075.278.075.485.222.623h-.815a1.294,1.294,0,0,1-.149-.623" transform="translate(-72.997 -249.663)" fill="#0064a4" fill-rule="evenodd"/>
    <rect id="Rectangle_1" data-name="Rectangle 1" width="0.815" height="7.131" transform="translate(68.251 127.2)" fill="#0064a4"/>
    <path id="Path_14" data-name="Path 14" d="M171.431,378.981V371.85h4.227v.9h-3.412V374.9h2.966v.9h-2.966v3.186Z" transform="translate(-98.656 -244.649)" fill="#0064a4" fill-rule="evenodd"/>
    <path id="Path_15" data-name="Path 15" d="M190.338,380.953h2.522a2.61,2.61,0,0,0-.3-.97,1.106,1.106,0,0,0-.965-.483,1.037,1.037,0,0,0-.89.345,1.689,1.689,0,0,0-.371,1.108m2.522,1.386.74.136a2.091,2.091,0,0,1-.666,1.248,2.2,2.2,0,0,1-2.891-.276,3.072,3.072,0,0,1-.595-1.94,3.006,3.006,0,0,1,.595-2.007,1.955,1.955,0,0,1,3.039-.071,3.289,3.289,0,0,1,.593,2.009v.209h-3.412a2.031,2.031,0,0,0,.446,1.315,1.026,1.026,0,0,0,.965.485,1.124,1.124,0,0,0,.666-.278,1.539,1.539,0,0,0,.521-.83" transform="translate(-111.78 -249.668)" fill="#0064a4" fill-rule="evenodd"/>
    <path id="Path_16" data-name="Path 16" d="M208.29,384v-5.124h.742v.694a1.461,1.461,0,0,1,1.409-.83,1.324,1.324,0,0,1,.742.205,1.009,1.009,0,0,1,.519.416,2.171,2.171,0,0,1,.222.623,2.919,2.919,0,0,1,.074.9V384h-.815v-3.115a2.651,2.651,0,0,0-.074-.83,1.448,1.448,0,0,0-.3-.416,1.466,1.466,0,0,0-.521-.14,1.423,1.423,0,0,0-.89.349,2.187,2.187,0,0,0-.295,1.384V384Z" transform="translate(-125.506 -249.668)" fill="#0064a4" fill-rule="evenodd"/>
    <path id="Path_17" data-name="Path 17" d="M226.037,380.953h2.522a1.3,1.3,0,0,0-.3-.97.986.986,0,0,0-.89-.483,1.033,1.033,0,0,0-.89.345,2.243,2.243,0,0,0-.446,1.108m2.522,1.386.815.136a2.588,2.588,0,0,1-.668,1.248,2.17,2.17,0,0,1-1.334.416,1.822,1.822,0,0,1-1.558-.692,3.071,3.071,0,0,1-.593-1.94,3.006,3.006,0,0,1,.593-2.007,1.876,1.876,0,0,1,1.558-.761,2.116,2.116,0,0,1,1.481.69,3.281,3.281,0,0,1,.521,2.009v.209h-3.337a2.043,2.043,0,0,0,.371,1.315,1.191,1.191,0,0,0,.964.485,1.36,1.36,0,0,0,.741-.278,1.164,1.164,0,0,0,.446-.83" transform="translate(-137.84 -249.668)" fill="#0064a4" fill-rule="evenodd"/>
    <path id="Path_18" data-name="Path 18" d="M242.972,382.472l.74-.138a1.462,1.462,0,0,0,.371.828,1.225,1.225,0,0,0,.815.28.8.8,0,0,0,.741-.28.649.649,0,0,0,.074-1.037,8.167,8.167,0,0,0-.815-.276c-.519-.209-.963-.347-1.186-.416a.962.962,0,0,1-.446-.483,1.281,1.281,0,0,1-.22-.694,1.982,1.982,0,0,1,.146-.694c.149-.138.224-.345.373-.483a3.316,3.316,0,0,1,.519-.207,2.239,2.239,0,0,1,.668-.14,2.17,2.17,0,0,1,.962.207,1.3,1.3,0,0,1,.6.485,3.473,3.473,0,0,1,.22.763l-.74.138a.851.851,0,0,0-.3-.623.939.939,0,0,0-.668-.207c-.371,0-.593,0-.741.138a.592.592,0,0,0-.3.483c0,.14.074.209.149.349a1,1,0,0,0,.295.205,3.326,3.326,0,0,1,.668.209c.519.209.89.345,1.114.416a1.665,1.665,0,0,1,.516.483,1.185,1.185,0,0,1,.149.761,1.318,1.318,0,0,1-.224.763,1.631,1.631,0,0,1-.591.623,2.16,2.16,0,0,1-.964.207,1.888,1.888,0,0,1-1.334-.414,2.021,2.021,0,0,1-.593-1.246" transform="translate(-150.77 -249.663)" fill="#0064a4" fill-rule="evenodd"/>
    <path id="Path_19" data-name="Path 19" d="M260.606,378.774l.149.763a1.97,1.97,0,0,1-.593.069c-.3,0-.52,0-.666-.14a.634.634,0,0,1-.3-.414,3.02,3.02,0,0,1-.073-.972V375.1h-.6v-.69h.6V373.1l.741-.485v1.8h.741v.69h-.741v3.462c.075.071.075.142.147.209.075,0,.149.069.3.069.074,0,.147-.069.295-.069" transform="translate(-162.103 -245.204)" fill="#0064a4" fill-rule="evenodd"/>
    <path id="Path_20" data-name="Path 20" d="M268.91,384v-5.124h.666v.763c.224-.347.371-.623.521-.694a.7.7,0,0,1,.518-.205,1.1,1.1,0,0,1,.743.276l-.222.832a1.017,1.017,0,0,0-.595-.209.648.648,0,0,0-.444.209c-.149.067-.222.276-.3.485a3.776,3.776,0,0,0-.149.966V384Z" transform="translate(-169.664 -249.668)" fill="#0064a4" fill-rule="evenodd"/>
    <path id="Path_21" data-name="Path 21" d="M281.852,381.433a5.563,5.563,0,0,1-1.259.345,4.687,4.687,0,0,0-.668.14c-.074.069-.224.207-.3.278a1.052,1.052,0,0,0,.147,1.037.952.952,0,0,0,.669.207,1.587,1.587,0,0,0,.815-.207,1.509,1.509,0,0,0,.517-.623,2.672,2.672,0,0,0,.074-.832Zm.075,1.938a3.133,3.133,0,0,1-.815.623,2.775,2.775,0,0,1-.815.14,1.371,1.371,0,0,1-1.558-1.453,1.966,1.966,0,0,1,.147-.694,1.485,1.485,0,0,1,.373-.554,4.7,4.7,0,0,1,.591-.278,3.826,3.826,0,0,0,.668-.138,4.728,4.728,0,0,0,1.334-.276v-.207a1.072,1.072,0,0,0-.22-.763.958.958,0,0,0-.817-.276,1.234,1.234,0,0,0-.815.209,1.487,1.487,0,0,0-.371.759l-.743-.138a3.271,3.271,0,0,1,.3-.9,1.562,1.562,0,0,1,.666-.485,2.487,2.487,0,0,1,1.039-.209,3.488,3.488,0,0,1,.962.138,3.3,3.3,0,0,1,.521.416.812.812,0,0,1,.222.623,2,2,0,0,1,.075.761v2.7a2.941,2.941,0,0,0,.222.623h-.815a1.3,1.3,0,0,1-.149-.623" transform="translate(-176.824 -249.663)" fill="#0064a4" fill-rule="evenodd"/>
    <path id="Path_22" data-name="Path 22" d="M298.015,378.774l.149.763a1.976,1.976,0,0,1-.593.069c-.3,0-.52,0-.668-.14a.639.639,0,0,1-.3-.414,3.02,3.02,0,0,1-.073-.972V375.1h-.595v-.69h.595V373.1l.741-.485v1.8h.741v.69h-.741v3.462c.075.071.075.142.147.209.075,0,.149.069.3.069.074,0,.147-.069.295-.069" transform="translate(-189.353 -245.204)" fill="#0064a4" fill-rule="evenodd"/>
    <path id="Path_23" data-name="Path 23" d="M306.318,373.859h.815v5.122h-.815Zm0-2.009h.815v1.039h-.815Z" transform="translate(-196.914 -244.649)" fill="#0064a4" fill-rule="evenodd"/>
    <path id="Path_24" data-name="Path 24" d="M313.337,381.433a2.765,2.765,0,0,0,.371,1.524,1.442,1.442,0,0,0,.964.483,1.3,1.3,0,0,0,.965-.483,2.941,2.941,0,0,0,.371-1.524,2.347,2.347,0,0,0-.371-1.453,1.1,1.1,0,0,0-.965-.485,1.191,1.191,0,0,0-.964.485,2.5,2.5,0,0,0-.371,1.453m-.74,0a3.037,3.037,0,0,1,.666-2.147,2.1,2.1,0,0,1,1.41-.554,1.916,1.916,0,0,1,1.558.692,3.083,3.083,0,0,1,.593,1.94,3.245,3.245,0,0,1-.3,1.593,2.824,2.824,0,0,1-.741.9,2.022,2.022,0,0,1-1.112.278,1.77,1.77,0,0,1-1.481-.694,2.756,2.756,0,0,1-.595-2.007" transform="translate(-201.488 -249.663)" fill="#0064a4" fill-rule="evenodd"/>
    <path id="Path_25" data-name="Path 25" d="M331.437,384v-5.124h.666v.694a1.619,1.619,0,0,1,1.41-.83,1.581,1.581,0,0,1,.815.205,1,1,0,0,1,.52.416q.11.314.222.623V384h-.742v-3.115a2.651,2.651,0,0,0-.074-.83,1.484,1.484,0,0,0-.295-.416,1.87,1.87,0,0,0-.6-.14,1.229,1.229,0,0,0-.815.349,2.119,2.119,0,0,0-.371,1.384V384Z" transform="translate(-215.212 -249.668)" fill="#0064a4" fill-rule="evenodd"/>
    <path id="Path_26" data-name="Path 26" d="M93.608,412.011h1.78a2.938,2.938,0,0,0,.89-.14,1.7,1.7,0,0,0,.519-.485,1.293,1.293,0,0,0,.149-.623,1.063,1.063,0,0,0-.3-.83,1.528,1.528,0,0,0-1.039-.347h-2Zm-.815,3.947v-7.133H95.61a3.074,3.074,0,0,1,1.261.209,1.26,1.26,0,0,1,.666.69,2.424,2.424,0,0,1,.3,1.039,2.04,2.04,0,0,1-.446,1.317,1.972,1.972,0,0,1-1.334.621c.222.138.369.278.519.347a11.737,11.737,0,0,1,.668.97l1.039,1.94H97.242l-.817-1.455a11.9,11.9,0,0,0-.591-1.039,2.831,2.831,0,0,0-.373-.416.69.69,0,0,0-.369-.209,1.2,1.2,0,0,0-.519-.067h-.965v3.186Z" transform="translate(-41.373 -271.584)" fill="#0064a4" fill-rule="evenodd"/>
    <path id="Path_27" data-name="Path 27" d="M117.826,418.409a10.964,10.964,0,0,1-1.261.276,1.7,1.7,0,0,0-.666.209.563.563,0,0,0-.3.276.961.961,0,0,0-.147.416.761.761,0,0,0,.222.554.742.742,0,0,0,.668.276,1.55,1.55,0,0,0,.817-.209,2.161,2.161,0,0,0,.517-.621,2.558,2.558,0,0,0,.149-.9Zm0,1.94a1.547,1.547,0,0,1-.815.552,1.58,1.58,0,0,1-.815.209,1.338,1.338,0,0,1-1.112-.418,1.4,1.4,0,0,1-.446-1.106,2.339,2.339,0,0,1,.147-.692,1.458,1.458,0,0,1,.444-.485,1.2,1.2,0,0,1,.521-.276,4.772,4.772,0,0,1,.666-.14,11.343,11.343,0,0,0,1.41-.278v-.276a.88.88,0,0,0-.222-.692,1.276,1.276,0,0,0-.89-.345,1.254,1.254,0,0,0-.815.205,1.517,1.517,0,0,0-.371.763l-.743-.069a2.167,2.167,0,0,1,.3-.9,2.812,2.812,0,0,1,.74-.556,4,4,0,0,1,.965-.138,3.094,3.094,0,0,1,.962.138c.224.138.446.209.52.416a.759.759,0,0,1,.22.554,2.221,2.221,0,0,1,.075.832v1.175a6.772,6.772,0,0,0,.074,1.526,1.887,1.887,0,0,0,.149.621h-.815c-.074-.207-.074-.414-.149-.621" transform="translate(-57.286 -276.598)" fill="#0064a4" fill-rule="evenodd"/>
    <path id="Path_28" data-name="Path 28" d="M133.988,415.565l.075.763a1.8,1.8,0,0,1-.6.067,1.188,1.188,0,0,1-.591-.138.924.924,0,0,1-.371-.414,3.209,3.209,0,0,1-.074-1.041v-2.977h-.593v-.69h.593v-1.25l.742-.552v1.8h.815v.69h-.815v3.048c0,.278,0,.414.075.485a.23.23,0,0,0,.072.138c.073.069.147.069.3.069h.371" transform="translate(-69.814 -271.954)" fill="#0064a4" fill-rule="evenodd"/>
    <path id="Path_29" data-name="Path 29" d="M142.492,410.765h.74v5.193h-.74Zm0-1.94h.74v1.041h-.74Z" transform="translate(-77.576 -271.584)" fill="#0064a4" fill-rule="evenodd"/>
    <path id="Path_30" data-name="Path 30" d="M149.587,420.972v-5.195h.666v.763a1.62,1.62,0,0,1,1.41-.832,3.361,3.361,0,0,1,.815.138.957.957,0,0,1,.446.485,1.26,1.26,0,0,1,.295.623v4.018h-.74v-3.119a2.628,2.628,0,0,0-.075-.828,1.856,1.856,0,0,0-.369-.418.661.661,0,0,0-.52-.138.978.978,0,0,0-.815.347,1.911,1.911,0,0,0-.371,1.317v2.839Z" transform="translate(-82.744 -276.598)" fill="#0064a4" fill-rule="evenodd"/>
    <path id="Path_31" data-name="Path 31" d="M167.055,418.271a2.822,2.822,0,0,0,.3,1.522,1.446,1.446,0,0,0,.888.485,1.149,1.149,0,0,0,.892-.485,3.043,3.043,0,0,0,0-2.906.992.992,0,0,0-1.706,0,1.964,1.964,0,0,0-.369,1.384m-.668,3.115.742.138c.073.28.147.485.295.556a.9.9,0,0,0,.744.276.968.968,0,0,0,.815-.276,1.016,1.016,0,0,0,.444-.625v-1.177a1.4,1.4,0,0,1-1.259.694,1.705,1.705,0,0,1-1.41-.761,2.983,2.983,0,0,1-.52-1.871,3.764,3.764,0,0,1,.224-1.317,1.943,1.943,0,0,1,.668-.968,1.452,1.452,0,0,1,1.039-.347,1.431,1.431,0,0,1,1.332.694v-.623h.745v4.5a4.684,4.684,0,0,1-.224,1.731,2.211,2.211,0,0,1-.668.761,2.118,2.118,0,0,1-1.184.278,1.819,1.819,0,0,1-1.261-.414,1.436,1.436,0,0,1-.52-1.248" transform="translate(-94.873 -276.598)" fill="#0064a4" fill-rule="evenodd"/>
    <path id="Path_32" data-name="Path 32" d="M198.215,413.089l.815.207a3.043,3.043,0,0,1-.89,1.8,2.681,2.681,0,0,1-3.263.14,2.849,2.849,0,0,1-.964-1.384,5,5,0,0,1-.371-1.871,5.065,5.065,0,0,1,.371-1.938,3.076,3.076,0,0,1,1.039-1.248,2.591,2.591,0,0,1,1.558-.485,2.473,2.473,0,0,1,1.555.556,2.676,2.676,0,0,1,.89,1.522l-.815.207a3.235,3.235,0,0,0-.591-1.106,1.853,1.853,0,0,0-1.039-.345,1.944,1.944,0,0,0-1.261.414,2.188,2.188,0,0,0-.668,1.037,7.962,7.962,0,0,0-.149,1.386,5.5,5.5,0,0,0,.224,1.593,1.946,1.946,0,0,0,.668.968,1.757,1.757,0,0,0,1.111.347,1.9,1.9,0,0,0,1.186-.414,2.464,2.464,0,0,0,.593-1.386" transform="translate(-114.763 -271.209)" fill="#0064a4" fill-rule="evenodd"/>
    <path id="Path_33" data-name="Path 33" d="M217.025,418.409a2.153,2.153,0,0,0,.371,1.453,1.021,1.021,0,0,0,.965.485.978.978,0,0,0,.89-.485,2.245,2.245,0,0,0,.371-1.522,2.159,2.159,0,0,0-.371-1.455,1.145,1.145,0,0,0-.89-.483,1.178,1.178,0,0,0-.965.483,2.251,2.251,0,0,0-.371,1.524m-.815,0a3.039,3.039,0,0,1,.666-2.147,2.3,2.3,0,0,1,1.485-.554,1.777,1.777,0,0,1,1.483.694,3.079,3.079,0,0,1,.593,1.938,4.165,4.165,0,0,1-.224,1.522,2,2,0,0,1-.815.9,1.853,1.853,0,0,1-1.037.347,2.019,2.019,0,0,1-1.557-.694,3.277,3.277,0,0,1-.593-2.007" transform="translate(-131.275 -276.598)" fill="#0064a4" fill-rule="evenodd"/>
    <path id="Path_34" data-name="Path 34" d="M238.018,421.157v-.763a1.564,1.564,0,0,1-1.41.9,1.317,1.317,0,0,1-.74-.207,1.026,1.026,0,0,1-.519-.414,1.127,1.127,0,0,1-.222-.694,2.005,2.005,0,0,1-.074-.761v-3.255h.74v2.91c0,.414.075.759.075.9a1.366,1.366,0,0,0,.3.554.871.871,0,0,0,.591.209,1.244,1.244,0,0,0,.666-.209,1.509,1.509,0,0,0,.373-.554,3.2,3.2,0,0,0,.147-1.039v-2.77h.741v5.195Z" transform="translate(-145 -276.783)" fill="#0064a4" fill-rule="evenodd"/>
    <path id="Path_35" data-name="Path 35" d="M253.068,420.972v-5.195h.668v.763a1.54,1.54,0,0,1,1.408-.832,2.342,2.342,0,0,1,.743.138,1.125,1.125,0,0,1,.518.485.816.816,0,0,1,.222.623,2.24,2.24,0,0,1,.074.832v3.186h-.74v-3.119c0-.345-.075-.623-.075-.828a1.828,1.828,0,0,0-.371-.418.659.659,0,0,0-.519-.138.981.981,0,0,0-.817.347c-.295.209-.369.692-.369,1.317v2.839Z" transform="translate(-158.124 -276.598)" fill="#0064a4" fill-rule="evenodd"/>
    <path id="Path_36" data-name="Path 36" d="M273.19,419.1l.742.069a1.949,1.949,0,0,1-.668,1.384,1.628,1.628,0,0,1-1.261.556,1.983,1.983,0,0,1-1.481-.692,3.273,3.273,0,0,1-.52-2.009,4.352,4.352,0,0,1,.222-1.455,1.715,1.715,0,0,1,.741-.97,2.108,2.108,0,0,1,2.3.14,2.029,2.029,0,0,1,.593,1.177l-.742.138a1.535,1.535,0,0,0-.369-.761.933.933,0,0,0-.668-.276,1.1,1.1,0,0,0-.964.485,3.319,3.319,0,0,0,0,3.044,1.086,1.086,0,0,0,.89.418.9.9,0,0,0,.742-.276,1.756,1.756,0,0,0,.444-.972" transform="translate(-170.46 -276.598)" fill="#0064a4" fill-rule="evenodd"/>
    <path id="Path_37" data-name="Path 37" d="M286.934,410.765h.741v5.193h-.741Zm0-1.94h.741v1.041h-.741Z" transform="translate(-182.794 -271.584)" fill="#0064a4" fill-rule="evenodd"/>
    <rect id="Rectangle_2" data-name="Rectangle 2" width="0.815" height="7.133" transform="translate(105.993 137.241)" fill="#0064a4"/>
    <path id="Path_38" data-name="Path 38" d="M305.994,412.008c.634,0,.931.168.931.6s-.288.569-.914.569h-.593v-1.171Zm.106-.37h-1.252v3.38h.569v-1.468h.716l.707,1.468h.634l-.755-1.55a.877.877,0,0,0,.791-.9c0-.634-.47-.933-1.41-.933m2.529,1.755a2.5,2.5,0,0,1-.759,1.813,2.615,2.615,0,0,1-1.86.767,2.536,2.536,0,0,1-1.82-.767,2.583,2.583,0,0,1,.015-3.691,2.5,2.5,0,0,1,1.813-.741,2.589,2.589,0,0,1,2.611,2.619m-2.611-2.975a2.836,2.836,0,0,0-2.059.851,2.967,2.967,0,0,0-.89,2.108,2.987,2.987,0,0,0,2.949,2.96,3.005,3.005,0,0,0,2.1-.884,2.828,2.828,0,0,0,.856-2.076,2.936,2.936,0,0,0-2.956-2.958" transform="translate(-194.547 -272.745)" fill="#0064a4"/>
    <rect id="Rectangle_3" data-name="Rectangle 3" width="86.753" height="1.544" transform="translate(35.998 148.068)" fill="#ea6e04"/>
    <rect id="Rectangle_4" data-name="Rectangle 4" width="86.753" height="1.544" transform="translate(35.998 151.767)" fill="#0064a4"/>
  </g>
</svg>
