<svg id="Layer_1" data-name="Layer 1" xmlns="http://www.w3.org/2000/svg" xmlns:xlink="http://www.w3.org/1999/xlink" viewBox="0 0 169.67 146.94"><defs><style>.cls-1,.cls-5{fill:#fff;}.cls-2{fill:#d0d2d3;}.cls-2,.cls-3{opacity:0.6;}.cls-3{fill:url(#linear-gradient);}.cls-4{fill:#414142;opacity:0.2;}.cls-5{opacity:0.13;}</style><linearGradient id="linear-gradient" x1="1.46" y1="73.46" x2="168.21" y2="73.46" gradientUnits="userSpaceOnUse"><stop offset="0" stop-color="#d5d9d3"/><stop offset="0.21" stop-color="#e9ebe4"/><stop offset="0.82" stop-color="#e6eae6"/><stop offset="1" stop-color="#d5d9d3"/></linearGradient></defs><path class="cls-1" d="M127.25,0H42.42L0,73.47l42.42,73.47h84.83l42.42-73.47ZM121.4,136.81H48.27L11.7,73.47,48.27,10.13H121.4L158,73.47Z"/><path class="cls-2" d="M127.25,0H42.42L0,73.47l42.42,73.47h84.83l42.42-73.47ZM121.4,136.81H48.27L11.7,73.47,48.27,10.13H121.4L158,73.47Z"/><path class="cls-2" d="M168.2,73.48h0l0,0h0L126.52,2.16H43.15L1.47,73.46h0v.89l41.69,72.21h83.37l41.69-72.21ZM48.27,10.13H121.4L158,73.47,121.4,136.81H48.27L11.7,73.47Z"/><path class="cls-1" d="M168.2,73.46h0l0,0h0L126.53,1.3v0H43.15l0,0L1.47,73.46h0l.13.21,41.54,72v0h83.37v0l0,0L168.2,73.47ZM48.27,10.13H121.4L158,73.47,121.4,136.81H48.27L11.7,73.47Z"/><path class="cls-3" d="M126.52,1.25H43.15L1.46,73.46h0l.11.2h0l41.56,72h83.38v0L168.2,73.48v0ZM48.27,136.81,11.7,73.47,48.27,10.13H121.4L158,73.47,121.4,136.81Z"/><polygon class="cls-1" points="121.39 136.84 121.41 136.82 121.67 136.84 126.59 145.35 126.54 145.67 126.28 145.65 121.34 137.17 121.39 136.84"/><polygon class="cls-4" points="121.4 136.83 126.54 145.67 126.28 145.65 121.33 137.16 121.4 136.83"/><polygon class="cls-1" points="43.14 145.65 43.16 145.67 43.4 145.65 48.34 137.15 48.29 136.82 48.01 136.84 43.09 145.33 43.14 145.65"/><polygon class="cls-4" points="43.15 145.66 48.29 136.82 48.01 136.84 43.09 145.34 43.15 145.66"/><polygon class="cls-1" points="1.46 73.47 1.46 73.49 1.59 73.7 11.42 73.67 11.68 73.46 11.53 73.23 1.71 73.27 1.46 73.47"/><polygon class="cls-4" points="1.46 73.48 11.68 73.46 11.53 73.23 1.7 73.27 1.46 73.48"/><polygon class="cls-1" points="157.98 73.47 157.97 73.49 158.12 73.71 167.95 73.67 168.2 73.46 168.05 73.24 158.24 73.26 157.98 73.47"/><polygon class="cls-4" points="157.97 73.48 168.2 73.46 168.05 73.24 158.23 73.26 157.97 73.48"/><polygon class="cls-1" points="48.28 10.11 48.27 10.12 48.01 10.1 43.09 1.59 43.14 1.27 43.4 1.29 48.34 9.77 48.28 10.11"/><polygon class="cls-4" points="48.27 10.11 43.14 1.27 43.4 1.29 48.34 9.78 48.27 10.11"/><polygon class="cls-1" points="126.53 1.29 126.52 1.27 126.27 1.29 121.33 9.79 121.39 10.12 121.66 10.1 126.58 1.61 126.53 1.29"/><polygon class="cls-4" points="126.53 1.28 121.39 10.12 121.66 10.1 126.59 1.6 126.53 1.28"/><polygon class="cls-5" points="133.31 31.2 36.06 115.52 11.68 73.3 48.16 10.11 121.13 10.11 133.31 31.2"/></svg>