<svg id="Layer_1" data-name="Layer 1" xmlns="http://www.w3.org/2000/svg" xmlns:xlink="http://www.w3.org/1999/xlink" viewBox="0 0 208.41 134.29"><defs><style>.cls-1{fill:#f3f3f3;}.cls-2,.cls-20,.cls-4{opacity:0.6;}.cls-3{fill:url(#linear-gradient);}.cls-4{fill:url(#linear-gradient-2);}.cls-5{fill:#0c3b5e;}.cls-11,.cls-6{fill:#d3d5d2;}.cls-7{fill:#e6e7e7;}.cls-26,.cls-8{fill:#fff;}.cls-17,.cls-9{fill:#414142;}.cls-11,.cls-16,.cls-9{opacity:0.2;}.cls-10{fill:#bbbdbf;}.cls-12{fill:url(#linear-gradient-3);}.cls-13{fill:url(#linear-gradient-4);}.cls-14{fill:url(#linear-gradient-5);}.cls-15{fill:url(#linear-gradient-6);}.cls-18{fill:url(#linear-gradient-7);}.cls-19{fill:url(#radial-gradient);}.cls-20{fill:url(#linear-gradient-8);}.cls-21{fill:url(#linear-gradient-9);}.cls-22{fill:url(#linear-gradient-10);}.cls-23{fill:url(#linear-gradient-11);}.cls-24{fill:url(#linear-gradient-12);}.cls-25{fill:url(#linear-gradient-13);}.cls-26{opacity:0.03;}</style><linearGradient id="linear-gradient" x1="10.38" y1="58" x2="198.02" y2="58" gradientUnits="userSpaceOnUse"><stop offset="0" stop-color="#d5d9d3"/><stop offset="0.21" stop-color="#e9ebe4"/><stop offset="0.82" stop-color="#e6eae6"/><stop offset="1" stop-color="#d5d9d3"/></linearGradient><linearGradient id="linear-gradient-2" x1="16.74" y1="58.56" x2="191.65" y2="58.56" xlink:href="#linear-gradient"/><linearGradient id="linear-gradient-3" x1="-1077.28" y1="-457.09" x2="-1067.58" y2="-457.09" gradientTransform="matrix(1, 0, 0, -1.98, 1176.92, -784.93)" gradientUnits="userSpaceOnUse"><stop offset="0" stop-color="#d5d9d3"/><stop offset="0.52" stop-color="#e9ebe4"/><stop offset="1" stop-color="#d5d9d3"/></linearGradient><linearGradient id="linear-gradient-4" x1="-1079.49" y1="952.79" x2="-1065.36" y2="952.79" gradientTransform="translate(1176.92 -829.03)" xlink:href="#linear-gradient-3"/><linearGradient id="linear-gradient-5" x1="-1077.7" y1="950.94" x2="-1067.16" y2="950.94" gradientTransform="translate(1176.92 -829.03)" xlink:href="#linear-gradient"/><linearGradient id="linear-gradient-6" x1="1387.7" y1="-918.59" x2="1403.45" y2="-918.59" gradientTransform="translate(1695.49 -798.41) rotate(180) scale(1.14 1)" xlink:href="#linear-gradient"/><linearGradient id="linear-gradient-7" x1="-1077.28" y1="2146.91" x2="-1067.58" y2="2146.91" gradientTransform="translate(1176.92 -826.83) scale(1 0.44)" xlink:href="#linear-gradient"/><radialGradient id="radial-gradient" cx="90.6" cy="120.3" r="1.47" gradientUnits="userSpaceOnUse"><stop offset="0.2" stop-color="#d5d9d3"/><stop offset="0.81" stop-color="#e9ebe4"/><stop offset="1" stop-color="#d5d9d3"/></radialGradient><linearGradient id="linear-gradient-8" x1="0.01" y1="67.15" x2="208.4" y2="67.15" xlink:href="#linear-gradient"/><linearGradient id="linear-gradient-9" x1="1046.06" y1="448.7" x2="1053.96" y2="448.7" gradientTransform="matrix(0, -1, -1.98, 0, 1083.38, 1117.24)" xlink:href="#linear-gradient-3"/><linearGradient id="linear-gradient-10" x1="1044.26" y1="-841.57" x2="1055.76" y2="-841.57" gradientTransform="translate(-852.3 908.79)" xlink:href="#linear-gradient-3"/><linearGradient id="linear-gradient-11" x1="1045.72" y1="-843.07" x2="1054.3" y2="-843.07" gradientTransform="translate(-853.8 910.3)" xlink:href="#linear-gradient"/><linearGradient id="linear-gradient-12" x1="-465.96" y1="874.69" x2="-458.19" y2="874.69" gradientTransform="matrix(0, 1.14, -1, 0, 1069.9, 598.67)" xlink:href="#linear-gradient"/><linearGradient id="linear-gradient-13" x1="1046.06" y1="-1923.79" x2="1053.96" y2="-1923.79" gradientTransform="matrix(0, -1, 0.44, 0, 1041.48, 1117.24)" xlink:href="#linear-gradient"/></defs><path class="cls-1" d="M10.38,9.84l10.67,96.32h166.3L198,9.84ZM20.47,17.9H187.92l-8.29,83H28.76Z"/><g class="cls-2"><path class="cls-3" d="M10.38,9.84l10.67,96.32h166.3L198,9.84ZM20.47,17.9H187.92l-8.29,83H28.76Z"/></g><path class="cls-1" d="M15.42,14.15l9.34,88.59H183.64L193,14.15Zm5,3.75H187.92l-8.29,83H28.76Z"/><path class="cls-1" d="M15.42,14.15l9.34,88.59H183.64L193,14.15Zm5,3.75H187.92l-8.29,83H28.76Z"/><path class="cls-1" d="M16.74,15.28l9,86.56H182.66l9-86.56Zm12,85.65-8.29-83H187.92l-8.29,83Z"/><path class="cls-4" d="M16.74,15.28l9,86.56H182.66l9-86.56Zm12,85.65-8.29-83H187.92l-8.29,83Z"/><polygon class="cls-5" points="190.34 16.4 181.67 100.93 179.63 100.93 187.92 17.9 20.47 17.9 28.76 100.93 26.72 100.93 18.06 16.4 190.34 16.4"/><polygon class="cls-6" points="190.34 16.4 181.67 100.93 180.65 100.93 189.2 16.4 190.34 16.4"/><polygon class="cls-7" points="189.2 16.4 189.13 17.15 180.65 100.93 179.63 100.93 187.92 17.9 187.99 17.15 188.07 16.4 189.2 16.4"/><polygon class="cls-6" points="26.72 100.93 18.06 16.4 19.19 16.4 27.74 100.93 26.72 100.93"/><polygon class="cls-7" points="28.76 100.93 27.74 100.93 19.34 17.9 19.19 16.4 20.32 16.4 20.4 17.15 20.47 17.9 28.76 100.93"/><polygon class="cls-6" points="189.69 17.15 18.66 17.15 18.59 16.4 189.77 16.4 189.69 17.15"/><polygon class="cls-7" points="189.11 17.15 189.03 17.9 19.32 17.9 19.25 17.15 189.11 17.15"/><path class="cls-8" d="M0,0V134.29H208.4V0ZM10.38,9.84H198V124.46H10.38Z"/><polygon class="cls-8" points="8.31 125.96 8.32 125.98 8.32 126.21 0.23 134.29 0 134.29 0 134.04 8.07 125.97 8.31 125.96"/><polygon class="cls-9" points="8.31 125.97 0 134.29 0 134.04 8.08 125.96 8.31 125.97"/><polygon class="cls-8" points="8.31 8.32 8.32 8.31 8.32 8.08 0.23 0 0 0 0 0.25 8.07 8.32 8.31 8.32"/><polygon class="cls-9" points="8.31 8.32 0 0 0 0.25 8.08 8.33 8.31 8.32"/><polygon class="cls-10" points="198.02 124.46 10.38 124.46 8.32 125.97 200.08 125.97 198.02 124.46"/><polygon class="cls-11" points="10.38 9.84 198.02 9.84 200.08 8.33 8.32 8.33 10.38 9.84"/><polygon class="cls-6" points="10.38 9.84 10.38 124.46 8.32 125.97 8.32 8.33 10.38 9.84"/><rect class="cls-12" x="99.64" y="119.18" width="9.7" height="2.09"/><rect class="cls-13" x="97.43" y="122.55" width="14.13" height="2.43"/><rect class="cls-14" x="99.22" y="121.28" width="10.54" height="1.27"/><polygon class="cls-15" points="90.9 120.7 92.04 120.76 104.87 121.18 108.4 121.18 108.4 119.19 90.39 119.19 90.9 120.7"/><g class="cls-16"><path class="cls-17" d="M90.9,120.7a17.78,17.78,0,0,1,2.19,0l2.18.07,4.38.14,4.37.14c.73,0,1.46,0,2.19,0s1.46.06,2.19.09a42.67,42.67,0,0,1-4.38,0l-4.38-.14L95.27,121l-2.19-.07A12.26,12.26,0,0,1,90.9,120.7Z"/></g><polygon class="cls-18" points="108.92 118.95 100.07 118.95 99.64 119.18 109.34 119.18 108.92 118.95"/><circle class="cls-19" cx="90.6" cy="120.3" r="1.47"/><path class="cls-20" d="M0,0V134.29H208.4V0ZM10.38,9.84H198V124.46H10.38Z"/><polygon class="cls-6" points="198.02 9.84 198.02 124.46 200.08 125.97 200.08 8.33 198.02 9.84"/><rect class="cls-21" x="193.98" y="63.28" width="1.71" height="7.9"/><rect class="cls-22" x="191.96" y="66.24" width="11.51" height="1.98" transform="translate(130.49 264.94) rotate(-90)"/><rect class="cls-23" x="191.91" y="66.71" width="8.59" height="1.03" transform="translate(128.98 263.43) rotate(-90)"/><polygon class="cls-24" points="196.06 74.31 196.06 72.05 195.41 71.82 195.69 68.13 195.69 65.76 194.35 65.76 194.35 74.65 196.06 74.31"/><g class="cls-16"><polygon class="cls-17" points="196.06 74.31 195.97 73.18 195.97 72.05 196.03 72.13 195.38 71.9 195.32 71.88 195.32 71.81 195.6 68.13 195.6 68.13 195.6 66.95 195.69 65.76 195.78 66.95 195.78 68.13 195.78 68.14 195.77 68.14 195.49 71.83 195.44 71.74 196.09 71.97 196.14 71.99 196.14 72.05 196.14 73.18 196.06 74.31"/></g><polygon class="cls-25" points="193.79 63.62 193.79 70.83 193.98 71.18 193.98 63.28 193.79 63.62"/><polygon class="cls-8" points="200.08 125.98 200.09 125.97 200.32 125.97 208.41 134.06 208.41 134.29 208.16 134.29 200.08 126.21 200.08 125.98"/><polygon class="cls-9" points="200.09 125.98 208.41 134.29 208.16 134.29 200.08 126.21 200.09 125.98"/><polygon class="cls-8" points="200.08 8.31 200.09 8.32 200.32 8.32 208.41 0.23 208.41 0 208.16 0 200.08 8.08 200.08 8.31"/><polygon class="cls-9" points="200.09 8.31 208.41 0 208.16 0 200.08 8.08 200.09 8.31"/><polygon class="cls-26" points="28.74 100.17 187.85 17.9 20.54 17.9 28.74 100.17"/></svg>