<svg id="Layer_1" data-name="Layer 1" xmlns="http://www.w3.org/2000/svg" xmlns:xlink="http://www.w3.org/1999/xlink" viewBox="0 0 119.66 197.37"><defs><style>.cls-1,.cls-27{fill:#fff;}.cls-2{fill:url(#linear-gradient);}.cls-16,.cls-3,.cls-7,.cls-8{fill:#414142;}.cls-15,.cls-3,.cls-7{opacity:0.2;}.cls-4{fill:#0c3b5e;}.cls-5{fill:#f3f3f3;}.cls-26,.cls-6{opacity:0.6;}.cls-6{fill:url(#linear-gradient-2);}.cls-7{stroke:#6e6f71;stroke-miterlimit:10;stroke-width:0.17px;}.cls-24,.cls-8{opacity:0.05;}.cls-9{fill:#d3d5d2;}.cls-10{fill:url(#linear-gradient-3);}.cls-11{fill:url(#linear-gradient-4);}.cls-12{fill:url(#linear-gradient-5);}.cls-13{fill:url(#linear-gradient-6);}.cls-14{fill:url(#linear-gradient-7);}.cls-17{fill:url(#linear-gradient-8);}.cls-18{fill:url(#radial-gradient);}.cls-19{fill:url(#linear-gradient-9);}.cls-20{fill:url(#linear-gradient-10);}.cls-21{fill:url(#linear-gradient-11);}.cls-22{fill:url(#linear-gradient-12);}.cls-23{fill:url(#linear-gradient-13);}.cls-25{fill:#6e6f71;}.cls-26{fill:url(#linear-gradient-14);}.cls-27{opacity:0.03;}</style><linearGradient id="linear-gradient" x1="8.17" y1="98.68" x2="110.36" y2="98.68" gradientUnits="userSpaceOnUse"><stop offset="0" stop-color="#e5e9e6"/><stop offset="0.48" stop-color="#f1f4f4"/><stop offset="1" stop-color="#e5e9e6"/></linearGradient><linearGradient id="linear-gradient-2" x1="10.65" y1="98.68" x2="85.74" y2="98.68" gradientUnits="userSpaceOnUse"><stop offset="0" stop-color="#d5d9d3"/><stop offset="0.21" stop-color="#e9ebe4"/><stop offset="0.82" stop-color="#e6eae6"/><stop offset="1" stop-color="#d5d9d3"/></linearGradient><linearGradient id="linear-gradient-3" x1="107.1" y1="98.68" x2="110.7" y2="98.68" gradientUnits="userSpaceOnUse"><stop offset="0" stop-color="#d5d9d3"/><stop offset="0.51" stop-color="#d0d4d1"/><stop offset="1" stop-color="#d5d9d3"/></linearGradient><linearGradient id="linear-gradient-4" x1="54.84" y1="183.3" x2="64.37" y2="183.3" gradientUnits="userSpaceOnUse"><stop offset="0" stop-color="#d5d9d3"/><stop offset="0.52" stop-color="#e9ebe4"/><stop offset="1" stop-color="#d5d9d3"/></linearGradient><linearGradient id="linear-gradient-5" x1="52.67" y1="186.77" x2="66.55" y2="186.77" xlink:href="#linear-gradient-4"/><linearGradient id="linear-gradient-6" x1="54.43" y1="184.96" x2="64.79" y2="184.96" xlink:href="#linear-gradient-2"/><linearGradient id="linear-gradient-7" x1="45.75" y1="183.26" x2="63.45" y2="183.26" xlink:href="#linear-gradient-2"/><linearGradient id="linear-gradient-8" x1="54.84" y1="182.16" x2="64.37" y2="182.16" xlink:href="#linear-gradient-2"/><radialGradient id="radial-gradient" cx="45.96" cy="183.37" r="1.44" gradientUnits="userSpaceOnUse"><stop offset="0.2" stop-color="#d5d9d3"/><stop offset="0.81" stop-color="#e9ebe4"/><stop offset="1" stop-color="#d5d9d3"/></radialGradient><linearGradient id="linear-gradient-9" x1="104.02" y1="97.99" x2="105.7" y2="97.99" xlink:href="#linear-gradient-4"/><linearGradient id="linear-gradient-10" x1="106.71" y1="97.99" x2="108.66" y2="97.99" xlink:href="#linear-gradient-4"/><linearGradient id="linear-gradient-11" x1="105.7" y1="97.99" x2="106.71" y2="97.99" xlink:href="#linear-gradient-2"/><linearGradient id="linear-gradient-12" x1="104.39" y1="100.91" x2="106.06" y2="100.91" xlink:href="#linear-gradient-2"/><linearGradient id="linear-gradient-13" x1="103.84" y1="97.99" x2="104.02" y2="97.99" xlink:href="#linear-gradient-2"/><linearGradient id="linear-gradient-14" x1="0" y1="98.68" x2="119.66" y2="98.68" xlink:href="#linear-gradient-2"/></defs><path class="cls-1" d="M0,0V197.36H119.66V0ZM107.1,186.83H10.65V10.74H107.1Z"/><path class="cls-2" d="M105.42,102.5l0-.63h.23V94.11H104l-.18.33v7.09l.18.34h.37v3.41l1.67-.34v-2.22ZM64,182.05h-8.7l-.42.23H46.91a1.46,1.46,0,0,0-.95-.35,1.44,1.44,0,1,0,1.37,1.89h0l7.47.24v.27h9.53v-2.05Zm41.46-79.55,0-.63h.23V94.11H104l-.18.33v7.09l.18.34h.37v3.41l1.67-.34v-2.22ZM55.26,182.05l-.42.23H46.91a1.46,1.46,0,0,0-.95-.35,1.44,1.44,0,1,0,1.37,1.89h0l7.47.24v.27h9.53v-2.05l-.41-.23ZM8.17,8.17v181H110.36V8.17ZM66.55,186.74v-1.16H64.79v-1.25h-.42v-2.05l-.41-.23h-8.7l-.42.23H46.91a1.46,1.46,0,0,0-.95-.35,1.44,1.44,0,1,0,1.37,1.89h0l7.47.24v.27h-.41v1.25H52.67v1.16H11.31L85.47,176.4l.27,0V21l-.27,0L12.15,10.74H107.1V92.33h-.39v1.44h-1v.34H104l-.18.33v7.09l.18.34h.37v3.41l1.67-.34v-2.22l-.64-.22,0-.63h.23v.33h1v1.44h.39v83.1ZM16.9,179V18.47l64.7,9V170.69ZM64,182.05h-8.7l-.42.23H46.91a1.46,1.46,0,0,0-.95-.35,1.44,1.44,0,1,0,1.37,1.89h0l7.47.24v.27h9.53v-2.05Zm41.46-79.55,0-.63h.23V94.11H104l-.18.33v7.09l.18.34h.37v3.41l1.67-.34v-2.22Z"/><polygon class="cls-1" points="8.16 189.19 8.17 189.2 8.17 189.42 0.23 197.37 0 197.37 0 197.12 7.93 189.19 8.16 189.19"/><polygon class="cls-3" points="8.17 189.19 0 197.37 0 197.12 7.94 189.18 8.17 189.19"/><polygon class="cls-1" points="8.18 8.16 8.17 8.17 7.94 8.17 0 0.23 0 0 0.24 0 8.18 7.93 8.18 8.16"/><polygon class="cls-3" points="8.17 8.17 0 0 0.24 0 8.19 7.94 8.17 8.17"/><polygon class="cls-1" points="110.49 189.19 110.48 189.2 110.48 189.42 119.43 197.37 119.66 197.37 119.66 197.12 110.72 189.19 110.49 189.19"/><polygon class="cls-3" points="110.49 189.19 119.66 197.37 119.66 197.12 110.72 189.18 110.49 189.19"/><polygon class="cls-1" points="110.48 8.16 110.49 8.17 110.72 8.17 119.66 0.23 119.66 0 119.42 0 110.48 7.93 110.48 8.16"/><polygon class="cls-3" points="110.48 8.17 119.66 0 119.42 0 110.47 7.94 110.48 8.17"/><path class="cls-4" d="M105.42,102.5l0-.63h.23V94.11H104l-.18.33v7.09l.18.34h.37v3.41l1.67-.34v-2.22ZM64,182.05h-8.7l-.42.23H46.91a1.46,1.46,0,0,0-.95-.35,1.44,1.44,0,1,0,1.37,1.89h0l7.47.24v.27h9.53v-2.05Zm41.46-79.55,0-.63h.23V94.11H104l-.18.33v7.09l.18.34h.37v3.41l1.67-.34v-2.22ZM55.26,182.05l-.42.23H46.91a1.46,1.46,0,0,0-.95-.35,1.44,1.44,0,1,0,1.37,1.89h0l7.47.24v.27h9.53v-2.05l-.41-.23ZM8.17,8.17v181H110.7V8.17ZM66.55,186.74v-1.16H64.79v-1.25h-.42v-2.05l-.41-.23h-8.7l-.42.23H46.91a1.46,1.46,0,0,0-.95-.35,1.44,1.44,0,1,0,1.37,1.89h0l7.47.24v.27h-.41v1.25H52.67v1.16H11.31L85.47,176.4l.27,0V21l-.27,0L12.15,10.74H107.1V92.33h-.39v1.44h-1v.34H104l-.18.33v7.09l.18.34h.37v3.41l1.67-.34v-2.22l-.64-.22,0-.63h.23v.33h1v1.44h.39v83.1ZM16.9,179V18.47l64.7,9V170.69ZM64,182.05h-8.7l-.42.23H46.91a1.46,1.46,0,0,0-.95-.35,1.44,1.44,0,1,0,1.37,1.89h0l7.47.24v.27h9.53v-2.05Zm41.46-79.55,0-.63h.23V94.11H104l-.18.33v7.09l.18.34h.37v3.41l1.67-.34v-2.22Z"/><path class="cls-5" d="M12.15,10.74l-.84-.11-.66-.1v176.3l.66-.09L85.47,176.4V21Zm69.45,160L16.9,179V18.47l64.7,9Z"/><path class="cls-6" d="M85.47,21,12.15,10.74l-.84-.11-.66-.1v176.3l.66-.09L85.47,176.4l.27,0V21ZM81.6,170.69,16.9,179V18.47l64.7,9Z"/><path class="cls-5" d="M14.83,15.7v166l68.43-9V24.74Zm66.77,155L16.9,179V18.47l64.7,9Z"/><polygon class="cls-1" points="81.6 170.69 81.6 170.7 16.9 179 81.6 170.69"/><polygon class="cls-7" points="110.7 189.19 8.17 189.19 8.17 186.74 107.1 186.74 110.36 188.96 110.68 189.18 110.68 189.19 110.7 189.19"/><polygon class="cls-8" points="8.17 10.63 8.17 8.17 110.7 8.17 107.1 10.63 8.17 10.63"/><polygon class="cls-9" points="8.2 8.17 10.65 10.74 10.65 186.63 8.2 189.19 8.2 8.17"/><polygon class="cls-10" points="110.7 8.17 110.7 189.19 110.68 189.19 110.68 189.18 110.36 188.96 107.1 186.74 107.1 10.63 110.36 8.4 110.7 8.17"/><rect class="cls-11" x="54.84" y="182.28" width="9.53" height="2.06"/><rect class="cls-12" x="52.67" y="185.58" width="13.88" height="2.39"/><rect class="cls-13" x="54.43" y="184.33" width="10.36" height="1.25"/><polygon class="cls-14" points="63.45 182.28 63.45 184.23 59.98 184.23 54.84 184.06 47.37 183.82 47.33 183.82 46.25 183.76 45.75 182.28 63.45 182.28"/><g class="cls-15"><path class="cls-16" d="M63.45,184.23c-1.43.07-2.87.13-4.3.06l-4.3-.14L50.54,184l-2.15-.07-2.14-.17H48.4l2.15.07,4.3.14,4.3.14c.72,0,1.43,0,2.15,0Z"/></g><polygon class="cls-17" points="64.37 182.28 54.84 182.28 55.26 182.04 63.96 182.04 64.37 182.28"/><path class="cls-18" d="M47.4,183.37a1.33,1.33,0,0,1-.07.45,1.46,1.46,0,1,1,.07-.45Z"/><rect class="cls-19" x="104.02" y="94.11" width="1.67" height="7.76"/><rect class="cls-20" x="106.71" y="92.33" width="1.95" height="11.31"/><rect class="cls-21" x="105.7" y="93.77" width="1.02" height="8.43"/><polygon class="cls-22" points="106.06 102.72 106.06 104.94 104.39 105.28 104.39 96.55 105.7 96.55 105.7 98.88 105.47 101.87 105.42 102.5 106.06 102.72"/><g class="cls-15"><path class="cls-16" d="M105.7,96.54c0,.39.06.78.08,1.17v1.17h0l-.28,3.63,0-.09.64.22,0,0v1.17l-.08,1.11-.09-1.11v-1.11l.06.08-.64-.22-.06,0v-.07l.27-3.62h0V97.71C105.63,97.32,105.67,96.93,105.7,96.54Z"/></g><polygon class="cls-23" points="104.02 94.11 104.02 101.87 103.83 101.53 103.83 94.44 104.02 94.11"/><g class="cls-24"><rect class="cls-16" x="8.25" y="8.26" width="102.36" height="180.85"/><path class="cls-25" d="M110.53,8.34V189H8.34V8.34H110.53m.17-.17H8.17v181H110.7V8.17Z"/></g><path class="cls-26" d="M0,0V197.36H119.66V0ZM107.1,186.83H10.65V10.74H107.1Z"/><polygon class="cls-27" points="81.91 26.71 81.7 27.18 81.6 27.43 16.9 179 16.9 18.37 81.6 26.67 81.7 26.69 81.91 26.71"/></svg>