<svg xmlns="http://www.w3.org/2000/svg" width="779.944" height="666.852" viewBox="0 0 779.944 666.852">
  <g id="Group_1691" data-name="Group 1691" transform="translate(4 4)">
    <g id="Path_27" data-name="Path 27" transform="translate(-717.784 165.085)" fill="none">
      <path d="M768.294,442.115h668.33V281.3H1289.509V231.168h199.066v262.6H717.784V354.253h50.365S768.294,416.724,768.294,442.115Z" stroke="none"/>
      <path d="M 1488.5751953125 493.766357421875 L 1488.5751953125 231.16796875 L 1289.5087890625 231.16796875 L 1289.5087890625 281.3046569824219 L 1436.6240234375 281.3046569824219 L 1436.6240234375 442.1152648925781 L 768.2940063476562 442.1152648925781 C 768.2940063476562 416.723876953125 768.1494140625 354.2526550292969 768.1494140625 354.2526550292969 L 717.7841796875 354.2526550292969 L 717.7841796875 493.766357421875 L 1488.5751953125 493.766357421875 M 1492.5751953125 497.766357421875 L 1488.5751953125 497.766357421875 L 717.7841796875 497.766357421875 L 713.7841796875 497.766357421875 L 713.7841796875 493.766357421875 L 713.7841796875 354.2526550292969 L 713.7841796875 350.2526550292969 L 717.7841796875 350.2526550292969 L 768.1494140625 350.2526550292969 L 772.1401977539062 350.2526550292969 L 772.1494140625 354.2433776855469 C 772.1506958007812 354.837158203125 772.2801513671875 410.9928894042969 772.29296875 438.1152648925781 L 1432.6240234375 438.1152648925781 L 1432.6240234375 285.3046569824219 L 1289.5087890625 285.3046569824219 L 1285.5087890625 285.3046569824219 L 1285.5087890625 281.3046569824219 L 1285.5087890625 231.16796875 L 1285.5087890625 227.16796875 L 1289.5087890625 227.16796875 L 1488.5751953125 227.16796875 L 1492.5751953125 227.16796875 L 1492.5751953125 231.16796875 L 1492.5751953125 493.766357421875 L 1492.5751953125 497.766357421875 Z" stroke="none" fill="#c29fd8"/>
    </g>
    <g id="Path_28" data-name="Path 28" transform="translate(-717.749 -62.069)" fill="none">
      <path d="M1489.447,380.836h-51.491c0-16.267-.408-31.947.169-47.591.292-7.87-2.448-12.008-9.583-15.368-105.946-49.86-211.719-100.087-317.767-149.737-4.689-2.195-12.375-1.439-17.312.856-66.146,30.741-275.022,130.11-313.9,147.781-10.463,4.755-13.75,10.843-13.519,22.021,0,0,.737,111.709,1.065,118.108h148v50.146H717.8v-216.8c41.128-19.54,292.535-138.692,376.894-178.067,4.722-2.2,12.288-2.117,17.029.107,93.843,44.024,337.432,159.807,365.94,172.446,9.457,4.193,12.285,9.8,12.008,19.765C1488.983,329.4,1489.447,354.317,1489.447,380.836Z" stroke="none"/>
      <path d="M 915.1172485351562 507.0527038574219 L 915.1172485351562 456.9067077636719 L 767.1123046875 456.9067077636719 C 766.7842407226562 450.5078125 766.0469360351562 338.7992248535156 766.0469360351562 338.7992248535156 C 765.8154296875 327.6217041015625 769.1025390625 321.5340270996094 779.5654296875 316.7787170410156 C 818.44140625 299.1069030761719 1027.3173828125 199.7382202148438 1093.4638671875 168.997314453125 C 1096.363647460938 167.64892578125 1100.2109375 166.8320617675781 1103.84326171875 166.8320617675781 C 1106.394653320312 166.8320617675781 1108.840576171875 167.2354278564453 1110.775390625 168.1409149169922 C 1216.8232421875 217.7906188964844 1322.595703125 268.0171203613281 1428.5419921875 317.8774108886719 C 1435.6767578125 321.2369079589844 1438.4169921875 325.3751220703125 1438.125 333.2450256347656 C 1437.5478515625 348.8893127441406 1437.9560546875 364.568603515625 1437.9560546875 380.8358154296875 L 1489.447265625 380.8358154296875 C 1489.447265625 354.3168029785156 1488.9833984375 329.3953247070312 1489.6748046875 304.50830078125 C 1489.9521484375 294.5420227050781 1487.1240234375 288.9359130859375 1477.6669921875 284.742919921875 C 1449.158203125 272.1034240722656 1205.5693359375 156.3202209472656 1111.7265625 112.2966156005859 C 1109.304077148438 111.1606216430664 1106.14453125 110.5824966430664 1103.00341796875 110.5824966430664 C 1099.99658203125 110.5824966430664 1097.006469726562 111.1123886108398 1094.697265625 112.1899108886719 C 1010.338806152344 151.5648193359375 758.931640625 270.71630859375 717.8037109375 290.2566223144531 L 717.8037109375 507.0527038574219 L 915.1172485351562 507.0527038574219 M 919.1172485351562 511.0527038574219 L 915.1172485351562 511.0527038574219 L 717.8037109375 511.0527038574219 L 713.8037109375 511.0527038574219 L 713.8037109375 507.0527038574219 L 713.8037109375 290.2566223144531 L 713.8037109375 287.728515625 L 716.087158203125 286.6436157226562 C 752.7596435546875 269.22021484375 1007.835327148438 148.3190155029297 1093.00537109375 108.565315246582 C 1095.745971679688 107.2866134643555 1099.29638671875 106.5825119018555 1103.003295898438 106.5825119018555 C 1106.846313476562 106.5825119018555 1110.547485351562 107.3256149291992 1113.4248046875 108.6751174926758 C 1150.70068359375 126.1619110107422 1210.227783203125 154.3202209472656 1273.249755859375 184.1317138671875 C 1366.1171875 228.0612182617188 1462.146484375 273.486328125 1479.288208007812 281.0862121582031 C 1484.828735351562 283.542724609375 1488.478515625 286.5154113769531 1490.774291992188 290.4415283203125 C 1491.922973632812 292.4059143066406 1492.708862304688 294.5732116699219 1493.176879882812 297.0674133300781 C 1493.590942382812 299.2738037109375 1493.753295898438 301.7442016601562 1493.67333984375 304.61962890625 C 1493.184326171875 322.22021484375 1493.274291992188 339.6480102539062 1493.36962890625 358.09912109375 C 1493.40771484375 365.4896240234375 1493.447265625 373.1317138671875 1493.447265625 380.8358154296875 L 1493.447265625 384.8358154296875 L 1489.447265625 384.8358154296875 L 1437.9560546875 384.8358154296875 L 1433.9560546875 384.8358154296875 L 1433.9560546875 380.8358154296875 C 1433.9560546875 376.048828125 1433.920043945312 371.2450256347656 1433.88525390625 366.5994262695312 C 1433.799072265625 355.0867004394531 1433.717651367188 344.21240234375 1434.127685546875 333.0975036621094 C 1434.24462890625 329.9463195800781 1433.802734375 327.6933288574219 1432.736938476562 326.0062255859375 C 1431.674072265625 324.3239135742188 1429.799682617188 322.8908081054688 1426.838012695312 321.4963073730469 C 1385.7197265625 302.1452026367188 1343.940185546875 282.4144287109375 1303.536376953125 263.3333129882812 C 1239.835083007812 233.2497100830078 1173.965087890625 202.1419067382812 1109.079467773438 171.7635192871094 C 1107.796020507812 171.1629180908203 1105.936279296875 170.8320159912109 1103.843383789062 170.8320159912109 C 1100.813598632812 170.8320159912109 1097.564086914062 171.5020141601562 1095.150390625 172.6243133544922 C 1064.444702148438 186.8945159912109 1002.199157714844 216.3236083984375 942.0028076171875 244.7838134765625 C 873.2079467773438 277.3094177246094 802.0709228515625 310.9423217773438 781.220703125 320.4201049804688 C 776.7252197265625 322.4633178710938 773.8680419921875 324.6917114257812 772.2289428710938 327.4333190917969 C 770.6136474609375 330.135009765625 769.9404296875 333.6148071289062 770.0460205078125 338.7164001464844 L 770.046630859375 338.74462890625 L 770.0468139648438 338.7728271484375 C 770.0535888671875 339.7928771972656 770.6663818359375 432.2318725585938 771.0160522460938 452.9067077636719 L 915.1172485351562 452.9067077636719 L 919.1172485351562 452.9067077636719 L 919.1172485351562 456.9067077636719 L 919.1172485351562 507.0527038574219 L 919.1172485351562 511.0527038574219 Z" stroke="none" fill="#c29fd8"/>
    </g>
    <g id="Path_29" data-name="Path 29" transform="translate(-538.898 102.473)" fill="none">
      <path d="M861.4,344.739v84.319H812.746V197.93h48.2v93.292H986.983v-93.24h48.954V429.323H987.79V344.739Z" stroke="none"/>
      <path d="M 1035.9375 429.3232421875 L 1035.9375 197.9819488525391 L 986.9833984375 197.9819488525391 L 986.9833984375 291.222412109375 L 860.94140625 291.222412109375 L 860.94140625 197.9299163818359 L 812.74609375 197.9299163818359 L 812.74609375 429.057861328125 L 861.40234375 429.057861328125 L 861.40234375 344.7392578125 L 987.7900390625 344.7392578125 L 987.7900390625 429.3232421875 L 1035.9375 429.3232421875 M 1039.9375 433.3232421875 L 1035.9375 433.3232421875 L 987.7900390625 433.3232421875 L 983.7900390625 433.3232421875 L 983.7900390625 429.3232421875 L 983.7900390625 348.7392578125 L 865.40234375 348.7392578125 L 865.40234375 429.057861328125 L 865.40234375 433.057861328125 L 861.40234375 433.057861328125 L 812.74609375 433.057861328125 L 808.74609375 433.057861328125 L 808.74609375 429.057861328125 L 808.74609375 197.9299163818359 L 808.74609375 193.9299163818359 L 812.74609375 193.9299163818359 L 860.94140625 193.9299163818359 L 864.94140625 193.9299163818359 L 864.94140625 197.9299163818359 L 864.94140625 287.222412109375 L 982.9833984375 287.222412109375 L 982.9833984375 197.9819488525391 L 982.9833984375 193.9819488525391 L 986.9833984375 193.9819488525391 L 1035.9375 193.9819488525391 L 1039.9375 193.9819488525391 L 1039.9375 197.9819488525391 L 1039.9375 429.3232421875 L 1039.9375 433.3232421875 Z" stroke="none" fill="#c29fd8"/>
    </g>
    <g id="Group_6" data-name="Group 6" transform="translate(84.393 0)">
      <g id="Path_30" data-name="Path 30" transform="translate(-747.05 -93.76)" fill="none">
        <path d="M797.283,143.993h48.38v16.553l50.233-23.43V93.76H747.05V206.542l50.233-23.43Z" stroke="none"/>
        <path d="M 747.0498046875 93.75950622558594 L 747.0498046875 206.5414886474609 L 797.283203125 183.1114501953125 L 797.283203125 143.99267578125 L 845.6630859375 143.99267578125 L 845.6630859375 160.5457916259766 L 895.896484375 137.11572265625 L 895.896484375 93.75950622558594 L 885.630859375 93.75950622558594 L 845.6630859375 93.75950622558594 L 797.283203125 93.75950622558594 L 772.1669921875 93.75950622558594 L 747.0498046875 93.75950622558594 M 743.0498046875 89.75950622558594 L 747.0498046875 89.75950622558594 L 772.1669921875 89.75950622558594 L 797.283203125 89.75950622558594 L 845.6630859375 89.75950622558594 L 885.630859375 89.75950622558594 L 895.896484375 89.75950622558594 L 899.896484375 89.75950622558594 L 899.896484375 93.75950622558594 L 899.896484375 137.11572265625 L 899.896484375 139.6637420654297 L 897.5872802734375 140.7407836914062 L 847.3538818359375 164.1708526611328 L 841.6630859375 166.8251953125 L 841.6630859375 160.5457916259766 L 841.6630859375 147.99267578125 L 801.283203125 147.99267578125 L 801.283203125 183.1114501953125 L 801.283203125 185.6594696044922 L 798.9740600585938 186.7365112304688 L 748.7406005859375 210.1665649414062 L 743.0498046875 212.8208923339844 L 743.0498046875 206.5414886474609 L 743.0498046875 93.75950622558594 L 743.0498046875 89.75950622558594 Z" stroke="none" fill="#c29fd8"/>
      </g>
    </g>
  </g>
</svg>
