<svg xmlns="http://www.w3.org/2000/svg" width="165.5" height="26.907" viewBox="0 0 165.5 26.907">
  <g id="Group_1453" data-name="Group 1453" transform="translate(-23.085 -123.961)">
    <g id="Group_1414" data-name="Group 1414" transform="translate(61.768 143.246)">
      <path id="Path_9333" data-name="Path 9333" d="M79.457,152.238h1.737l1.526,4.99,1.653-5.011h1.389l1.653,5.011,1.526-4.99h1.695l-2.516,7.421H86.71l-1.663-4.821-1.663,4.821H81.973Z" transform="translate(-79.457 -152.112)" fill="#c29fd8"/>
      <path id="Path_9334" data-name="Path 9334" d="M99.138,152.248h1.622v7.369H99.138Z" transform="translate(-85.633 -152.122)" fill="#c29fd8"/>
      <path id="Path_9335" data-name="Path 9335" d="M105.72,152.248h1.495l3.453,4.537v-4.537h1.6v7.369h-1.379l-3.568-4.685v4.685h-1.6Z" transform="translate(-87.698 -152.122)" fill="#c29fd8"/>
      <path id="Path_9336" data-name="Path 9336" d="M119.373,152.248h2.873a4.352,4.352,0,0,1,1.584.279,3.741,3.741,0,0,1,1.243.773,3.442,3.442,0,0,1,.806,1.163,3.677,3.677,0,0,1,.284,1.448v.021a3.711,3.711,0,0,1-.284,1.453,3.417,3.417,0,0,1-.806,1.169,3.822,3.822,0,0,1-1.243.78,4.282,4.282,0,0,1-1.584.284h-2.873Zm2.873,5.906a2.493,2.493,0,0,0,.906-.158,1.95,1.95,0,0,0,.7-.452,2.136,2.136,0,0,0,.452-.7,2.343,2.343,0,0,0,.163-.895v-.021a2.39,2.39,0,0,0-.163-.894,2.1,2.1,0,0,0-.452-.705,2.011,2.011,0,0,0-.7-.458,2.437,2.437,0,0,0-.906-.163h-1.252v4.442Z" transform="translate(-91.982 -152.122)" fill="#c29fd8"/>
      <path id="Path_9337" data-name="Path 9337" d="M136.333,159.686a4.012,4.012,0,0,1-1.569-.3,3.887,3.887,0,0,1-1.237-.81,3.627,3.627,0,0,1-.811-1.2,3.781,3.781,0,0,1-.29-1.479v-.021a3.738,3.738,0,0,1,.294-1.479,3.776,3.776,0,0,1,2.059-2.032,4.265,4.265,0,0,1,3.142,0,3.9,3.9,0,0,1,1.237.81,3.619,3.619,0,0,1,.81,1.2,3.777,3.777,0,0,1,.29,1.479v.021a3.718,3.718,0,0,1-.3,1.479,3.77,3.77,0,0,1-2.057,2.031A4.054,4.054,0,0,1,136.333,159.686Zm.021-1.5a2.218,2.218,0,0,0,.9-.178,2.048,2.048,0,0,0,.7-.5,2.323,2.323,0,0,0,.453-.732,2.417,2.417,0,0,0,.163-.889v-.021a2.459,2.459,0,0,0-.163-.894,2.2,2.2,0,0,0-1.173-1.237,2.162,2.162,0,0,0-.895-.185,2.2,2.2,0,0,0-.9.179,2.053,2.053,0,0,0-.694.495,2.318,2.318,0,0,0-.453.732,2.41,2.41,0,0,0-.163.89v.021a2.443,2.443,0,0,0,.163.895,2.209,2.209,0,0,0,.463.737,2.236,2.236,0,0,0,.705.5A2.145,2.145,0,0,0,136.354,158.191Z" transform="translate(-96.078 -152.064)" fill="#c29fd8"/>
      <path id="Path_9338" data-name="Path 9338" d="M146.648,152.238h1.738l1.526,4.99,1.653-5.011h1.389l1.653,5.011,1.526-4.99h1.695l-2.516,7.421H153.9l-1.663-4.821-1.664,4.821h-1.411Z" transform="translate(-100.541 -152.112)" fill="#c29fd8"/>
      <path id="Path_9339" data-name="Path 9339" d="M168.628,159.674a4.883,4.883,0,0,1-1.653-.29,4.373,4.373,0,0,1-1.474-.889l.958-1.148A4.813,4.813,0,0,0,167.5,158a2.779,2.779,0,0,0,1.164.242,1.419,1.419,0,0,0,.784-.185.58.58,0,0,0,.279-.511v-.021a.632.632,0,0,0-.058-.279.59.59,0,0,0-.222-.226,2.3,2.3,0,0,0-.454-.211q-.29-.1-.755-.221a9.052,9.052,0,0,1-1.014-.305,2.836,2.836,0,0,1-.771-.416,1.682,1.682,0,0,1-.491-.616,2.141,2.141,0,0,1-.174-.916v-.021a2.135,2.135,0,0,1,.189-.91,2.07,2.07,0,0,1,.528-.7,2.358,2.358,0,0,1,.813-.453,3.269,3.269,0,0,1,1.04-.158,4.414,4.414,0,0,1,1.49.242,4.353,4.353,0,0,1,1.247.7l-.842,1.221a5.348,5.348,0,0,0-.968-.531,2.483,2.483,0,0,0-.948-.195,1.151,1.151,0,0,0-.71.184.562.562,0,0,0-.237.458v.021a.659.659,0,0,0,.069.311.616.616,0,0,0,.248.237,2.309,2.309,0,0,0,.491.2c.207.063.47.137.786.221a7.649,7.649,0,0,1,1,.331,2.82,2.82,0,0,1,.739.442,1.685,1.685,0,0,1,.453.605,2.053,2.053,0,0,1,.154.832v.021a2.28,2.28,0,0,1-.2.974,1.993,1.993,0,0,1-.554.716,2.482,2.482,0,0,1-.849.442A3.662,3.662,0,0,1,168.628,159.674Z" transform="translate(-106.456 -152.074)" fill="#c29fd8"/>
      <path id="Path_9340" data-name="Path 9340" d="M185.371,157.114h-1.906v-1.463h1.906v-1.884h1.495v1.884h1.906v1.463h-1.906v1.9h-1.495Z" transform="translate(-112.093 -152.598)" fill="#fff"/>
      <path id="Path_9341" data-name="Path 9341" d="M201.2,152.248h2.873a4.352,4.352,0,0,1,1.584.279,3.741,3.741,0,0,1,1.243.773,3.431,3.431,0,0,1,.8,1.163,3.665,3.665,0,0,1,.284,1.448v.021a3.7,3.7,0,0,1-.284,1.453,3.406,3.406,0,0,1-.8,1.169,3.822,3.822,0,0,1-1.243.78,4.282,4.282,0,0,1-1.584.284H201.2Zm2.873,5.906a2.493,2.493,0,0,0,.906-.158,1.951,1.951,0,0,0,.7-.452,2.147,2.147,0,0,0,.452-.7,2.343,2.343,0,0,0,.163-.895v-.021a2.39,2.39,0,0,0-.163-.894,2.108,2.108,0,0,0-.452-.705,2.011,2.011,0,0,0-.7-.458,2.437,2.437,0,0,0-.906-.163H202.82v4.442Z" transform="translate(-117.658 -152.122)" fill="#c29fd8"/>
      <path id="Path_9342" data-name="Path 9342" d="M218.159,159.686a4.012,4.012,0,0,1-1.569-.3,3.879,3.879,0,0,1-1.237-.81,3.627,3.627,0,0,1-.811-1.2,3.781,3.781,0,0,1-.29-1.479v-.021a3.738,3.738,0,0,1,.294-1.479,3.776,3.776,0,0,1,2.059-2.032,4.265,4.265,0,0,1,3.142,0,3.9,3.9,0,0,1,1.237.81,3.619,3.619,0,0,1,.81,1.2,3.778,3.778,0,0,1,.29,1.479v.021a3.718,3.718,0,0,1-.3,1.479,3.768,3.768,0,0,1-2.058,2.031A4.051,4.051,0,0,1,218.159,159.686Zm.021-1.5a2.218,2.218,0,0,0,.9-.178,2.054,2.054,0,0,0,.7-.5,2.308,2.308,0,0,0,.452-.732,2.4,2.4,0,0,0,.164-.889v-.021a2.445,2.445,0,0,0-.164-.894,2.2,2.2,0,0,0-1.173-1.237,2.162,2.162,0,0,0-.895-.185,2.2,2.2,0,0,0-.9.179,2.054,2.054,0,0,0-.694.495,2.318,2.318,0,0,0-.453.732,2.41,2.41,0,0,0-.163.89v.021a2.443,2.443,0,0,0,.163.895,2.209,2.209,0,0,0,.463.737,2.236,2.236,0,0,0,.705.5A2.146,2.146,0,0,0,218.18,158.191Z" transform="translate(-121.754 -152.064)" fill="#c29fd8"/>
      <path id="Path_9343" data-name="Path 9343" d="M232.733,159.686a4.009,4.009,0,0,1-1.569-.3,3.879,3.879,0,0,1-1.237-.81,3.63,3.63,0,0,1-.812-1.2,3.794,3.794,0,0,1-.289-1.479v-.021a3.726,3.726,0,0,1,.294-1.479,3.776,3.776,0,0,1,2.059-2.032,4.265,4.265,0,0,1,3.142,0,3.9,3.9,0,0,1,1.237.81,3.618,3.618,0,0,1,.81,1.2,3.777,3.777,0,0,1,.29,1.479v.021a3.718,3.718,0,0,1-.3,1.479,3.768,3.768,0,0,1-2.058,2.031A4.051,4.051,0,0,1,232.733,159.686Zm.021-1.5a2.212,2.212,0,0,0,.895-.178,2.05,2.05,0,0,0,.7-.5,2.308,2.308,0,0,0,.452-.732,2.4,2.4,0,0,0,.164-.889v-.021a2.445,2.445,0,0,0-.164-.894,2.2,2.2,0,0,0-1.173-1.237,2.162,2.162,0,0,0-.895-.185,2.2,2.2,0,0,0-.9.179,2.047,2.047,0,0,0-.694.495,2.332,2.332,0,0,0-.454.732,2.424,2.424,0,0,0-.163.89v.021a2.457,2.457,0,0,0,.163.895,2.229,2.229,0,0,0,1.169,1.237A2.151,2.151,0,0,0,232.754,158.191Z" transform="translate(-126.327 -152.064)" fill="#c29fd8"/>
      <path id="Path_9344" data-name="Path 9344" d="M243.876,152.248h3.368a2.9,2.9,0,0,1,2.147.748,2.271,2.271,0,0,1,.632,1.684v.021a2.311,2.311,0,0,1-.436,1.458,2.533,2.533,0,0,1-1.143.826l1.8,2.632h-1.895l-1.579-2.359H245.5v2.359h-1.621Zm3.262,3.579a1.348,1.348,0,0,0,.922-.284.963.963,0,0,0,.321-.758v-.021a.941.941,0,0,0-.337-.789,1.488,1.488,0,0,0-.937-.263H245.5v2.116Z" transform="translate(-131.049 -152.122)" fill="#c29fd8"/>
      <path id="Path_9345" data-name="Path 9345" d="M258.907,159.674a4.887,4.887,0,0,1-1.654-.29,4.37,4.37,0,0,1-1.473-.889l.958-1.148a4.8,4.8,0,0,0,1.037.653,2.778,2.778,0,0,0,1.163.242,1.419,1.419,0,0,0,.784-.185.579.579,0,0,0,.279-.511v-.021a.623.623,0,0,0-.059-.279.582.582,0,0,0-.221-.226,2.331,2.331,0,0,0-.454-.211q-.29-.1-.754-.221a9.048,9.048,0,0,1-1.013-.305,2.825,2.825,0,0,1-.771-.416,1.682,1.682,0,0,1-.491-.616,2.14,2.14,0,0,1-.174-.916v-.021a2.134,2.134,0,0,1,.188-.91,2.071,2.071,0,0,1,.528-.7,2.361,2.361,0,0,1,.812-.453,3.274,3.274,0,0,1,1.041-.158,4.41,4.41,0,0,1,1.489.242,4.344,4.344,0,0,1,1.247.7l-.841,1.221a5.4,5.4,0,0,0-.968-.531,2.483,2.483,0,0,0-.948-.195,1.15,1.15,0,0,0-.71.184.56.56,0,0,0-.237.458v.021a.659.659,0,0,0,.069.311.615.615,0,0,0,.248.237,2.309,2.309,0,0,0,.491.2q.311.095.786.221a7.581,7.581,0,0,1,1,.331,2.8,2.8,0,0,1,.739.442,1.7,1.7,0,0,1,.454.605,2.066,2.066,0,0,1,.153.832v.021a2.279,2.279,0,0,1-.2.974,2,2,0,0,1-.554.716,2.482,2.482,0,0,1-.849.442A3.668,3.668,0,0,1,258.907,159.674Z" transform="translate(-134.785 -152.074)" fill="#c29fd8"/>
    </g>
    <g id="Group_1415" data-name="Group 1415" transform="translate(61.748 125.64)">
      <path id="Path_9346" data-name="Path 9346" d="M79.427,126.732H82.28v5.132H87.54v-5.132h2.853V139.7H87.54v-5.206H82.28V139.7H79.427Z" transform="translate(-79.427 -126.51)" fill="#fff"/>
      <path id="Path_9347" data-name="Path 9347" d="M108.678,139.82a7.07,7.07,0,0,1-2.76-.528,6.861,6.861,0,0,1-2.177-1.426,6.381,6.381,0,0,1-1.426-2.112,6.651,6.651,0,0,1-.51-2.6v-.037a6.545,6.545,0,0,1,.519-2.6,6.632,6.632,0,0,1,3.622-3.576,7.506,7.506,0,0,1,5.53,0,6.86,6.86,0,0,1,2.176,1.427,6.4,6.4,0,0,1,1.427,2.112,6.66,6.66,0,0,1,.508,2.6v.037a6.548,6.548,0,0,1-.518,2.6,6.634,6.634,0,0,1-3.622,3.575A7.136,7.136,0,0,1,108.678,139.82Zm.037-2.631a3.885,3.885,0,0,0,1.575-.315,3.606,3.606,0,0,0,1.232-.87,4.106,4.106,0,0,0,.8-1.288,4.243,4.243,0,0,0,.288-1.565v-.037a4.32,4.32,0,0,0-.288-1.574,3.879,3.879,0,0,0-2.066-2.177,3.8,3.8,0,0,0-1.575-.325,3.878,3.878,0,0,0-1.584.315,3.62,3.62,0,0,0-1.222.871,4.125,4.125,0,0,0-.8,1.287,4.248,4.248,0,0,0-.286,1.565v.037a4.32,4.32,0,0,0,.286,1.575,3.908,3.908,0,0,0,.816,1.3,3.953,3.953,0,0,0,1.241.88A3.783,3.783,0,0,0,108.716,137.189Z" transform="translate(-86.449 -126.408)" fill="#fff"/>
      <path id="Path_9348" data-name="Path 9348" d="M128.287,126.732h3.076l3.408,5.483,3.408-5.483h3.075V139.7H138.44v-8.466l-3.65,5.538h-.074l-3.612-5.483v8.41h-2.816Z" transform="translate(-94.759 -126.51)" fill="#fff"/>
      <path id="Path_9349" data-name="Path 9349" d="M154.419,126.732h9.763v2.538h-6.947V131.9h6.114v2.538h-6.114v2.723h7.04V139.7h-9.856Z" transform="translate(-102.958 -126.51)" fill="#fff"/>
      <path id="Path_9350" data-name="Path 9350" d="M179.439,139.8a8.583,8.583,0,0,1-2.908-.51,7.7,7.7,0,0,1-2.594-1.565l1.686-2.019a8.461,8.461,0,0,0,1.825,1.148,4.866,4.866,0,0,0,2.047.426,2.492,2.492,0,0,0,1.38-.324,1.021,1.021,0,0,0,.491-.9v-.037a1.127,1.127,0,0,0-.1-.491,1.036,1.036,0,0,0-.39-.4,4.1,4.1,0,0,0-.8-.371,13.828,13.828,0,0,0-1.328-.389,16.2,16.2,0,0,1-1.783-.537,5.033,5.033,0,0,1-1.356-.732,2.96,2.96,0,0,1-.863-1.084,3.755,3.755,0,0,1-.307-1.611v-.037a3.757,3.757,0,0,1,.331-1.6,3.648,3.648,0,0,1,.929-1.232,4.171,4.171,0,0,1,1.429-.8,5.744,5.744,0,0,1,1.831-.278,7.757,7.757,0,0,1,2.621.426,7.612,7.612,0,0,1,2.2,1.222l-1.482,2.149a9.371,9.371,0,0,0-1.7-.935,4.351,4.351,0,0,0-1.667-.343,2.017,2.017,0,0,0-1.25.325.985.985,0,0,0-.417.806v.037a1.158,1.158,0,0,0,.121.546,1.087,1.087,0,0,0,.436.417,4.124,4.124,0,0,0,.864.352q.549.167,1.384.389a13.307,13.307,0,0,1,1.755.583,4.927,4.927,0,0,1,1.3.778,2.969,2.969,0,0,1,.8,1.065,3.622,3.622,0,0,1,.27,1.464v.037a4.009,4.009,0,0,1-.35,1.713,3.522,3.522,0,0,1-.975,1.259,4.385,4.385,0,0,1-1.494.778A6.483,6.483,0,0,1,179.439,139.8Z" transform="translate(-109.083 -126.425)" fill="#fff"/>
      <path id="Path_9351" data-name="Path 9351" d="M195.182,126.732h5.3a6.227,6.227,0,0,1,2.084.324,4.432,4.432,0,0,1,1.556.917,4.01,4.01,0,0,1,.981,1.418,4.708,4.708,0,0,1,.343,1.825v.037a4.551,4.551,0,0,1-.408,1.982,4.052,4.052,0,0,1-1.121,1.427,4.859,4.859,0,0,1-1.667.861,7.068,7.068,0,0,1-2.047.288h-2.167v3.89h-2.853Zm5.113,6.539a2.32,2.32,0,0,0,1.668-.565,1.856,1.856,0,0,0,.592-1.4v-.037a1.769,1.769,0,0,0-.62-1.464,2.626,2.626,0,0,0-1.695-.5h-2.2v3.964Z" transform="translate(-115.749 -126.51)" fill="#fff"/>
      <path id="Path_9352" data-name="Path 9352" d="M216.1,126.732h2.853V139.7H216.1Z" transform="translate(-122.314 -126.51)" fill="#fff"/>
      <path id="Path_9353" data-name="Path 9353" d="M227.685,126.732h5.928a5.117,5.117,0,0,1,3.779,1.315,4,4,0,0,1,1.112,2.964v.037a4.066,4.066,0,0,1-.769,2.565,4.45,4.45,0,0,1-2.01,1.455l3.168,4.631h-3.334l-2.779-4.15h-2.241v4.15h-2.853Zm5.743,6.3a2.371,2.371,0,0,0,1.621-.5,1.693,1.693,0,0,0,.565-1.333v-.037a1.655,1.655,0,0,0-.593-1.39,2.618,2.618,0,0,0-1.649-.463h-2.834v3.723Z" transform="translate(-125.948 -126.51)" fill="#fff"/>
      <path id="Path_9354" data-name="Path 9354" d="M249.9,126.732h9.763v2.538h-6.947V131.9h6.113v2.538h-6.113v2.723h7.04V139.7H249.9Z" transform="translate(-132.919 -126.51)" fill="#fff"/>
    </g>
    <g id="Group_1416" data-name="Group 1416" transform="translate(23.085 123.961)">
      <path id="Path_9355" data-name="Path 9355" d="M30.073,125.983h2.062v.745l2.023-.952v-1.816h-6.1v4.691l2.02-.952Z" transform="translate(-24.644 -123.961)" fill="#c29fd8"/>
      <path id="Path_9356" data-name="Path 9356" d="M46.327,149.481l6.043,0v6.661H25.107v-3.6H23.085v5.618H54.392v-10.7l-8.065,0Z" transform="translate(-23.085 -131.334)" fill="#c29fd8"/>
      <path id="Path_9357" data-name="Path 9357" d="M38.74,126.8l-15.655,7.408V143l8.064,0v-2.024H25.107v-5.488l13.633-6.451,13.629,6.451v2.36h2.022v-3.64Z" transform="translate(-23.085 -124.852)" fill="#c29fd8"/>
      <path id="Path_9358" data-name="Path 9358" d="M39.234,141.775v9.443h2.02V147.7h5.1v3.52h2.022v-9.443H46.355v3.9h-5.1v-3.9Z" transform="translate(-28.153 -129.551)" fill="#c29fd8"/>
    </g>
  </g>
</svg>
