<svg id="Layer_1" data-name="Layer 1" xmlns="http://www.w3.org/2000/svg" xmlns:xlink="http://www.w3.org/1999/xlink" viewBox="0 0 634.3811 801.8589"><defs><style>.cls-1{fill:#f3f3f3;}.cls-2{opacity:0.3;}.cls-3{fill:url(#linear-gradient);}.cls-19,.cls-4{opacity:0.6;}.cls-4{fill:url(#linear-gradient-2);}.cls-5{fill:#0c3b5e;}.cls-6{fill:#d3d5d2;}.cls-7{fill:#e6e7e7;}.cls-8{fill:#f6f6f6;}.cls-16,.cls-20,.cls-9{fill:#fff;}.cls-14,.cls-15,.cls-9{opacity:0.03;}.cls-10{fill:#e6e7e8;}.cls-11{opacity:0.34;fill:url(#linear-gradient-3);}.cls-12{fill:none;stroke:#f6f6f6;stroke-miterlimit:10;stroke-width:1.1049px;}.cls-13{fill:#f3f4f4;}.cls-14{fill:url(#linear-gradient-4);}.cls-15{fill:url(#linear-gradient-5);}.cls-16{opacity:0.18;}.cls-17{fill:#a7a9ac;}.cls-18{fill:#939598;}.cls-19{fill:url(#linear-gradient-6);}.cls-21{fill:#414142;opacity:0.2;}</style><linearGradient id="linear-gradient" x1="143.1055" y1="416.4523" x2="495.7974" y2="416.4523" gradientUnits="userSpaceOnUse"><stop offset="0" stop-color="#d5d9d3"/><stop offset="0.2086" stop-color="#e9ebe4"/><stop offset="0.816" stop-color="#e6eae6"/><stop offset="1" stop-color="#d5d9d3"/></linearGradient><linearGradient id="linear-gradient-2" x1="169.7901" y1="416.4523" x2="472.1151" y2="416.4523" xlink:href="#linear-gradient"/><linearGradient id="linear-gradient-3" x1="229.1323" y1="612.7869" x2="405.2488" y2="612.7869" xlink:href="#linear-gradient"/><linearGradient id="linear-gradient-4" x1="50.7773" y1="410.5895" x2="123.6937" y2="410.5895" xlink:href="#linear-gradient"/><linearGradient id="linear-gradient-5" x1="511.4903" y1="410.5895" x2="584.4067" y2="410.5895" xlink:href="#linear-gradient"/><linearGradient id="linear-gradient-6" x1="0.0037" y1="400.9414" x2="634.3733" y2="400.9414" xlink:href="#linear-gradient"/></defs><path class="cls-1" d="M146.1079,33.2424v766.42H495.7974V33.2424ZM460.595,71.2005V761.7042H174.7258V71.2005Z"/><g class="cls-2"><path class="cls-3" d="M270.8064,33.2424H143.1055v766.42H495.7974V33.2424H270.8064M460.595,71.2005V761.7042H174.7258V71.2005Z"/></g><path class="cls-1" d="M164.8545,52V780.9156H477.0508V52Zm295.7405,19.2V761.7042H174.7258V71.2005Z"/><path class="cls-1" d="M164.8545,52V780.9156H477.0508V52Zm295.7405,19.2V761.7042H174.7258V71.2005Z"/><path class="cls-1" d="M169.79,56.9247V775.98h302.325V56.9247Zm4.9357,14.2758H460.595V761.7042H174.7258Z"/><path class="cls-4" d="M169.79,56.9247V775.98h302.325V56.9247Zm4.9357,14.2758H460.595V761.7042H174.7258Z"/><polygon class="cls-5" points="467.18 61.86 467.18 771.044 174.726 771.044 174.726 761.704 460.595 761.704 460.595 71.2 174.726 71.2 174.726 61.86 467.18 61.86"/><rect class="cls-6" x="174.7283" y="766.3759" width="292.4512" height="4.6668"/><rect class="cls-7" x="174.7258" y="761.7042" width="292.4538" height="4.67"/><rect class="cls-6" x="174.7283" y="61.8662" width="292.4512" height="4.6668" transform="translate(641.9078 128.3992) rotate(-180)"/><rect class="cls-7" x="174.7258" y="66.5304" width="292.4538" height="4.67"/><rect class="cls-6" x="113.1995" y="414.7293" width="704.6651" height="3.295" transform="translate(881.9088 -49.1553) rotate(90)"/><rect class="cls-7" x="460.595" y="66.4529" width="3.2867" height="699.855"/><path class="cls-8" d="M607.0079,33.2479h-111.21V780.9156h111.21V33.2479H620.496m-35.0893,28.06V760.2543H512.49V61.3077Z"/><path class="cls-8" d="M406.25,70.1668v1.04H229.13v-1.04H174.79V766.3079h285.8V70.1668Zm0,393.6092H229.13V118.3543H406.25Z"/><polygon class="cls-9" points="229.132 460.287 229.132 118.354 405.249 118.354 229.132 460.287"/><rect class="cls-10" x="28.1458" y="780.9156" width="573.7979" height="18.7488"/><path class="cls-8" d="M146.295,33.2479H33.0844V780.9156H146.295V33.2479h13.488m-34.0885,28.06V761.2551H51.7773V61.3077Z"/><rect class="cls-11" x="229.1323" y="493.0816" width="176.1165" height="239.4106"/><line class="cls-12" x1="229.1323" y1="493.0816" x2="257.749" y2="525.4344"/><line class="cls-12" x1="405.6301" y1="493.0816" x2="377.0134" y2="525.4344"/><line class="cls-12" x1="229.1323" y1="732.4921" x2="257.749" y2="700.1394"/><line class="cls-12" x1="405.6301" y1="732.4921" x2="377.0134" y2="700.1394"/><rect class="cls-13" x="257.749" y="525.4344" width="119.2644" height="174.705"/><polygon class="cls-14" points="50.777 760.254 50.777 60.925 123.694 60.925 50.777 760.254"/><polygon class="cls-15" points="511.49 760.254 511.49 60.925 584.407 60.925 511.49 760.254"/><rect class="cls-16" x="511.4907" y="56.4653" width="74.9172" height="704.7898"/><rect class="cls-17" x="190.7973" y="424.6707" width="18.0418" height="85.7837" rx="2.3009" transform="translate(399.6365 935.1251) rotate(180)"/><ellipse class="cls-18" cx="199.9772" cy="477.272" rx="13.7636" ry="13.5452"/><circle class="cls-17" cx="199.7588" cy="475.7592" r="13.5452"/><path class="cls-13" d="M.0037.0238V801.8589h634.37V.0238Zm601.15,791.1681H33.2937V33.2235h463.55v.02h104.31Z"/><path class="cls-19" d="M.0037.0238V801.8589h634.37V.0238Zm601.15,791.1681H33.2937V33.2235h463.55v.02h104.31Z"/><polygon class="cls-20" points="33.272 33.198 33.226 33.244 32.301 33.241 0.002 0.926 0 0 0.988 0 33.27 32.272 33.272 33.198"/><polygon class="cls-21" points="33.249 33.221 0 0 0.988 0 33.294 32.296 33.249 33.221"/><polygon class="cls-20" points="601.109 33.198 601.155 33.244 602.08 33.241 634.379 0.926 634.381 0 633.393 0 601.111 32.272 601.109 33.198"/><polygon class="cls-21" points="601.132 33.221 634.381 0 633.393 0 601.087 32.296 601.132 33.221"/><polygon class="cls-20" points="601.157 33.243 601.845 129.046 601.843 224.849 601.843 416.454 601.843 608.059 601.843 703.862 601.157 799.665 600.472 703.862 600.472 608.059 600.472 416.454 600.472 224.849 600.47 129.046 601.157 33.243"/><rect class="cls-16" x="50.7773" y="56.4653" width="74.9172" height="704.7898"/><rect class="cls-16" x="229.1301" y="116.2605" width="177.1201" height="347.5155"/></svg>