<svg id="Layer_1" data-name="Layer 1" xmlns="http://www.w3.org/2000/svg" xmlns:xlink="http://www.w3.org/1999/xlink" viewBox="0 0 230.33 131.19"><defs><style>.cls-1,.cls-26{fill:#fff;}.cls-16,.cls-18,.cls-19,.cls-2,.cls-21,.cls-23,.cls-24,.cls-7,.cls-8{opacity:0.6;}.cls-2{fill:url(#linear-gradient);}.cls-10,.cls-12,.cls-13,.cls-3{fill:#414142;}.cls-12,.cls-3{opacity:0.2;}.cls-4{fill:#0c3b5e;}.cls-5{fill:url(#linear-gradient-2);}.cls-6{fill:#f3f3f3;}.cls-7{fill:url(#linear-gradient-3);}.cls-8{fill:url(#linear-gradient-4);}.cls-13,.cls-9{opacity:0.05;}.cls-11{fill:#6e6f71;}.cls-12{stroke:#6e6f71;stroke-miterlimit:10;stroke-width:0.11px;}.cls-14{fill:#d3d5d2;}.cls-15{fill:url(#linear-gradient-5);}.cls-16{fill:url(#linear-gradient-6);}.cls-17{fill:url(#linear-gradient-7);}.cls-18{fill:url(#linear-gradient-8);}.cls-19{fill:url(#linear-gradient-9);}.cls-20{fill:url(#linear-gradient-10);}.cls-21{fill:url(#linear-gradient-11);}.cls-22{fill:url(#linear-gradient-12);}.cls-23{fill:url(#linear-gradient-13);}.cls-24{fill:url(#linear-gradient-14);}.cls-25{fill:url(#linear-gradient-15);}.cls-26{opacity:0.03;}</style><linearGradient id="linear-gradient" x1="44.35" y1="65.6" x2="185.34" y2="65.6" gradientUnits="userSpaceOnUse"><stop offset="0" stop-color="#d5d9d3"/><stop offset="0.21" stop-color="#e9ebe4"/><stop offset="0.82" stop-color="#e6eae6"/><stop offset="1" stop-color="#d5d9d3"/></linearGradient><linearGradient id="linear-gradient-2" x1="49.58" y1="65.6" x2="180.03" y2="65.6" gradientUnits="userSpaceOnUse"><stop offset="0" stop-color="#e5e9e6"/><stop offset="0.48" stop-color="#f1f4f4"/><stop offset="1" stop-color="#e5e9e6"/></linearGradient><linearGradient id="linear-gradient-3" x1="51.17" y1="65.6" x2="180.24" y2="65.6" xlink:href="#linear-gradient"/><linearGradient id="linear-gradient-4" x1="54.99" y1="65.6" x2="174.87" y2="65.6" xlink:href="#linear-gradient"/><linearGradient id="linear-gradient-5" x1="1751.37" y1="-1635.05" x2="1872.08" y2="-1635.05" gradientTransform="translate(1814.14 1877.32) rotate(-90)" gradientUnits="userSpaceOnUse"><stop offset="0" stop-color="#d5d9d3"/><stop offset="0.51" stop-color="#d0d4d1"/><stop offset="1" stop-color="#d5d9d3"/></linearGradient><linearGradient id="linear-gradient-6" x1="0" y1="65.59" x2="44.99" y2="65.59" xlink:href="#linear-gradient"/><linearGradient id="linear-gradient-7" x1="2.44" y1="65.59" x2="41.17" y2="65.59" xlink:href="#linear-gradient-2"/><linearGradient id="linear-gradient-8" x1="3.2" y1="65.59" x2="41.32" y2="65.59" xlink:href="#linear-gradient"/><linearGradient id="linear-gradient-9" x1="5.04" y1="65.59" x2="37.59" y2="65.59" xlink:href="#linear-gradient"/><linearGradient id="linear-gradient-10" x1="1752.39" y1="-1773.05" x2="1871.07" y2="-1773.05" xlink:href="#linear-gradient-5"/><linearGradient id="linear-gradient-11" x1="185.34" y1="65.59" x2="230.33" y2="65.59" xlink:href="#linear-gradient"/><linearGradient id="linear-gradient-12" x1="189.16" y1="65.59" x2="227.89" y2="65.59" xlink:href="#linear-gradient-2"/><linearGradient id="linear-gradient-13" x1="189.01" y1="65.59" x2="227.13" y2="65.59" xlink:href="#linear-gradient"/><linearGradient id="linear-gradient-14" x1="192.74" y1="65.59" x2="225.29" y2="65.59" xlink:href="#linear-gradient"/><linearGradient id="linear-gradient-15" x1="1752.39" y1="5975.58" x2="1871.07" y2="5975.58" gradientTransform="matrix(0, -1, -1, 0, 6164.82, 1877.32)" xlink:href="#linear-gradient-5"/></defs><path class="cls-1" d="M44.35,0V131.19h141V0ZM174.1,119.94H55.75V11.26H174.1Z"/><path class="cls-2" d="M44.35,0V131.19h141V0ZM174.1,119.94H55.75V11.26H174.1Z"/><polygon class="cls-1" points="49.58 125.95 49.58 125.96 49.58 126.1 44.49 131.19 44.35 131.19 44.35 131.04 49.43 125.95 49.58 125.95"/><polygon class="cls-3" points="49.58 125.95 44.35 131.19 44.35 131.04 49.43 125.95 49.58 125.95"/><polygon class="cls-1" points="49.59 5.24 49.58 5.24 49.43 5.24 44.35 0.15 44.35 0.01 44.5 0.01 49.59 5.09 49.59 5.24"/><polygon class="cls-3" points="49.58 5.24 44.35 0.01 44.5 0.01 49.59 5.09 49.58 5.24"/><polygon class="cls-1" points="180.11 125.95 180.1 125.96 180.1 126.1 185.19 131.19 185.34 131.19 185.34 131.04 180.26 125.95 180.11 125.95"/><polygon class="cls-3" points="180.11 125.95 185.34 131.19 185.34 131.04 180.25 125.95 180.11 125.95"/><polygon class="cls-1" points="180.1 5.24 180.11 5.24 180.25 5.24 185.34 0.15 185.34 0.01 185.19 0.01 180.1 5.09 180.1 5.24"/><polygon class="cls-3" points="180.1 5.24 185.34 0.01 185.19 0.01 180.1 5.09 180.1 5.24"/><path class="cls-4" d="M49.58,5.24V126H180.24V5.24ZM174.1,119.94H55.75V11.26H174.1Z"/><path class="cls-5" d="M49.58,5.24V126H180V5.24ZM174.1,119.94H55.75V11.26H174.1Z"/><path class="cls-6" d="M49.58,5.24V126H180.24V5.24ZM174.1,119.94H55.75V11.26H174.1Z"/><path class="cls-6" d="M51.17,6.76V124.44H180.24V6.76ZM174.1,119.94H55.75V11.26H174.1Z"/><path class="cls-7" d="M51.17,6.76V124.44H180.24V6.76ZM174.1,119.94H55.75V11.26H174.1Z"/><path class="cls-6" d="M54.22,9.71V121.49H175.63V9.71ZM174.1,119.94H55.75V11.26H174.1Z"/><path class="cls-6" d="M54.22,9.71V121.49H175.63V9.71ZM174.1,119.94H55.75V11.26H174.1Z"/><path class="cls-6" d="M55,10.49V120.71H174.83V10.49Zm.73,109.45V11.26H174.1V119.94Z"/><path class="cls-8" d="M55,10.49V120.71H174.87V10.49Zm.76,109.45V11.26H174.1V119.94Z"/><g class="cls-9"><path class="cls-10" d="M49.58,125.9,49.63,5.24l130.61.06-.05,120.6Zm6.12-6,118.4,0,.06-108.73-118.46,0Z"/><path class="cls-11" d="M180.13,5.35v120.5H49.69V5.35H180.13M55.64,120H174.21V11.15H55.64V120M180.24,5.24H49.58V126H180.24V5.24ZM55.75,119.94V11.26H174.1V119.94Z"/></g><polygon class="cls-12" points="49.58 125.96 49.58 124.39 177.94 124.39 180.24 125.96 49.58 125.96"/><polygon class="cls-13" points="49.58 6.81 49.58 5.24 180.24 5.24 177.94 6.81 49.58 6.81"/><polygon class="cls-14" points="49.6 5.24 51.17 6.89 51.17 124.31 49.6 125.96 49.6 5.24"/><polygon class="cls-15" points="177.94 124.39 177.94 6.81 180.24 5.24 180.24 125.96 177.94 124.39"/><rect class="cls-4" x="174.1" y="11.26" width="0.1" height="108.67"/><g class="cls-9"><path class="cls-10" d="M49.58,125.9,49.63,5.24l130.61.06-.05,120.6Zm6.12-6,118.4,0,.06-108.73-118.46,0Z"/><path class="cls-11" d="M180.13,5.35v120.5H49.69V5.35H180.13M55.64,120H174.21V11.15H55.64V120M180.24,5.24H49.58V126H180.24V5.24ZM55.75,119.94V11.26H174.1V119.94Z"/></g><path class="cls-1" d="M45,0h0l-.08,0-.27.08-.12,0-.11,0h0L.07,13.53l-.07,0H0V117.63H0l.07,0L44.35,131h0l.12,0,.11,0,.27.08.11,0h0V0ZM5.42,21.13l21.43-5.35,10.22-2.55V118l-31.65-7.9Z"/><path class="cls-16" d="M45,0h0l-.08,0-.27.08-.12,0-.11,0h0L.07,13.53l-.07,0H0V117.63H0l.07,0L44.35,131h0l.12,0,.11,0,.27.08.11,0h0V0ZM5.42,21.13l21.43-5.35,10.22-2.55V118l-31.65-7.9Z"/><path class="cls-17" d="M2.45,17h0v97.13h0l38.72,10.73V6.29Zm3,4.11,21.43-5.35,10.22-2.55V118l-31.65-7.9Z"/><path class="cls-6" d="M41.23,6.28h-.06L2.45,17h0v97.13h0l38.72,10.73.06,0h0l.09,0V6.25ZM5.42,21.13l21.43-5.35,10.22-2.55V118l-31.65-7.9Z"/><path class="cls-6" d="M41.17,7.78l-.25.07h0l-37.09,10L3.2,18v95.11l.58.15,36.76,9.94.32.08.31.09.15,0V7.74Zm-14.32,8,10.22-2.55V118l-31.65-7.9V21.13Z"/><path class="cls-18" d="M41.17,7.78l-.25.07h0l-37.09,10L3.2,18v95.11l.58.15,36.76,9.94.32.08.31.09.15,0V7.74Zm-14.32,8,10.22-2.55V118l-31.65-7.9V21.13Z"/><path class="cls-6" d="M4.67,20.05v91.09l33.44,8.58V11.47Zm22.18-4.27,10.22-2.55V118l-31.65-7.9V21.13Z"/><path class="cls-6" d="M4.67,20.05v91.09l33.44,8.58V11.47Zm22.18-4.27,10.22-2.55V118l-31.65-7.9V21.13Z"/><path class="cls-6" d="M5.06,20.58v90l32.5,8.23V12.36Zm.36,89.48V21.13l21.43-5.35,10.22-2.55V118Z"/><path class="cls-19" d="M5.06,20.58H5v90h0l32.5,8.23h0V12.35Zm.36,89.48V21.13l21.43-5.35,10.22-2.55V118Z"/><g class="cls-9"><path class="cls-10" d="M2.46,114.11,2.5,17,41.19,6.35l.08-.1V124.87Zm2.94-93,0,89,31.7,8,.06-104.85Z"/><path class="cls-11" d="M41.22,6.39v118.4h0L2.55,114.08v-97L41.2,6.4h0m-4,111.7v-105l-.14,0L26.83,15.68,5.39,21l-.08,0v89.09l.08,0L37,118.06l.14,0M41.32,6.25l-.09,0h-.06L2.45,17h0v97.13h0l38.72,10.73.06,0h0l.09,0V6.25ZM37.07,118l-31.65-7.9V21.13l21.43-5.35,10.22-2.55V118Z"/></g><polygon class="cls-3" points="2.44 114.16 2.44 112.9 40.86 123.32 41.32 124.94 2.44 114.16"/><polygon class="cls-13" points="2.44 18.29 2.44 17.03 41.32 6.25 40.92 7.85 2.44 18.29"/><polygon class="cls-14" points="2.45 17.02 3.83 17.86 3.83 113.27 2.45 114.16 2.45 17.02"/><polygon class="cls-1" points="2.44 114.16 2.45 114.16 2.45 114.28 0.07 117.66 0 117.64 0 117.51 2.37 114.14 2.44 114.16"/><polygon class="cls-3" points="2.44 114.16 0 117.64 0 117.51 2.38 114.13 2.44 114.16"/><polygon class="cls-1" points="2.45 17.02 2.44 17.03 2.38 17.05 0 13.67 0 13.55 0.07 13.53 2.45 16.9 2.45 17.02"/><polygon class="cls-3" points="2.45 17.02 0 13.55 0.07 13.53 2.45 16.91 2.45 17.02"/><polygon class="cls-1" points="41.23 124.9 41.23 124.91 41.23 125.05 44.88 131.15 44.99 131.19 44.99 131.03 41.34 124.93 41.23 124.9"/><polygon class="cls-3" points="41.23 124.91 44.99 131.19 44.99 131.03 41.33 124.93 41.23 124.91"/><polygon class="cls-1" points="41.23 6.27 41.23 6.28 41.33 6.25 44.99 0.15 44.99 0 44.88 0.03 41.23 6.13 41.23 6.27"/><polygon class="cls-3" points="41.23 6.28 44.99 0 44.88 0.03 41.22 6.13 41.23 6.28"/><polygon class="cls-20" points="40.86 123.32 40.92 7.85 41.32 6.25 41.32 124.94 40.86 123.32"/><polygon class="cls-4" points="5.42 21.13 26.85 15.78 5.42 21.13 5.42 21.13"/><polygon class="cls-4" points="37.14 13.22 37.14 117.97 37.07 117.96 37.07 13.23 37.14 13.22"/><g class="cls-9"><path class="cls-10" d="M2.46,114.11,2.5,17,41.19,6.35l.08-.1V124.87Zm2.94-93,0,89,31.7,8,.06-104.85Z"/><path class="cls-11" d="M41.22,6.39v118.4h0L2.55,114.08v-97L41.2,6.4h0m-4,111.7v-105l-.14,0L26.83,15.68,5.39,21l-.08,0v89.09l.08,0L37,118.06l.14,0M41.32,6.25l-.09,0h-.06L2.45,17h0v97.13h0l38.72,10.73.06,0h0l.09,0V6.25ZM37.07,118l-31.65-7.9V21.13l21.43-5.35,10.22-2.55V118Z"/></g><path class="cls-1" d="M230.33,13.55l-.07,0L185.46,0l-.12,0h0V131.18h0l.11,0,44.81-13.49.07,0h0V13.55Zm-37.07-.32,5.87,1.47,25.79,6.43v88.93L193.26,118Z"/><path class="cls-21" d="M230.33,13.55l-.07,0L185.46,0l-.12,0h0V131.18h0l.11,0,44.81-13.49.07,0h0V13.55Zm-37.07-.32,5.87,1.47,25.79,6.43v88.93L193.26,118Z"/><path class="cls-22" d="M227.88,17,189.16,6.29v118.6l38.72-10.73h0V17Zm-34.62-3.79,5.87,1.47,25.79,6.43v88.93L193.26,118Z"/><path class="cls-6" d="M227.88,17,189.16,6.29h-.06l-.09,0V124.94l.09,0h0l.06,0,38.72-10.73h0V17Zm-34.62-3.79,5.87,1.47,25.79,6.43v88.93L193.26,118Z"/><path class="cls-6" d="M226.5,17.87l-37.09-10h0l-.25-.07-.15,0V123.45l.15,0,.32-.09.31-.08,36.76-9.94.58-.15V18Zm-33.24-4.64,5.87,1.47,25.79,6.43v88.93L193.26,118Z"/><path class="cls-23" d="M226.5,17.87l-37.09-10h0l-.25-.07-.15,0V123.45l.15,0,.32-.09.31-.08,36.76-9.94.58-.15V18Zm-33.24-4.64,5.87,1.47,25.79,6.43v88.93L193.26,118Z"/><path class="cls-6" d="M192.22,11.47V119.72l33.44-8.58V20.05Zm32.7,9.66v88.93L193.26,118V13.23l5.87,1.47Z"/><path class="cls-6" d="M192.22,11.47V119.72l33.44-8.58V20.05Zm32.7,9.66v88.93L193.26,118V13.23l5.87,1.47Z"/><path class="cls-6" d="M192.77,12.36V118.83l32.5-8.23v-90Zm32.15,97.7L193.26,118V13.23l5.87,1.47,25.79,6.43Z"/><path class="cls-24" d="M225.27,20.58l-32.53-8.23V118.84h0l32.5-8.23h0v-90Zm-.35,89.48L193.26,118V13.23l5.87,1.47,25.79,6.43Z"/><g class="cls-9"><path class="cls-10" d="M189.06,6.25l.09.1,38.71,10.73,0,97.08-38.68,10.68-.09.1ZM193.21,118l31.72-7.85,0-89-25.83-6.48-5.93-1.49Z"/><path class="cls-11" d="M189.12,6.39h0l38.65,10.71v97l-38.65,10.71h0V6.39m4,111.7.14,0,31.65-7.9.08,0V21.05l-.08,0-25.78-6.44-5.87-1.46-.14,0v105M189,6.25V124.94l.09,0h0l.06,0,38.72-10.73h0V17h0L189.16,6.29h-.06l-.09,0ZM193.26,118V13.23l5.87,1.47,25.79,6.43v88.93L193.26,118Z"/></g><polygon class="cls-3" points="227.89 114.16 227.89 112.9 189.47 123.32 189.01 124.94 227.89 114.16"/><polygon class="cls-13" points="227.89 18.29 227.89 17.03 189.01 6.25 189.41 7.85 227.89 18.29"/><polygon class="cls-14" points="227.88 17.02 226.5 17.86 226.5 113.27 227.88 114.16 227.88 17.02"/><polygon class="cls-1" points="227.89 114.16 227.89 114.16 227.89 114.28 230.26 117.66 230.33 117.64 230.33 117.51 227.96 114.14 227.89 114.16"/><polygon class="cls-3" points="227.89 114.16 230.33 117.64 230.33 117.51 227.96 114.13 227.89 114.16"/><polygon class="cls-1" points="227.88 17.02 227.89 17.03 227.96 17.05 230.33 13.67 230.33 13.55 230.26 13.53 227.88 16.9 227.88 17.02"/><polygon class="cls-3" points="227.89 17.02 230.33 13.55 230.26 13.53 227.88 16.91 227.89 17.02"/><polygon class="cls-1" points="189.1 124.9 189.1 124.91 189.1 125.05 185.45 131.15 185.34 131.19 185.34 131.03 189 124.93 189.1 124.9"/><polygon class="cls-3" points="189.1 124.91 185.34 131.19 185.34 131.03 189 124.93 189.1 124.91"/><polygon class="cls-1" points="189.11 6.27 189.1 6.28 189 6.25 185.34 0.15 185.34 0 185.46 0.03 189.11 6.13 189.11 6.27"/><polygon class="cls-3" points="189.1 6.28 185.34 0 185.46 0.03 189.11 6.13 189.1 6.28"/><polygon class="cls-25" points="189.47 123.32 189.41 7.85 189.01 6.25 189.01 124.94 189.47 123.32"/><polygon class="cls-4" points="193.2 13.22 193.26 13.23 193.26 117.96 193.2 117.97 193.2 13.22"/><polygon class="cls-4" points="224.92 21.13 224.92 21.13 199.13 14.7 224.92 21.13"/><g class="cls-9"><path class="cls-10" d="M189.06,6.25l.09.1,38.71,10.73,0,97.08-38.68,10.68-.09.1ZM193.21,118l31.72-7.85,0-89-25.83-6.48-5.93-1.49Z"/><path class="cls-11" d="M189.12,6.39h0l38.65,10.71v97l-38.65,10.71h0V6.39m4,111.7.14,0,31.65-7.9.08,0V21.05l-.08,0-25.78-6.44-5.87-1.46-.14,0v105M189,6.25V124.94l.09,0h0l.06,0,38.72-10.73h0V17h0L189.16,6.29h-.06l-.09,0ZM193.26,118V13.23l5.87,1.47,25.79,6.43v88.93L193.26,118Z"/></g><polygon class="cls-26" points="55.75 119.94 55.75 11.26 174.38 11.26 55.75 119.94"/><polygon class="cls-26" points="5.42 110.06 5.42 21.13 37.26 13.19 5.42 110.06"/><polygon class="cls-26" points="224.92 110.06 224.92 21.13 193.07 13.19 224.92 110.06"/></svg>