<svg xmlns="http://www.w3.org/2000/svg" width="313.063" height="269.197" viewBox="0 0 313.063 269.197">
  <g id="Group_1897" data-name="Group 1897" transform="translate(-136.294 -4436.538)">
    <g id="quote" transform="translate(139.294 4439.539)">
      <g id="Path_9635" data-name="Path 9635" transform="translate(0 -29.235)" fill="none">
        <path d="M0,160.834v131.6H131.6v-131.6H43.866A87.833,87.833,0,0,1,131.6,73.1V29.235A131.742,131.742,0,0,0,0,160.834Z" stroke="none"/>
        <path d="M 131.5984954833984 292.4320373535156 L 131.5984954833984 160.8336334228516 L 43.86641693115234 160.8336334228516 C 43.86641693115234 112.4590301513672 83.22395324707031 73.10141754150391 131.5984954833984 73.10141754150391 L 131.5984954833984 29.23502731323242 C 59.03070449829102 29.23502731323242 -9.88769534160383e-06 88.26573944091797 -9.88769534160383e-06 160.8336334228516 L -9.88769534160383e-06 160.8335266113281 L -9.88769534160383e-06 292.4320373535156 L 131.5984954833984 292.4320373535156 M -9.88769534160383e-06 160.8336334228516 L -9.88769534160383e-06 160.8335266113281 M 134.5984954833984 295.4320373535156 L 131.5984954833984 295.4320373535156 L -9.88769534160383e-06 295.4320373535156 L -3.000009775161743 295.4320373535156 L -3.000009775161743 292.4320373535156 L -3.000009775161743 160.8335266113281 C -3.000009775161743 86.61570739746094 57.38063430786133 26.23502731323242 131.5984954833984 26.23502731323242 L 134.5984954833984 26.23502731323242 L 134.5984954833984 29.23502731323242 L 134.5984954833984 73.10141754150391 L 134.5984954833984 76.10141754150391 L 131.5984954833984 76.10141754150391 C 85.88084411621094 76.10141754150391 48.50374603271484 112.4953994750977 46.91880035400391 157.8336334228516 L 131.5984954833984 157.8336334228516 L 134.5984954833984 157.8336334228516 L 134.5984954833984 160.8336334228516 L 134.5984954833984 292.4320373535156 L 134.5984954833984 295.4320373535156 Z" stroke="none" fill="#b2c3d0"/>
      </g>
      <g id="Path_9636" data-name="Path 9636" transform="translate(-58.418 -29.235)" fill="none">
        <path d="M365.48,73.1V29.235a131.742,131.742,0,0,0-131.6,131.6v131.6h131.6v-131.6H277.749A87.833,87.833,0,0,1,365.48,73.1Z" stroke="none"/>
        <path d="M 365.4803466796875 29.2349853515625 C 292.912841796875 29.2349853515625 233.8818969726563 88.26576232910156 233.8818969726563 160.8335418701172 L 233.8818969726563 292.4320678710938 L 365.4803466796875 292.4320678710938 L 365.4803466796875 160.8335418701172 L 277.7485046386719 160.8335418701172 C 277.7485046386719 112.4589691162109 317.1060485839844 73.1014404296875 365.4803466796875 73.1014404296875 L 365.4803466796875 29.2349853515625 M 365.4803466796875 26.2349853515625 L 368.4803466796875 26.2349853515625 L 368.4803466796875 29.2349853515625 L 368.4803466796875 73.1014404296875 L 368.4803466796875 76.1014404296875 L 365.4803466796875 76.1014404296875 C 319.7628173828125 76.1014404296875 282.3858337402344 112.4953765869141 280.8009033203125 157.8335418701172 L 365.4803466796875 157.8335418701172 L 368.4803466796875 157.8335418701172 L 368.4803466796875 160.8335418701172 L 368.4803466796875 292.4320678710938 L 368.4803466796875 295.4320678710938 L 365.4803466796875 295.4320678710938 L 233.8818969726563 295.4320678710938 L 230.8818969726563 295.4320678710938 L 230.8818969726563 292.4320678710938 L 230.8818969726563 160.8335418701172 C 230.8818969726563 86.61564636230469 291.2625122070313 26.2349853515625 365.4803466796875 26.2349853515625 Z" stroke="none" fill="#b2c3d0"/>
      </g>
    </g>
  </g>
</svg>
